<?xml version="1.0" encoding="utf-8"?>
<!-- Generator: Adobe Illustrator 17.0.0, SVG Export Plug-In . SVG Version: 6.00 Build 0)  -->
<!DOCTYPE svg PUBLIC "-//W3C//DTD SVG 1.0//EN" "http://www.w3.org/TR/2001/REC-SVG-20010904/DTD/svg10.dtd">
<svg version="1.0" id="Calque_1" xmlns="http://www.w3.org/2000/svg" xmlns:xlink="http://www.w3.org/1999/xlink" x="0px" y="0px"
	 width="1499.706px" height="1577px" viewBox="0 0 1499.706 1577" enable-background="new 0 0 1499.706 1577" xml:space="preserve">
<g>
	<path d="M927.18,378.305c0.28-4.226,0.49-8.452,0.49-12.725c0-104.814-84.967-189.757-189.757-189.757
		S548.156,260.767,548.156,365.58c0,4.273,0.187,8.522,0.467,12.725h-6.841v281.169h12.515V413.586
		c15.784,60.451,60.591,109.18,118.683,130.334v115.554h12.515V547.936c16.648,4.787,34.23,7.378,52.419,7.378
		c18.142,0,35.654-2.568,52.278-7.332v111.491h12.515V543.967v-78.75h6.258v76.298c55.057-22.252,97.155-69.58,112.425-127.812
		v245.771h12.515V378.305H927.18z"/>
</g>
<polygon fill="#FFFFFF" stroke="#181716" stroke-miterlimit="10" points="1394.615,1138.759 733.369,1520.17 733.369,505.437 
	1394.615,124.027 "/>
<polygon fill="#FFFFFF" stroke="#181716" stroke-miterlimit="10" points="116.445,1164.286 733.369,1520.17 733.369,505.437 
	116.445,149.553 "/>
<g>
	<g>
		<g>
			<path fill="#181716" d="M791.524,579.025c7.211-4.163,16.651-7.335,21.608-6.78l0.318,23.163l-2.003,1.157
				c-3.026-14.537-10.05-19.021-19.969-13.294c-8.109,4.682-13.763,12.274-13.654,20.177c0.107,7.801,4.867,8.698,10.211,8.456
				l10.694-0.479c11.195-0.541,19.596,0.877,19.765,13.191c0.203,14.807-12.169,32.54-27.192,41.214
				c-9.815,5.667-18.368,7.981-24.225,7.835l-0.378-27.573l2.003-1.156c3.093,19.4,10.621,23.6,22.543,16.716
				c8.814-5.089,16.055-14.171,15.916-24.341c-0.105-7.685-5.568-8.514-13.64-8.182l-8.976,0.398
				c-10.694,0.48-17.51-3.103-17.661-14.068C766.706,602.466,777.502,587.12,791.524,579.025z"/>
		</g>
		<g>
			<path fill="#181716" d="M861.609,588.45l-8.316,4.801l0.254,18.533c0.16,11.636,0.38,12.993,11.119,8.153l0.028,2.041
				l-34.557,19.952l-0.028-2.041c9.7-6.96,9.88-8.548,9.72-20.184l-0.672-48.935c-0.16-11.636-0.38-12.993-10.117-8.738
				l-0.028-2.034l12.82-7.402c4.911-2.835,16.023-9.361,19.132-11.156c18.526-10.696,32.926-13.087,33.168,4.542
				C894.373,563.611,880.134,577.754,861.609,588.45z M852.703,550.31l0.534,38.874l7.211-4.163
				c11.515-6.648,18.656-15.9,18.459-30.248c-0.197-14.356-7.478-15.274-18.993-8.626L852.703,550.31"/>
		</g>
		<g>
			<path fill="#181716" d="M943.754,491.481c19.631-11.334,38.361-7.12,38.744,20.796c0.383,27.909-17.938,53.522-37.569,64.855
				c-19.631,11.334-38.361,7.113-38.744-20.796C905.802,528.419,924.123,502.814,943.754,491.481z M944.872,572.947
				c13.822-7.98,22.633-27.984,22.305-51.825c-0.327-23.848-9.544-33.444-23.366-25.464s-22.632,27.984-22.305,51.832
				C921.833,571.331,931.05,580.927,944.872,572.947"/>
		</g>
		<g>
			<path fill="#181716" d="M1067.675,422.205l0.028,2.034c-9.693,6.963-9.874,8.551-9.714,20.188l0.434,31.642
				c0.337,24.526-9.635,41.1-27.56,51.449c-19.934,11.509-29.509,5.309-29.796-15.601l-0.47-34.237
				c-0.16-11.643-0.375-13.114-10.112-8.859l-0.028-2.034l33.549-19.37l0.028,2.034c-9.693,6.963-9.875,8.435-9.712,20.304
				l0.448,32.655c0.244,17.745,5.685,24.62,19.306,16.755c14.726-8.502,19.574-23.029,19.639-40.152l-0.438-31.868
				c-0.16-11.636-0.38-12.993-10.111-8.742l-0.028-2.034L1067.675,422.205z"/>
		</g>
		<g>
			<path fill="#181716" d="M1143.582,378.042l3.419,28.434l-2.1,1.212c-5.159-15.245-11.175-19.856-25.197-11.76l-2.501,1.444
				l0.847,61.701c0.155,11.301,0.581,12.877,11.209,8.101l0.028,2.041l-35.753,20.642l-0.028-2.041
				c10.598-7.478,10.974-9.518,10.819-20.818l-0.847-61.701l-2.501,1.444c-14.022,8.095-19.824,19.529-24.584,40.501l-2.003,1.157
				l2.591-31.904c7.72-4.119,17.031-9.495,23.945-13.487l18.629-10.756C1126.464,388.263,1135.775,382.888,1143.582,378.042z"/>
		</g>
		<g>
			<path fill="#181716" d="M1231.324,327.722l0.028,2.034c-9.7,6.967-9.88,8.555-9.72,20.191l0.898,65.427l-8.413,4.857
				l-43.521-37.629l0.628,45.771c0.16,11.636,0.38,12.986,10.117,8.731l0.028,2.034l-24.535,14.165l-0.028-2.034
				c9.693-6.963,9.873-8.544,9.714-20.18l-0.723-52.661l-1.733-1.505c-3.58-3.172-5.516-4.223-8.331-3.847l-0.023-1.699
				l18.623-10.752l43.213,37.013l-0.617-44.976c-0.16-11.636-0.38-12.993-10.117-8.738l-0.028-2.034L1231.324,327.722z"/>
		</g>
		<g>
			<path fill="#181716" d="M1272.783,303.786l0.028,2.034c-9.694,6.963-9.874,8.551-9.714,20.188l0.672,48.935
				c0.16,11.636,0.38,12.993,10.111,8.735l0.028,2.034l-33.549,19.37l-0.028-2.034c9.693-6.956,9.873-8.544,9.714-20.18
				l-0.672-48.935c-0.16-11.636-0.38-12.993-10.11-8.742l-0.028-2.034L1272.783,303.786z"/>
		</g>
		<g>
			<path fill="#181716" d="M1307.333,349.791c0.16,11.636,0.38,12.993,10.11,8.735l0.028,2.034l-33.549,19.37l-0.028-2.034
				c9.694-6.956,9.874-8.544,9.714-20.181l-0.672-48.935c-0.16-11.636-0.38-12.993-10.111-8.742l-0.028-2.034l33.549-19.37
				l0.028,2.034c-9.693,6.963-9.873,8.551-9.713,20.187L1307.333,349.791z"/>
		</g>
		<g>
			<path fill="#181716" d="M1345.926,330.125c6.118,4.441,8.165,6.448,14.185,3.766l0.028,2.034l-32.25,18.62l-0.028-2.034
				c6.704-4.554,6.759-7.658,3.193-10.272l-23.965-17.366l22.017-36.293c9.771-16.003,11.518-21.112,0.891-15.777l-0.028-2.034
				l24.742-14.285l0.028,2.034c-6.596,4.837-8.871,8.539-19.928,26.658l-15.795,25.977L1345.926,330.125z"/>
		</g>
	</g>
</g>
<g>
	<g>
		<g>
			<path fill="#181716" d="M187.647,286.781c8.144,4.514,16.517,11.171,21.519,16.41l3.054,26.913l-1.883-1.044
				c-3.908-17.971-11.506-31.932-23.822-38.759c-12.213-6.77-22.156,0.379-21.776,26.37c0.332,22.711,8.991,42.304,23.988,50.617
				c12.909,7.156,20.316,1.511,23.646-6.503l2.697,2.499c-3.099,10.281-12.464,16.746-28.358,7.936
				c-21.549-11.945-36.805-37.886-37.172-62.974C149.146,281.244,166.691,275.165,187.647,286.781z"/>
		</g>
		<g>
			<path fill="#181716" d="M256.906,327.413l0.03,2.032c-9.613-3.983-9.792-2.626-9.622,9.015l0.715,48.922
				c0.17,11.642,0.392,13.22,10.045,19.917l0.03,2.032l-33.272-18.443l-0.03-2.032c9.614,3.983,9.792,2.626,9.622-9.015
				l-0.715-48.922c-0.17-11.642-0.392-13.22-10.045-19.917l-0.03-2.032L256.906,327.413z"/>
		</g>
		<g>
			<path fill="#181716" d="M341.13,374.099l0.03,2.032c-9.614-3.983-9.792-2.627-9.622,9.015l0.956,65.42l-8.344-4.625
				l-43.215-85.708l0.669,45.76c0.17,11.642,0.385,13.216,10.038,19.913l0.03,2.032l-24.328-13.485l-0.03-2.032
				c9.614,3.983,9.792,2.626,9.622-9.015l-0.77-52.656l-1.726-3.423c-3.551-7.12-5.472-10.317-8.269-13.097l-0.025-1.695
				l18.474,10.24l42.907,84.752l-0.657-44.968c-0.17-11.642-0.385-13.216-10.045-19.917l-0.03-2.032L341.13,374.099z"/>
		</g>
		<g>
			<polygon fill="#181716" points="401.293,385.365 379.757,387.885 377.668,386.727 385.702,376.722 			"/>
		</g>
		<g>
			<path fill="#181716" d="M411.463,467.665l1.883,1.044l-3.577,24.808c-7.946-4.521-16.089-9.035-23.143-12.945l-36.85-20.427
				l-0.03-2.032c9.62,3.986,9.798,2.63,9.628-9.012l-0.715-48.922c-0.17-11.642-0.392-13.22-10.051-19.92l-0.03-2.032l35.857,19.876
				c6.854,3.799,15.694,8.699,23.434,12.655l2.781,28.326l-1.986-1.101c-5.244-21.847-12.053-29.099-31.32-39.779l-5.262-2.917
				l0.484,33.113l11.619,6.441c5.661,3.138,9.187,1.949,10.048-6.989l1.786,0.99l0.443,30.282l-1.786-0.99
				c-1.138-10.039-4.757-15.188-10.418-18.326l-11.619-6.441l0.453,30.964c0.058,3.954,0.761,5.239,5.133,7.662l3.778,2.094
				C400.076,484.106,406.366,483.001,411.463,467.665z"/>
		</g>
		<g>
			<path fill="#181716" d="M515.742,470.888l0.03,2.032c-9.62-3.986-9.798-2.63-9.628,9.012l0.715,48.922
				c0.17,11.642,0.391,13.22,10.051,19.92l0.03,2.032l-33.278-18.446l-0.03-2.032c9.614,3.983,9.792,2.626,9.622-9.015l-0.798-54.57
				l-24.032,54.035l-2.985-1.655l-27.635-84.363l0.823,56.272c0.17,11.642,0.391,13.22,10.045,19.917l0.03,2.032l-24.335-13.489
				l-0.03-2.032c9.613,3.983,9.792,2.626,9.622-9.015l-0.715-48.922c-0.17-11.642-0.392-13.22-10.045-19.917l-0.03-2.032
				l26.121,14.479l21.775,67.21l19.744-44.195L515.742,470.888z"/>
		</g>
		<g>
			<path fill="#181716" d="M588.948,579.384c3.313,10.917,4.126,12.714,10.297,17.029l0.03,2.032l-30.196-16.738l-0.03-2.032
				c8.131,3.612,7.903,1.128,5.931-5.568l-5.598-18.907l-27.017-14.976l-0.567,1.483c-6.948,16.878-4.248,19.613,4.406,25.304
				l0.03,2.032l-22.839-12.66l-0.03-2.032c6.441,2.676,7.21,1.421,12.531-12.11l19.572-49.333c2.573,0.975,5.328,0.487,6.782-1.174
				l0.393,0.218L588.948,579.384z M544.27,535.794l23.245,12.885l-11.927-40.577L544.27,535.794"/>
		</g>
		<g>
			<path fill="#181716" d="M706.796,610.407l0.702,48.027l-2.399-1.33l-0.601-41.091c0.551-1.898,0.898-4.009,1.019-6.315
				L706.796,610.407z"/>
		</g>
		<g>
			<path fill="#181716" d="M649.247,578.508l0.101,6.94c-0.616-2.547-1.031-5.081-1.222-7.561L649.247,578.508z"/>
		</g>
		<g>
			<path fill="#181716" d="M648.127,577.887c0.19,2.48,0.605,5.015,1.222,7.561l0.601,41.086l-2.399-1.33l-0.702-48.027
				L648.127,577.887z"/>
		</g>
		<g>
			<path fill="#181716" d="M668.852,618.022c0.79,0.708,1.593,1.386,2.409,2.032l0.27,18.443l-2.399-1.33L668.852,618.022z"/>
		</g>
		<g>
			<path fill="#181716" d="M705.517,609.699c-0.12,2.306-0.468,4.417-1.019,6.315l-0.101-6.936L705.517,609.699z"/>
		</g>
		<g>
			<path fill="#181716" d="M670.854,592.224l0.407,27.831c-0.816-0.646-1.619-1.324-2.409-2.032l-0.397-27.128L670.854,592.224z"/>
		</g>
		<g>
			<path fill="#181716" d="M685.24,600.198l0.148,10.109l0.249,17.019c-0.782-0.164-1.579-0.373-2.388-0.628l-0.407-27.83
				L685.24,600.198z"/>
		</g>
		<g>
			<path fill="#181716" d="M685.388,610.307l0.529,36.165l-2.399-1.33l-0.27-18.444c0.809,0.254,1.606,0.463,2.388,0.628
				L685.388,610.307z"/>
		</g>
		<g>
			<path fill="#181716" d="M676.311,558.62c15.888,8.807,28.985,30.605,29.25,48.68c0.012,0.822-0.003,1.621-0.044,2.399
				l-1.12-0.621l0.101,6.936c-2.357,8.122-8.435,12.383-16.369,11.683l-0.234-15.999l-2.508-1.39l-0.148-10.109l-2.399-1.33
				l0.407,27.83c-1.925-0.605-3.924-1.467-5.98-2.607c-2.057-1.14-4.066-2.498-6.007-4.036l-0.407-27.831l-2.399-1.33l0.397,27.128
				c-9.237-8.279-16.6-20.569-19.504-32.574l-0.101-6.94l-1.12-0.621c-0.064-0.836-0.103-1.664-0.115-2.487
				C647.748,557.325,660.417,549.81,676.311,558.62z"/>
		</g>
	</g>
</g>
<g>
	<path fill="none" stroke="#000000" stroke-width="14" stroke-miterlimit="10" d="M127.087,622.024c0,0-62.87,20.184,8.108,40.368"
		/>
	<path fill="none" stroke="#000000" stroke-width="14" stroke-miterlimit="10" d="M127.087,644.237c0,0-62.429,21.63,13.774,43.259"
		/>
	<path fill="none" stroke="#000000" stroke-width="14" stroke-miterlimit="10" d="M130.304,670.789c0,0-66.088,24.211,17.846,42.543
		"/>
	<rect x="116.922" y="603.115" fill="#FFFFFF" width="28.5" height="91.831"/>
	<path fill="none" stroke="#000000" stroke-width="14" stroke-miterlimit="10" d="M109.652,630.316
		c-11.394,7.746-17.237,19.911,25.542,32.076"/>
	<path fill="none" stroke="#000000" stroke-width="14" stroke-miterlimit="10" d="M103.015,664.304
		c0.189,6.97,9.27,15.082,37.846,23.193"/>
</g>
<g>
	<path fill="none" stroke="#000000" stroke-width="14" stroke-miterlimit="10" d="M1384.018,622.024c0,0,62.87,20.184-8.108,40.368"
		/>
	<path fill="none" stroke="#000000" stroke-width="14" stroke-miterlimit="10" d="M1384.018,644.237c0,0,62.429,21.63-13.774,43.259
		"/>
	<path fill="none" stroke="#000000" stroke-width="14" stroke-miterlimit="10" d="M1380.801,670.789
		c0,0,66.088,24.211-17.845,42.543"/>
	<rect x="1365.684" y="603.115" fill="#FFFFFF" width="28.5" height="91.831"/>
	<path fill="none" stroke="#000000" stroke-width="14" stroke-miterlimit="10" d="M1401.453,630.316
		c11.394,7.746,17.237,19.911-25.542,32.076"/>
	<path fill="none" stroke="#000000" stroke-width="14" stroke-miterlimit="10" d="M1408.09,664.304
		c-0.189,6.97-9.27,15.082-37.845,23.193"/>
</g>
</svg>
