<svg version="1" xmlns="http://www.w3.org/2000/svg" xmlns:xlink="http://www.w3.org/1999/xlink" width="1499.706" height="1577" viewBox="0 0 1499.706 1577"><path d="M3751.126 4377.813c.28-4.227.49-8.453.49-12.726 0-104.813-84.967-189.757-189.757-189.757s-189.757 84.943-189.757 189.757c0 4.273.187 8.522.467 12.726h-6.841v281.168h12.515v-245.888c15.784 60.45 60.591 109.18 118.683 130.334v115.554h12.515v-111.538a189.401 189.401 0 0 0 52.418 7.378 189.37 189.37 0 0 0 52.278-7.332v111.492h12.515v-194.257h6.257v76.299c55.057-22.252 97.155-69.58 112.426-127.812v245.771h12.515v-281.168h-6.724z"/><path fill="#FFF" stroke="#181716" stroke-miterlimit="10" d="M4218.561 5138.267l-661.246 381.411V4504.945l661.246-381.41zm-1278.171 25.526l616.925 355.885V4504.945l-616.925-355.884z"/><path fill="#FFF" stroke="#181716" stroke-width="1.003" stroke-miterlimit="10" d="M3447.392 215.812h868.515v1194.656h-868.515zm-868.515 0h868.515v1194.656h-868.515z"/><path d="M-2691.442 1057.153c.28-4.226.49-8.452.49-12.725 0-104.814-84.967-189.757-189.757-189.757s-189.757 84.944-189.757 189.757c0 4.273.187 8.522.467 12.725h-6.841v281.168h12.515v-245.888c15.784 60.451 60.591 109.18 118.683 130.334v115.554h12.515v-111.538a189.439 189.439 0 0 0 52.418 7.378 189.37 189.37 0 0 0 52.278-7.332v111.491h12.515v-194.257h6.257v76.298c55.057-22.252 97.155-69.58 112.426-127.812v245.771h12.515v-281.168h-6.724zm6442.568 1399.56c.28-4.226.49-8.452.49-12.725 0-104.813-84.967-189.757-189.757-189.757s-189.757 84.944-189.757 189.757c0 4.273.187 8.522.467 12.725h-6.841v281.168h12.515v-245.888c15.784 60.45 60.591 109.18 118.683 130.334v115.554h12.515v-111.538a189.439 189.439 0 0 0 52.418 7.378 189.37 189.37 0 0 0 52.278-7.332v111.491h12.515v-194.258h6.257v76.298c55.057-22.251 97.155-69.58 112.426-127.812v245.771h12.515v-281.168h-6.724z"/><path fill="#FFF" stroke="#231F20" stroke-width="2" stroke-miterlimit="10" d="M-2340.779 1840.224l-540 168V1197.61l540-168zm-1080 0l540 168V1197.61l-540-168z"/><path d="M-2353.264 1302.437c3.573 7.152 7.065 14.217 9.104 21.982.834 3.174.966 6.261.812 9.527-.169 3.576-3.122 7.476-4.693 10.62-3.234 6.468-6.882 12.667-10.135 19.111-2.483 4.919-4.419 8.991-8.907 12.116-4.463 3.109-6.508 8.697-3.587 13.682 2.59 4.421 9.201 6.708 13.682 3.588 6.557-4.566 11.337-9.986 14.977-17.088 3.965-7.738 8.219-15.271 12.111-23.056 2.367-4.734 5.178-9.296 6.019-14.574.859-5.391.51-10.385-.272-15.761-1.545-10.626-7.102-20.758-11.839-30.241-5.768-11.539-23.018-1.407-17.272 10.094zm-1053.22-28.973c-9.225 0-18.692.597-27.888-.206-10.011-.874-20.16-1.147-26.006 8.64l3.587-3.588c-11.286 6.25-12.936 18.323-7.939 29.349 4.224 9.321 12.189 15.296 17.767 23.537 2.938 4.341 4.792 9.182 6.466 14.112 2.066 6.085 9.472 10.691 14.573 14.108 10.806 7.237 23.965 10.475 36.848 10.641 12.903.167 12.887-19.833 0-20-13.364-.173-25.169-5.145-34.707-14.479l2.572 4.413c-3.507-10.331-7.983-19.604-15.427-27.683-4.8-5.209-9.686-10.059-11.167-16.621.137.922.176.783.116-.419-.003.681-.954 2.234.133.407a.927.927 0 0 1-.297.545c1.883-1.28 3.517-2.172 4.745-4.228-.473.792-2.589.741-.11.608 2.104-.113 4.247.176 6.335.393 10.039 1.048 20.316.469 30.4.469 12.896.002 12.896-19.998-.001-19.998z"/><path d="M-2344.185 1342.649v27.838c0 7.598.892 15.568-1.593 22.852-2.099 6.153-4.734 12.176-7.42 18.088-2.682 5.903-5.27 10.345-11.497 12.098-12.396 3.489-7.123 22.787 5.317 19.286 18.83-5.3 24.127-23.029 30.857-39.118 3.961-9.471 4.337-18.471 4.337-28.611v-32.432c-.001-12.898-20.001-12.898-20.001-.001zm-1103.633-6.962c0 14.873.501 29.846-.078 44.707-.508 13.021-3.485 25.805 1.937 38.275 4.387 10.091 13.543 17.58 23.057 22.66 9.789 5.227 15.466 16.031 25.298 21.363 11.338 6.149 21.433-11.12 10.094-17.269-7.723-4.189-14.105-13.389-21.722-19-7.152-5.269-14.658-8.126-18.89-16.544-1.915-3.809-1.302-9.277-1.106-13.345.282-5.889 1.162-11.73 1.392-17.623.56-14.361.021-28.85.021-43.223-.003-12.899-20.003-12.899-20.003-.001z"/><path d="M-2344.185 1387.909c.002 11.13.052 22.292 2.6 33.192 1.177 5.036 3.702 9.599 5.54 14.411 1.085 2.842 2.079 5.72 3.072 8.596.676 1.957 2.741 5.631 2.679 7.609.146-.84.093-.664-.158.528-.627 2.709.732-1.034-.537 1.366-1.051 1.986-.643 1.142-2.264 2.727-1.922 1.88-4.887 3.546-8.052 5.304-7.237 4.021-14.779 7.393-20.84 13.197-9.33 8.935 4.832 23.059 14.142 14.142 1.753-1.678 4.392-3.368 7.572-5.152 3.71-2.081 7.537-3.943 11.233-6.051 8.166-4.658 15.237-10.988 18.031-20.216 2.028-6.699-.373-12.477-2.521-18.771-2.14-6.271-4.482-12.451-7.152-18.517-4.314-9.803-3.343-21.926-3.345-32.364-.002-12.898-20.002-12.899-20-.001zm-1100.151 10.444v38.577c0 11.49-1.354 23.824 3.409 34.595 3.187 7.208 9.511 12.032 16.571 15.1 1.918.833 3.856 1.624 5.798 2.399.877.35 1.754.701 2.629 1.056-1.882-.764 1.056.487 1.154.532 3.749 1.717 5.78 3.015 8.183 5.329 9.286 8.946 23.445-5.18 14.142-14.142-5.788-5.575-12.558-8.764-19.92-11.714-3.561-1.427-3.042-1.026-6.655-3.072-.497-.29-.983-.597-1.458-.921-2.303-1.509 1.383 1.278-.645-.595-.22-.203-1.916-2.347-.714-.678-.555-.771-.983-1.625-1.409-2.47.36.832.323.656-.11-.528-.368-1.114-.579-2.275-.798-3.424-.317-1.669-.177-4.082-.177-5.983v-54.062c0-12.896-20-12.896-20 .001z"/><path fill="#FFF" d="M-2831.057 1006.428c-2.897 23.892 24.717 26.594 42.168 26.846 10.002.144 20.627 1.973 30.549.577 11.143-1.568 15.648-9.79 15.838-20.46.057-3.226-4.943-3.221-5 0-.085 4.773-.722 9.565-4.441 12.903-2.82 2.532-7.39 2.798-10.956 2.913-8.308.267-16.689-.863-25.013-.922-14.843-.106-40.685-.914-38.146-21.856.389-3.197-4.616-3.16-4.999-.001zm-167.022 14.591c3.231 22.547 24.979 26.257 44.186 26.345 11.809.054 23.832.384 35.611-.273 10.755-.599 16.537-6.514 22.255-15.03 1.803-2.685-2.53-5.185-4.317-2.524-2.369 3.529-4.767 7.248-8.294 9.736-3.977 2.805-9.251 2.907-13.918 2.952-10.069.097-20.146.091-30.216.138-17.306.081-37.525-2.022-40.485-22.673-.457-3.182-5.274-1.823-4.822 1.329z"/><path d="M2665.718 411.116c18.135 0 28.736-12.135 33.618-24.411l3.767 1.255c-4.604 14.927-17.995 29.434-40.315 29.434-30.269 0-51.333-21.761-51.333-52.729 0-33.339 24.97-53.007 54.402-53.007 11.439 0 23.157 2.51 30.131 5.579l3.766 31.386h-2.65c-5.161-19.668-15.623-31.804-32.92-31.804-17.158 0-31.386 15.763-31.386 47.846 0 28.038 11.857 46.451 32.92 46.451m83.556-15.902c0 14.368.278 16.181 13.809 17.855v2.511h-46.73v-2.511c13.531-1.674 13.81-3.487 13.81-17.855v-60.401c0-14.367-.279-16.181-13.81-17.855v-2.511h46.73v2.511c-13.531 1.674-13.809 3.488-13.809 17.855v60.401zm97.923-78.256v-2.511h34.176v2.511c-13.53 1.674-13.81 3.488-13.81 17.855v80.767h-11.718l-59.423-76.861v56.495c0 14.368.278 16.181 13.809 17.855v2.511h-34.175v-2.511c13.531-1.674 13.809-3.487 13.809-17.855V330.21l-2.371-3.069c-4.883-6.416-7.533-9.067-11.438-10.601v-2.093h25.946l59.005 75.885v-55.519c0-14.367-.279-16.181-13.81-17.855m88.578-11.996h-2.929l11.578-17.995h21.9l-30.549 17.995zm7.811 110.618h-51.752v-2.511c13.531-1.674 13.811-3.487 13.811-17.855v-60.401c0-14.367-.28-16.181-13.811-17.855v-2.511h50.357c9.626 0 22.041 0 32.921-.418l3.348 33.339h-2.79c-6.975-23.574-16.46-27.899-43.522-27.899h-7.393v40.872h16.32c7.951 0 12.973-3.906 14.369-15.623h2.511v37.383h-2.511c-1.396-11.717-6.418-15.622-14.369-15.622h-16.32V404.7c0 4.882.976 5.998 7.114 5.998h5.301c25.388 0 34.315-5.719 41.848-28.317h2.65l-5.58 33.338c-11.159-.139-22.597-.139-32.502-.139m183.015-98.622c-13.531 1.674-13.811 3.488-13.811 17.855v60.401c0 14.368.28 16.181 13.811 17.855v2.511h-46.73v-2.511c13.53-1.674 13.809-3.487 13.809-17.855v-67.375l-35.152 83.835h-4.185l-37.385-85.928v69.468c0 14.368.28 16.181 13.81 17.855v2.511h-34.176v-2.511c13.531-1.674 13.811-3.487 13.811-17.855v-60.401c0-14.367-.28-16.181-13.811-17.855v-2.511h36.687l29.434 68.631 28.875-68.631h35.013v2.511zm39.058 58.587h32.641l-16.042-42.267-16.599 42.267zm-29.992 37.524c9.067-1.116 10.184-3.209 17.996-23.714l28.734-74.908c3.627-.558 7.534-3.069 9.626-6.138h.558l35.431 90.671c4.464 11.299 5.579 12.973 14.228 14.089v2.511h-42.405v-2.511c11.437-1.116 11.159-4.045 8.508-11.02l-7.532-19.669h-37.942l-.837 2.232c-10.183 25.806-6.417 27.341 5.718 28.457v2.511h-32.083v-2.511zm338.382-3.208v-34.036h2.791c3.905 25.946 14.228 36.408 30.827 36.408 12.276 0 22.458-5.998 22.458-18.553 0-9.486-7.532-14.368-18.692-19.668l-12.414-5.859c-14.786-6.975-24.134-16.182-24.134-29.712 0-16.042 15.206-27.201 34.735-27.201 10.043 0 23.155 2.789 29.992 6.974v28.596h-2.791c-3.905-19.947-13.531-30.409-27.34-30.409-11.3 0-19.251 5.301-19.251 15.065 0 9.625 6.556 14.089 13.949 17.576l14.787 6.975c15.483 7.254 27.062 14.926 27.062 30.13 0 18.274-17.437 31.247-38.361 31.247-13.671 0-25.528-3.209-33.618-7.533m130.704-90.532h-10.043v47.986h10.043c16.042 0 26.086-6.277 26.086-23.993s-10.044-23.993-26.086-23.993m-42.964 93.74c13.531-1.674 13.811-3.487 13.811-17.855v-60.401c0-14.368-.28-16.181-13.811-17.855v-2.511h17.855c6.836 0 22.32-.139 26.645-.139 25.806 0 45.753 7.253 45.753 29.014s-19.947 29.015-45.753 29.015h-11.579v22.877c0 14.368.279 16.181 15.205 17.855v2.511h-48.126v-2.511zm159.858-96.25c-19.25 0-31.805 18.274-31.805 47.707s12.555 47.707 31.805 47.707 31.805-18.274 31.805-47.707-12.555-47.707-31.805-47.707m0-5.161c27.34 0 53.146 18.413 53.146 52.868s-25.806 52.868-53.146 52.868c-27.342 0-53.147-18.413-53.147-52.868s25.805-52.868 53.147-52.868m65.006 5.3v-2.511h46.729v2.511c-13.53 1.674-13.809 3.348-13.809 17.995v40.314c0 21.9 7.393 34.175 26.364 34.175 20.506 0 27.481-14.368 27.899-35.292v-39.337c0-14.367-.279-16.181-13.81-17.855v-2.511h34.175v2.511c-13.53 1.674-13.809 3.488-13.809 17.855v39.059c0 30.27-14.089 43.522-39.059 43.522-27.759 0-40.871-14.368-40.871-40.175v-42.266c0-14.368-.278-16.321-13.809-17.995m142.003 96.111c14.786-1.674 15.344-3.906 15.344-17.855V319.05h-3.488c-19.528 0-27.758 9.904-34.733 32.223h-2.789l4.184-37.244c10.741.418 23.714.418 33.338.418h25.947c9.625 0 22.597 0 33.478-.418l4.185 37.244h-2.929c-6.835-22.319-15.065-32.223-34.595-32.223h-3.487v76.164c0 13.949.558 16.181 15.344 17.855v2.511h-49.799v-2.511zm159.3-96.111v-2.511h34.176v2.511c-13.53 1.674-13.81 3.488-13.81 17.855v80.767h-11.718l-59.423-76.861v56.495c0 14.368.278 16.181 13.809 17.855v2.511h-34.175v-2.511c13.531-1.674 13.809-3.487 13.809-17.855V330.21l-2.371-3.069c-4.883-6.416-7.533-9.067-11.438-10.601v-2.093h25.945l59.006 75.885v-55.519c0-14.367-.28-16.181-13.81-17.855m78.116 78.256c0 14.368.278 16.181 13.809 17.855v2.511h-46.73v-2.511c13.531-1.674 13.81-3.487 13.81-17.855v-60.401c0-14.367-.279-16.181-13.81-17.855v-2.511h46.73v2.511c-13.531 1.674-13.809 3.488-13.809 17.855v60.401zm91.926-59.564c13.809-12.694 16.32-17.715 1.534-18.692v-2.511h34.455v2.511c-9.207 1.255-12.415 4.185-28.038 18.553l-22.32 20.645 36.827 42.266c8.37 9.765 11.159 13.671 19.529 14.647v2.511h-44.917v-2.511c9.346-.837 9.485-4.603 4.603-10.323l-32.781-38.22 31.108-28.876zm-31.248 59.564c0 14.368.278 16.181 13.81 17.855v2.511h-46.731v-2.511c13.531-1.674 13.811-3.487 13.811-17.855v-60.401c0-14.367-.28-16.181-13.811-17.855v-2.511h46.731v2.511c-13.532 1.674-13.81 3.488-13.81 17.855v60.401zm-835.879-38.923h3.368v59.29h-3.368zm-80.828 0h3.368v59.29h-3.368zm30.31 2.162h3.368v57.128h-3.368z" fill="#181716"/><path fill="#181716" d="M3352.141 312.861c-22.32 0-40.414 18.094-40.414 40.414s18.094 40.414 40.414 40.414a40.43 40.43 0 0 0 11.788-1.751v-21.006h3.523v19.747c14.726-6.035 25.103-20.504 25.103-37.404 0-22.32-18.094-40.414-40.414-40.414"/><path fill="#181716" d="M3360.56 358.453h3.368v57.128h-3.368z"/><path fill="#181716" stroke="#FFF" stroke-width=".087" stroke-miterlimit="10" d="M3476.49 473.516h187.539v16.436H3476.49zm0 23.725h187.539v16.436H3476.49zm0 23.724h187.539v16.436H3476.49zm0 23.725h187.539v16.436H3476.49zm0 23.725h187.539v16.436H3476.49zm0 23.725h187.539v16.436H3476.49zm0 23.724h187.539V632.3H3476.49zm0 23.725h187.539v16.436H3476.49zm0 23.725h187.539v16.436H3476.49zm0 23.725h187.539v16.436H3476.49zm0 23.725h187.539V727.2H3476.49zm0 23.724h187.539v16.436H3476.49zm0 23.725h187.539v16.436H3476.49zm0 23.725h187.539v16.436H3476.49zm0 23.725h187.539v16.436H3476.49zm0 23.724h187.539v16.436H3476.49zm0 23.725h187.539v16.436H3476.49zm0 23.725h187.539v16.436H3476.49zm0 23.725h187.539v16.436H3476.49zm0 23.724h187.539v16.436H3476.49zm0 23.725h187.539v16.436H3476.49zm0 23.725h187.539v16.436H3476.49zm0 23.725h187.539v16.436H3476.49zm0 23.725h187.539v16.436H3476.49zm0 23.724h187.539v16.436H3476.49zm0 23.725h187.539v16.436H3476.49zm0 23.725h187.539v16.436H3476.49zm0 23.725h187.539v16.436H3476.49zm0 23.724h187.539v16.436H3476.49zm0 23.725h187.539v16.436H3476.49zm0 23.725h187.539v16.436H3476.49zm0 23.725h187.539v16.436H3476.49zm0 23.725h187.539v16.436H3476.49zm0 23.724h187.539v16.436H3476.49zm0 23.725h187.539v16.436H3476.49zm0 23.725h187.539v16.436H3476.49zm0 23.725h187.539v16.436H3476.49zm0 23.724h187.539v16.436H3476.49zm210.805-877.816h187.539v16.436h-187.539zm0 23.725h187.539v16.436h-187.539zm0 23.724h187.539v16.436h-187.539zm0 23.725h187.539v16.436h-187.539zm0 23.725h187.539v16.436h-187.539zm0 23.725h187.539v16.436h-187.539zm0 23.724h187.539V632.3h-187.539zm0 23.725h187.539v16.436h-187.539zm0 23.725h187.539v16.436h-187.539zm0 23.725h187.539v16.436h-187.539zm0 23.725h187.539V727.2h-187.539zm0 23.724h187.539v16.436h-187.539zm0 23.725h187.539v16.436h-187.539zm0 23.725h187.539v16.436h-187.539zm0 23.725h187.539v16.436h-187.539zm0 23.724h187.539v16.436h-187.539zm0 23.725h187.539v16.436h-187.539zm0 23.725h187.539v16.436h-187.539zm0 23.725h187.539v16.436h-187.539zm0 23.724h187.539v16.436h-187.539zm0 23.725h187.539v16.436h-187.539zm0 23.725h187.539v16.436h-187.539zm0 23.725h187.539v16.436h-187.539zm0 23.725h187.539v16.436h-187.539zm0 23.724h187.539v16.436h-187.539zm0 23.725h187.539v16.436h-187.539zm0 23.725h187.539v16.436h-187.539zm0 23.725h187.539v16.436h-187.539zm0 23.724h187.539v16.436h-187.539zm0 23.725h187.539v16.436h-187.539zm0 23.725h187.539v16.436h-187.539zm0 23.725h187.539v16.436h-187.539zm0 23.725h187.539v16.436h-187.539zm0 23.724h187.539v16.436h-187.539zm0 23.725h187.539v16.436h-187.539zm0 23.725h187.539v16.436h-187.539zm0 23.725h187.539v16.436h-187.539zm0 23.724h187.539v16.436h-187.539zm210.804-877.816h187.539v16.436h-187.539zm0 23.725h187.539v16.436h-187.539zm0 23.724h187.539v16.436h-187.539zm0 23.725h187.539v16.436h-187.539zm0 23.725h187.539v16.436h-187.539zm0 23.725h187.539v16.436h-187.539zm0 23.724h187.539V632.3h-187.539zm0 23.725h187.539v16.436h-187.539zm0 23.725h187.539v16.436h-187.539zm0 23.725h187.539v16.436h-187.539zm0 23.725h187.539V727.2h-187.539zm0 23.724h187.539v16.436h-187.539zm0 23.725h187.539v16.436h-187.539zm0 23.725h187.539v16.436h-187.539zm0 23.725h187.539v16.436h-187.539zm0 23.724h187.539v16.436h-187.539zm0 23.725h187.539v16.436h-187.539zm0 23.725h187.539v16.436h-187.539zm0 23.725h187.539v16.436h-187.539zm0 23.724h187.539v16.436h-187.539zm0 23.725h187.539v16.436h-187.539zm0 23.725h187.539v16.436h-187.539zm0 23.725h187.539v16.436h-187.539zm0 23.725h187.539v16.436h-187.539zm0 23.724h187.539v16.436h-187.539zm0 23.725h187.539v16.436h-187.539zm0 23.725h187.539v16.436h-187.539zm0 23.725h187.539v16.436h-187.539zm0 23.724h187.539v16.436h-187.539zm0 23.725h187.539v16.436h-187.539zm0 23.725h187.539v16.436h-187.539zm0 23.725h187.539v16.436h-187.539zm0 23.725h187.539v16.436h-187.539zm0 23.724h187.539v16.436h-187.539zm0 23.725h187.539v16.436h-187.539zm0 23.725h187.539v16.436h-187.539zm0 23.725h187.539v16.436h-187.539zm0 23.724h187.539v16.436h-187.539zm210.805-877.816h187.539v16.436h-187.539zm0 23.725h187.539v16.436h-187.539zm0 23.724h187.539v16.436h-187.539zm0 23.725h187.539v16.436h-187.539zm0 23.725h187.539v16.436h-187.539zm0 23.725h187.539v16.436h-187.539zm0 23.724h187.539V632.3h-187.539zm0 23.725h187.539v16.436h-187.539zm0 23.725h187.539v16.436h-187.539zm0 23.725h187.539v16.436h-187.539zm0 23.725h187.539V727.2h-187.539zm0 23.724h187.539v16.436h-187.539zm0 23.725h187.539v16.436h-187.539zm0 23.725h187.539v16.436h-187.539zm0 23.725h187.539v16.436h-187.539zm0 23.724h187.539v16.436h-187.539zm0 23.725h187.539v16.436h-187.539zm0 23.725h187.539v16.436h-187.539zm0 23.725h187.539v16.436h-187.539zm0 23.724h187.539v16.436h-187.539zm0 23.725h187.539v16.436h-187.539zm0 23.725h187.539v16.436h-187.539zm0 23.725h187.539v16.436h-187.539zm0 23.725h187.539v16.436h-187.539zm0 23.724h187.539v16.436h-187.539zm0 23.725h187.539v16.436h-187.539zm0 23.725h187.539v16.436h-187.539zm0 23.725h187.539v16.436h-187.539zm0 23.724h187.539v16.436h-187.539zm0 23.725h187.539v16.436h-187.539zm0 23.725h187.539v16.436h-187.539zm0 23.725h187.539v16.436h-187.539zm0 23.725h187.539v16.436h-187.539zm0 23.724h187.539v16.436h-187.539zm0 23.725h187.539v16.436h-187.539zm0 23.725h187.539v16.436h-187.539zm0 23.725h187.539v16.436h-187.539zm0 23.724h187.539v16.436h-187.539z"/><path fill="#181716" d="M4163.366 2496.692c6.118 4.434 8.165 6.448 14.185 3.766l.028 2.034-32.25 18.62-.028-2.034c6.704-4.554 6.76-7.658 3.194-10.272l-23.965-17.373 22.017-36.285c9.771-16.01 11.519-21.112.891-15.777l-.028-2.034 24.742-14.285.028 2.034c-6.597 4.83-8.871 8.539-19.929 26.651l-15.795 25.977 26.91 18.978z"/><path fill="#181716" d="M4124.774 2516.35c.16 11.643.38 12.993 10.11 8.742l.028 2.034-33.549 19.37-.028-2.034c9.693-6.963 9.874-8.544 9.714-20.188l-.672-48.928c-.16-11.636-.38-12.993-10.111-8.742l-.028-2.034 33.549-19.37.028 2.034c-9.693 6.963-9.873 8.552-9.713 20.188l.672 48.928zm-34.551-45.997l.028 2.034c-9.694 6.964-9.874 8.552-9.714 20.188l.672 48.928c.16 11.643.38 12.993 10.111 8.742l.028 2.034-33.549 19.37-.028-2.034c9.693-6.963 9.873-8.544 9.713-20.187l-.672-48.928c-.16-11.636-.38-12.993-10.111-8.742l-.028-2.034 33.55-19.371zm-41.458 23.936l.028 2.034c-9.7 6.967-9.88 8.555-9.72 20.191l.898 65.427-8.413 4.857-43.521-37.629.628 45.764c.16 11.643.38 12.993 10.117 8.738l.028 2.034-24.535 14.165-.028-2.034c9.693-6.963 9.873-8.544 9.714-20.188l-.723-52.661-1.733-1.505c-3.58-3.172-5.516-4.216-8.331-3.84l-.023-1.698 18.623-10.752 43.213 37.013-.617-44.976c-.16-11.636-.38-12.993-10.117-8.738l-.028-2.034 24.54-14.168zm-287.571 163.751c19.631-11.334 38.361-7.113 38.744 20.796.383 27.916-17.938 53.521-37.569 64.855-19.631 11.334-38.361 7.12-38.744-20.796-.382-27.909 17.938-53.521 37.569-64.855zm1.118 81.473c13.822-7.98 22.633-27.984 22.305-51.832-.327-23.841-9.544-33.444-23.366-25.464-13.822 7.98-22.633 27.992-22.305 51.832.328 23.848 9.545 33.444 23.366 25.464"/><path fill="#FFF" d="M3677.352 2712.703c11.515-6.648 18.798-5.72 18.994 8.624.197 14.355-6.945 23.606-18.461 30.254l-7.212 4.164-.534-38.878 7.213-4.164z"/><path fill="#FFF" d="M3563.588 2694.275l622.842-359.598 13.272 966.953-622.842 359.598-13.272-966.953zm198.781 49.413c19.628-11.332 37.95-36.936 37.567-64.852-.383-27.911-19.115-32.132-38.743-20.8-19.632 11.335-37.955 36.949-37.572 64.86.384 27.915 19.116 32.126 38.748 20.792m122.77-152.881l-.028-2.036-24.532 14.164.028 2.036c9.73-4.25 9.95-2.893 10.11 8.743l.438 31.866c-.066 17.115-4.913 31.647-19.641 40.15-13.618 7.862-19.06.984-19.303-16.754l-.448-32.666c-.163-11.862.019-13.33 9.712-20.293l-.028-2.036-33.549 19.369.028 2.036c9.735-4.252 9.952-2.787 10.112 8.848l.47 34.244c.287 20.904 9.86 27.116 29.795 15.606 17.926-10.35 27.895-26.932 27.559-51.45l-.434-31.64c-.161-11.635.019-13.223 9.711-20.187m163.651-94.484l-.028-2.036-24.541 14.169.028 2.036c9.739-4.255 9.96-2.898 10.12 8.738l.617 44.975-43.213-37.014-18.625 10.753.023 1.699c2.814-.374 4.75.667 8.332 3.837l1.731 1.509.723 52.66c.16 11.646-.021 13.224-9.713 20.188l.028 2.036 24.537-14.166-.028-2.036c-9.739 4.255-9.96 2.908-10.119-8.738l-.628-45.764 43.522 37.631 8.415-4.858-.898-65.427c-.161-11.637.019-13.225 9.717-20.192m-86.451 77.933l2.103-1.214-3.421-28.437c-7.809 4.848-17.119 10.223-24.024 14.21l-18.63 10.756c-6.914 3.992-16.229 9.37-23.945 13.485l-2.593 31.909 2.005-1.157c4.759-20.976 10.56-32.416 24.584-40.512l2.499-1.443.847 61.703c.155 11.299-.221 13.34-10.818 20.826l.028 2.036 35.754-20.643-.028-2.036c-10.63 4.769-11.055 3.191-11.21-8.108l-.847-61.703 2.499-1.443c14.022-8.096 20.039-3.479 25.197 11.771m-283.293 180.754c18.527-10.697 32.764-24.838 32.522-42.471-.242-17.627-14.64-15.231-33.167-4.535-3.105 1.793-14.218 8.32-19.132 11.157l-12.821 7.402.028 2.036c9.739-4.255 9.96-2.908 10.12 8.738l.672 48.925c.16 11.646-.021 13.224-9.723 20.194l.028 2.036 34.56-19.954-.028-2.036c-10.742 4.834-10.962 3.487-11.122-8.159l-.254-18.532 8.317-4.801m-70.308 77.376c15.026-8.675 27.4-26.407 27.197-41.209-.169-12.32-8.572-13.73-19.767-13.189l-10.693.479c-5.344.233-10.107-.659-10.214-8.455-.109-7.911 5.548-15.504 13.656-20.185 9.921-5.728 16.942-1.245 19.97 13.299l2-1.155-.318-23.171c-4.956-.553-14.395 2.627-21.607 6.791-14.019 8.094-24.818 23.432-24.64 36.43.15 10.957 6.966 14.54 17.659 14.061l8.979-.396c8.068-.332 13.535.504 13.641 8.189.14 10.168-7.104 19.244-15.92 24.334-11.921 6.883-19.446 2.686-22.541-16.709l-2.005 1.157.378 27.563c5.858.157 14.412-2.168 24.225-7.834m568.839-329.893l-.028-2.036c-6.021 2.681-8.069.666-14.187-3.765l-26.909-18.98 15.794-25.979c11.057-18.112 13.332-21.822 19.929-26.649l-.028-2.036-24.742 14.285.028 2.036c10.626-5.335 8.878-.232-.893 15.78l-22.015 36.283 23.964 17.371c3.565 2.618 3.509 5.72-3.195 10.275l.028 2.036 32.254-18.621m-87.327-30.107l-.028-2.036-33.549 19.369.028 2.036c9.73-4.25 9.95-2.893 10.11 8.743l.672 48.926c.16 11.646-.021 13.224-9.713 20.188l.028 2.036 33.549-19.369-.028-2.036c-9.73 4.25-9.95 2.903-10.11-8.743l-.672-48.926c-.16-11.636.02-13.224 9.713-20.188m44.659 54.741l-.028-2.036c-9.73 4.25-9.95 2.903-10.11-8.743l-.671-48.926c-.16-11.635.021-13.224 9.713-20.188l-.028-2.036-33.548 19.369.028 2.036c9.729-4.25 9.95-2.892 10.11 8.743l.671 48.926c.16 11.646-.021 13.224-9.713 20.188l.028 2.036 33.548-19.369"/><path fill="#181716" d="M3562.856 2693.881l624.285-360.431 13.294 968.577-624.284 360.431-13.295-968.577zm636.845 607.748l-13.272-966.951-622.844 359.599 13.272 966.951 622.844-359.599"/><path fill="#181716" d="M3885.115 2588.772l.028 2.034c-9.693 6.963-9.874 8.552-9.714 20.188l.434 31.642c.336 24.519-9.635 41.1-27.56 51.449-19.934 11.509-29.509 5.302-29.796-15.601l-.47-34.244c-.16-11.636-.375-13.106-10.112-8.851l-.028-2.034 33.549-19.369.028 2.034c-9.693 6.963-9.875 8.435-9.712 20.297l.448 32.662c.243 17.738 5.685 24.62 19.306 16.756 14.726-8.502 19.574-23.037 19.639-40.152l-.437-31.868c-.16-11.636-.381-12.993-10.111-8.742l-.028-2.034 24.536-14.167zm-206.066 166.238l-8.316 4.801.254 18.533c.16 11.643.38 12.993 11.119 8.16l.028 2.034-34.557 19.952-.028-2.034c9.7-6.967 9.88-8.548 9.72-20.191l-.672-48.928c-.16-11.643-.38-12.993-10.117-8.738l-.028-2.034 12.82-7.402c4.911-2.835 16.023-9.362 19.132-11.156 18.526-10.696 32.926-13.094 33.167 4.535s-13.996 31.772-32.522 42.468zm-8.905-38.141l.534 38.874 7.211-4.164c11.515-6.648 18.656-15.893 18.459-30.248-.197-14.348-7.478-15.274-18.993-8.625l-7.211 4.163m-61.179 28.723c7.211-4.163 16.65-7.343 21.608-6.788l.318 23.17-2.003 1.156c-3.026-14.544-10.05-19.028-19.969-13.301-8.109 4.682-13.763 12.274-13.654 20.184.107 7.794 4.867 8.69 10.211 8.456l10.694-.479c11.195-.541 19.596.87 19.765 13.191.203 14.8-12.169 32.532-27.193 41.206-9.815 5.667-18.367 7.989-24.225 7.836l-.378-27.566 2.003-1.157c3.093 19.4 10.621 23.593 22.542 16.709 8.814-5.089 16.055-14.164 15.916-24.334-.105-7.685-5.568-8.521-13.64-8.189l-8.976.398c-10.694.479-17.51-3.103-17.661-14.061-.177-12.998 10.62-28.336 24.642-36.431z"/><path fill="#FFF" d="M3761.251 2662.217c13.819-7.978 23.038 1.624 23.365 25.463.327 23.845-8.486 43.853-22.304 51.831-13.823 7.981-23.043-1.616-23.37-25.46-.327-23.84 8.486-43.853 22.309-51.834z"/><path fill="#181716" d="M3961.023 2544.609l3.419 28.434-2.1 1.212c-5.159-15.246-11.175-19.863-25.197-11.767l-2.501 1.444.847 61.701c.155 11.301.581 12.877 11.209 8.108l.028 2.034-35.753 20.642-.028-2.034c10.598-7.486 10.974-9.525 10.818-20.825l-.847-61.701-2.5 1.444c-14.022 8.095-19.824 19.536-24.584 40.508l-2.003 1.156 2.591-31.904c7.72-4.119 17.031-9.495 23.945-13.487l18.629-10.756c6.909-3.988 16.22-9.364 24.027-14.209zm-883.177-49.911l-.006 2.047c-9.606-4.179-9.808-2.812-9.842 8.897l-.14 49.235c-.033 11.716.16 13.305 9.759 20.214l-.006 2.047-33.156-19.142.006-2.047c9.606 4.179 9.809 2.819 9.842-8.897l.14-49.235c.033-11.709-.161-13.305-9.759-20.214l.006-2.047 33.156 19.142zm83.913 48.447l-.006 2.047c-9.6-4.176-9.809-2.812-9.842 8.897l-.187 65.837-8.313-4.799-41.974-86.99-.131 46.051c-.033 11.716.161 13.305 9.753 20.21l-.006 2.047-24.242-13.997.006-2.047c9.6 4.176 9.802 2.815 9.835-8.901l.15-52.991-1.672-3.471c-3.452-7.233-5.323-10.473-8.09-13.32l.005-1.709 18.407 10.627 41.682 86.028.128-45.259c.033-11.709-.161-13.305-9.753-20.21l.006-2.047 24.244 13.997zm60.329 12.396l-21.712 2.154-2.081-1.202 8.258-9.921zm8.781 82.971l1.884 1.088-4.036 24.889c-7.917-4.681-16.031-9.366-23.061-13.425l-36.712-21.196.006-2.047c9.606 4.179 9.809 2.819 9.842-8.897l.14-49.235c.033-11.709-.161-13.305-9.759-20.214l.006-2.047 35.722 20.624c6.832 3.944 15.636 9.027 23.356 13.139l2.298 28.553-1.979-1.143c-4.894-22.078-11.613-29.485-30.805-40.566l-5.248-3.03-.094 33.315 11.575 6.683c5.644 3.259 9.216 2.131 10.232-6.849l1.781 1.029-.086 30.476-1.781-1.029c-.963-10.123-4.516-15.364-10.16-18.623l-11.575-6.683-.088 31.158c-.011 3.984.682 5.288 5.036 7.802l3.76 2.171c18.003 10.396 24.35 9.393 29.746-5.943zm-221.99-185.911c8.115 4.685 16.422 11.531 21.363 16.89l2.596 27.123-1.877-1.083c-3.619-18.146-11.01-32.326-23.282-39.411-12.176-7.03-22.306-.004-22.38 26.151-.065 22.853 8.307 42.722 23.248 51.347 12.865 7.428 20.414 1.881 23.909-6.125l2.666 2.561c-3.297 10.288-12.831 16.621-28.665 7.48-21.478-12.4-36.368-38.758-36.296-64.003.077-27.183 17.833-32.987 38.718-20.93z"/><path fill="#FFF" d="M3363.29 2709.386l11.876-27.658 11.281 41.028z"/><path fill="#181716" d="M3468.152 2754.204l-.02 6.981a47.963 47.963 0 0 1-1.095-7.625l1.115.644zm35.803 32.627l-.103 36.396-2.388-1.378.053-18.565c.81.27 1.607.493 2.39.671l.048-17.124zm20.264-.257c-.161 2.318-.548 4.434-1.135 6.334l.02-6.978 1.115.644z"/><path fill="#181716" d="M3525.492 2787.309l-.137 48.333-2.388-1.379.117-41.355c.587-1.9.973-4.016 1.135-6.334l1.273.735z"/><path fill="#FFF" d="M2947.748 2339.454l615.415 355.31-2.759 973.023-615.415-355.31 2.759-973.023zm387.964 306.171l.006-2.049-24.834-14.338-20.639 44.125-20.727-68.008-26.022-15.024-.006 2.049c9.591 6.906 9.79 8.505 9.757 20.213l-.14 49.233c-.033 11.719-.24 13.074-9.839 8.899l-.006 2.049 24.24 13.995.006-2.048c-9.592-6.906-9.785-8.492-9.752-20.211l.161-56.627 26.326 85.36 2.967 1.713 25.134-53.937-.156 54.918c-.033 11.719-.236 13.076-9.844 8.897l-.006 2.049 33.149 19.138.006-2.049c-9.592-6.906-9.786-8.491-9.752-20.211l.14-49.233c.03-11.709.232-13.077 9.831-8.903m81.81 127.759l.006-2.049c-6.133-4.453-6.922-6.276-10.06-17.308l-24.919-88.423-.396-.229c-1.495 1.645-4.274 2.087-6.846 1.058l-20.562 49.292c-5.589 13.511-6.386 14.764-12.819 11.961l-.006 2.048 22.765 13.144.006-2.049c-8.612-5.884-11.28-8.681-3.997-25.546l.599-1.472 26.916 15.54 5.298 19.118c1.863 6.775 2.055 9.272-6.055 5.501l-.006 2.048 30.076 17.366m-255.771-228.195l.006-2.049-24.244-13.997-.006 2.048c9.596 6.908 9.79 8.505 9.757 20.213l-.128 45.258-41.684-86.03-18.408-10.628-.005 1.71c2.77 2.85 4.638 6.087 8.092 13.319l1.67 3.472-.15 52.991c-.033 11.719-.236 13.076-9.835 8.902l-.006 2.048 24.244 13.998.006-2.049c-9.592-6.906-9.786-8.491-9.752-20.211l.131-46.052 41.972 86.992 8.315 4.801.187-65.838c.032-11.708.239-13.073 9.838-8.898m-155.297-7.662c15.837 9.144 25.37 2.808 28.666-7.479l-2.664-2.562c-3.497 8.007-11.048 13.552-23.909 6.126-14.944-8.628-23.312-28.496-23.248-51.347.074-26.154 10.203-33.179 22.378-26.15 12.272 7.085 19.665 21.263 23.282 39.411l1.879 1.085-2.599-27.125c-4.94-5.36-13.249-12.209-21.361-16.893-20.886-12.058-38.639-6.249-38.716 20.932-.073 25.246 14.816 51.603 36.292 64.002m222.26 126.954l4.039-24.883-1.884-1.088c-5.396 15.335-11.743 16.336-29.75 5.94l-3.759-2.17c-4.353-2.513-5.046-3.815-5.035-7.801l.088-31.156 11.572 6.681c5.648 3.26 9.199 8.498 10.163 18.624l1.783 1.029.086-30.479-1.783-1.029c-1.018 8.982-4.587 10.108-10.235 6.847l-11.572-6.681.094-33.311 5.247 3.029c19.191 11.08 25.911 18.485 30.804 40.562l1.981 1.144-2.3-28.553c-7.717-4.111-16.525-9.196-23.356-13.14l-35.719-20.622-.006 2.048c9.596 6.908 9.79 8.505 9.757 20.213l-.14 49.233c-.033 11.719-.235 13.076-9.839 8.9l-.006 2.048 36.709 21.194c7.03 4.06 15.147 8.746 23.061 13.421m296.638 171.158l.137-48.333-1.271-.734c.053-.786.083-1.585.085-2.416.052-18.193-12.745-40.352-28.578-49.493-15.837-9.144-28.713-1.806-28.764 16.387a38.66 38.66 0 0 0 .076 2.509l-1.276-.737-.137 48.333 2.391 1.38.117-41.351c2.706 12.129 9.901 24.628 19.05 33.118l-.054 19.267 2.391 1.38.053-18.558c1.924 1.577 3.918 2.978 5.968 4.161 2.05 1.183 4.05 2.084 5.977 2.724l-.053 18.569 2.386 1.378.103-36.396 2.506 1.447-.046 16.097c7.966.845 14.156-3.332 16.671-11.466l-.117 41.356 2.385 1.378m-447.514-338.897l.006-2.049-33.158-19.144-.006 2.049c9.601 6.911 9.795 8.507 9.761 20.216l-.139 49.233c-.033 11.719-.236 13.076-9.844 8.897l-.006 2.048 33.158 19.144.006-2.049c-9.601-6.911-9.795-8.497-9.761-20.216l.14-49.233c.033-11.708.235-13.076 9.843-8.896m128.712 49.827l-8.255 9.92 2.078 1.199 21.715-2.149-15.538-8.97"/><path fill="#181716" d="M3467.037 2753.56a48.194 48.194 0 0 0 1.095 7.625l-.117 41.351-2.388-1.379.137-48.333 1.273.736z"/><path fill="#181716" d="M2947.036 2338.227l616.845 356.136-2.763 974.657-616.845-356.136 2.763-974.657zm613.37 1329.56l2.759-973.021-615.417-355.311-2.759 973.021 615.417 355.311"/><path fill="#181716" d="M3335.722 2643.583l-.006 2.047c-9.6-4.176-9.802-2.808-9.835 8.901l-.14 49.235c-.033 11.716.161 13.305 9.753 20.21l-.006 2.047-33.149-19.139.006-2.047c9.606 4.179 9.809 2.819 9.842-8.897l.156-54.921-25.132 53.941-2.969-1.714-26.323-85.361-.161 56.63c-.033 11.716.161 13.305 9.753 20.21l-.006 2.047-24.242-13.996.006-2.047c9.6 4.176 9.808 2.819 9.842-8.897l.14-49.235c.033-11.709-.167-13.309-9.759-20.214l.006-2.047 26.024 15.025 20.726 68.005 20.641-44.123 24.833 14.34zm71.747 110.447c3.141 11.035 3.928 12.857 10.062 17.309l-.006 2.047-30.078-17.365.006-2.047c8.111 3.772 7.92 1.273 6.059-5.497l-5.299-19.123-26.918-15.541-.599 1.477c-7.281 16.865-4.615 19.66 3.995 25.542l-.006 2.047-22.761-13.141.006-2.047c6.432 2.802 7.229 1.55 12.818-11.963l20.559-49.292c2.574 1.031 5.351.584 6.846-1.059l.396.229 24.92 88.424zm-44.179-44.642l23.157 13.37-11.28-41.028-11.877 27.658m123.895 84.92a52.654 52.654 0 0 0 2.386 2.086l-.052 18.558-2.388-1.379.054-19.265z"/><path fill="#181716" d="M3489.65 2768.38l-.08 28.014a51.962 51.962 0 0 1-2.386-2.086l.077-27.307 2.389 1.379zm14.334 8.275l-.029 10.176-.049 17.123a25.282 25.282 0 0 1-2.39-.671l.079-28.007 2.389 1.379z"/><path fill="#181716" d="M3495.725 2734.667c15.834 9.142 28.632 31.301 28.58 49.495a35.563 35.563 0 0 1-.086 2.412l-1.115-.644-.02 6.978c-2.513 8.133-8.703 12.313-16.673 11.463l.046-16.096-2.503-1.445.029-10.176-2.388-1.379-.079 28.007c-1.928-.641-3.928-1.544-5.978-2.728-2.047-1.182-4.043-2.583-5.968-4.162l.08-28.014-2.388-1.379-.077 27.307c-9.151-8.492-16.343-20.99-19.053-33.123l.02-6.981-1.115-.644a40.555 40.555 0 0 1-.072-2.503c.051-18.193 12.926-25.53 28.76-16.388zm119.745 1843.866c7.211-4.164 16.65-7.335 21.608-6.78l.318 23.163-2.003 1.157c-3.026-14.538-10.05-19.021-19.969-13.294-8.109 4.682-13.762 12.274-13.654 20.177.107 7.801 4.867 8.698 10.211 8.456l10.694-.479c11.195-.541 19.596.877 19.765 13.191.203 14.807-12.169 32.54-27.192 41.213-9.815 5.667-18.368 7.981-24.225 7.835l-.378-27.573 2.003-1.156c3.093 19.4 10.621 23.6 22.543 16.716 8.814-5.088 16.055-14.171 15.916-24.341-.105-7.685-5.568-8.514-13.64-8.182l-8.976.398c-10.694.479-17.51-3.103-17.661-14.068-.178-12.992 10.618-28.338 24.64-36.433zm70.084 9.425l-8.316 4.801.254 18.533c.16 11.636.38 12.993 11.119 8.152l.028 2.042-34.557 19.952-.028-2.042c9.7-6.959 9.88-8.548 9.72-20.184l-.672-48.935c-.16-11.636-.38-12.993-10.117-8.738l-.028-2.034 12.82-7.402c4.911-2.835 16.023-9.361 19.132-11.156 18.526-10.696 32.926-13.087 33.167 4.542.242 17.63-13.996 31.773-32.522 42.469zm-8.906-38.141l.534 38.874 7.211-4.164c11.515-6.648 18.656-15.9 18.459-30.248-.197-14.355-7.478-15.274-18.993-8.626l-7.211 4.164m91.051-58.829c19.631-11.333 38.361-7.12 38.744 20.796.383 27.909-17.938 53.521-37.569 64.855-19.631 11.333-38.361 7.113-38.744-20.796-.382-27.916 17.939-53.521 37.569-64.855zm1.118 81.467c13.822-7.98 22.633-27.984 22.305-51.825-.327-23.848-9.545-33.443-23.366-25.464-13.822 7.98-22.633 27.984-22.305 51.833.328 23.839 9.545 33.436 23.366 25.456m122.803-150.742l.028 2.034c-9.693 6.963-9.874 8.552-9.714 20.188l.434 31.642c.337 24.526-9.635 41.1-27.56 51.449-19.934 11.509-29.509 5.309-29.796-15.602l-.47-34.237c-.16-11.643-.375-13.113-10.112-8.858l-.028-2.034 33.549-19.37.028 2.034c-9.693 6.963-9.875 8.435-9.712 20.304l.448 32.655c.244 17.745 5.685 24.62 19.306 16.755 14.726-8.502 19.574-23.029 19.639-40.152l-.437-31.868c-.16-11.636-.381-12.993-10.111-8.742l-.028-2.034 24.536-14.164zm75.908-44.163l3.419 28.434-2.1 1.212c-5.159-15.245-11.175-19.856-25.197-11.76l-2.5 1.444.847 61.701c.155 11.301.581 12.877 11.209 8.101l.028 2.042-35.753 20.642-.028-2.042c10.598-7.478 10.974-9.518 10.819-20.818l-.847-61.701-2.501 1.443c-14.022 8.096-19.824 19.529-24.584 40.501l-2.003 1.156 2.591-31.904c7.72-4.119 17.031-9.495 23.945-13.486l18.629-10.756c6.907-3.988 16.218-9.363 24.026-14.209zm87.742-50.32l.028 2.034c-9.7 6.967-9.88 8.555-9.72 20.191l.898 65.427-8.413 4.857-43.521-37.629.628 45.771c.16 11.636.38 12.986 10.117 8.731l.028 2.034-24.535 14.166-.028-2.034c9.693-6.963 9.873-8.544 9.714-20.18l-.723-52.661-1.733-1.505c-3.58-3.173-5.516-4.223-8.331-3.847l-.023-1.699 18.623-10.752 43.213 37.014-.617-44.977c-.16-11.636-.38-12.993-10.117-8.738l-.028-2.035 24.54-14.168zm41.458-23.936l.028 2.034c-9.693 6.963-9.873 8.552-9.714 20.188l.672 48.935c.16 11.636.38 12.993 10.111 8.735l.028 2.034-33.549 19.37-.028-2.034c9.693-6.956 9.873-8.544 9.713-20.18l-.672-48.935c-.16-11.636-.38-12.993-10.111-8.742l-.028-2.034 33.55-19.371zm34.551 46.004c.16 11.636.38 12.993 10.11 8.735l.028 2.035-33.549 19.37-.028-2.035c9.693-6.956 9.874-8.544 9.714-20.18l-.672-48.935c-.16-11.636-.38-12.993-10.111-8.742l-.028-2.034 33.549-19.37.028 2.034c-9.693 6.963-9.873 8.551-9.713 20.188l.672 48.934z"/><path fill="#181716" d="M4169.871 4329.633c6.118 4.441 8.165 6.448 14.185 3.766l.028 2.035-32.25 18.62-.028-2.034c6.704-4.554 6.76-7.658 3.194-10.272l-23.965-17.366 22.017-36.292c9.771-16.003 11.519-21.112.891-15.777l-.028-2.035 24.742-14.285.028 2.035c-6.597 4.837-8.871 8.538-19.928 26.658l-15.795 25.977 26.909 18.97z"/><g fill="#181716"><path d="M3011.592 4286.289c8.144 4.514 16.517 11.171 21.519 16.41l3.054 26.913-1.883-1.043c-3.908-17.971-11.506-31.932-23.822-38.759-12.213-6.77-22.156.379-21.776 26.37.332 22.711 8.99 42.303 23.989 50.617 12.909 7.156 20.316 1.511 23.646-6.502l2.697 2.5c-3.099 10.281-12.464 16.746-28.358 7.936-21.549-11.945-36.805-37.886-37.172-62.974-.394-27.005 17.15-33.085 38.106-21.468zm69.259 40.631l.03 2.032c-9.614-3.982-9.792-2.626-9.622 9.016l.715 48.922c.17 11.642.392 13.22 10.044 19.917l.03 2.032-33.272-18.443-.03-2.032c9.614 3.983 9.792 2.626 9.622-9.015l-.715-48.922c-.17-11.642-.392-13.22-10.045-19.917l-.03-2.032 33.273 18.442zm84.224 46.687l.03 2.032c-9.614-3.982-9.792-2.626-9.622 9.016l.957 65.419-8.344-4.625-43.216-85.708.669 45.76c.17 11.642.385 13.216 10.038 19.913l.03 2.032-24.328-13.486-.03-2.032c9.614 3.983 9.792 2.626 9.622-9.015l-.77-52.656-1.726-3.423c-3.552-7.121-5.472-10.317-8.27-13.098l-.025-1.694 18.474 10.24 42.907 84.751-.657-44.968c-.17-11.642-.385-13.216-10.045-19.917l-.03-2.032 24.336 13.491zm60.164 11.266l-21.536 2.52-2.089-1.158 8.033-10.005zm10.17 82.299l1.883 1.044-3.577 24.808c-7.946-4.521-16.089-9.035-23.144-12.945l-36.85-20.426-.03-2.032c9.62 3.986 9.798 2.629 9.628-9.012l-.715-48.921c-.17-11.642-.391-13.22-10.051-19.92l-.03-2.032 35.858 19.876c6.854 3.799 15.694 8.7 23.433 12.655l2.781 28.326-1.986-1.101c-5.244-21.847-12.053-29.099-31.32-39.779l-5.262-2.917.484 33.113 11.619 6.441c5.661 3.138 9.187 1.949 10.048-6.989l1.786.99.443 30.282-1.786-.99c-1.138-10.039-4.757-15.188-10.418-18.326l-11.619-6.44.453 30.964c.058 3.954.761 5.239 5.133 7.662l3.778 2.095c18.074 10.016 24.364 8.911 29.461-6.426zm104.279 3.224l.03 2.032c-9.62-3.986-9.798-2.63-9.628 9.012l.715 48.922c.17 11.642.391 13.22 10.051 19.92l.03 2.031-33.278-18.446-.03-2.032c9.614 3.983 9.792 2.626 9.622-9.015l-.798-54.571-24.032 54.035-2.985-1.655-27.635-84.362.823 56.272c.17 11.642.391 13.22 10.045 19.917l.03 2.032-24.335-13.489-.03-2.032c9.613 3.982 9.792 2.626 9.622-9.016l-.715-48.921c-.17-11.642-.392-13.22-10.045-19.917l-.03-2.032 26.121 14.479 21.775 67.209 19.744-44.195 24.933 13.822zm73.206 108.496c3.313 10.917 4.126 12.713 10.297 17.029l.03 2.032-30.196-16.738-.03-2.032c8.131 3.612 7.903 1.128 5.931-5.568l-5.598-18.906-27.017-14.976-.567 1.483c-6.948 16.878-4.248 19.612 4.406 25.304l.03 2.032-22.839-12.66-.03-2.032c6.441 2.675 7.209 1.42 12.531-12.111l19.573-49.333c2.573.975 5.329.487 6.782-1.174l.393.218 26.304 87.432zm-44.679-43.59l23.245 12.885-11.927-40.577-11.318 27.692m162.526 74.613l.702 48.027-2.399-1.33-.601-41.091c.551-1.898.898-4.009 1.019-6.315l1.279.709zm-57.548-31.899l.102 6.94a47.905 47.905 0 0 1-1.222-7.562l1.12.622z"/><path d="M3472.073 4577.395c.19 2.48.605 5.015 1.222 7.562l.601 41.086-2.399-1.33-.702-48.026 1.278.708zm20.725 40.135c.79.708 1.593 1.386 2.409 2.033l.27 18.442-2.399-1.33-.28-19.145zm36.665-8.323c-.12 2.306-.468 4.417-1.019 6.315l-.101-6.936 1.12.621z"/><path d="M3494.8 4591.731l.407 27.831a51.641 51.641 0 0 1-2.409-2.033l-.396-27.128 2.398 1.33zm14.386 7.975l.148 10.109.249 17.019a25.973 25.973 0 0 1-2.388-.627l-.407-27.83 2.398 1.329z"/><path d="M3509.333 4609.814l.529 36.165-2.399-1.33-.27-18.444c.809.254 1.606.463 2.388.627l-.248-17.018z"/><path d="M3500.257 4558.128c15.888 8.807 28.985 30.604 29.25 48.68.012.822-.003 1.621-.043 2.399l-1.12-.621.101 6.936c-2.356 8.122-8.435 12.382-16.369 11.682l-.234-15.999-2.508-1.39-.148-10.109-2.399-1.33.407 27.83c-1.925-.605-3.924-1.467-5.98-2.607a44.258 44.258 0 0 1-6.007-4.036l-.407-27.831-2.399-1.33.396 27.128c-9.237-8.279-16.6-20.569-19.503-32.574l-.102-6.94-1.12-.621a40.286 40.286 0 0 1-.115-2.487c-.263-18.075 12.406-25.591 28.3-16.78z"/></g><path d="M3496.925 1907.123h12.515v99.37h-12.515zm-131.198 0h12.515v99.37h-12.515zm-580.592 658.426h12.515v99.37h-12.515zm829.002-658.426h12.515v99.37h-12.515zm131.198 0h12.515v99.37h-12.515z"/><path fill="none" stroke="#000" stroke-width="14" stroke-miterlimit="10" d="M2951.032 4621.532s-62.87 20.184 8.108 40.368m-8.108-18.155s-62.428 21.629 13.774 43.259m-10.556-16.707s-66.088 24.21 17.845 42.543"/><path fill="#FFF" d="M2940.868 4602.623h28.5v91.831h-28.5z"/><path fill="none" stroke="#000" stroke-width="14" stroke-miterlimit="10" d="M2933.598 4629.824c-11.394 7.746-17.237 19.911 25.542 32.076m-32.179 1.912c.189 6.97 9.27 15.082 37.845 23.192m1243.158-65.472s62.87 20.184-8.108 40.368m8.108-18.155s62.429 21.629-13.774 43.259m10.557-16.707s66.087 24.21-17.846 42.543"/><path fill="#FFF" d="M4189.629 4602.623h28.5v91.831h-28.5z"/><path fill="none" stroke="#000" stroke-width="14" stroke-miterlimit="10" d="M4225.398 4629.824c11.395 7.746 17.237 19.911-25.542 32.076m32.18 1.912c-.189 6.97-9.27 15.082-37.846 23.192"/><path fill="#F7F7F7" stroke="#181716" stroke-width="5" stroke-miterlimit="10" d="M1394.615 1138.759L733.369 1520.17V505.437l661.246-381.41z"/><path fill="#CCC" stroke="#181716" stroke-width="5" stroke-miterlimit="10" d="M116.445 1164.286l616.924 355.884V505.437L116.445 149.553z"/><image overflow="visible" width="1634" height="1374" xlink:href="2A463CCD54EADDCA.png" transform="matrix(.24 0 0 .24 541.782 175.823)"/><g fill="#181716"><path d="M791.524 579.025c7.211-4.163 16.651-7.335 21.608-6.78l.318 23.163-2.003 1.157c-3.026-14.537-10.05-19.021-19.969-13.294-8.109 4.682-13.763 12.274-13.654 20.177.107 7.801 4.867 8.698 10.211 8.456l10.694-.479c11.195-.541 19.596.877 19.765 13.191.203 14.807-12.169 32.54-27.192 41.214-9.815 5.667-18.368 7.981-24.225 7.835l-.378-27.573 2.003-1.156c3.093 19.4 10.621 23.6 22.543 16.716 8.814-5.089 16.055-14.171 15.916-24.341-.105-7.685-5.568-8.514-13.64-8.182l-8.976.398c-10.694.48-17.51-3.103-17.661-14.068-.178-12.993 10.618-28.339 24.64-36.434zm70.085 9.425l-8.316 4.801.254 18.533c.16 11.636.38 12.993 11.119 8.153l.028 2.041-34.557 19.952-.028-2.041c9.7-6.96 9.88-8.548 9.72-20.184l-.672-48.935c-.16-11.636-.38-12.993-10.117-8.738l-.028-2.034 12.82-7.402c4.911-2.835 16.023-9.361 19.132-11.156 18.526-10.696 32.926-13.087 33.168 4.542.241 17.629-13.998 31.772-32.523 42.468zm-8.906-38.14l.534 38.874 7.211-4.163c11.515-6.648 18.656-15.9 18.459-30.248-.197-14.356-7.478-15.274-18.993-8.626l-7.211 4.163m91.051-58.829c19.631-11.334 38.361-7.12 38.744 20.796.383 27.909-17.938 53.522-37.569 64.855-19.631 11.334-38.361 7.113-38.744-20.796-.383-27.917 17.938-53.522 37.569-64.855zm1.118 81.466c13.822-7.98 22.633-27.984 22.305-51.825-.327-23.848-9.544-33.444-23.366-25.464s-22.632 27.984-22.305 51.832c.327 23.841 9.544 33.437 23.366 25.457m122.803-150.742l.028 2.034c-9.693 6.963-9.874 8.551-9.714 20.188l.434 31.642c.337 24.526-9.635 41.1-27.56 51.449-19.934 11.509-29.509 5.309-29.796-15.601l-.47-34.237c-.16-11.643-.375-13.114-10.112-8.859l-.028-2.034 33.549-19.37.028 2.034c-9.693 6.963-9.875 8.435-9.712 20.304l.448 32.655c.244 17.745 5.685 24.62 19.306 16.755 14.726-8.502 19.574-23.029 19.639-40.152l-.438-31.868c-.16-11.636-.38-12.993-10.111-8.742l-.028-2.034 24.537-14.164zm75.907-44.163l3.419 28.434-2.1 1.212c-5.159-15.245-11.175-19.856-25.197-11.76l-2.501 1.444.847 61.701c.155 11.301.581 12.877 11.209 8.101l.028 2.041-35.753 20.642-.028-2.041c10.598-7.478 10.974-9.518 10.819-20.818l-.847-61.701-2.501 1.444c-14.022 8.095-19.824 19.529-24.584 40.501l-2.003 1.157 2.591-31.904c7.72-4.119 17.031-9.495 23.945-13.487l18.629-10.756c6.909-3.989 16.22-9.364 24.027-14.21zm87.742-50.32l.028 2.034c-9.7 6.967-9.88 8.555-9.72 20.191l.898 65.427-8.413 4.857-43.521-37.629.628 45.771c.16 11.636.38 12.986 10.117 8.731l.028 2.034-24.535 14.165-.028-2.034c9.693-6.963 9.873-8.544 9.714-20.18l-.723-52.661-1.733-1.505c-3.58-3.172-5.516-4.223-8.331-3.847l-.023-1.699 18.623-10.752 43.213 37.013-.617-44.976c-.16-11.636-.38-12.993-10.117-8.738l-.028-2.034 24.54-14.168zm41.459-23.936l.028 2.034c-9.694 6.963-9.874 8.551-9.714 20.188l.672 48.935c.16 11.636.38 12.993 10.111 8.735l.028 2.034-33.549 19.37-.028-2.034c9.693-6.956 9.873-8.544 9.714-20.18l-.672-48.935c-.16-11.636-.38-12.993-10.11-8.742l-.028-2.034 33.548-19.371zm34.55 46.005c.16 11.636.38 12.993 10.11 8.735l.028 2.034-33.549 19.37-.028-2.034c9.694-6.956 9.874-8.544 9.714-20.181l-.672-48.935c-.16-11.636-.38-12.993-10.111-8.742l-.028-2.034 33.549-19.37.028 2.034c-9.693 6.963-9.873 8.551-9.713 20.187l.672 48.936z"/><path d="M1345.926 330.125c6.118 4.441 8.165 6.448 14.185 3.766l.028 2.034-32.25 18.62-.028-2.034c6.704-4.554 6.759-7.658 3.193-10.272l-23.965-17.366 22.017-36.293c9.771-16.003 11.518-21.112.891-15.777l-.028-2.034 24.742-14.285.028 2.034c-6.596 4.837-8.871 8.539-19.928 26.658l-15.795 25.977 26.91 18.972z"/></g><g fill="#181716"><path d="M187.647 286.781c8.144 4.514 16.517 11.171 21.519 16.41l3.054 26.913-1.883-1.044c-3.908-17.971-11.506-31.932-23.822-38.759-12.213-6.77-22.156.379-21.776 26.37.332 22.711 8.991 42.304 23.988 50.617 12.909 7.156 20.316 1.511 23.646-6.503l2.697 2.499c-3.099 10.281-12.464 16.746-28.358 7.936-21.549-11.945-36.805-37.886-37.172-62.974-.394-27.002 17.151-33.081 38.107-21.465zm69.259 40.632l.03 2.032c-9.613-3.983-9.792-2.626-9.622 9.015l.715 48.922c.17 11.642.392 13.22 10.045 19.917l.03 2.032-33.272-18.443-.03-2.032c9.614 3.983 9.792 2.626 9.622-9.015l-.715-48.922c-.17-11.642-.392-13.22-10.045-19.917l-.03-2.032 33.272 18.443zm84.224 46.686l.03 2.032c-9.614-3.983-9.792-2.627-9.622 9.015l.956 65.42-8.344-4.625-43.215-85.708.669 45.76c.17 11.642.385 13.216 10.038 19.913l.03 2.032-24.328-13.485-.03-2.032c9.614 3.983 9.792 2.626 9.622-9.015l-.77-52.656-1.726-3.423c-3.551-7.12-5.472-10.317-8.269-13.097l-.025-1.695 18.474 10.24 42.907 84.752-.657-44.968c-.17-11.642-.385-13.216-10.045-19.917l-.03-2.032 24.335 13.489zm60.163 11.266l-21.536 2.52-2.089-1.158 8.034-10.005zm10.17 82.3l1.883 1.044-3.577 24.808c-7.946-4.521-16.089-9.035-23.143-12.945l-36.85-20.427-.03-2.032c9.62 3.986 9.798 2.63 9.628-9.012l-.715-48.922c-.17-11.642-.392-13.22-10.051-19.92l-.03-2.032 35.857 19.876c6.854 3.799 15.694 8.699 23.434 12.655l2.781 28.326-1.986-1.101c-5.244-21.847-12.053-29.099-31.32-39.779l-5.262-2.917.484 33.113 11.619 6.441c5.661 3.138 9.187 1.949 10.048-6.989l1.786.99.443 30.282-1.786-.99c-1.138-10.039-4.757-15.188-10.418-18.326l-11.619-6.441.453 30.964c.058 3.954.761 5.239 5.133 7.662l3.778 2.094c18.073 10.019 24.363 8.914 29.46-6.422zm104.279 3.223l.03 2.032c-9.62-3.986-9.798-2.63-9.628 9.012l.715 48.922c.17 11.642.391 13.22 10.051 19.92l.03 2.032-33.278-18.446-.03-2.032c9.614 3.983 9.792 2.626 9.622-9.015l-.798-54.57-24.032 54.035-2.985-1.655-27.635-84.363.823 56.272c.17 11.642.391 13.22 10.045 19.917l.03 2.032-24.335-13.489-.03-2.032c9.613 3.983 9.792 2.626 9.622-9.015l-.715-48.922c-.17-11.642-.392-13.22-10.045-19.917l-.03-2.032 26.121 14.479 21.775 67.21 19.744-44.195 24.933 13.82zm73.206 108.496c3.313 10.917 4.126 12.714 10.297 17.029l.03 2.032-30.196-16.738-.03-2.032c8.131 3.612 7.903 1.128 5.931-5.568l-5.598-18.907-27.017-14.976-.567 1.483c-6.948 16.878-4.248 19.613 4.406 25.304l.03 2.032-22.839-12.66-.03-2.032c6.441 2.676 7.21 1.421 12.531-12.11l19.572-49.333c2.573.975 5.328.487 6.782-1.174l.393.218 26.305 87.432zm-44.678-43.59l23.245 12.885-11.927-40.577-11.318 27.692m162.526 74.613l.702 48.027-2.399-1.33-.601-41.091c.551-1.898.898-4.009 1.019-6.315l1.279.709zm-57.549-31.899l.101 6.94a47.893 47.893 0 0 1-1.222-7.561l1.121.621z"/><path d="M648.127 577.887c.19 2.48.605 5.015 1.222 7.561l.601 41.086-2.399-1.33-.702-48.027 1.278.71zm20.725 40.135c.79.708 1.593 1.386 2.409 2.032l.27 18.443-2.399-1.33-.28-19.145zm36.665-8.323c-.12 2.306-.468 4.417-1.019 6.315l-.101-6.936 1.12.621z"/><path d="M670.854 592.224l.407 27.831a51.616 51.616 0 0 1-2.409-2.032l-.397-27.128 2.399 1.329zm14.386 7.974l.148 10.109.249 17.019a25.056 25.056 0 0 1-2.388-.628l-.407-27.83 2.398 1.33z"/><path d="M685.388 610.307l.529 36.165-2.399-1.33-.27-18.444c.809.254 1.606.463 2.388.628l-.248-17.019z"/><path d="M676.311 558.62c15.888 8.807 28.985 30.605 29.25 48.68.012.822-.003 1.621-.044 2.399l-1.12-.621.101 6.936c-2.357 8.122-8.435 12.383-16.369 11.683l-.234-15.999-2.508-1.39-.148-10.109-2.399-1.33.407 27.83c-1.925-.605-3.924-1.467-5.98-2.607a44.258 44.258 0 0 1-6.007-4.036l-.407-27.831-2.399-1.33.397 27.128c-9.237-8.279-16.6-20.569-19.504-32.574l-.101-6.94-1.12-.621a40.25 40.25 0 0 1-.115-2.487c-.263-18.076 12.406-25.591 28.3-16.781z"/></g><path d="M133.28 669.125c-25.085-7.133-37.019-14.948-38.696-25.34-.775-4.806.526-12.048 11.133-19.258l7.87 11.578c-4.535 3.083-5.241 5.083-5.182 5.45.01.062 1.321 6.317 28.704 14.104l-3.829 13.466zm5.67 25.105c-28.964-8.221-42.606-17.67-42.932-29.737l13.995-.379c.002.074.572 7.512 32.759 16.648l-3.822 13.468zm1238.876-25.105l-3.83-13.466c27.382-7.787 28.693-14.042 28.703-14.104.06-.367-.646-2.367-5.182-5.45l7.871-11.578c10.605 7.209 11.907 14.452 11.132 19.258-1.677 10.392-13.61 18.207-38.694 25.34zm-5.67 25.105l-3.822-13.468c32.186-9.136 32.758-16.575 32.76-16.649l13.994.381c-.329 12.067-13.97 21.515-42.932 29.736z"/><path d="M1394.615 669.376v16.809c2.502 2.009 3.983 3.808 3.906 4.932-.005.074-1.505 7.611-37.06 15.376l2.988 13.678c32.381-7.073 47.196-15.74 48.039-28.103.694-10.177-9.066-17.869-17.873-22.692z"/><path d="M1399.729 643.885a75.07 75.07 0 0 0-5.114-2.735v16.05c3.916 2.599 6.528 5.213 6.477 6.916-.002.074-.591 7.514-32.759 16.645l3.822 13.468c28.946-8.216 42.588-17.658 42.931-29.715.216-7.563-4.951-14.504-15.357-20.629z"/><path d="M1394.615 618.573v15.736c4.87 2.806 8.115 5.643 8.089 7.19-.001.06-1.331 6.375-28.709 14.161l3.83 13.466c10.557-3.002 38.602-10.977 38.877-27.392.189-11.235-12.481-18.941-22.087-23.161zM112.584 691.118c-.077-1.117 1.386-2.901 3.86-4.896v-16.82c-8.795 4.825-18.521 12.507-17.828 22.667.843 12.363 15.659 21.03 48.04 28.103l2.987-13.678c-35.554-7.766-37.054-15.303-37.059-15.376z"/><path d="M110.013 664.117c-.05-1.697 2.542-4.297 6.432-6.886v-16.059a74.62 74.62 0 0 0-5.068 2.713c-10.406 6.125-15.573 13.066-15.357 20.629.343 12.057 13.985 21.5 42.931 29.715l3.823-13.468c-32.17-9.13-32.759-16.57-32.761-16.644z"/><path d="M108.401 641.499c-.01-.559 1.369-3.349 8.044-7.159v-15.747c-9.6 4.225-22.231 11.924-22.042 23.141.099 5.867 3.635 11.165 10.513 15.747 6.304 4.201 15.582 8.01 28.365 11.645l3.829-13.466c-27.374-7.785-28.708-14.101-28.709-14.161z"/><path fill="#EEE" d="M-6710.382-1091.901h3058.235v3933.085h-3058.235z"/><path fill="#F7F7F7" stroke="#181716" stroke-width="5" stroke-miterlimit="10" d="M-4670.046 1138.759l-661.246 381.411V505.437l661.246-381.41z"/><path fill="#CCC" stroke="#181716" stroke-width="5" stroke-miterlimit="10" d="M-5948.216 1164.286l616.924 355.884V505.437l-616.924-355.884z"/><image overflow="visible" width="1634" height="1374" xlink:href="2A463CCD54EADDCE.png" transform="matrix(.24 0 0 .24 -5522.88 175.823)"/><g fill="#181716"><path d="M-5273.137 579.025c7.211-4.163 16.651-7.335 21.608-6.78l.318 23.163-2.003 1.157c-3.026-14.537-10.05-19.021-19.969-13.294-8.109 4.682-13.763 12.274-13.654 20.177.107 7.801 4.867 8.698 10.211 8.456l10.694-.479c11.194-.541 19.596.877 19.765 13.191.203 14.807-12.169 32.54-27.192 41.214-9.815 5.667-18.368 7.981-24.225 7.835l-.378-27.573 2.003-1.156c3.093 19.4 10.621 23.6 22.542 16.716 8.814-5.089 16.056-14.171 15.916-24.341-.105-7.685-5.568-8.514-13.64-8.182l-8.976.398c-10.694.48-17.51-3.103-17.661-14.068-.177-12.993 10.619-28.339 24.641-36.434zm70.084 9.425l-8.316 4.801.254 18.533c.16 11.636.38 12.993 11.119 8.153l.028 2.041-34.557 19.952-.028-2.041c9.7-6.96 9.88-8.548 9.72-20.184l-.671-48.935c-.16-11.636-.38-12.993-10.118-8.738l-.028-2.034 12.82-7.402c4.911-2.835 16.023-9.361 19.131-11.156 18.526-10.696 32.926-13.087 33.167 4.542.244 17.629-13.995 31.772-32.521 42.468zm-8.905-38.14l.534 38.874 7.211-4.163c11.515-6.648 18.656-15.9 18.459-30.248-.197-14.356-7.478-15.274-18.993-8.626l-7.211 4.163m91.051-58.829c19.63-11.334 38.361-7.12 38.744 20.796.383 27.909-17.938 53.522-37.569 64.855-19.63 11.334-38.361 7.113-38.744-20.796-.383-27.917 17.938-53.522 37.569-64.855zm1.118 81.466c13.821-7.98 22.632-27.984 22.305-51.825-.328-23.848-9.544-33.444-23.366-25.464s-22.632 27.984-22.305 51.832c.327 23.841 9.544 33.437 23.366 25.457m122.803-150.742l.028 2.034c-9.693 6.963-9.874 8.551-9.714 20.188l.435 31.642c.336 24.526-9.635 41.1-27.56 51.449-19.935 11.509-29.509 5.309-29.796-15.601l-.47-34.237c-.16-11.643-.375-13.114-10.112-8.859l-.028-2.034 33.549-19.37.028 2.034c-9.693 6.963-9.875 8.435-9.712 20.304l.448 32.655c.244 17.745 5.685 24.62 19.307 16.755 14.726-8.502 19.574-23.029 19.639-40.152l-.438-31.868c-.16-11.636-.38-12.993-10.111-8.742l-.028-2.034 24.535-14.164zm75.907-44.163l3.419 28.434-2.1 1.212c-5.159-15.245-11.175-19.856-25.197-11.76l-2.5 1.444.847 61.701c.155 11.301.581 12.877 11.209 8.101l.028 2.041-35.752 20.642-.028-2.041c10.598-7.478 10.974-9.518 10.819-20.818l-.847-61.701-2.5 1.444c-14.021 8.095-19.824 19.529-24.583 40.501l-2.003 1.157 2.591-31.904c7.719-4.119 17.031-9.495 23.945-13.487l18.629-10.756c6.905-3.989 16.216-9.364 24.023-14.21zm87.742-50.32l.028 2.034c-9.7 6.967-9.88 8.555-9.72 20.191l.898 65.427-8.413 4.857-43.521-37.629.628 45.771c.16 11.636.38 12.986 10.117 8.731l.028 2.034-24.535 14.165-.028-2.034c9.693-6.963 9.873-8.544 9.713-20.18l-.723-52.661-1.733-1.505c-3.58-3.172-5.516-4.223-8.331-3.847l-.023-1.699 18.623-10.752 43.213 37.013-.617-44.976c-.16-11.636-.38-12.993-10.117-8.738l-.028-2.034 24.541-14.168zm41.459-23.936l.028 2.034c-9.693 6.963-9.874 8.551-9.714 20.188l.672 48.935c.16 11.636.38 12.993 10.111 8.735l.028 2.034-33.549 19.37-.028-2.034c9.693-6.956 9.873-8.544 9.713-20.18l-.671-48.935c-.16-11.636-.38-12.993-10.111-8.742l-.028-2.034 33.549-19.371zm34.55 46.005c.16 11.636.38 12.993 10.11 8.735l.028 2.034-33.549 19.37-.028-2.034c9.694-6.956 9.874-8.544 9.714-20.181l-.671-48.935c-.16-11.636-.38-12.993-10.111-8.742l-.028-2.034 33.549-19.37.028 2.034c-9.693 6.963-9.873 8.551-9.713 20.187l.671 48.936z"/><path d="M-4718.735 330.125c6.118 4.441 8.165 6.448 14.185 3.766l.028 2.034-32.25 18.62-.028-2.034c6.704-4.554 6.759-7.658 3.193-10.272l-23.965-17.366 22.017-36.293c9.771-16.003 11.519-21.112.891-15.777l-.028-2.034 24.742-14.285.028 2.034c-6.596 4.837-8.871 8.539-19.928 26.658l-15.795 25.977 26.91 18.972z"/></g><g fill="#181716"><path d="M-5877.014 286.781c8.144 4.514 16.517 11.171 21.519 16.41l3.054 26.913-1.882-1.044c-3.909-17.971-11.506-31.932-23.822-38.759-12.212-6.77-22.156.379-21.776 26.37.332 22.711 8.991 42.304 23.988 50.617 12.909 7.156 20.316 1.511 23.646-6.503l2.697 2.499c-3.099 10.281-12.463 16.746-28.357 7.936-21.549-11.945-36.805-37.886-37.172-62.974-.396-27.002 17.149-33.081 38.105-21.465zm69.259 40.632l.03 2.032c-9.613-3.983-9.792-2.626-9.622 9.015l.715 48.922c.17 11.642.392 13.22 10.045 19.917l.03 2.032-33.272-18.443-.03-2.032c9.614 3.983 9.792 2.626 9.622-9.015l-.715-48.922c-.17-11.642-.392-13.22-10.045-19.917l-.03-2.032 33.272 18.443zm84.224 46.686l.03 2.032c-9.614-3.983-9.792-2.627-9.622 9.015l.957 65.42-8.344-4.625-43.215-85.708.669 45.76c.17 11.642.385 13.216 10.038 19.913l.03 2.032-24.329-13.485-.03-2.032c9.614 3.983 9.792 2.626 9.622-9.015l-.77-52.656-1.726-3.423c-3.551-7.12-5.472-10.317-8.27-13.097l-.025-1.695 18.474 10.24 42.907 84.752-.657-44.968c-.17-11.642-.385-13.216-10.045-19.917l-.03-2.032 24.336 13.489zm60.163 11.266l-21.536 2.52-2.089-1.158 8.034-10.005zm10.17 82.3l1.883 1.044-3.578 24.808c-7.945-4.521-16.089-9.035-23.143-12.945l-36.851-20.427-.03-2.032c9.62 3.986 9.798 2.63 9.628-9.012l-.715-48.922c-.17-11.642-.392-13.22-10.051-19.92l-.03-2.032 35.857 19.876c6.854 3.799 15.694 8.699 23.434 12.655l2.781 28.326-1.986-1.101c-5.245-21.847-12.053-29.099-31.32-39.779l-5.262-2.917.484 33.113 11.619 6.441c5.662 3.138 9.187 1.949 10.048-6.989l1.786.99.443 30.282-1.786-.99c-1.138-10.039-4.757-15.188-10.418-18.326l-11.62-6.441.453 30.964c.058 3.954.761 5.239 5.133 7.662l3.779 2.094c18.075 10.019 24.365 8.914 29.462-6.422zm104.279 3.223l.03 2.032c-9.62-3.986-9.798-2.63-9.628 9.012l.715 48.922c.17 11.642.392 13.22 10.051 19.92l.03 2.032-33.279-18.447-.03-2.032c9.613 3.983 9.792 2.626 9.622-9.015l-.798-54.57-24.032 54.035-2.985-1.655-27.635-84.363.823 56.272c.17 11.642.392 13.22 10.044 19.917l.03 2.032-24.334-13.489-.03-2.032c9.613 3.983 9.792 2.626 9.622-9.015l-.715-48.922c-.17-11.642-.392-13.22-10.044-19.917l-.03-2.032 26.121 14.479 21.775 67.21 19.744-44.195 24.933 13.821zm73.206 108.496c3.312 10.917 4.125 12.714 10.296 17.029l.03 2.032-30.196-16.738-.029-2.032c8.13 3.612 7.902 1.128 5.93-5.568l-5.597-18.907-27.018-14.976-.566 1.483c-6.949 16.878-4.248 19.613 4.405 25.304l.03 2.032-22.839-12.66-.03-2.032c6.441 2.676 7.21 1.421 12.532-12.11l19.572-49.333c2.573.975 5.329.487 6.782-1.174l.393.218 26.305 87.432zm-44.679-43.59l23.245 12.885-11.927-40.577-11.318 27.692m162.527 74.613l.702 48.027-2.399-1.33-.601-41.091c.551-1.898.898-4.009 1.019-6.315l1.279.709zm-57.549-31.899l.101 6.94a47.774 47.774 0 0 1-1.221-7.561l1.12.621z"/><path d="M-5416.534 577.887c.19 2.48.605 5.015 1.221 7.561l.601 41.086-2.399-1.33-.702-48.027 1.279.71zm20.725 40.135c.79.708 1.593 1.386 2.409 2.032l.27 18.443-2.398-1.33-.281-19.145zm36.665-8.323c-.12 2.306-.468 4.417-1.019 6.315l-.102-6.936 1.121.621z"/><path d="M-5393.807 592.224l.407 27.831a51.616 51.616 0 0 1-2.409-2.032l-.396-27.128 2.398 1.329zm14.386 7.974l.147 10.109.249 17.019a25.074 25.074 0 0 1-2.389-.628l-.407-27.83 2.4 1.33z"/><path d="M-5379.273 610.307l.529 36.165-2.398-1.33-.27-18.444c.81.254 1.606.463 2.389.628l-.25-17.019z"/><path d="M-5388.35 558.62c15.888 8.807 28.985 30.605 29.25 48.68.012.822-.003 1.621-.044 2.399l-1.12-.621.102 6.936c-2.356 8.122-8.435 12.383-16.369 11.683l-.234-15.999-2.508-1.39-.147-10.109-2.399-1.33.407 27.83c-1.925-.605-3.923-1.467-5.979-2.607a44.258 44.258 0 0 1-6.007-4.036l-.407-27.831-2.398-1.33.396 27.128c-9.237-8.279-16.6-20.569-19.504-32.574l-.101-6.94-1.12-.621a40.25 40.25 0 0 1-.115-2.487c-.266-18.076 12.403-25.591 28.297-16.781z"/></g><path d="M-5931.381 669.125c-25.085-7.133-37.019-14.948-38.696-25.34-.775-4.806.526-12.048 11.133-19.258l7.87 11.578c-4.535 3.083-5.241 5.083-5.182 5.45.01.062 1.321 6.317 28.704 14.104l-3.829 13.466zm5.67 25.105c-28.964-8.221-42.606-17.67-42.932-29.737l13.995-.379c.002.074.572 7.512 32.759 16.648l-3.822 13.468zm1238.876-25.105l-3.83-13.466c27.382-7.787 28.693-14.042 28.703-14.104.06-.367-.646-2.367-5.182-5.45l7.871-11.578c10.605 7.209 11.907 14.452 11.132 19.258-1.677 10.392-13.61 18.207-38.694 25.34zm-5.67 25.105l-3.822-13.468c32.186-9.136 32.758-16.575 32.76-16.649l13.994.381c-.329 12.067-13.97 21.515-42.932 29.736z"/><path d="M-4670.046 669.376v16.809c2.502 2.009 3.983 3.808 3.906 4.932-.005.074-1.505 7.611-37.06 15.376l2.988 13.678c32.381-7.073 47.196-15.74 48.039-28.103.694-10.177-9.066-17.869-17.873-22.692z"/><path d="M-4664.932 643.885a74.834 74.834 0 0 0-5.114-2.735v16.05c3.916 2.599 6.528 5.213 6.477 6.916-.002.074-.591 7.514-32.759 16.645l3.822 13.468c28.946-8.216 42.588-17.658 42.931-29.715.216-7.563-4.951-14.504-15.357-20.629z"/><path d="M-4670.046 618.573v15.736c4.871 2.806 8.115 5.643 8.089 7.19-.001.06-1.331 6.375-28.709 14.161l3.83 13.466c10.557-3.002 38.602-10.977 38.877-27.392.189-11.235-12.481-18.941-22.087-23.161zm-1282.031 72.545c-.077-1.117 1.386-2.901 3.861-4.896v-16.82c-8.795 4.825-18.521 12.507-17.829 22.667.843 12.363 15.659 21.03 48.04 28.103l2.987-13.678c-35.554-7.766-37.054-15.303-37.059-15.376z"/><path d="M-5954.648 664.117c-.05-1.697 2.542-4.297 6.432-6.886v-16.059a74.874 74.874 0 0 0-5.069 2.713c-10.406 6.125-15.573 13.066-15.357 20.629.343 12.057 13.985 21.5 42.931 29.715l3.823-13.468c-32.169-9.13-32.758-16.57-32.76-16.644z"/><path d="M-5956.261 641.499c-.01-.559 1.37-3.349 8.044-7.159v-15.747c-9.6 4.225-22.231 11.924-22.042 23.141.099 5.867 3.635 11.165 10.513 15.747 6.304 4.201 15.582 8.01 28.365 11.645l3.829-13.466c-27.373-7.785-28.708-14.101-28.709-14.161z"/></svg>