<svg xmlns="http://www.w3.org/2000/svg" width="124.576" height="137.288"><path d="M24.239 47.114c-1.71-.345-3.135-1.23-3.135-3.075 0-2.04 2.115-3.06 4.11-3.06 2.145 0 3.825.975 4.26 3.239h-1.845c-.315-1.305-1.455-1.68-2.52-1.68-.84 0-2.085.375-2.085 1.44 0 .84.69 1.26 1.62 1.439l1.335.255c1.905.375 3.72 1.065 3.72 3.255s-2.175 3.315-4.32 3.315c-2.58 0-4.35-1.41-4.575-3.795h1.875c.33 1.484 1.29 2.234 2.79 2.234 1.29 0 2.325-.585 2.325-1.635 0-1.109-1.2-1.484-2.235-1.68l-1.32-.252zm11.73-5.941c2.385 0 4.62.391 4.62 3.42 0 2.745-2.025 3.346-4.59 3.346h-1.71v4.109h-1.905V41.173h3.585zm-1.68 1.531v3.675h1.77c1.44 0 2.55-.21 2.55-1.77 0-1.771-1.305-1.905-2.64-1.905h-1.68zm13.47 9.54c-3.195 0-5.189-2.295-5.189-5.64 0-3.346 1.995-5.625 5.189-5.625s5.19 2.279 5.19 5.625c0 3.345-1.995 5.64-5.19 5.64zm0-1.561c1.8 0 3.225-1.439 3.225-4.079 0-2.641-1.425-4.065-3.225-4.065s-3.225 1.425-3.225 4.065c0 2.64 1.425 4.079 3.225 4.079zm9.84-9.51v6.42c0 1.995.525 3.09 2.55 3.09 1.995 0 2.535-1.154 2.535-3.149v-6.36h1.905v6.285c0 3.435-1.275 4.785-4.44 4.785-3.12 0-4.455-1.215-4.455-4.726v-6.345h1.905zm12.57 1.591h-3.42v-1.591h8.745v1.591h-3.42v9.284h-1.905v-9.284zm14.1 9.284l-4.604-8.685v8.685h-1.846V41.173h2.551l4.604 8.686v-8.686h1.845v10.875h-2.55zm7.8 0h-1.905V41.173h1.905v10.875zm5.249-5.7l4.62-5.175h2.265l-4.034 4.425 4.409 6.45h-2.25l-3.42-5.069-1.59 1.739v3.33h-1.905V41.173h1.905v5.175zM40.544 64.834c-.45 2.431-2.19 3.811-4.695 3.811-3.18 0-5.024-2.266-5.024-5.67 0-3.42 1.965-5.595 5.115-5.595 2.415 0 4.14 1.38 4.575 3.81h-1.83c-.33-1.47-1.395-2.25-2.805-2.25-1.725 0-3.09 1.41-3.09 4.035 0 2.64 1.335 4.109 3.075 4.109 1.47 0 2.52-.765 2.85-2.25h1.829zm4.665 3.615h-1.905V57.574h1.905v10.875zm9.795 0l-4.605-8.685v8.685h-1.845V57.574h2.55l4.604 8.686v-8.686h1.845v10.875h-2.549zm5.895-10.875h7.695v1.591h-5.79v2.909h5.474v1.575h-5.474v3.195h5.79v1.604h-7.695V57.574zm4.47-.72h-1.561l1.575-1.694h2.31l-2.324 1.694zm10.53 11.595l-2.76-8.805v8.805h-1.86V57.574h2.955l2.64 8.67 2.625-8.67h2.955v10.875h-1.86v-8.805l-2.76 8.805h-1.935zm12.704-10.875h2.01l4.08 10.875h-2.085l-.854-2.415h-4.41l-.84 2.415h-1.95l4.049-10.875zm-.705 6.87h3.285l-1.649-4.665-1.636 4.665z"/></svg>