<svg xmlns="http://www.w3.org/2000/svg" width="100" height="100" viewBox="12.288 18.644 100 100"><path d="M88.512 47.872c.04-.594.069-1.19.069-1.794 0-14.762-11.967-26.728-26.728-26.728-14.762 0-26.728 11.967-26.728 26.728 0 .604.027 1.2.067 1.794h-.966v39.604h1.764V52.843c2.22 8.515 8.534 15.377 16.715 18.357v16.278h1.764V71.766a26.73 26.73 0 0 0 14.746.007v15.705h1.764v-34.55h.883v17.936a26.78 26.78 0 0 0 15.833-18.002V87.48h1.764V47.872h-.947zM26.68 97.999c-1.584-.319-2.903-1.139-2.903-2.848 0-1.889 1.959-2.834 3.806-2.834 1.986 0 3.542.903 3.945 2.999H29.82c-.292-1.208-1.347-1.556-2.334-1.556-.778 0-1.931.347-1.931 1.333 0 .778.639 1.167 1.5 1.333l1.236.236c1.764.347 3.445.986 3.445 3.014 0 2.028-2.014 3.07-4 3.07-2.389 0-4.028-1.306-4.237-3.514h1.736c.306 1.374 1.195 2.069 2.584 2.069 1.195 0 2.153-.542 2.153-1.514 0-1.027-1.111-1.374-2.07-1.556l-1.222-.232zm10.863-5.501c2.209 0 4.278.362 4.278 3.167 0 2.542-1.875 3.098-4.25 3.098h-1.584v3.805h-1.764v-10.07h3.32zm-1.556 1.417v3.403h1.639c1.333 0 2.361-.194 2.361-1.639 0-1.64-1.208-1.764-2.445-1.764h-1.555zm12.474 8.835c-2.959 0-4.805-2.125-4.805-5.223s1.847-5.209 4.805-5.209 4.806 2.11 4.806 5.209c0 3.097-1.848 5.223-4.806 5.223zm0-1.446c1.667 0 2.986-1.333 2.986-3.777 0-2.446-1.32-3.764-2.986-3.764-1.667 0-2.986 1.32-2.986 3.764-.001 2.444 1.319 3.777 2.986 3.777zm9.112-8.806v5.945c0 1.847.486 2.861 2.361 2.861 1.847 0 2.347-1.069 2.347-2.916v-5.89h1.764v5.82c0 3.181-1.181 4.431-4.112 4.431-2.889 0-4.125-1.125-4.125-4.376v-5.876h1.765zm11.64 1.473h-3.167v-1.473h8.098v1.473h-3.167v8.597h-1.764v-8.597zm13.057 8.598l-4.263-8.043v8.043h-1.709V92.498h2.362l4.263 8.043v-8.043h1.709v10.071H82.27zm7.223 0h-1.764V92.498h1.764v10.071zm4.861-5.279l4.278-4.792h2.097l-3.736 4.098 4.083 5.973h-2.084l-3.167-4.694-1.472 1.61v3.084h-1.764v-10.07h1.764c.001-.001.001 4.791.001 4.791zm-52.575 17.118c-.417 2.251-2.028 3.529-4.348 3.529-2.945 0-4.652-2.098-4.652-5.251 0-3.167 1.82-5.181 4.737-5.181 2.236 0 3.834 1.278 4.237 3.528h-1.695c-.306-1.361-1.292-2.084-2.598-2.084-1.597 0-2.861 1.306-2.861 3.737 0 2.445 1.236 3.805 2.848 3.805 1.361 0 2.334-.708 2.639-2.084l1.693.001zm4.32 3.348h-1.764v-10.071h1.764v10.071zm9.071 0l-4.264-8.043v8.043h-1.709v-10.071h2.361l4.263 8.043v-8.043h1.709v10.071h-2.36zm5.459-10.071h7.126v1.473h-5.362v2.694h5.069v1.458h-5.069v2.959h5.362v1.485h-7.126v-10.069zm4.139-.666h-1.446l1.458-1.569h2.139l-2.151 1.569zm9.751 10.737l-2.556-8.154v8.154h-1.722v-10.071h2.736l2.445 8.029 2.431-8.029h2.736v10.071h-1.722v-8.154l-2.556 8.154h-1.792zm11.764-10.071h1.861l3.778 10.071h-1.931l-.791-2.236h-4.084l-.778 2.236h-1.806l3.751-10.071zm-.653 6.362h3.042l-1.527-4.32-1.515 4.32z" fill="#FFF"/></svg>