<?xml version="1.0" encoding="utf-8"?>
<!-- Generator: Adobe Illustrator 17.0.0, SVG Export Plug-In . SVG Version: 6.00 Build 0)  -->
<!DOCTYPE svg PUBLIC "-//W3C//DTD SVG 1.1//EN" "http://www.w3.org/Graphics/SVG/1.1/DTD/svg11.dtd">
<svg version="1.1" id="Calque_1" xmlns="http://www.w3.org/2000/svg" xmlns:xlink="http://www.w3.org/1999/xlink" x="0px" y="0px"
	 width="2749.606px" height="340.157px" viewBox="0 0 2749.606 340.157" enable-background="new 0 0 2749.606 340.157"
	 xml:space="preserve">
<g>
	<path fill="#FFFFFF" d="M191.043,257.942c-49.781,0-78.664-35.458-78.664-88.761c0-53.539,30.761-87.588,80.072-87.588
		c37.806,0,64.811,21.604,71.62,59.644h-28.648c-5.166-23.012-21.838-35.223-43.91-35.223c-27.004,0-48.373,22.073-48.373,63.167
		c0,41.327,20.899,64.34,48.138,64.34c23.013,0,39.449-11.976,44.615-35.223h28.648
		C257.496,236.338,230.257,257.942,191.043,257.942z"/>
	<path fill="#FFFFFF" d="M295.302,254.889V84.646h29.822v170.243H295.302z"/>
	<path fill="#FFFFFF" d="M393.924,118.929v135.96h-28.883V84.646h39.919l72.089,135.96V84.646h28.883v170.243h-39.919
		L393.924,118.929z"/>
	<path fill="#FFFFFF" d="M666.31,84.646v24.891h-90.64v45.555h85.708v24.656H575.67v50.017h90.64v25.125H545.848V84.646H666.31z
		 M591.402,73.374l24.656-26.534h36.161l-36.396,26.534H591.402z"/>
	<path fill="#FFFFFF" d="M725.011,117.051v137.838h-29.117V84.646h46.259L783.48,220.37l41.093-135.725h46.26v170.243h-29.118
		V117.051l-43.206,137.838h-30.291L725.011,117.051z"/>
	<path fill="#FFFFFF" d="M988.475,84.646l63.87,170.243h-32.64l-13.384-37.806h-69.037l-13.149,37.806h-30.526l63.4-170.243
		C957.009,84.646,988.475,84.646,988.475,84.646z M997.397,192.193l-25.83-73.028l-25.595,73.028H997.397z"/>
	<path fill="#FFFFFF" d="M1421.004,129.496c0-31.936,33.109-47.903,64.34-47.903c33.579,0,59.879,15.264,66.688,50.721h-28.883
		c-4.932-20.429-22.777-26.3-39.449-26.3c-13.15,0-32.64,5.871-32.64,22.543c0,13.149,10.802,19.725,25.36,22.543l20.898,3.991
		c29.822,5.871,58.234,16.673,58.234,50.956s-34.048,51.895-67.627,51.895c-40.389,0-68.097-22.073-71.619-59.409h29.352
		c5.166,23.247,20.194,34.988,43.677,34.988c20.194,0,36.396-9.158,36.396-25.596c0-17.376-18.785-23.246-34.988-26.299
		l-20.663-3.992C1443.312,172.234,1421.004,158.379,1421.004,129.496z"/>
	<path fill="#FFFFFF" d="M1713.586,138.185c0,42.972-31.7,52.364-71.854,52.364h-26.769v64.34h-29.822V84.646h56.121
		C1678.598,84.646,1713.586,90.751,1713.586,138.185z M1614.963,166.128h27.708c22.543,0,39.919-3.288,39.919-27.709
		c0-27.708-20.429-29.822-41.328-29.822h-26.299V166.128z"/>
	<path fill="#FFFFFF" d="M1732.136,169.651c0-52.365,31.23-88.058,81.247-88.058c50.016,0,81.247,35.692,81.247,88.058
		c0,52.364-31.231,88.291-81.247,88.291C1763.366,257.942,1732.136,222.015,1732.136,169.651z M1863.868,169.651
		c0-41.328-22.308-63.637-50.485-63.637c-28.179,0-50.486,22.309-50.486,63.637c0,41.327,22.308,63.87,50.486,63.87
		S1863.868,210.978,1863.868,169.651z"/>
	<path fill="#FFFFFF" d="M1954.978,185.148c0,31.231,8.219,48.373,39.919,48.373c31.23,0,39.684-18.081,39.684-49.312V84.646h29.822
		v98.389c0,53.773-19.96,74.907-69.506,74.907c-48.843,0-69.741-19.021-69.741-73.968V84.646h29.822L1954.978,185.148
		L1954.978,185.148z"/>
	<path fill="#FFFFFF" d="M2085.77,109.536v-24.89h136.898v24.891h-53.538V254.89h-29.821V109.536H2085.77z"/>
	<path fill="#FFFFFF" d="M2275.5,118.929v135.96h-28.883V84.646h39.919l72.089,135.96V84.646h28.883v170.243h-39.919L2275.5,118.929
		z"/>
	<path fill="#FFFFFF" d="M2427.424,254.889V84.646h29.822v170.243H2427.424z"/>
	<path fill="#FFFFFF" d="M2599.309,84.646h35.458l-63.166,69.271l69.036,100.972h-35.223l-53.538-79.368l-24.891,27.238v52.13
		h-29.822V84.646h29.822v81.013L2599.309,84.646z"/>
</g>
<g>
	<path fill="#FFFFFF" d="M1303.937,254.889h-5.669v-99.807h5.669V254.889z"/>
	<path fill="#FFFFFF" d="M1167.874,254.889h-5.669v-99.807h5.669V254.889z"/>
	<path fill="#FFFFFF" d="M1218.898,254.889h-5.669v-96.167h5.669V254.889z"/>
	<path fill="#FFFFFF" d="M1233.071,81.975c-37.573,0-68.031,30.459-68.031,68.031s30.459,68.031,68.031,68.031
		c6.904,0,13.564-1.036,19.843-2.948v-35.36h5.931v33.241c24.79-10.158,42.258-34.516,42.258-62.964
		C1301.102,112.434,1270.644,81.975,1233.071,81.975z"/>
	<path fill="#FFFFFF" d="M1252.913,254.889h-5.669v-96.167h5.669V254.889z"/>
</g>
</svg>
