<?xml version="1.0" encoding="utf-8"?>
<!-- Generator: Adobe Illustrator 17.0.0, SVG Export Plug-In . SVG Version: 6.00 Build 0)  -->
<!DOCTYPE svg PUBLIC "-//W3C//DTD SVG 1.1//EN" "http://www.w3.org/Graphics/SVG/1.1/DTD/svg11.dtd">
<svg version="1.1" id="Calque_1" xmlns="http://www.w3.org/2000/svg" xmlns:xlink="http://www.w3.org/1999/xlink" x="0px" y="0px"
	 width="124.576px" height="137.288px" viewBox="0 0 124.576 137.288" enable-background="new 0 0 124.576 137.288"
	 xml:space="preserve">
<path d="M91.01,43.785c0.043-0.641,0.074-1.285,0.074-1.937c0-15.941-12.923-28.863-28.863-28.863
	c-15.941,0-28.863,12.923-28.863,28.863c0,0.652,0.029,1.296,0.072,1.937h-1.043v42.768h1.905V49.153
	c2.398,9.195,9.216,16.605,18.05,19.823v17.578h1.905V69.587c2.533,0.727,5.206,1.124,7.973,1.124c2.759,0,5.424-0.394,7.951-1.117
	v16.959h1.905V68.983v-19.74h0.953v19.369c8.371-3.384,14.778-10.585,17.098-19.44v37.383h1.905V43.785H91.01z"/>
</svg>
