<?xml version="1.0" encoding="utf-8"?>
<!-- Generator: Adobe Illustrator 17.0.0, SVG Export Plug-In . SVG Version: 6.00 Build 0)  -->
<!DOCTYPE svg PUBLIC "-//W3C//DTD SVG 1.1//EN" "http://www.w3.org/Graphics/SVG/1.1/DTD/svg11.dtd">
<svg version="1.1" id="Calque_1" xmlns="http://www.w3.org/2000/svg" xmlns:xlink="http://www.w3.org/1999/xlink" x="0px" y="0px"
	 width="124.576px" height="137.288px" viewBox="0 0 124.576 137.288" enable-background="new 0 0 124.576 137.288"
	 xml:space="preserve">
<g>
	<path d="M24.239,47.114c-1.71-0.345-3.135-1.23-3.135-3.075c0-2.04,2.115-3.06,4.11-3.06c2.145,0,3.825,0.975,4.26,3.239h-1.845
		c-0.315-1.305-1.455-1.68-2.52-1.68c-0.84,0-2.085,0.375-2.085,1.44c0,0.84,0.69,1.26,1.62,1.439l1.335,0.255
		c1.905,0.375,3.72,1.065,3.72,3.255c0,2.19-2.175,3.315-4.32,3.315c-2.58,0-4.35-1.41-4.575-3.795h1.875
		c0.33,1.484,1.29,2.234,2.79,2.234c1.29,0,2.325-0.585,2.325-1.635c0-1.109-1.2-1.484-2.235-1.68L24.239,47.114z"/>
	<path d="M35.969,41.173c2.385,0,4.62,0.391,4.62,3.42c0,2.745-2.025,3.346-4.59,3.346h-1.71v4.109h-1.905V41.173H35.969z
		 M34.289,42.704v3.675h1.77c1.44,0,2.55-0.21,2.55-1.77c0-1.771-1.305-1.905-2.64-1.905H34.289z"/>
	<path d="M47.759,52.244c-3.195,0-5.189-2.295-5.189-5.64c0-3.346,1.995-5.625,5.189-5.625s5.19,2.279,5.19,5.625
		C52.949,49.949,50.954,52.244,47.759,52.244z M47.759,50.683c1.8,0,3.225-1.439,3.225-4.079c0-2.641-1.425-4.065-3.225-4.065
		c-1.8,0-3.225,1.425-3.225,4.065C44.534,49.244,45.959,50.683,47.759,50.683z"/>
	<path d="M57.599,41.173v6.42c0,1.995,0.525,3.09,2.55,3.09c1.995,0,2.535-1.154,2.535-3.149v-6.36h1.905v6.285
		c0,3.435-1.275,4.785-4.44,4.785c-3.12,0-4.455-1.215-4.455-4.726v-6.345H57.599z"/>
	<path d="M70.169,42.764h-3.42v-1.591h8.745v1.591h-3.42v9.284h-1.905V42.764z"/>
	<path d="M84.269,52.048l-4.604-8.685v8.685h-1.846V41.173h2.551l4.604,8.686v-8.686h1.845v10.875H84.269z"/>
	<path d="M92.069,52.048h-1.905V41.173h1.905V52.048z"/>
	<path d="M97.318,46.348l4.62-5.175h2.265l-4.034,4.425l4.409,6.45h-2.25l-3.42-5.069l-1.59,1.739v3.33h-1.905V41.173h1.905V46.348z
		"/>
	<path d="M40.544,64.834c-0.45,2.431-2.19,3.811-4.695,3.811c-3.18,0-5.024-2.266-5.024-5.67c0-3.42,1.965-5.595,5.115-5.595
		c2.415,0,4.14,1.38,4.575,3.81h-1.83c-0.33-1.47-1.395-2.25-2.805-2.25c-1.725,0-3.09,1.41-3.09,4.035
		c0,2.64,1.335,4.109,3.075,4.109c1.47,0,2.52-0.765,2.85-2.25H40.544z"/>
	<path d="M45.209,68.449h-1.905V57.574h1.905V68.449z"/>
	<path d="M55.004,68.449l-4.605-8.685v8.685h-1.845V57.574h2.55l4.604,8.686v-8.686h1.845v10.875H55.004z"/>
	<path d="M60.899,57.574h7.695v1.591h-5.79v2.909h5.474v1.575h-5.474v3.195h5.79v1.604h-7.695V57.574z M65.369,56.854h-1.561
		l1.575-1.694h2.31L65.369,56.854z"/>
	<path d="M75.899,68.449l-2.76-8.805v8.805h-1.86V57.574h2.955l2.64,8.67l2.625-8.67h2.955v10.875h-1.86v-8.805l-2.76,8.805H75.899z
		"/>
	<path d="M88.603,57.574h2.01l4.08,10.875h-2.085l-0.854-2.415h-4.41l-0.84,2.415h-1.95L88.603,57.574z M87.898,64.444h3.285
		l-1.649-4.665L87.898,64.444z"/>
</g>
</svg>
