<?xml version="1.0" encoding="utf-8"?>
<!-- Generator: Adobe Illustrator 17.0.0, SVG Export Plug-In . SVG Version: 6.00 Build 0)  -->
<!DOCTYPE svg PUBLIC "-//W3C//DTD SVG 1.1//EN" "http://www.w3.org/Graphics/SVG/1.1/DTD/svg11.dtd">
<svg version="1.1" id="Calque_1" xmlns="http://www.w3.org/2000/svg" xmlns:xlink="http://www.w3.org/1999/xlink" x="0px" y="0px"
	 width="100px" height="70.167px" viewBox="0 0 100 70.167" enable-background="new 0 0 100 70.167" xml:space="preserve">
<path fill="#FFFFFF" d="M76.225,29.229c0.04-0.594,0.069-1.19,0.069-1.794c0-14.762-11.967-26.728-26.728-26.728
	c-14.762,0-26.728,11.967-26.728,26.728c0,0.604,0.027,1.2,0.067,1.794h-0.966v39.604h1.764V34.2
	c2.22,8.515,8.534,15.377,16.715,18.357v16.278h1.764V53.122c2.346,0.673,4.821,1.041,7.383,1.041c2.555,0,5.023-0.365,7.363-1.034
	v15.705h1.764v-16.27v-18.28h0.883v17.936c7.752-3.134,13.685-9.802,15.833-18.002v34.618h1.764V29.229H76.225z"/>
</svg>
