<svg xmlns="http://www.w3.org/2000/svg" width="2749.606" height="340.157"><path d="M191.043 257.942c-49.781 0-78.664-35.458-78.664-88.761 0-53.539 30.761-87.588 80.072-87.588 37.806 0 64.811 21.604 71.62 59.644h-28.648c-5.166-23.012-21.838-35.223-43.91-35.223-27.004 0-48.373 22.073-48.373 63.167 0 41.327 20.899 64.34 48.138 64.34 23.013 0 39.449-11.976 44.615-35.223h28.648c-7.045 38.04-34.284 59.644-73.498 59.644zm104.259-3.053V84.646h29.822v170.243h-29.822zm98.622-135.96v135.96h-28.883V84.646h39.919l72.089 135.96V84.646h28.883v170.243h-39.919l-72.089-135.96zM666.31 84.646v24.891h-90.64v45.555h85.708v24.656H575.67v50.017h90.64v25.125H545.848V84.646H666.31zm-74.908-11.272l24.656-26.534h36.161l-36.396 26.534h-24.421zm133.609 43.677v137.838h-29.117V84.646h46.259L783.48 220.37l41.093-135.725h46.26v170.243h-29.118V117.051l-43.206 137.838h-30.291l-43.207-137.838zm263.464-32.405l63.87 170.243h-32.64l-13.384-37.806h-69.037l-13.149 37.806h-30.526l63.4-170.243h31.466zm8.922 107.547l-25.83-73.028-25.595 73.028h51.425zm423.607-62.697c0-31.936 33.109-47.903 64.34-47.903 33.579 0 59.879 15.264 66.688 50.721h-28.883c-4.932-20.429-22.777-26.3-39.449-26.3-13.15 0-32.64 5.871-32.64 22.543 0 13.149 10.802 19.725 25.36 22.543l20.898 3.991c29.822 5.871 58.234 16.673 58.234 50.956s-34.048 51.895-67.627 51.895c-40.389 0-68.097-22.073-71.619-59.409h29.352c5.166 23.247 20.194 34.988 43.677 34.988 20.194 0 36.396-9.158 36.396-25.596 0-17.376-18.785-23.246-34.988-26.299l-20.663-3.992c-26.768-5.4-49.076-19.255-49.076-48.138zm292.582 8.689c0 42.972-31.7 52.364-71.854 52.364h-26.769v64.34h-29.822V84.646h56.121c37.336 0 72.324 6.105 72.324 53.539zm-98.623 27.943h27.708c22.543 0 39.919-3.288 39.919-27.709 0-27.708-20.429-29.822-41.328-29.822h-26.299v57.531zm117.173 3.523c0-52.365 31.23-88.058 81.247-88.058 50.016 0 81.247 35.692 81.247 88.058 0 52.364-31.231 88.291-81.247 88.291-50.017 0-81.247-35.927-81.247-88.291zm131.732 0c0-41.328-22.308-63.637-50.485-63.637-28.179 0-50.486 22.309-50.486 63.637 0 41.327 22.308 63.87 50.486 63.87s50.485-22.543 50.485-63.87zm91.11 15.497c0 31.231 8.219 48.373 39.919 48.373 31.23 0 39.684-18.081 39.684-49.312V84.646h29.822v98.389c0 53.773-19.96 74.907-69.506 74.907-48.843 0-69.741-19.021-69.741-73.968V84.646h29.822v100.502zm130.792-75.612v-24.89h136.898v24.891h-53.538V254.89h-29.821V109.536h-53.539zm189.73 9.393v135.96h-28.883V84.646h39.919l72.089 135.96V84.646h28.883v170.243h-39.919l-72.089-135.96zm151.924 135.96V84.646h29.822v170.243h-29.822zm171.885-170.243h35.458l-63.166 69.271 69.036 100.972h-35.223l-53.538-79.368-24.891 27.238v52.13h-29.822V84.646h29.822v81.013l72.324-81.013z" fill="#FFF"/><g fill="#FFF"><path d="M1303.937 254.889h-5.669v-99.807h5.669v99.807zm-136.063 0h-5.669v-99.807h5.669v99.807zm51.024 0h-5.669v-96.167h5.669v96.167z"/><path d="M1233.071 81.975c-37.573 0-68.031 30.459-68.031 68.031s30.459 68.031 68.031 68.031a68.006 68.006 0 0 0 19.843-2.948v-35.36h5.931v33.241c24.79-10.158 42.258-34.516 42.258-62.964-.001-37.572-30.459-68.031-68.032-68.031z"/><path d="M1252.913 254.889h-5.669v-96.167h5.669v96.167z"/></g></svg>