<svg version="1" xmlns="http://www.w3.org/2000/svg" width="1499.706" height="1577" viewBox="0 0 1499.706 1577"><path d="M927.18 378.305c.28-4.226.49-8.452.49-12.725 0-104.814-84.967-189.757-189.757-189.757S548.156 260.767 548.156 365.58c0 4.273.187 8.522.467 12.725h-6.841v281.169h12.515V413.586c15.784 60.451 60.591 109.18 118.683 130.334v115.554h12.515V547.936a189.408 189.408 0 0 0 52.419 7.378 189.37 189.37 0 0 0 52.278-7.332v111.491h12.515V465.217h6.258v76.298c55.057-22.252 97.155-69.58 112.425-127.812v245.771h12.515V378.305h-6.725z"/><path fill="#FFF" stroke="#181716" stroke-miterlimit="10" d="M1394.615 1138.759L733.369 1520.17V505.437l661.246-381.41zm-1278.17 25.527l616.924 355.884V505.437L116.445 149.553z"/><path fill="#181716" d="M791.524 579.025c7.211-4.163 16.651-7.335 21.608-6.78l.318 23.163-2.003 1.157c-3.026-14.537-10.05-19.021-19.969-13.294-8.109 4.682-13.763 12.274-13.654 20.177.107 7.801 4.867 8.698 10.211 8.456l10.694-.479c11.195-.541 19.596.877 19.765 13.191.203 14.807-12.169 32.54-27.192 41.214-9.815 5.667-18.368 7.981-24.225 7.835l-.378-27.573 2.003-1.156c3.093 19.4 10.621 23.6 22.543 16.716 8.814-5.089 16.055-14.171 15.916-24.341-.105-7.685-5.568-8.514-13.64-8.182l-8.976.398c-10.694.48-17.51-3.103-17.661-14.068-.178-12.993 10.618-28.339 24.64-36.434zm70.085 9.425l-8.316 4.801.254 18.533c.16 11.636.38 12.993 11.119 8.153l.028 2.041-34.557 19.952-.028-2.041c9.7-6.96 9.88-8.548 9.72-20.184l-.672-48.935c-.16-11.636-.38-12.993-10.117-8.738l-.028-2.034 12.82-7.402c4.911-2.835 16.023-9.361 19.132-11.156 18.526-10.696 32.926-13.087 33.168 4.542.241 17.629-13.998 31.772-32.523 42.468zm-8.906-38.14l.534 38.874 7.211-4.163c11.515-6.648 18.656-15.9 18.459-30.248-.197-14.356-7.478-15.274-18.993-8.626l-7.211 4.163m91.051-58.829c19.631-11.334 38.361-7.12 38.744 20.796.383 27.909-17.938 53.522-37.569 64.855-19.631 11.334-38.361 7.113-38.744-20.796-.383-27.917 17.938-53.522 37.569-64.855zm1.118 81.466c13.822-7.98 22.633-27.984 22.305-51.825-.327-23.848-9.544-33.444-23.366-25.464s-22.632 27.984-22.305 51.832c.327 23.841 9.544 33.437 23.366 25.457m122.803-150.742l.028 2.034c-9.693 6.963-9.874 8.551-9.714 20.188l.434 31.642c.337 24.526-9.635 41.1-27.56 51.449-19.934 11.509-29.509 5.309-29.796-15.601l-.47-34.237c-.16-11.643-.375-13.114-10.112-8.859l-.028-2.034 33.549-19.37.028 2.034c-9.693 6.963-9.875 8.435-9.712 20.304l.448 32.655c.244 17.745 5.685 24.62 19.306 16.755 14.726-8.502 19.574-23.029 19.639-40.152l-.438-31.868c-.16-11.636-.38-12.993-10.111-8.742l-.028-2.034 24.537-14.164zm75.907-44.163l3.419 28.434-2.1 1.212c-5.159-15.245-11.175-19.856-25.197-11.76l-2.501 1.444.847 61.701c.155 11.301.581 12.877 11.209 8.101l.028 2.041-35.753 20.642-.028-2.041c10.598-7.478 10.974-9.518 10.819-20.818l-.847-61.701-2.501 1.444c-14.022 8.095-19.824 19.529-24.584 40.501l-2.003 1.157 2.591-31.904c7.72-4.119 17.031-9.495 23.945-13.487l18.629-10.756c6.909-3.989 16.22-9.364 24.027-14.21zm87.742-50.32l.028 2.034c-9.7 6.967-9.88 8.555-9.72 20.191l.898 65.427-8.413 4.857-43.521-37.629.628 45.771c.16 11.636.38 12.986 10.117 8.731l.028 2.034-24.535 14.165-.028-2.034c9.693-6.963 9.873-8.544 9.714-20.18l-.723-52.661-1.733-1.505c-3.58-3.172-5.516-4.223-8.331-3.847l-.023-1.699 18.623-10.752 43.213 37.013-.617-44.976c-.16-11.636-.38-12.993-10.117-8.738l-.028-2.034 24.54-14.168zm41.459-23.936l.028 2.034c-9.694 6.963-9.874 8.551-9.714 20.188l.672 48.935c.16 11.636.38 12.993 10.111 8.735l.028 2.034-33.549 19.37-.028-2.034c9.693-6.956 9.873-8.544 9.714-20.18l-.672-48.935c-.16-11.636-.38-12.993-10.11-8.742l-.028-2.034 33.548-19.371zm34.55 46.005c.16 11.636.38 12.993 10.11 8.735l.028 2.034-33.549 19.37-.028-2.034c9.694-6.956 9.874-8.544 9.714-20.181l-.672-48.935c-.16-11.636-.38-12.993-10.111-8.742l-.028-2.034 33.549-19.37.028 2.034c-9.693 6.963-9.873 8.551-9.713 20.187l.672 48.936z"/><path fill="#181716" d="M1345.926 330.125c6.118 4.441 8.165 6.448 14.185 3.766l.028 2.034-32.25 18.62-.028-2.034c6.704-4.554 6.759-7.658 3.193-10.272l-23.965-17.366 22.017-36.293c9.771-16.003 11.518-21.112.891-15.777l-.028-2.034 24.742-14.285.028 2.034c-6.596 4.837-8.871 8.539-19.928 26.658l-15.795 25.977 26.91 18.972z"/><g fill="#181716"><path d="M187.647 286.781c8.144 4.514 16.517 11.171 21.519 16.41l3.054 26.913-1.883-1.044c-3.908-17.971-11.506-31.932-23.822-38.759-12.213-6.77-22.156.379-21.776 26.37.332 22.711 8.991 42.304 23.988 50.617 12.909 7.156 20.316 1.511 23.646-6.503l2.697 2.499c-3.099 10.281-12.464 16.746-28.358 7.936-21.549-11.945-36.805-37.886-37.172-62.974-.394-27.002 17.151-33.081 38.107-21.465zm69.259 40.632l.03 2.032c-9.613-3.983-9.792-2.626-9.622 9.015l.715 48.922c.17 11.642.392 13.22 10.045 19.917l.03 2.032-33.272-18.443-.03-2.032c9.614 3.983 9.792 2.626 9.622-9.015l-.715-48.922c-.17-11.642-.392-13.22-10.045-19.917l-.03-2.032 33.272 18.443zm84.224 46.686l.03 2.032c-9.614-3.983-9.792-2.627-9.622 9.015l.956 65.42-8.344-4.625-43.215-85.708.669 45.76c.17 11.642.385 13.216 10.038 19.913l.03 2.032-24.328-13.485-.03-2.032c9.614 3.983 9.792 2.626 9.622-9.015l-.77-52.656-1.726-3.423c-3.551-7.12-5.472-10.317-8.269-13.097l-.025-1.695 18.474 10.24 42.907 84.752-.657-44.968c-.17-11.642-.385-13.216-10.045-19.917l-.03-2.032 24.335 13.489zm60.163 11.266l-21.536 2.52-2.089-1.158 8.034-10.005zm10.17 82.3l1.883 1.044-3.577 24.808c-7.946-4.521-16.089-9.035-23.143-12.945l-36.85-20.427-.03-2.032c9.62 3.986 9.798 2.63 9.628-9.012l-.715-48.922c-.17-11.642-.392-13.22-10.051-19.92l-.03-2.032 35.857 19.876c6.854 3.799 15.694 8.699 23.434 12.655l2.781 28.326-1.986-1.101c-5.244-21.847-12.053-29.099-31.32-39.779l-5.262-2.917.484 33.113 11.619 6.441c5.661 3.138 9.187 1.949 10.048-6.989l1.786.99.443 30.282-1.786-.99c-1.138-10.039-4.757-15.188-10.418-18.326l-11.619-6.441.453 30.964c.058 3.954.761 5.239 5.133 7.662l3.778 2.094c18.073 10.019 24.363 8.914 29.46-6.422zm104.279 3.223l.03 2.032c-9.62-3.986-9.798-2.63-9.628 9.012l.715 48.922c.17 11.642.391 13.22 10.051 19.92l.03 2.032-33.278-18.446-.03-2.032c9.614 3.983 9.792 2.626 9.622-9.015l-.798-54.57-24.032 54.035-2.985-1.655-27.635-84.363.823 56.272c.17 11.642.391 13.22 10.045 19.917l.03 2.032-24.335-13.489-.03-2.032c9.613 3.983 9.792 2.626 9.622-9.015l-.715-48.922c-.17-11.642-.392-13.22-10.045-19.917l-.03-2.032 26.121 14.479 21.775 67.21 19.744-44.195 24.933 13.82zm73.206 108.496c3.313 10.917 4.126 12.714 10.297 17.029l.03 2.032-30.196-16.738-.03-2.032c8.131 3.612 7.903 1.128 5.931-5.568l-5.598-18.907-27.017-14.976-.567 1.483c-6.948 16.878-4.248 19.613 4.406 25.304l.03 2.032-22.839-12.66-.03-2.032c6.441 2.676 7.21 1.421 12.531-12.11l19.572-49.333c2.573.975 5.328.487 6.782-1.174l.393.218 26.305 87.432zm-44.678-43.59l23.245 12.885-11.927-40.577-11.318 27.692m162.526 74.613l.702 48.027-2.399-1.33-.601-41.091c.551-1.898.898-4.009 1.019-6.315l1.279.709zm-57.549-31.899l.101 6.94a47.893 47.893 0 0 1-1.222-7.561l1.121.621z"/><path d="M648.127 577.887c.19 2.48.605 5.015 1.222 7.561l.601 41.086-2.399-1.33-.702-48.027 1.278.71zm20.725 40.135c.79.708 1.593 1.386 2.409 2.032l.27 18.443-2.399-1.33-.28-19.145zm36.665-8.323c-.12 2.306-.468 4.417-1.019 6.315l-.101-6.936 1.12.621z"/><path d="M670.854 592.224l.407 27.831a51.616 51.616 0 0 1-2.409-2.032l-.397-27.128 2.399 1.329zm14.386 7.974l.148 10.109.249 17.019a25.056 25.056 0 0 1-2.388-.628l-.407-27.83 2.398 1.33z"/><path d="M685.388 610.307l.529 36.165-2.399-1.33-.27-18.444c.809.254 1.606.463 2.388.628l-.248-17.019z"/><path d="M676.311 558.62c15.888 8.807 28.985 30.605 29.25 48.68.012.822-.003 1.621-.044 2.399l-1.12-.621.101 6.936c-2.357 8.122-8.435 12.383-16.369 11.683l-.234-15.999-2.508-1.39-.148-10.109-2.399-1.33.407 27.83c-1.925-.605-3.924-1.467-5.98-2.607a44.258 44.258 0 0 1-6.007-4.036l-.407-27.831-2.399-1.33.397 27.128c-9.237-8.279-16.6-20.569-19.504-32.574l-.101-6.94-1.12-.621a40.25 40.25 0 0 1-.115-2.487c-.263-18.076 12.406-25.591 28.3-16.781z"/></g><path fill="none" stroke="#000" stroke-width="14" stroke-miterlimit="10" d="M127.087 622.024s-62.87 20.184 8.108 40.368m-8.108-18.155s-62.429 21.63 13.774 43.259m-10.557-16.707S64.216 695 148.15 713.332"/><path fill="#FFF" d="M116.922 603.115h28.5v91.831h-28.5z"/><path fill="none" stroke="#000" stroke-width="14" stroke-miterlimit="10" d="M109.652 630.316c-11.394 7.746-17.237 19.911 25.542 32.076m-32.179 1.912c.189 6.97 9.27 15.082 37.846 23.193m1243.157-65.473s62.87 20.184-8.108 40.368m8.108-18.155s62.429 21.63-13.774 43.259m10.557-16.707s66.088 24.211-17.845 42.543"/><path fill="#FFF" d="M1365.684 603.115h28.5v91.831h-28.5z"/><path fill="none" stroke="#000" stroke-width="14" stroke-miterlimit="10" d="M1401.453 630.316c11.394 7.746 17.237 19.911-25.542 32.076m32.179 1.912c-.189 6.97-9.27 15.082-37.845 23.193"/></svg>