<?xml version="1.0" encoding="utf-8"?>
<!-- Generator: Adobe Illustrator 17.0.0, SVG Export Plug-In . SVG Version: 6.00 Build 0)  -->
<!DOCTYPE svg PUBLIC "-//W3C//DTD SVG 1.0//EN" "http://www.w3.org/TR/2001/REC-SVG-20010904/DTD/svg10.dtd">
<svg version="1.0" id="Calque_1" xmlns="http://www.w3.org/2000/svg" xmlns:xlink="http://www.w3.org/1999/xlink" x="0px" y="0px"
	 width="1499.706px" height="1577px" viewBox="0 0 1499.706 1577" enable-background="new 0 0 1499.706 1577" xml:space="preserve">
<g>
	<path d="M3751.126,4377.813c0.28-4.227,0.49-8.453,0.49-12.726c0-104.813-84.967-189.757-189.757-189.757
		s-189.757,84.943-189.757,189.757c0,4.273,0.187,8.522,0.467,12.726h-6.841v281.168h12.515v-245.888
		c15.784,60.45,60.591,109.18,118.683,130.334v115.554h12.515v-111.538c16.648,4.787,34.229,7.378,52.418,7.378
		c18.142,0,35.654-2.568,52.278-7.332v111.492h12.515v-115.507v-78.75h6.257v76.299c55.057-22.252,97.155-69.58,112.426-127.812
		v245.771h12.515v-281.168H3751.126z"/>
</g>
<polygon fill="#FFFFFF" stroke="#181716" stroke-miterlimit="10" points="4218.561,5138.267 3557.315,5519.678 3557.315,4504.945 
	4218.561,4123.535 "/>
<polygon fill="#FFFFFF" stroke="#181716" stroke-miterlimit="10" points="2940.39,5163.793 3557.315,5519.678 3557.315,4504.945 
	2940.39,4149.061 "/>
<rect x="3447.392" y="215.812" fill="#FFFFFF" stroke="#181716" stroke-width="1.0034" stroke-miterlimit="10" width="868.515" height="1194.656"/>
<rect x="2578.877" y="215.812" fill="#FFFFFF" stroke="#181716" stroke-width="1.0034" stroke-miterlimit="10" width="868.515" height="1194.656"/>
<g>
	<path d="M-2691.442,1057.153c0.28-4.226,0.49-8.452,0.49-12.725c0-104.814-84.967-189.757-189.757-189.757
		s-189.757,84.944-189.757,189.757c0,4.273,0.187,8.522,0.467,12.725h-6.841v281.168h12.515v-245.888
		c15.784,60.451,60.591,109.18,118.683,130.334v115.554h12.515v-111.538c16.648,4.786,34.229,7.378,52.418,7.378
		c18.142,0,35.654-2.568,52.278-7.332v111.491h12.515v-115.507v-78.75h6.257v76.298c55.057-22.252,97.155-69.58,112.426-127.812
		v245.771h12.515v-281.168H-2691.442z"/>
</g>
<g>
	<path d="M3751.126,2456.713c0.28-4.226,0.49-8.452,0.49-12.725c0-104.813-84.967-189.757-189.757-189.757
		s-189.757,84.944-189.757,189.757c0,4.273,0.187,8.522,0.467,12.725h-6.841v281.168h12.515v-245.888
		c15.784,60.45,60.591,109.18,118.683,130.334v115.554h12.515v-111.538c16.648,4.786,34.229,7.378,52.418,7.378
		c18.142,0,35.654-2.568,52.278-7.332v111.491h12.515v-115.508v-78.75h6.257v76.298c55.057-22.251,97.155-69.58,112.426-127.812
		v245.771h12.515v-281.168H3751.126z"/>
</g>
<polygon fill="#FFFFFF" stroke="#231F20" stroke-width="2" stroke-miterlimit="10" points="-2340.779,1840.224 -2880.779,2008.224 
	-2880.779,1197.61 -2340.779,1029.61 "/>
<polygon fill="#FFFFFF" stroke="#231F20" stroke-width="2" stroke-miterlimit="10" points="-3420.779,1840.224 -2880.779,2008.224 
	-2880.779,1197.61 -3420.779,1029.61 "/>
<g>
	<g>
		<path d="M-2353.264,1302.437c3.573,7.152,7.065,14.217,9.104,21.982c0.834,3.174,0.966,6.261,0.812,9.527
			c-0.169,3.576-3.122,7.476-4.693,10.62c-3.234,6.468-6.882,12.667-10.135,19.111c-2.483,4.919-4.419,8.991-8.907,12.116
			c-4.463,3.109-6.508,8.697-3.587,13.682c2.59,4.421,9.201,6.708,13.682,3.588c6.557-4.566,11.337-9.986,14.977-17.088
			c3.965-7.738,8.219-15.271,12.111-23.056c2.367-4.734,5.178-9.296,6.019-14.574c0.859-5.391,0.51-10.385-0.272-15.761
			c-1.545-10.626-7.102-20.758-11.839-30.241C-2341.76,1280.804-2359.01,1290.936-2353.264,1302.437L-2353.264,1302.437z"/>
	</g>
</g>
<g>
	<g>
		<path d="M-3406.484,1273.464c-9.225,0-18.692,0.597-27.888-0.206c-10.011-0.874-20.16-1.147-26.006,8.64
			c1.196-1.196,2.392-2.392,3.587-3.588c-11.286,6.25-12.936,18.323-7.939,29.349c4.224,9.321,12.189,15.296,17.767,23.537
			c2.938,4.341,4.792,9.182,6.466,14.112c2.066,6.085,9.472,10.691,14.573,14.108c10.806,7.237,23.965,10.475,36.848,10.641
			c12.903,0.167,12.887-19.833,0-20c-13.364-0.173-25.169-5.145-34.707-14.479c0.857,1.471,1.714,2.942,2.572,4.413
			c-3.507-10.331-7.983-19.604-15.427-27.683c-4.8-5.209-9.686-10.059-11.167-16.621c0.137,0.922,0.176,0.783,0.116-0.419
			c-0.003,0.681-0.954,2.234,0.133,0.407c-0.039,0.221-0.138,0.402-0.297,0.545c1.883-1.28,3.517-2.172,4.745-4.228
			c-0.473,0.792-2.589,0.741-0.11,0.608c2.104-0.113,4.247,0.176,6.335,0.393c10.039,1.048,20.316,0.469,30.4,0.469
			C-3393.587,1293.464-3393.587,1273.464-3406.484,1273.464L-3406.484,1273.464z"/>
	</g>
</g>
<g>
	<g>
		<path d="M-2344.185,1342.649c0,9.279,0,18.559,0,27.838c0,7.598,0.892,15.568-1.593,22.852c-2.099,6.153-4.734,12.176-7.42,18.088
			c-2.682,5.903-5.27,10.345-11.497,12.098c-12.396,3.489-7.123,22.787,5.317,19.286c18.83-5.3,24.127-23.029,30.857-39.118
			c3.961-9.471,4.337-18.471,4.337-28.611c0-10.811,0-21.622,0-32.432C-2324.185,1329.752-2344.185,1329.752-2344.185,1342.649
			L-2344.185,1342.649z"/>
	</g>
</g>
<g>
	<g>
		<path d="M-3447.818,1335.687c0,14.873,0.501,29.846-0.078,44.707c-0.508,13.021-3.485,25.805,1.937,38.275
			c4.387,10.091,13.543,17.58,23.057,22.66c9.789,5.227,15.466,16.031,25.298,21.363c11.338,6.149,21.433-11.12,10.094-17.269
			c-7.723-4.189-14.105-13.389-21.722-19c-7.152-5.269-14.658-8.126-18.89-16.544c-1.915-3.809-1.302-9.277-1.106-13.345
			c0.282-5.889,1.162-11.73,1.392-17.623c0.56-14.361,0.021-28.85,0.021-43.223
			C-3427.818,1322.789-3447.818,1322.789-3447.818,1335.687L-3447.818,1335.687z"/>
	</g>
</g>
<g>
	<g>
		<path d="M-2344.185,1387.909c0.002,11.13,0.052,22.292,2.6,33.192c1.177,5.036,3.702,9.599,5.54,14.411
			c1.085,2.842,2.079,5.72,3.072,8.596c0.676,1.957,2.741,5.631,2.679,7.609c0.146-0.84,0.093-0.664-0.158,0.528
			c-0.627,2.709,0.732-1.034-0.537,1.366c-1.051,1.986-0.643,1.142-2.264,2.727c-1.922,1.88-4.887,3.546-8.052,5.304
			c-7.237,4.021-14.779,7.393-20.84,13.197c-9.33,8.935,4.832,23.059,14.142,14.142c1.753-1.678,4.392-3.368,7.572-5.152
			c3.71-2.081,7.537-3.943,11.233-6.051c8.166-4.658,15.237-10.988,18.031-20.216c2.028-6.699-0.373-12.477-2.521-18.771
			c-2.14-6.271-4.482-12.451-7.152-18.517c-4.314-9.803-3.343-21.926-3.345-32.364
			C-2324.187,1375.012-2344.187,1375.011-2344.185,1387.909L-2344.185,1387.909z"/>
	</g>
</g>
<g>
	<g>
		<path d="M-3444.336,1398.353c0,12.859,0,25.718,0,38.577c0,11.49-1.354,23.824,3.409,34.595c3.187,7.208,9.511,12.032,16.571,15.1
			c1.918,0.833,3.856,1.624,5.798,2.399c0.877,0.35,1.754,0.701,2.629,1.056c-1.882-0.764,1.056,0.487,1.154,0.532
			c3.749,1.717,5.78,3.015,8.183,5.329c9.286,8.946,23.445-5.18,14.142-14.142c-5.788-5.575-12.558-8.764-19.92-11.714
			c-3.561-1.427-3.042-1.026-6.655-3.072c-0.497-0.29-0.983-0.597-1.458-0.921c-2.303-1.509,1.383,1.278-0.645-0.595
			c-0.22-0.203-1.916-2.347-0.714-0.678c-0.555-0.771-0.983-1.625-1.409-2.47c0.36,0.832,0.323,0.656-0.11-0.528
			c-0.368-1.114-0.579-2.275-0.798-3.424c-0.317-1.669-0.177-4.082-0.177-5.983c0-5.754,0-11.507,0-17.261
			c0-12.267,0-24.534,0-36.801C-3424.336,1385.456-3444.336,1385.456-3444.336,1398.353L-3444.336,1398.353z"/>
	</g>
</g>
<g>
	<g>
		<path fill="#FFFFFF" d="M-2831.057,1006.428c-2.897,23.892,24.717,26.594,42.168,26.846c10.002,0.144,20.627,1.973,30.549,0.577
			c11.143-1.568,15.648-9.79,15.838-20.46c0.057-3.226-4.943-3.221-5,0c-0.085,4.773-0.722,9.565-4.441,12.903
			c-2.82,2.532-7.39,2.798-10.956,2.913c-8.308,0.267-16.689-0.863-25.013-0.922c-14.843-0.106-40.685-0.914-38.146-21.856
			C-2825.669,1003.232-2830.674,1003.269-2831.057,1006.428L-2831.057,1006.428z"/>
	</g>
</g>
<g>
	<g>
		<path fill="#FFFFFF" d="M-2998.079,1021.019c3.231,22.547,24.979,26.257,44.186,26.345c11.809,0.054,23.832,0.384,35.611-0.273
			c10.755-0.599,16.537-6.514,22.255-15.03c1.803-2.685-2.53-5.185-4.317-2.524c-2.369,3.529-4.767,7.248-8.294,9.736
			c-3.977,2.805-9.251,2.907-13.918,2.952c-10.069,0.097-20.146,0.091-30.216,0.138c-17.306,0.081-37.525-2.022-40.485-22.673
			C-2993.714,1016.508-2998.531,1017.867-2998.079,1021.019L-2998.079,1021.019z"/>
	</g>
</g>
<g>
	<path fill="#181716" d="M2665.718,411.116c18.135,0,28.736-12.135,33.618-24.411l3.767,1.255
		c-4.604,14.927-17.995,29.434-40.315,29.434c-30.269,0-51.333-21.761-51.333-52.729c0-33.339,24.97-53.007,54.402-53.007
		c11.439,0,23.157,2.51,30.131,5.579l3.766,31.386h-2.65c-5.161-19.668-15.623-31.804-32.92-31.804
		c-17.158,0-31.386,15.763-31.386,47.846C2632.798,392.703,2644.655,411.116,2665.718,411.116"/>
	<path fill="#181716" d="M2749.274,395.214c0,14.368,0.278,16.181,13.809,17.855v2.511h-46.73v-2.511
		c13.531-1.674,13.81-3.487,13.81-17.855v-60.401c0-14.367-0.279-16.181-13.81-17.855v-2.511h46.73v2.511
		c-13.531,1.674-13.809,3.488-13.809,17.855V395.214z"/>
	<path fill="#181716" d="M2847.197,316.958v-2.511h34.176v2.511c-13.53,1.674-13.81,3.488-13.81,17.855v80.767h-11.718
		l-59.423-76.861v56.495c0,14.368,0.278,16.181,13.809,17.855v2.511h-34.175v-2.511c13.531-1.674,13.809-3.487,13.809-17.855V330.21
		l-2.371-3.069c-4.883-6.416-7.533-9.067-11.438-10.601v-2.093h25.946l59.005,75.885v-55.519
		C2861.007,320.446,2860.728,318.632,2847.197,316.958"/>
	<path fill="#181716" d="M2935.775,304.962h-2.929l11.578-17.995h21.9L2935.775,304.962z M2943.586,415.58h-51.752v-2.511
		c13.531-1.674,13.811-3.487,13.811-17.855v-60.401c0-14.367-0.28-16.181-13.811-17.855v-2.511h50.357
		c9.626,0,22.041,0,32.921-0.418l3.348,33.339h-2.79c-6.975-23.574-16.46-27.899-43.522-27.899h-7.393v40.872h16.32
		c7.951,0,12.973-3.906,14.369-15.623h2.511v37.383h-2.511c-1.396-11.717-6.418-15.622-14.369-15.622h-16.32V404.7
		c0,4.882,0.976,5.998,7.114,5.998h5.301c25.388,0,34.315-5.719,41.848-28.317h2.65l-5.58,33.338
		C2964.929,415.58,2953.491,415.58,2943.586,415.58"/>
	<path fill="#181716" d="M3126.601,316.958c-13.531,1.674-13.811,3.488-13.811,17.855v60.401c0,14.368,0.28,16.181,13.811,17.855
		v2.511h-46.73v-2.511c13.53-1.674,13.809-3.487,13.809-17.855v-67.375l-35.152,83.835h-4.185l-37.385-85.928v69.468
		c0,14.368,0.28,16.181,13.81,17.855v2.511h-34.176v-2.511c13.531-1.674,13.811-3.487,13.811-17.855v-60.401
		c0-14.367-0.28-16.181-13.811-17.855v-2.511h36.687l29.434,68.631l28.875-68.631h35.013V316.958z"/>
	<path fill="#181716" d="M3165.659,375.545h32.641l-16.042-42.267L3165.659,375.545z M3135.667,413.069
		c9.067-1.116,10.184-3.209,17.996-23.714l28.734-74.908c3.627-0.558,7.534-3.069,9.626-6.138h0.558l35.431,90.671
		c4.464,11.299,5.579,12.973,14.228,14.089v2.511h-42.405v-2.511c11.437-1.116,11.159-4.045,8.508-11.02l-7.532-19.669h-37.942
		l-0.837,2.232c-10.183,25.806-6.417,27.341,5.718,28.457v2.511h-32.083V413.069z"/>
	<path fill="#181716" d="M3474.049,409.861v-34.036h2.791c3.905,25.946,14.228,36.408,30.827,36.408
		c12.276,0,22.458-5.998,22.458-18.553c0-9.486-7.532-14.368-18.692-19.668l-12.414-5.859
		c-14.786-6.975-24.134-16.182-24.134-29.712c0-16.042,15.206-27.201,34.735-27.201c10.043,0,23.155,2.789,29.992,6.974v28.596
		h-2.791c-3.905-19.947-13.531-30.409-27.34-30.409c-11.3,0-19.251,5.301-19.251,15.065c0,9.625,6.556,14.089,13.949,17.576
		l14.787,6.975c15.483,7.254,27.062,14.926,27.062,30.13c0,18.274-17.437,31.247-38.361,31.247
		C3493.996,417.394,3482.139,414.185,3474.049,409.861"/>
	<path fill="#181716" d="M3604.753,319.329h-10.043v47.986h10.043c16.042,0,26.086-6.277,26.086-23.993
		S3620.795,319.329,3604.753,319.329 M3561.789,413.069c13.531-1.674,13.811-3.487,13.811-17.855v-60.401
		c0-14.368-0.28-16.181-13.811-17.855v-2.511h17.855c6.836,0,22.32-0.139,26.645-0.139c25.806,0,45.753,7.253,45.753,29.014
		c0,21.761-19.947,29.015-45.753,29.015h-11.579v22.877c0,14.368,0.279,16.181,15.205,17.855v2.511h-48.126V413.069z"/>
	<path fill="#181716" d="M3721.647,316.819c-19.25,0-31.805,18.274-31.805,47.707c0,29.433,12.555,47.707,31.805,47.707
		s31.805-18.274,31.805-47.707C3753.452,335.093,3740.897,316.819,3721.647,316.819 M3721.647,311.658
		c27.34,0,53.146,18.413,53.146,52.868s-25.806,52.868-53.146,52.868c-27.342,0-53.147-18.413-53.147-52.868
		S3694.305,311.658,3721.647,311.658"/>
	<path fill="#181716" d="M3786.653,316.958v-2.511h46.729v2.511c-13.53,1.674-13.809,3.348-13.809,17.995v40.314
		c0,21.9,7.393,34.175,26.364,34.175c20.506,0,27.481-14.368,27.899-35.292v-39.337c0-14.367-0.279-16.181-13.81-17.855v-2.511
		h34.175v2.511c-13.53,1.674-13.809,3.488-13.809,17.855v39.059c0,30.27-14.089,43.522-39.059,43.522
		c-27.759,0-40.871-14.368-40.871-40.175v-42.266C3800.462,320.585,3800.184,318.632,3786.653,316.958"/>
	<path fill="#181716" d="M3928.656,413.069c14.786-1.674,15.344-3.906,15.344-17.855V319.05h-3.488
		c-19.528,0-27.758,9.904-34.733,32.223h-2.789l4.184-37.244c10.741,0.418,23.714,0.418,33.338,0.418h25.947
		c9.625,0,22.597,0,33.478-0.418l4.185,37.244h-2.929c-6.835-22.319-15.065-32.223-34.595-32.223h-3.487v76.164
		c0,13.949,0.558,16.181,15.344,17.855v2.511h-49.799V413.069z"/>
	<path fill="#181716" d="M4087.956,316.958v-2.511h34.176v2.511c-13.53,1.674-13.81,3.488-13.81,17.855v80.767h-11.718
		l-59.423-76.861v56.495c0,14.368,0.278,16.181,13.809,17.855v2.511h-34.175v-2.511c13.531-1.674,13.809-3.487,13.809-17.855V330.21
		l-2.371-3.069c-4.883-6.416-7.533-9.067-11.438-10.601v-2.093h25.945l59.006,75.885v-55.519
		C4101.766,320.446,4101.486,318.632,4087.956,316.958"/>
	<path fill="#181716" d="M4166.072,395.214c0,14.368,0.278,16.181,13.809,17.855v2.511h-46.73v-2.511
		c13.531-1.674,13.81-3.487,13.81-17.855v-60.401c0-14.367-0.279-16.181-13.81-17.855v-2.511h46.73v2.511
		c-13.531,1.674-13.809,3.488-13.809,17.855V395.214z"/>
	<path fill="#181716" d="M4257.998,335.65c13.809-12.694,16.32-17.715,1.534-18.692v-2.511h34.455v2.511
		c-9.207,1.255-12.415,4.185-28.038,18.553l-22.32,20.645l36.827,42.266c8.37,9.765,11.159,13.671,19.529,14.647v2.511h-44.917
		v-2.511c9.346-0.837,9.485-4.603,4.603-10.323l-32.781-38.22L4257.998,335.65z M4226.75,395.214
		c0,14.368,0.278,16.181,13.81,17.855v2.511h-46.731v-2.511c13.531-1.674,13.811-3.487,13.811-17.855v-60.401
		c0-14.367-0.28-16.181-13.811-17.855v-2.511h46.731v2.511c-13.532,1.674-13.81,3.488-13.81,17.855V395.214z"/>
</g>
<rect x="3390.871" y="356.291" fill="#181716" width="3.368" height="59.29"/>
<rect x="3310.043" y="356.291" fill="#181716" width="3.368" height="59.29"/>
<rect x="3340.353" y="358.453" fill="#181716" width="3.368" height="57.128"/>
<g>
	<path fill="#181716" d="M3352.141,312.861c-22.32,0-40.414,18.094-40.414,40.414c0,22.32,18.094,40.414,40.414,40.414
		c4.101,0,8.058-0.616,11.788-1.751v-21.006h3.523v19.747c14.726-6.035,25.103-20.504,25.103-37.404
		C3392.555,330.955,3374.461,312.861,3352.141,312.861"/>
</g>
<rect x="3360.56" y="358.453" fill="#181716" width="3.368" height="57.128"/>
<rect x="3476.49" y="473.516" fill="#181716" stroke="#FFFFFF" stroke-width="0.0874" stroke-miterlimit="10" width="187.539" height="16.436"/>
<rect x="3476.49" y="497.241" fill="#181716" stroke="#FFFFFF" stroke-width="0.0874" stroke-miterlimit="10" width="187.539" height="16.436"/>
<rect x="3476.49" y="520.965" fill="#181716" stroke="#FFFFFF" stroke-width="0.0874" stroke-miterlimit="10" width="187.539" height="16.436"/>
<rect x="3476.49" y="544.69" fill="#181716" stroke="#FFFFFF" stroke-width="0.0874" stroke-miterlimit="10" width="187.539" height="16.436"/>
<rect x="3476.49" y="568.415" fill="#181716" stroke="#FFFFFF" stroke-width="0.0874" stroke-miterlimit="10" width="187.539" height="16.436"/>
<rect x="3476.49" y="592.14" fill="#181716" stroke="#FFFFFF" stroke-width="0.0874" stroke-miterlimit="10" width="187.539" height="16.436"/>
<rect x="3476.49" y="615.864" fill="#181716" stroke="#FFFFFF" stroke-width="0.0874" stroke-miterlimit="10" width="187.539" height="16.436"/>
<rect x="3476.49" y="639.589" fill="#181716" stroke="#FFFFFF" stroke-width="0.0874" stroke-miterlimit="10" width="187.539" height="16.436"/>
<rect x="3476.49" y="663.314" fill="#181716" stroke="#FFFFFF" stroke-width="0.0874" stroke-miterlimit="10" width="187.539" height="16.436"/>
<rect x="3476.49" y="687.039" fill="#181716" stroke="#FFFFFF" stroke-width="0.0874" stroke-miterlimit="10" width="187.539" height="16.436"/>
<rect x="3476.49" y="710.764" fill="#181716" stroke="#FFFFFF" stroke-width="0.0874" stroke-miterlimit="10" width="187.539" height="16.436"/>
<rect x="3476.49" y="734.488" fill="#181716" stroke="#FFFFFF" stroke-width="0.0874" stroke-miterlimit="10" width="187.539" height="16.436"/>
<rect x="3476.49" y="758.213" fill="#181716" stroke="#FFFFFF" stroke-width="0.0874" stroke-miterlimit="10" width="187.539" height="16.436"/>
<rect x="3476.49" y="781.938" fill="#181716" stroke="#FFFFFF" stroke-width="0.0874" stroke-miterlimit="10" width="187.539" height="16.436"/>
<rect x="3476.49" y="805.663" fill="#181716" stroke="#FFFFFF" stroke-width="0.0874" stroke-miterlimit="10" width="187.539" height="16.436"/>
<rect x="3476.49" y="829.387" fill="#181716" stroke="#FFFFFF" stroke-width="0.0874" stroke-miterlimit="10" width="187.539" height="16.436"/>
<rect x="3476.49" y="853.112" fill="#181716" stroke="#FFFFFF" stroke-width="0.0874" stroke-miterlimit="10" width="187.539" height="16.436"/>
<rect x="3476.49" y="876.837" fill="#181716" stroke="#FFFFFF" stroke-width="0.0874" stroke-miterlimit="10" width="187.539" height="16.436"/>
<rect x="3476.49" y="900.562" fill="#181716" stroke="#FFFFFF" stroke-width="0.0874" stroke-miterlimit="10" width="187.539" height="16.436"/>
<rect x="3476.49" y="924.286" fill="#181716" stroke="#FFFFFF" stroke-width="0.0874" stroke-miterlimit="10" width="187.539" height="16.436"/>
<rect x="3476.49" y="948.011" fill="#181716" stroke="#FFFFFF" stroke-width="0.0874" stroke-miterlimit="10" width="187.539" height="16.436"/>
<rect x="3476.49" y="971.736" fill="#181716" stroke="#FFFFFF" stroke-width="0.0874" stroke-miterlimit="10" width="187.539" height="16.436"/>
<rect x="3476.49" y="995.461" fill="#181716" stroke="#FFFFFF" stroke-width="0.0874" stroke-miterlimit="10" width="187.539" height="16.436"/>
<rect x="3476.49" y="1019.186" fill="#181716" stroke="#FFFFFF" stroke-width="0.0874" stroke-miterlimit="10" width="187.539" height="16.436"/>
<rect x="3476.49" y="1042.91" fill="#181716" stroke="#FFFFFF" stroke-width="0.0874" stroke-miterlimit="10" width="187.539" height="16.436"/>
<rect x="3476.49" y="1066.635" fill="#181716" stroke="#FFFFFF" stroke-width="0.0874" stroke-miterlimit="10" width="187.539" height="16.436"/>
<rect x="3476.49" y="1090.36" fill="#181716" stroke="#FFFFFF" stroke-width="0.0874" stroke-miterlimit="10" width="187.539" height="16.436"/>
<rect x="3476.49" y="1114.085" fill="#181716" stroke="#FFFFFF" stroke-width="0.0874" stroke-miterlimit="10" width="187.539" height="16.436"/>
<rect x="3476.49" y="1137.809" fill="#181716" stroke="#FFFFFF" stroke-width="0.0874" stroke-miterlimit="10" width="187.539" height="16.436"/>
<rect x="3476.49" y="1161.534" fill="#181716" stroke="#FFFFFF" stroke-width="0.0874" stroke-miterlimit="10" width="187.539" height="16.436"/>
<rect x="3476.49" y="1185.259" fill="#181716" stroke="#FFFFFF" stroke-width="0.0874" stroke-miterlimit="10" width="187.539" height="16.436"/>
<rect x="3476.49" y="1208.984" fill="#181716" stroke="#FFFFFF" stroke-width="0.0874" stroke-miterlimit="10" width="187.539" height="16.436"/>
<rect x="3476.49" y="1232.709" fill="#181716" stroke="#FFFFFF" stroke-width="0.0874" stroke-miterlimit="10" width="187.539" height="16.436"/>
<rect x="3476.49" y="1256.433" fill="#181716" stroke="#FFFFFF" stroke-width="0.0874" stroke-miterlimit="10" width="187.539" height="16.436"/>
<rect x="3476.49" y="1280.158" fill="#181716" stroke="#FFFFFF" stroke-width="0.0874" stroke-miterlimit="10" width="187.539" height="16.436"/>
<rect x="3476.49" y="1303.883" fill="#181716" stroke="#FFFFFF" stroke-width="0.0874" stroke-miterlimit="10" width="187.539" height="16.436"/>
<rect x="3476.49" y="1327.608" fill="#181716" stroke="#FFFFFF" stroke-width="0.0874" stroke-miterlimit="10" width="187.539" height="16.436"/>
<rect x="3476.49" y="1351.332" fill="#181716" stroke="#FFFFFF" stroke-width="0.0874" stroke-miterlimit="10" width="187.539" height="16.436"/>
<rect x="3687.295" y="473.516" fill="#181716" stroke="#FFFFFF" stroke-width="0.0874" stroke-miterlimit="10" width="187.539" height="16.436"/>
<rect x="3687.295" y="497.241" fill="#181716" stroke="#FFFFFF" stroke-width="0.0874" stroke-miterlimit="10" width="187.539" height="16.436"/>
<rect x="3687.295" y="520.965" fill="#181716" stroke="#FFFFFF" stroke-width="0.0874" stroke-miterlimit="10" width="187.539" height="16.436"/>
<rect x="3687.295" y="544.69" fill="#181716" stroke="#FFFFFF" stroke-width="0.0874" stroke-miterlimit="10" width="187.539" height="16.436"/>
<rect x="3687.295" y="568.415" fill="#181716" stroke="#FFFFFF" stroke-width="0.0874" stroke-miterlimit="10" width="187.539" height="16.436"/>
<rect x="3687.295" y="592.14" fill="#181716" stroke="#FFFFFF" stroke-width="0.0874" stroke-miterlimit="10" width="187.539" height="16.436"/>
<rect x="3687.295" y="615.864" fill="#181716" stroke="#FFFFFF" stroke-width="0.0874" stroke-miterlimit="10" width="187.539" height="16.436"/>
<rect x="3687.295" y="639.589" fill="#181716" stroke="#FFFFFF" stroke-width="0.0874" stroke-miterlimit="10" width="187.539" height="16.436"/>
<rect x="3687.295" y="663.314" fill="#181716" stroke="#FFFFFF" stroke-width="0.0874" stroke-miterlimit="10" width="187.539" height="16.436"/>
<rect x="3687.295" y="687.039" fill="#181716" stroke="#FFFFFF" stroke-width="0.0874" stroke-miterlimit="10" width="187.539" height="16.436"/>
<rect x="3687.295" y="710.764" fill="#181716" stroke="#FFFFFF" stroke-width="0.0874" stroke-miterlimit="10" width="187.539" height="16.436"/>
<rect x="3687.295" y="734.488" fill="#181716" stroke="#FFFFFF" stroke-width="0.0874" stroke-miterlimit="10" width="187.539" height="16.436"/>
<rect x="3687.295" y="758.213" fill="#181716" stroke="#FFFFFF" stroke-width="0.0874" stroke-miterlimit="10" width="187.539" height="16.436"/>
<rect x="3687.295" y="781.938" fill="#181716" stroke="#FFFFFF" stroke-width="0.0874" stroke-miterlimit="10" width="187.539" height="16.436"/>
<rect x="3687.295" y="805.663" fill="#181716" stroke="#FFFFFF" stroke-width="0.0874" stroke-miterlimit="10" width="187.539" height="16.436"/>
<rect x="3687.295" y="829.387" fill="#181716" stroke="#FFFFFF" stroke-width="0.0874" stroke-miterlimit="10" width="187.539" height="16.436"/>
<rect x="3687.295" y="853.112" fill="#181716" stroke="#FFFFFF" stroke-width="0.0874" stroke-miterlimit="10" width="187.539" height="16.436"/>
<rect x="3687.295" y="876.837" fill="#181716" stroke="#FFFFFF" stroke-width="0.0874" stroke-miterlimit="10" width="187.539" height="16.436"/>
<rect x="3687.295" y="900.562" fill="#181716" stroke="#FFFFFF" stroke-width="0.0874" stroke-miterlimit="10" width="187.539" height="16.436"/>
<rect x="3687.295" y="924.286" fill="#181716" stroke="#FFFFFF" stroke-width="0.0874" stroke-miterlimit="10" width="187.539" height="16.436"/>
<rect x="3687.295" y="948.011" fill="#181716" stroke="#FFFFFF" stroke-width="0.0874" stroke-miterlimit="10" width="187.539" height="16.436"/>
<rect x="3687.295" y="971.736" fill="#181716" stroke="#FFFFFF" stroke-width="0.0874" stroke-miterlimit="10" width="187.539" height="16.436"/>
<rect x="3687.295" y="995.461" fill="#181716" stroke="#FFFFFF" stroke-width="0.0874" stroke-miterlimit="10" width="187.539" height="16.436"/>
<rect x="3687.295" y="1019.186" fill="#181716" stroke="#FFFFFF" stroke-width="0.0874" stroke-miterlimit="10" width="187.539" height="16.436"/>
<rect x="3687.295" y="1042.91" fill="#181716" stroke="#FFFFFF" stroke-width="0.0874" stroke-miterlimit="10" width="187.539" height="16.436"/>
<rect x="3687.295" y="1066.635" fill="#181716" stroke="#FFFFFF" stroke-width="0.0874" stroke-miterlimit="10" width="187.539" height="16.436"/>
<rect x="3687.295" y="1090.36" fill="#181716" stroke="#FFFFFF" stroke-width="0.0874" stroke-miterlimit="10" width="187.539" height="16.436"/>
<rect x="3687.295" y="1114.085" fill="#181716" stroke="#FFFFFF" stroke-width="0.0874" stroke-miterlimit="10" width="187.539" height="16.436"/>
<rect x="3687.295" y="1137.809" fill="#181716" stroke="#FFFFFF" stroke-width="0.0874" stroke-miterlimit="10" width="187.539" height="16.436"/>
<rect x="3687.295" y="1161.534" fill="#181716" stroke="#FFFFFF" stroke-width="0.0874" stroke-miterlimit="10" width="187.539" height="16.436"/>
<rect x="3687.295" y="1185.259" fill="#181716" stroke="#FFFFFF" stroke-width="0.0874" stroke-miterlimit="10" width="187.539" height="16.436"/>
<rect x="3687.295" y="1208.984" fill="#181716" stroke="#FFFFFF" stroke-width="0.0874" stroke-miterlimit="10" width="187.539" height="16.436"/>
<rect x="3687.295" y="1232.709" fill="#181716" stroke="#FFFFFF" stroke-width="0.0874" stroke-miterlimit="10" width="187.539" height="16.436"/>
<rect x="3687.295" y="1256.433" fill="#181716" stroke="#FFFFFF" stroke-width="0.0874" stroke-miterlimit="10" width="187.539" height="16.436"/>
<rect x="3687.295" y="1280.158" fill="#181716" stroke="#FFFFFF" stroke-width="0.0874" stroke-miterlimit="10" width="187.539" height="16.436"/>
<rect x="3687.295" y="1303.883" fill="#181716" stroke="#FFFFFF" stroke-width="0.0874" stroke-miterlimit="10" width="187.539" height="16.436"/>
<rect x="3687.295" y="1327.608" fill="#181716" stroke="#FFFFFF" stroke-width="0.0874" stroke-miterlimit="10" width="187.539" height="16.436"/>
<rect x="3687.295" y="1351.332" fill="#181716" stroke="#FFFFFF" stroke-width="0.0874" stroke-miterlimit="10" width="187.539" height="16.436"/>
<rect x="3898.099" y="473.516" fill="#181716" stroke="#FFFFFF" stroke-width="0.0874" stroke-miterlimit="10" width="187.539" height="16.436"/>
<rect x="3898.099" y="497.241" fill="#181716" stroke="#FFFFFF" stroke-width="0.0874" stroke-miterlimit="10" width="187.539" height="16.436"/>
<rect x="3898.099" y="520.965" fill="#181716" stroke="#FFFFFF" stroke-width="0.0874" stroke-miterlimit="10" width="187.539" height="16.436"/>
<rect x="3898.099" y="544.69" fill="#181716" stroke="#FFFFFF" stroke-width="0.0874" stroke-miterlimit="10" width="187.539" height="16.436"/>
<rect x="3898.099" y="568.415" fill="#181716" stroke="#FFFFFF" stroke-width="0.0874" stroke-miterlimit="10" width="187.539" height="16.436"/>
<rect x="3898.099" y="592.14" fill="#181716" stroke="#FFFFFF" stroke-width="0.0874" stroke-miterlimit="10" width="187.539" height="16.436"/>
<rect x="3898.099" y="615.864" fill="#181716" stroke="#FFFFFF" stroke-width="0.0874" stroke-miterlimit="10" width="187.539" height="16.436"/>
<rect x="3898.099" y="639.589" fill="#181716" stroke="#FFFFFF" stroke-width="0.0874" stroke-miterlimit="10" width="187.539" height="16.436"/>
<rect x="3898.099" y="663.314" fill="#181716" stroke="#FFFFFF" stroke-width="0.0874" stroke-miterlimit="10" width="187.539" height="16.436"/>
<rect x="3898.099" y="687.039" fill="#181716" stroke="#FFFFFF" stroke-width="0.0874" stroke-miterlimit="10" width="187.539" height="16.436"/>
<rect x="3898.099" y="710.764" fill="#181716" stroke="#FFFFFF" stroke-width="0.0874" stroke-miterlimit="10" width="187.539" height="16.436"/>
<rect x="3898.099" y="734.488" fill="#181716" stroke="#FFFFFF" stroke-width="0.0874" stroke-miterlimit="10" width="187.539" height="16.436"/>
<rect x="3898.099" y="758.213" fill="#181716" stroke="#FFFFFF" stroke-width="0.0874" stroke-miterlimit="10" width="187.539" height="16.436"/>
<rect x="3898.099" y="781.938" fill="#181716" stroke="#FFFFFF" stroke-width="0.0874" stroke-miterlimit="10" width="187.539" height="16.436"/>
<rect x="3898.099" y="805.663" fill="#181716" stroke="#FFFFFF" stroke-width="0.0874" stroke-miterlimit="10" width="187.539" height="16.436"/>
<rect x="3898.099" y="829.387" fill="#181716" stroke="#FFFFFF" stroke-width="0.0874" stroke-miterlimit="10" width="187.539" height="16.436"/>
<rect x="3898.099" y="853.112" fill="#181716" stroke="#FFFFFF" stroke-width="0.0874" stroke-miterlimit="10" width="187.539" height="16.436"/>
<rect x="3898.099" y="876.837" fill="#181716" stroke="#FFFFFF" stroke-width="0.0874" stroke-miterlimit="10" width="187.539" height="16.436"/>
<rect x="3898.099" y="900.562" fill="#181716" stroke="#FFFFFF" stroke-width="0.0874" stroke-miterlimit="10" width="187.539" height="16.436"/>
<rect x="3898.099" y="924.286" fill="#181716" stroke="#FFFFFF" stroke-width="0.0874" stroke-miterlimit="10" width="187.539" height="16.436"/>
<rect x="3898.099" y="948.011" fill="#181716" stroke="#FFFFFF" stroke-width="0.0874" stroke-miterlimit="10" width="187.539" height="16.436"/>
<rect x="3898.099" y="971.736" fill="#181716" stroke="#FFFFFF" stroke-width="0.0874" stroke-miterlimit="10" width="187.539" height="16.436"/>
<rect x="3898.099" y="995.461" fill="#181716" stroke="#FFFFFF" stroke-width="0.0874" stroke-miterlimit="10" width="187.539" height="16.436"/>
<rect x="3898.099" y="1019.186" fill="#181716" stroke="#FFFFFF" stroke-width="0.0874" stroke-miterlimit="10" width="187.539" height="16.436"/>
<rect x="3898.099" y="1042.91" fill="#181716" stroke="#FFFFFF" stroke-width="0.0874" stroke-miterlimit="10" width="187.539" height="16.436"/>
<rect x="3898.099" y="1066.635" fill="#181716" stroke="#FFFFFF" stroke-width="0.0874" stroke-miterlimit="10" width="187.539" height="16.436"/>
<rect x="3898.099" y="1090.36" fill="#181716" stroke="#FFFFFF" stroke-width="0.0874" stroke-miterlimit="10" width="187.539" height="16.436"/>
<rect x="3898.099" y="1114.085" fill="#181716" stroke="#FFFFFF" stroke-width="0.0874" stroke-miterlimit="10" width="187.539" height="16.436"/>
<rect x="3898.099" y="1137.809" fill="#181716" stroke="#FFFFFF" stroke-width="0.0874" stroke-miterlimit="10" width="187.539" height="16.436"/>
<rect x="3898.099" y="1161.534" fill="#181716" stroke="#FFFFFF" stroke-width="0.0874" stroke-miterlimit="10" width="187.539" height="16.436"/>
<rect x="3898.099" y="1185.259" fill="#181716" stroke="#FFFFFF" stroke-width="0.0874" stroke-miterlimit="10" width="187.539" height="16.436"/>
<rect x="3898.099" y="1208.984" fill="#181716" stroke="#FFFFFF" stroke-width="0.0874" stroke-miterlimit="10" width="187.539" height="16.436"/>
<rect x="3898.099" y="1232.709" fill="#181716" stroke="#FFFFFF" stroke-width="0.0874" stroke-miterlimit="10" width="187.539" height="16.436"/>
<rect x="3898.099" y="1256.433" fill="#181716" stroke="#FFFFFF" stroke-width="0.0874" stroke-miterlimit="10" width="187.539" height="16.436"/>
<rect x="3898.099" y="1280.158" fill="#181716" stroke="#FFFFFF" stroke-width="0.0874" stroke-miterlimit="10" width="187.539" height="16.436"/>
<rect x="3898.099" y="1303.883" fill="#181716" stroke="#FFFFFF" stroke-width="0.0874" stroke-miterlimit="10" width="187.539" height="16.436"/>
<rect x="3898.099" y="1327.608" fill="#181716" stroke="#FFFFFF" stroke-width="0.0874" stroke-miterlimit="10" width="187.539" height="16.436"/>
<rect x="3898.099" y="1351.332" fill="#181716" stroke="#FFFFFF" stroke-width="0.0874" stroke-miterlimit="10" width="187.539" height="16.436"/>
<rect x="4108.904" y="473.516" fill="#181716" stroke="#FFFFFF" stroke-width="0.0874" stroke-miterlimit="10" width="187.539" height="16.436"/>
<rect x="4108.904" y="497.241" fill="#181716" stroke="#FFFFFF" stroke-width="0.0874" stroke-miterlimit="10" width="187.539" height="16.436"/>
<rect x="4108.904" y="520.965" fill="#181716" stroke="#FFFFFF" stroke-width="0.0874" stroke-miterlimit="10" width="187.539" height="16.436"/>
<rect x="4108.904" y="544.69" fill="#181716" stroke="#FFFFFF" stroke-width="0.0874" stroke-miterlimit="10" width="187.539" height="16.436"/>
<rect x="4108.904" y="568.415" fill="#181716" stroke="#FFFFFF" stroke-width="0.0874" stroke-miterlimit="10" width="187.539" height="16.436"/>
<rect x="4108.904" y="592.14" fill="#181716" stroke="#FFFFFF" stroke-width="0.0874" stroke-miterlimit="10" width="187.539" height="16.436"/>
<rect x="4108.904" y="615.864" fill="#181716" stroke="#FFFFFF" stroke-width="0.0874" stroke-miterlimit="10" width="187.539" height="16.436"/>
<rect x="4108.904" y="639.589" fill="#181716" stroke="#FFFFFF" stroke-width="0.0874" stroke-miterlimit="10" width="187.539" height="16.436"/>
<rect x="4108.904" y="663.314" fill="#181716" stroke="#FFFFFF" stroke-width="0.0874" stroke-miterlimit="10" width="187.539" height="16.436"/>
<rect x="4108.904" y="687.039" fill="#181716" stroke="#FFFFFF" stroke-width="0.0874" stroke-miterlimit="10" width="187.539" height="16.436"/>
<rect x="4108.904" y="710.764" fill="#181716" stroke="#FFFFFF" stroke-width="0.0874" stroke-miterlimit="10" width="187.539" height="16.436"/>
<rect x="4108.904" y="734.488" fill="#181716" stroke="#FFFFFF" stroke-width="0.0874" stroke-miterlimit="10" width="187.539" height="16.436"/>
<rect x="4108.904" y="758.213" fill="#181716" stroke="#FFFFFF" stroke-width="0.0874" stroke-miterlimit="10" width="187.539" height="16.436"/>
<rect x="4108.904" y="781.938" fill="#181716" stroke="#FFFFFF" stroke-width="0.0874" stroke-miterlimit="10" width="187.539" height="16.436"/>
<rect x="4108.904" y="805.663" fill="#181716" stroke="#FFFFFF" stroke-width="0.0874" stroke-miterlimit="10" width="187.539" height="16.436"/>
<rect x="4108.904" y="829.387" fill="#181716" stroke="#FFFFFF" stroke-width="0.0874" stroke-miterlimit="10" width="187.539" height="16.436"/>
<rect x="4108.904" y="853.112" fill="#181716" stroke="#FFFFFF" stroke-width="0.0874" stroke-miterlimit="10" width="187.539" height="16.436"/>
<rect x="4108.904" y="876.837" fill="#181716" stroke="#FFFFFF" stroke-width="0.0874" stroke-miterlimit="10" width="187.539" height="16.436"/>
<rect x="4108.904" y="900.562" fill="#181716" stroke="#FFFFFF" stroke-width="0.0874" stroke-miterlimit="10" width="187.539" height="16.436"/>
<rect x="4108.904" y="924.286" fill="#181716" stroke="#FFFFFF" stroke-width="0.0874" stroke-miterlimit="10" width="187.539" height="16.436"/>
<rect x="4108.904" y="948.011" fill="#181716" stroke="#FFFFFF" stroke-width="0.0874" stroke-miterlimit="10" width="187.539" height="16.436"/>
<rect x="4108.904" y="971.736" fill="#181716" stroke="#FFFFFF" stroke-width="0.0874" stroke-miterlimit="10" width="187.539" height="16.436"/>
<rect x="4108.904" y="995.461" fill="#181716" stroke="#FFFFFF" stroke-width="0.0874" stroke-miterlimit="10" width="187.539" height="16.436"/>
<rect x="4108.904" y="1019.186" fill="#181716" stroke="#FFFFFF" stroke-width="0.0874" stroke-miterlimit="10" width="187.539" height="16.436"/>
<rect x="4108.904" y="1042.91" fill="#181716" stroke="#FFFFFF" stroke-width="0.0874" stroke-miterlimit="10" width="187.539" height="16.436"/>
<rect x="4108.904" y="1066.635" fill="#181716" stroke="#FFFFFF" stroke-width="0.0874" stroke-miterlimit="10" width="187.539" height="16.436"/>
<rect x="4108.904" y="1090.36" fill="#181716" stroke="#FFFFFF" stroke-width="0.0874" stroke-miterlimit="10" width="187.539" height="16.436"/>
<rect x="4108.904" y="1114.085" fill="#181716" stroke="#FFFFFF" stroke-width="0.0874" stroke-miterlimit="10" width="187.539" height="16.436"/>
<rect x="4108.904" y="1137.809" fill="#181716" stroke="#FFFFFF" stroke-width="0.0874" stroke-miterlimit="10" width="187.539" height="16.436"/>
<rect x="4108.904" y="1161.534" fill="#181716" stroke="#FFFFFF" stroke-width="0.0874" stroke-miterlimit="10" width="187.539" height="16.436"/>
<rect x="4108.904" y="1185.259" fill="#181716" stroke="#FFFFFF" stroke-width="0.0874" stroke-miterlimit="10" width="187.539" height="16.436"/>
<rect x="4108.904" y="1208.984" fill="#181716" stroke="#FFFFFF" stroke-width="0.0874" stroke-miterlimit="10" width="187.539" height="16.436"/>
<rect x="4108.904" y="1232.709" fill="#181716" stroke="#FFFFFF" stroke-width="0.0874" stroke-miterlimit="10" width="187.539" height="16.436"/>
<rect x="4108.904" y="1256.433" fill="#181716" stroke="#FFFFFF" stroke-width="0.0874" stroke-miterlimit="10" width="187.539" height="16.436"/>
<rect x="4108.904" y="1280.158" fill="#181716" stroke="#FFFFFF" stroke-width="0.0874" stroke-miterlimit="10" width="187.539" height="16.436"/>
<rect x="4108.904" y="1303.883" fill="#181716" stroke="#FFFFFF" stroke-width="0.0874" stroke-miterlimit="10" width="187.539" height="16.436"/>
<rect x="4108.904" y="1327.608" fill="#181716" stroke="#FFFFFF" stroke-width="0.0874" stroke-miterlimit="10" width="187.539" height="16.436"/>
<rect x="4108.904" y="1351.332" fill="#181716" stroke="#FFFFFF" stroke-width="0.0874" stroke-miterlimit="10" width="187.539" height="16.436"/>
<g>
	<g>
		<g enable-background="new    ">
			<g>
				<path fill="#181716" d="M4163.366,2496.692c6.118,4.434,8.165,6.448,14.185,3.766l0.028,2.034l-32.25,18.62l-0.028-2.034
					c6.704-4.554,6.76-7.658,3.194-10.272l-23.965-17.373l22.017-36.285c9.771-16.01,11.519-21.112,0.891-15.777l-0.028-2.034
					l24.742-14.285l0.028,2.034c-6.597,4.83-8.871,8.539-19.929,26.651l-15.795,25.977L4163.366,2496.692z"/>
			</g>
			<g>
				<path fill="#181716" d="M4124.774,2516.35c0.16,11.643,0.38,12.993,10.11,8.742l0.028,2.034l-33.549,19.37l-0.028-2.034
					c9.693-6.963,9.874-8.544,9.714-20.188l-0.672-48.928c-0.16-11.636-0.38-12.993-10.111-8.742l-0.028-2.034l33.549-19.37
					l0.028,2.034c-9.693,6.963-9.873,8.552-9.713,20.188L4124.774,2516.35z"/>
			</g>
			<g>
				<path fill="#181716" d="M4090.223,2470.353l0.028,2.034c-9.694,6.964-9.874,8.552-9.714,20.188l0.672,48.928
					c0.16,11.643,0.38,12.993,10.111,8.742l0.028,2.034l-33.549,19.37l-0.028-2.034c9.693-6.963,9.873-8.544,9.713-20.187
					l-0.672-48.928c-0.16-11.636-0.38-12.993-10.111-8.742l-0.028-2.034L4090.223,2470.353z"/>
			</g>
			<g>
				<path fill="#181716" d="M4048.765,2494.289l0.028,2.034c-9.7,6.967-9.88,8.555-9.72,20.191l0.898,65.427l-8.413,4.857
					l-43.521-37.629l0.628,45.764c0.16,11.643,0.38,12.993,10.117,8.738l0.028,2.034l-24.535,14.165l-0.028-2.034
					c9.693-6.963,9.873-8.544,9.714-20.188l-0.723-52.661l-1.733-1.505c-3.58-3.172-5.516-4.216-8.331-3.84l-0.023-1.698
					l18.623-10.752l43.213,37.013l-0.617-44.976c-0.16-11.636-0.38-12.993-10.117-8.738l-0.028-2.034L4048.765,2494.289z"/>
			</g>
			<g>
				<path fill="#181716" d="M3761.194,2658.04c19.631-11.334,38.361-7.113,38.744,20.796c0.383,27.916-17.938,53.521-37.569,64.855
					c-19.631,11.334-38.361,7.12-38.744-20.796C3723.243,2694.986,3741.563,2669.374,3761.194,2658.04z M3762.312,2739.513
					c13.822-7.98,22.633-27.984,22.305-51.832c-0.327-23.841-9.544-33.444-23.366-25.464c-13.822,7.98-22.633,27.992-22.305,51.832
					C3739.274,2737.897,3748.491,2747.493,3762.312,2739.513"/>
			</g>
			<g>
				<path fill="#FFFFFF" d="M3677.352,2712.703c11.515-6.648,18.798-5.72,18.994,8.624c0.197,14.355-6.945,23.606-18.461,30.254
					l-7.212,4.164l-0.534-38.878L3677.352,2712.703z"/>
			</g>
			<g>
				<path fill="#FFFFFF" d="M3563.588,2694.275l622.842-359.598l13.272,966.953l-622.842,359.598L3563.588,2694.275z
					 M3762.369,2743.688c19.628-11.332,37.95-36.936,37.567-64.852c-0.383-27.911-19.115-32.132-38.743-20.8
					c-19.632,11.335-37.955,36.949-37.572,64.86C3724.005,2750.811,3742.737,2755.022,3762.369,2743.688 M3885.139,2590.807
					l-0.028-2.036l-24.532,14.164l0.028,2.036c9.73-4.25,9.95-2.893,10.11,8.743l0.438,31.866
					c-0.066,17.115-4.913,31.647-19.641,40.15c-13.618,7.862-19.06,0.984-19.303-16.754l-0.448-32.666
					c-0.163-11.862,0.019-13.33,9.712-20.293l-0.028-2.036l-33.549,19.369l0.028,2.036c9.735-4.252,9.952-2.787,10.112,8.848
					l0.47,34.244c0.287,20.904,9.86,27.116,29.795,15.606c17.926-10.35,27.895-26.932,27.559-51.45l-0.434-31.64
					C3875.267,2599.359,3875.447,2597.771,3885.139,2590.807 M4048.79,2496.323l-0.028-2.036l-24.541,14.169l0.028,2.036
					c9.739-4.255,9.96-2.898,10.12,8.738l0.617,44.975l-43.213-37.014l-18.625,10.753l0.023,1.699
					c2.814-0.374,4.75,0.667,8.332,3.837l1.731,1.509l0.723,52.66c0.16,11.646-0.021,13.224-9.713,20.188l0.028,2.036l24.537-14.166
					l-0.028-2.036c-9.739,4.255-9.96,2.908-10.119-8.738l-0.628-45.764l43.522,37.631l8.415-4.858l-0.898-65.427
					C4038.912,2504.878,4039.092,2503.29,4048.79,2496.323 M3962.339,2574.256l2.103-1.214l-3.421-28.437
					c-7.809,4.848-17.119,10.223-24.024,14.21l-18.63,10.756c-6.914,3.992-16.229,9.37-23.945,13.485l-2.593,31.909l2.005-1.157
					c4.759-20.976,10.56-32.416,24.584-40.512l2.499-1.443l0.847,61.703c0.155,11.299-0.221,13.34-10.818,20.826l0.028,2.036
					l35.754-20.643l-0.028-2.036c-10.63,4.769-11.055,3.191-11.21-8.108l-0.847-61.703l2.499-1.443
					C3951.164,2554.389,3957.181,2559.006,3962.339,2574.256 M3679.046,2755.01c18.527-10.697,32.764-24.838,32.522-42.471
					c-0.242-17.627-14.64-15.231-33.167-4.535c-3.105,1.793-14.218,8.32-19.132,11.157l-12.821,7.402l0.028,2.036
					c9.739-4.255,9.96-2.908,10.12,8.738l0.672,48.925c0.16,11.646-0.021,13.224-9.723,20.194l0.028,2.036l34.56-19.954
					l-0.028-2.036c-10.742,4.834-10.962,3.487-11.122-8.159l-0.254-18.532L3679.046,2755.01 M3608.738,2832.386
					c15.026-8.675,27.4-26.407,27.197-41.209c-0.169-12.32-8.572-13.73-19.767-13.189l-10.693,0.479
					c-5.344,0.233-10.107-0.659-10.214-8.455c-0.109-7.911,5.548-15.504,13.656-20.185c9.921-5.728,16.942-1.245,19.97,13.299
					l2-1.155l-0.318-23.171c-4.956-0.553-14.395,2.627-21.607,6.791c-14.019,8.094-24.818,23.432-24.64,36.43
					c0.15,10.957,6.966,14.54,17.659,14.061l8.979-0.396c8.068-0.332,13.535,0.504,13.641,8.189
					c0.14,10.168-7.104,19.244-15.92,24.334c-11.921,6.883-19.446,2.686-22.541-16.709l-2.005,1.157l0.378,27.563
					C3590.371,2840.377,3598.925,2838.052,3608.738,2832.386 M4177.577,2502.493l-0.028-2.036
					c-6.021,2.681-8.069,0.666-14.187-3.765l-26.909-18.98l15.794-25.979c11.057-18.112,13.332-21.822,19.929-26.649l-0.028-2.036
					l-24.742,14.285l0.028,2.036c10.626-5.335,8.878-0.232-0.893,15.78l-22.015,36.283l23.964,17.371
					c3.565,2.618,3.509,5.72-3.195,10.275l0.028,2.036L4177.577,2502.493 M4090.25,2472.386l-0.028-2.036l-33.549,19.369
					l0.028,2.036c9.73-4.25,9.95-2.893,10.11,8.743l0.672,48.926c0.16,11.646-0.021,13.224-9.713,20.188l0.028,2.036l33.549-19.369
					l-0.028-2.036c-9.73,4.25-9.95,2.903-10.11-8.743l-0.672-48.926C4080.377,2480.938,4080.557,2479.35,4090.25,2472.386
					 M4134.909,2527.127l-0.028-2.036c-9.73,4.25-9.95,2.903-10.11-8.743l-0.671-48.926c-0.16-11.635,0.021-13.224,9.713-20.188
					l-0.028-2.036l-33.548,19.369l0.028,2.036c9.729-4.25,9.95-2.892,10.11,8.743l0.671,48.926
					c0.16,11.646-0.021,13.224-9.713,20.188l0.028,2.036L4134.909,2527.127"/>
			</g>
			<g>
				<path fill="#181716" d="M3562.856,2693.881l624.285-360.431l13.294,968.577l-624.284,360.431L3562.856,2693.881z
					 M4199.701,3301.629l-13.272-966.951l-622.844,359.599l13.272,966.951L4199.701,3301.629"/>
			</g>
			<g>
				<path fill="#181716" d="M3885.115,2588.772l0.028,2.034c-9.693,6.963-9.874,8.552-9.714,20.188l0.434,31.642
					c0.336,24.519-9.635,41.1-27.56,51.449c-19.934,11.509-29.509,5.302-29.796-15.601l-0.47-34.244
					c-0.16-11.636-0.375-13.106-10.112-8.851l-0.028-2.034l33.549-19.369l0.028,2.034c-9.693,6.963-9.875,8.435-9.712,20.297
					l0.448,32.662c0.243,17.738,5.685,24.62,19.306,16.756c14.726-8.502,19.574-23.037,19.639-40.152l-0.437-31.868
					c-0.16-11.636-0.381-12.993-10.111-8.742l-0.028-2.034L3885.115,2588.772z"/>
			</g>
			<g>
				<path fill="#181716" d="M3679.049,2755.01l-8.316,4.801l0.254,18.533c0.16,11.643,0.38,12.993,11.119,8.16l0.028,2.034
					l-34.557,19.952l-0.028-2.034c9.7-6.967,9.88-8.548,9.72-20.191l-0.672-48.928c-0.16-11.643-0.38-12.993-10.117-8.738
					l-0.028-2.034l12.82-7.402c4.911-2.835,16.023-9.362,19.132-11.156c18.526-10.696,32.926-13.094,33.167,4.535
					S3697.575,2744.314,3679.049,2755.01z M3670.144,2716.869l0.534,38.874l7.211-4.164c11.515-6.648,18.656-15.893,18.459-30.248
					c-0.197-14.348-7.478-15.274-18.993-8.625L3670.144,2716.869"/>
			</g>
			<g>
				<path fill="#181716" d="M3608.965,2745.592c7.211-4.163,16.65-7.343,21.608-6.788l0.318,23.17l-2.003,1.156
					c-3.026-14.544-10.05-19.028-19.969-13.301c-8.109,4.682-13.763,12.274-13.654,20.184c0.107,7.794,4.867,8.69,10.211,8.456
					l10.694-0.479c11.195-0.541,19.596,0.87,19.765,13.191c0.203,14.8-12.169,32.532-27.193,41.206
					c-9.815,5.667-18.367,7.989-24.225,7.836l-0.378-27.566l2.003-1.157c3.093,19.4,10.621,23.593,22.542,16.709
					c8.814-5.089,16.055-14.164,15.916-24.334c-0.105-7.685-5.568-8.521-13.64-8.189l-8.976,0.398
					c-10.694,0.479-17.51-3.103-17.661-14.061C3584.146,2769.025,3594.943,2753.687,3608.965,2745.592z"/>
			</g>
		</g>
		<g>
			<path fill="#FFFFFF" d="M3761.251,2662.217c13.819-7.978,23.038,1.624,23.365,25.463c0.327,23.845-8.486,43.853-22.304,51.831
				c-13.823,7.981-23.043-1.616-23.37-25.46C3738.615,2690.211,3747.428,2670.198,3761.251,2662.217z"/>
		</g>
		<g>
			<path fill="#181716" d="M3961.023,2544.609l3.419,28.434l-2.1,1.212c-5.159-15.246-11.175-19.863-25.197-11.767l-2.501,1.444
				l0.847,61.701c0.155,11.301,0.581,12.877,11.209,8.108l0.028,2.034l-35.753,20.642l-0.028-2.034
				c10.598-7.486,10.974-9.525,10.818-20.825l-0.847-61.701l-2.5,1.444c-14.022,8.095-19.824,19.536-24.584,40.508l-2.003,1.156
				l2.591-31.904c7.72-4.119,17.031-9.495,23.945-13.487l18.629-10.756C3943.905,2554.83,3953.216,2549.454,3961.023,2544.609z"/>
		</g>
	</g>
</g>
<g>
	<g>
		<g>
			<path fill="#181716" d="M3077.846,2494.698l-0.006,2.047c-9.606-4.179-9.808-2.812-9.842,8.897l-0.14,49.235
				c-0.033,11.716,0.16,13.305,9.759,20.214l-0.006,2.047l-33.156-19.142l0.006-2.047c9.606,4.179,9.809,2.819,9.842-8.897
				l0.14-49.235c0.033-11.709-0.161-13.305-9.759-20.214l0.006-2.047L3077.846,2494.698z"/>
		</g>
		<g>
			<path fill="#181716" d="M3161.759,2543.145l-0.006,2.047c-9.6-4.176-9.809-2.812-9.842,8.897l-0.187,65.837l-8.313-4.799
				l-41.974-86.99l-0.131,46.051c-0.033,11.716,0.161,13.305,9.753,20.21l-0.006,2.047l-24.242-13.997l0.006-2.047
				c9.6,4.176,9.802,2.815,9.835-8.901l0.15-52.991l-1.672-3.471c-3.452-7.233-5.323-10.473-8.09-13.32l0.005-1.709l18.407,10.627
				l41.682,86.028l0.128-45.259c0.033-11.709-0.161-13.305-9.753-20.21l0.006-2.047L3161.759,2543.145z"/>
		</g>
		<g>
			<polygon fill="#181716" points="3222.088,2555.541 3200.376,2557.695 3198.295,2556.493 3206.553,2546.572 			"/>
		</g>
		<g>
			<path fill="#181716" d="M3230.869,2638.512l1.884,1.088l-4.036,24.889c-7.917-4.681-16.031-9.366-23.061-13.425l-36.712-21.196
				l0.006-2.047c9.606,4.179,9.809,2.819,9.842-8.897l0.14-49.235c0.033-11.709-0.161-13.305-9.759-20.214l0.006-2.047
				l35.722,20.624c6.832,3.944,15.636,9.027,23.356,13.139l2.298,28.553l-1.979-1.143c-4.894-22.078-11.613-29.485-30.805-40.566
				l-5.248-3.03l-0.094,33.315l11.575,6.683c5.644,3.259,9.216,2.131,10.232-6.849l1.781,1.029l-0.086,30.476l-1.781-1.029
				c-0.963-10.123-4.516-15.364-10.16-18.623l-11.575-6.683l-0.088,31.158c-0.011,3.984,0.682,5.288,5.036,7.802l3.76,2.171
				C3219.126,2654.851,3225.473,2653.848,3230.869,2638.512z"/>
		</g>
		<g enable-background="new    ">
			<g>
				<path fill="#181716" d="M3008.879,2452.601c8.115,4.685,16.422,11.531,21.363,16.89l2.596,27.123l-1.877-1.083
					c-3.619-18.146-11.01-32.326-23.282-39.411c-12.176-7.03-22.306-0.004-22.38,26.151c-0.065,22.853,8.307,42.722,23.248,51.347
					c12.865,7.428,20.414,1.881,23.909-6.125l2.666,2.561c-3.297,10.288-12.831,16.621-28.665,7.48
					c-21.478-12.4-36.368-38.758-36.296-64.003C2970.238,2446.348,2987.994,2440.544,3008.879,2452.601z"/>
			</g>
			<g>
				<polygon fill="#FFFFFF" points="3363.29,2709.386 3375.166,2681.728 3386.447,2722.756 				"/>
			</g>
			<g>
				<path fill="#181716" d="M3468.152,2754.204l-0.02,6.981c-0.575-2.573-0.948-5.127-1.095-7.625L3468.152,2754.204z"/>
			</g>
			<g>
				<path fill="#181716" d="M3503.955,2786.831l-0.103,36.396l-2.388-1.378l0.053-18.565c0.81,0.27,1.607,0.493,2.39,0.671
					L3503.955,2786.831z"/>
			</g>
			<g>
				<path fill="#181716" d="M3524.219,2786.574c-0.161,2.318-0.548,4.434-1.135,6.334l0.02-6.978L3524.219,2786.574z"/>
			</g>
			<g>
				<path fill="#181716" d="M3525.492,2787.309l-0.137,48.333l-2.388-1.379l0.117-41.355c0.587-1.9,0.973-4.016,1.135-6.334
					L3525.492,2787.309z"/>
			</g>
			<g>
				<path fill="#FFFFFF" d="M2947.748,2339.454l615.415,355.31l-2.759,973.023l-615.415-355.31L2947.748,2339.454z
					 M3335.712,2645.625l0.006-2.049l-24.834-14.338l-20.639,44.125l-20.727-68.008l-26.022-15.024l-0.006,2.049
					c9.591,6.906,9.79,8.505,9.757,20.213l-0.14,49.233c-0.033,11.719-0.24,13.074-9.839,8.899l-0.006,2.049l24.24,13.995
					l0.006-2.048c-9.592-6.906-9.785-8.492-9.752-20.211l0.161-56.627l26.326,85.36l2.967,1.713l25.134-53.937l-0.156,54.918
					c-0.033,11.719-0.236,13.076-9.844,8.897l-0.006,2.049l33.149,19.138l0.006-2.049c-9.592-6.906-9.786-8.491-9.752-20.211
					l0.14-49.233C3325.911,2642.819,3326.113,2641.451,3335.712,2645.625 M3417.522,2773.384l0.006-2.049
					c-6.133-4.453-6.922-6.276-10.06-17.308l-24.919-88.423l-0.396-0.229c-1.495,1.645-4.274,2.087-6.846,1.058l-20.562,49.292
					c-5.589,13.511-6.386,14.764-12.819,11.961l-0.006,2.048l22.765,13.144l0.006-2.049c-8.612-5.884-11.28-8.681-3.997-25.546
					l0.599-1.472l26.916,15.54l5.298,19.118c1.863,6.775,2.055,9.272-6.055,5.501l-0.006,2.048L3417.522,2773.384
					 M3161.751,2545.189l0.006-2.049l-24.244-13.997l-0.006,2.048c9.596,6.908,9.79,8.505,9.757,20.213l-0.128,45.258l-41.684-86.03
					l-18.408-10.628l-0.005,1.71c2.77,2.85,4.638,6.087,8.092,13.319l1.67,3.472l-0.15,52.991
					c-0.033,11.719-0.236,13.076-9.835,8.902l-0.006,2.048l24.244,13.998l0.006-2.049c-9.592-6.906-9.786-8.491-9.752-20.211
					l0.131-46.052l41.972,86.992l8.315,4.801l0.187-65.838C3151.945,2542.379,3152.152,2541.014,3161.751,2545.189
					 M3006.454,2537.527c15.837,9.144,25.37,2.808,28.666-7.479l-2.664-2.562c-3.497,8.007-11.048,13.552-23.909,6.126
					c-14.944-8.628-23.312-28.496-23.248-51.347c0.074-26.154,10.203-33.179,22.378-26.15c12.272,7.085,19.665,21.263,23.282,39.411
					l1.879,1.085l-2.599-27.125c-4.94-5.36-13.249-12.209-21.361-16.893c-20.886-12.058-38.639-6.249-38.716,20.932
					C2970.089,2498.771,2984.978,2525.128,3006.454,2537.527 M3228.714,2664.481l4.039-24.883l-1.884-1.088
					c-5.396,15.335-11.743,16.336-29.75,5.94l-3.759-2.17c-4.353-2.513-5.046-3.815-5.035-7.801l0.088-31.156l11.572,6.681
					c5.648,3.26,9.199,8.498,10.163,18.624l1.783,1.029l0.086-30.479l-1.783-1.029c-1.018,8.982-4.587,10.108-10.235,6.847
					l-11.572-6.681l0.094-33.311l5.247,3.029c19.191,11.08,25.911,18.485,30.804,40.562l1.981,1.144l-2.3-28.553
					c-7.717-4.111-16.525-9.196-23.356-13.14l-35.719-20.622l-0.006,2.048c9.596,6.908,9.79,8.505,9.757,20.213l-0.14,49.233
					c-0.033,11.719-0.235,13.076-9.839,8.9l-0.006,2.048l36.709,21.194C3212.683,2655.12,3220.8,2659.806,3228.714,2664.481
					 M3525.352,2835.639l0.137-48.333l-1.271-0.734c0.053-0.786,0.083-1.585,0.085-2.416c0.052-18.193-12.745-40.352-28.578-49.493
					c-15.837-9.144-28.713-1.806-28.764,16.387c-0.002,0.826,0.023,1.662,0.076,2.509l-1.276-0.737l-0.137,48.333l2.391,1.38
					l0.117-41.351c2.706,12.129,9.901,24.628,19.05,33.118l-0.054,19.267l2.391,1.38l0.053-18.558
					c1.924,1.577,3.918,2.978,5.968,4.161c2.05,1.183,4.05,2.084,5.977,2.724l-0.053,18.569l2.386,1.378l0.103-36.396l2.506,1.447
					l-0.046,16.097c7.966,0.845,14.156-3.332,16.671-11.466l-0.117,41.356L3525.352,2835.639 M3077.838,2496.742l0.006-2.049
					l-33.158-19.144l-0.006,2.049c9.601,6.911,9.795,8.507,9.761,20.216l-0.139,49.233c-0.033,11.719-0.236,13.076-9.844,8.897
					l-0.006,2.048l33.158,19.144l0.006-2.049c-9.601-6.911-9.795-8.497-9.761-20.216l0.14-49.233
					C3068.028,2493.93,3068.23,2492.562,3077.838,2496.742 M3206.55,2546.569l-8.255,9.92l2.078,1.199l21.715-2.149
					L3206.55,2546.569"/>
			</g>
			<g>
				<path fill="#181716" d="M3467.037,2753.56c0.148,2.498,0.521,5.052,1.095,7.625l-0.117,41.351l-2.388-1.379l0.137-48.333
					L3467.037,2753.56z"/>
			</g>
			<g>
				<path fill="#181716" d="M2947.036,2338.227l616.845,356.136l-2.763,974.657l-616.845-356.136L2947.036,2338.227z
					 M3560.406,3667.787l2.759-973.021l-615.417-355.311l-2.759,973.021L3560.406,3667.787"/>
			</g>
			<g>
				<path fill="#181716" d="M3335.722,2643.583l-0.006,2.047c-9.6-4.176-9.802-2.808-9.835,8.901l-0.14,49.235
					c-0.033,11.716,0.161,13.305,9.753,20.21l-0.006,2.047l-33.149-19.139l0.006-2.047c9.606,4.179,9.809,2.819,9.842-8.897
					l0.156-54.921l-25.132,53.941l-2.969-1.714l-26.323-85.361l-0.161,56.63c-0.033,11.716,0.161,13.305,9.753,20.21l-0.006,2.047
					l-24.242-13.996l0.006-2.047c9.6,4.176,9.808,2.819,9.842-8.897l0.14-49.235c0.033-11.709-0.167-13.309-9.759-20.214
					l0.006-2.047l26.024,15.025l20.726,68.005l20.641-44.123L3335.722,2643.583z"/>
			</g>
			<g>
				<path fill="#181716" d="M3407.469,2754.03c3.141,11.035,3.928,12.857,10.062,17.309l-0.006,2.047l-30.078-17.365l0.006-2.047
					c8.111,3.772,7.92,1.273,6.059-5.497l-5.299-19.123l-26.918-15.541l-0.599,1.477c-7.281,16.865-4.615,19.66,3.995,25.542
					l-0.006,2.047l-22.761-13.141l0.006-2.047c6.432,2.802,7.229,1.55,12.818-11.963l20.559-49.292
					c2.574,1.031,5.351,0.584,6.846-1.059l0.396,0.229L3407.469,2754.03z M3363.29,2709.388l23.157,13.37l-11.28-41.028
					L3363.29,2709.388"/>
			</g>
			<g>
				<path fill="#181716" d="M3487.185,2794.308c0.781,0.725,1.577,1.421,2.386,2.086l-0.052,18.558l-2.388-1.379L3487.185,2794.308z
					"/>
			</g>
			<g>
				<path fill="#181716" d="M3489.65,2768.38l-0.08,28.014c-0.809-0.664-1.604-1.36-2.386-2.086l0.077-27.307L3489.65,2768.38z"/>
			</g>
			<g>
				<path fill="#181716" d="M3503.984,2776.655l-0.029,10.176l-0.049,17.123c-0.783-0.178-1.58-0.401-2.39-0.671l0.079-28.007
					L3503.984,2776.655z"/>
			</g>
			<g>
				<path fill="#181716" d="M3495.725,2734.667c15.834,9.142,28.632,31.301,28.58,49.495c-0.002,0.827-0.031,1.631-0.086,2.412
					l-1.115-0.644l-0.02,6.978c-2.513,8.133-8.703,12.313-16.673,11.463l0.046-16.096l-2.503-1.445l0.029-10.176l-2.388-1.379
					l-0.079,28.007c-1.928-0.641-3.928-1.544-5.978-2.728c-2.047-1.182-4.043-2.583-5.968-4.162l0.08-28.014l-2.388-1.379
					l-0.077,27.307c-9.151-8.492-16.343-20.99-19.053-33.123l0.02-6.981l-1.115-0.644c-0.05-0.841-0.074-1.677-0.072-2.503
					C3467.016,2732.862,3479.891,2725.525,3495.725,2734.667z"/>
			</g>
		</g>
	</g>
</g>
<g>
	<g>
		<g>
			<path fill="#181716" d="M3615.47,4578.533c7.211-4.164,16.65-7.335,21.608-6.78l0.318,23.163l-2.003,1.157
				c-3.026-14.538-10.05-19.021-19.969-13.294c-8.109,4.682-13.762,12.274-13.654,20.177c0.107,7.801,4.867,8.698,10.211,8.456
				l10.694-0.479c11.195-0.541,19.596,0.877,19.765,13.191c0.203,14.807-12.169,32.54-27.192,41.213
				c-9.815,5.667-18.368,7.981-24.225,7.835l-0.378-27.573l2.003-1.156c3.093,19.4,10.621,23.6,22.543,16.716
				c8.814-5.088,16.055-14.171,15.916-24.341c-0.105-7.685-5.568-8.514-13.64-8.182l-8.976,0.398
				c-10.694,0.479-17.51-3.103-17.661-14.068C3590.652,4601.974,3601.448,4586.628,3615.47,4578.533z"/>
		</g>
		<g>
			<path fill="#181716" d="M3685.554,4587.958l-8.316,4.801l0.254,18.533c0.16,11.636,0.38,12.993,11.119,8.152l0.028,2.042
				l-34.557,19.952l-0.028-2.042c9.7-6.959,9.88-8.548,9.72-20.184l-0.672-48.935c-0.16-11.636-0.38-12.993-10.117-8.738
				l-0.028-2.034l12.82-7.402c4.911-2.835,16.023-9.361,19.132-11.156c18.526-10.696,32.926-13.087,33.167,4.542
				C3718.318,4563.119,3704.08,4577.262,3685.554,4587.958z M3676.648,4549.817l0.534,38.874l7.211-4.164
				c11.515-6.648,18.656-15.9,18.459-30.248c-0.197-14.355-7.478-15.274-18.993-8.626L3676.648,4549.817"/>
		</g>
		<g>
			<path fill="#181716" d="M3767.699,4490.988c19.631-11.333,38.361-7.12,38.744,20.796c0.383,27.909-17.938,53.521-37.569,64.855
				c-19.631,11.333-38.361,7.113-38.744-20.796C3729.748,4527.927,3748.069,4502.322,3767.699,4490.988z M3768.817,4572.455
				c13.822-7.98,22.633-27.984,22.305-51.825c-0.327-23.848-9.545-33.443-23.366-25.464c-13.822,7.98-22.633,27.984-22.305,51.833
				C3745.779,4570.838,3754.996,4580.435,3768.817,4572.455"/>
		</g>
		<g>
			<path fill="#181716" d="M3891.62,4421.713l0.028,2.034c-9.693,6.963-9.874,8.552-9.714,20.188l0.434,31.642
				c0.337,24.526-9.635,41.1-27.56,51.449c-19.934,11.509-29.509,5.309-29.796-15.602l-0.47-34.237
				c-0.16-11.643-0.375-13.113-10.112-8.858l-0.028-2.034l33.549-19.37l0.028,2.034c-9.693,6.963-9.875,8.435-9.712,20.304
				l0.448,32.655c0.244,17.745,5.685,24.62,19.306,16.755c14.726-8.502,19.574-23.029,19.639-40.152l-0.437-31.868
				c-0.16-11.636-0.381-12.993-10.111-8.742l-0.028-2.034L3891.62,4421.713z"/>
		</g>
		<g>
			<path fill="#181716" d="M3967.528,4377.55l3.419,28.434l-2.1,1.212c-5.159-15.245-11.175-19.856-25.197-11.76l-2.5,1.444
				l0.847,61.701c0.155,11.301,0.581,12.877,11.209,8.101l0.028,2.042l-35.753,20.642l-0.028-2.042
				c10.598-7.478,10.974-9.518,10.819-20.818l-0.847-61.701l-2.501,1.443c-14.022,8.096-19.824,19.529-24.584,40.501l-2.003,1.156
				l2.591-31.904c7.72-4.119,17.031-9.495,23.945-13.486l18.629-10.756C3950.409,4387.771,3959.72,4382.396,3967.528,4377.55z"/>
		</g>
		<g>
			<path fill="#181716" d="M4055.27,4327.23l0.028,2.034c-9.7,6.967-9.88,8.555-9.72,20.191l0.898,65.427l-8.413,4.857
				l-43.521-37.629l0.628,45.771c0.16,11.636,0.38,12.986,10.117,8.731l0.028,2.034l-24.535,14.166l-0.028-2.034
				c9.693-6.963,9.873-8.544,9.714-20.18l-0.723-52.661l-1.733-1.505c-3.58-3.173-5.516-4.223-8.331-3.847l-0.023-1.699
				l18.623-10.752l43.213,37.014l-0.617-44.977c-0.16-11.636-0.38-12.993-10.117-8.738l-0.028-2.035L4055.27,4327.23z"/>
		</g>
		<g>
			<path fill="#181716" d="M4096.728,4303.294l0.028,2.034c-9.693,6.963-9.873,8.552-9.714,20.188l0.672,48.935
				c0.16,11.636,0.38,12.993,10.111,8.735l0.028,2.034l-33.549,19.37l-0.028-2.034c9.693-6.956,9.873-8.544,9.713-20.18
				l-0.672-48.935c-0.16-11.636-0.38-12.993-10.111-8.742l-0.028-2.034L4096.728,4303.294z"/>
		</g>
		<g>
			<path fill="#181716" d="M4131.279,4349.298c0.16,11.636,0.38,12.993,10.11,8.735l0.028,2.035l-33.549,19.37l-0.028-2.035
				c9.693-6.956,9.874-8.544,9.714-20.18l-0.672-48.935c-0.16-11.636-0.38-12.993-10.111-8.742l-0.028-2.034l33.549-19.37
				l0.028,2.034c-9.693,6.963-9.873,8.551-9.713,20.188L4131.279,4349.298z"/>
		</g>
		<g>
			<path fill="#181716" d="M4169.871,4329.633c6.118,4.441,8.165,6.448,14.185,3.766l0.028,2.035l-32.25,18.62l-0.028-2.034
				c6.704-4.554,6.76-7.658,3.194-10.272l-23.965-17.366l22.017-36.292c9.771-16.003,11.519-21.112,0.891-15.777l-0.028-2.035
				l24.742-14.285l0.028,2.035c-6.597,4.837-8.871,8.538-19.928,26.658l-15.795,25.977L4169.871,4329.633z"/>
		</g>
	</g>
</g>
<g>
	<g>
		<g>
			<path fill="#181716" d="M3011.592,4286.289c8.144,4.514,16.517,11.171,21.519,16.41l3.054,26.913l-1.883-1.043
				c-3.908-17.971-11.506-31.932-23.822-38.759c-12.213-6.77-22.156,0.379-21.776,26.37c0.332,22.711,8.99,42.303,23.989,50.617
				c12.909,7.156,20.316,1.511,23.646-6.502l2.697,2.5c-3.099,10.281-12.464,16.746-28.358,7.936
				c-21.549-11.945-36.805-37.886-37.172-62.974C2973.092,4280.752,2990.636,4274.672,3011.592,4286.289z"/>
		</g>
		<g>
			<path fill="#181716" d="M3080.851,4326.92l0.03,2.032c-9.614-3.982-9.792-2.626-9.622,9.016l0.715,48.922
				c0.17,11.642,0.392,13.22,10.044,19.917l0.03,2.032l-33.272-18.443l-0.03-2.032c9.614,3.983,9.792,2.626,9.622-9.015
				l-0.715-48.922c-0.17-11.642-0.392-13.22-10.045-19.917l-0.03-2.032L3080.851,4326.92z"/>
		</g>
		<g>
			<path fill="#181716" d="M3165.075,4373.607l0.03,2.032c-9.614-3.982-9.792-2.626-9.622,9.016l0.957,65.419l-8.344-4.625
				l-43.216-85.708l0.669,45.76c0.17,11.642,0.385,13.216,10.038,19.913l0.03,2.032l-24.328-13.486l-0.03-2.032
				c9.614,3.983,9.792,2.626,9.622-9.015l-0.77-52.656l-1.726-3.423c-3.552-7.121-5.472-10.317-8.27-13.098l-0.025-1.694
				l18.474,10.24l42.907,84.751l-0.657-44.968c-0.17-11.642-0.385-13.216-10.045-19.917l-0.03-2.032L3165.075,4373.607z"/>
		</g>
		<g>
			<polygon fill="#181716" points="3225.239,4384.873 3203.703,4387.393 3201.614,4386.235 3209.647,4376.23 			"/>
		</g>
		<g>
			<path fill="#181716" d="M3235.409,4467.172l1.883,1.044l-3.577,24.808c-7.946-4.521-16.089-9.035-23.144-12.945l-36.85-20.426
				l-0.03-2.032c9.62,3.986,9.798,2.629,9.628-9.012l-0.715-48.921c-0.17-11.642-0.391-13.22-10.051-19.92l-0.03-2.032
				l35.858,19.876c6.854,3.799,15.694,8.7,23.433,12.655l2.781,28.326l-1.986-1.101c-5.244-21.847-12.053-29.099-31.32-39.779
				l-5.262-2.917l0.484,33.113l11.619,6.441c5.661,3.138,9.187,1.949,10.048-6.989l1.786,0.99l0.443,30.282l-1.786-0.99
				c-1.138-10.039-4.757-15.188-10.418-18.326l-11.619-6.44l0.453,30.964c0.058,3.954,0.761,5.239,5.133,7.662l3.778,2.095
				C3224.022,4483.614,3230.312,4482.509,3235.409,4467.172z"/>
		</g>
		<g>
			<path fill="#181716" d="M3339.688,4470.396l0.03,2.032c-9.62-3.986-9.798-2.63-9.628,9.012l0.715,48.922
				c0.17,11.642,0.391,13.22,10.051,19.92l0.03,2.031l-33.278-18.446l-0.03-2.032c9.614,3.983,9.792,2.626,9.622-9.015
				l-0.798-54.571l-24.032,54.035l-2.985-1.655l-27.635-84.362l0.823,56.272c0.17,11.642,0.391,13.22,10.045,19.917l0.03,2.032
				l-24.335-13.489l-0.03-2.032c9.613,3.982,9.792,2.626,9.622-9.016l-0.715-48.921c-0.17-11.642-0.392-13.22-10.045-19.917
				l-0.03-2.032l26.121,14.479l21.775,67.209l19.744-44.195L3339.688,4470.396z"/>
		</g>
		<g>
			<path fill="#181716" d="M3412.894,4578.892c3.313,10.917,4.126,12.713,10.297,17.029l0.03,2.032l-30.196-16.738l-0.03-2.032
				c8.131,3.612,7.903,1.128,5.931-5.568l-5.598-18.906l-27.017-14.976l-0.567,1.483c-6.948,16.878-4.248,19.612,4.406,25.304
				l0.03,2.032l-22.839-12.66l-0.03-2.032c6.441,2.675,7.209,1.42,12.531-12.111l19.573-49.333c2.573,0.975,5.329,0.487,6.782-1.174
				l0.393,0.218L3412.894,4578.892z M3368.215,4535.302l23.245,12.885l-11.927-40.577L3368.215,4535.302"/>
		</g>
		<g>
			<path fill="#181716" d="M3530.741,4609.915l0.702,48.027l-2.399-1.33l-0.601-41.091c0.551-1.898,0.898-4.009,1.019-6.315
				L3530.741,4609.915z"/>
		</g>
		<g>
			<path fill="#181716" d="M3473.193,4578.016l0.102,6.94c-0.616-2.547-1.031-5.082-1.222-7.562L3473.193,4578.016z"/>
		</g>
		<g>
			<path fill="#181716" d="M3472.073,4577.395c0.19,2.48,0.605,5.015,1.222,7.562l0.601,41.086l-2.399-1.33l-0.702-48.026
				L3472.073,4577.395z"/>
		</g>
		<g>
			<path fill="#181716" d="M3492.798,4617.53c0.79,0.708,1.593,1.386,2.409,2.033l0.27,18.442l-2.399-1.33L3492.798,4617.53z"/>
		</g>
		<g>
			<path fill="#181716" d="M3529.463,4609.207c-0.12,2.306-0.468,4.417-1.019,6.315l-0.101-6.936L3529.463,4609.207z"/>
		</g>
		<g>
			<path fill="#181716" d="M3494.8,4591.731l0.407,27.831c-0.816-0.646-1.619-1.325-2.409-2.033l-0.396-27.128L3494.8,4591.731z"/>
		</g>
		<g>
			<path fill="#181716" d="M3509.186,4599.706l0.148,10.109l0.249,17.019c-0.782-0.165-1.579-0.374-2.388-0.627l-0.407-27.83
				L3509.186,4599.706z"/>
		</g>
		<g>
			<path fill="#181716" d="M3509.333,4609.814l0.529,36.165l-2.399-1.33l-0.27-18.444c0.809,0.254,1.606,0.463,2.388,0.627
				L3509.333,4609.814z"/>
		</g>
		<g>
			<path fill="#181716" d="M3500.257,4558.128c15.888,8.807,28.985,30.604,29.25,48.68c0.012,0.822-0.003,1.621-0.043,2.399
				l-1.12-0.621l0.101,6.936c-2.356,8.122-8.435,12.382-16.369,11.682l-0.234-15.999l-2.508-1.39l-0.148-10.109l-2.399-1.33
				l0.407,27.83c-1.925-0.605-3.924-1.467-5.98-2.607c-2.057-1.14-4.066-2.498-6.007-4.036l-0.407-27.831l-2.399-1.33l0.396,27.128
				c-9.237-8.279-16.6-20.569-19.503-32.574l-0.102-6.94l-1.12-0.621c-0.064-0.836-0.103-1.665-0.115-2.487
				C3471.694,4556.833,3484.363,4549.317,3500.257,4558.128z"/>
		</g>
	</g>
</g>
<g>
	<rect x="3496.925" y="1907.123" width="12.515" height="99.37"/>
	<rect x="3365.727" y="1907.123" width="12.515" height="99.37"/>
	<rect x="2785.135" y="2565.549" width="12.515" height="99.37"/>
	<rect x="3614.137" y="1907.123" width="12.515" height="99.37"/>
	<rect x="3745.335" y="1907.123" width="12.515" height="99.37"/>
</g>
<g>
	<path fill="none" stroke="#000000" stroke-width="14" stroke-miterlimit="10" d="M2951.032,4621.532c0,0-62.87,20.184,8.108,40.368
		"/>
	<path fill="none" stroke="#000000" stroke-width="14" stroke-miterlimit="10" d="M2951.032,4643.745
		c0,0-62.428,21.629,13.774,43.259"/>
	<path fill="none" stroke="#000000" stroke-width="14" stroke-miterlimit="10" d="M2954.25,4670.297c0,0-66.088,24.21,17.845,42.543
		"/>
	<rect x="2940.868" y="4602.623" fill="#FFFFFF" width="28.5" height="91.831"/>
	<path fill="none" stroke="#000000" stroke-width="14" stroke-miterlimit="10" d="M2933.598,4629.824
		c-11.394,7.746-17.237,19.911,25.542,32.076"/>
	<path fill="none" stroke="#000000" stroke-width="14" stroke-miterlimit="10" d="M2926.961,4663.812
		c0.189,6.97,9.27,15.082,37.845,23.192"/>
</g>
<g>
	<path fill="none" stroke="#000000" stroke-width="14" stroke-miterlimit="10" d="M4207.964,4621.532c0,0,62.87,20.184-8.108,40.368
		"/>
	<path fill="none" stroke="#000000" stroke-width="14" stroke-miterlimit="10" d="M4207.964,4643.745
		c0,0,62.429,21.629-13.774,43.259"/>
	<path fill="none" stroke="#000000" stroke-width="14" stroke-miterlimit="10" d="M4204.747,4670.297
		c0,0,66.087,24.21-17.846,42.543"/>
	<rect x="4189.629" y="4602.623" fill="#FFFFFF" width="28.5" height="91.831"/>
	<path fill="none" stroke="#000000" stroke-width="14" stroke-miterlimit="10" d="M4225.398,4629.824
		c11.395,7.746,17.237,19.911-25.542,32.076"/>
	<path fill="none" stroke="#000000" stroke-width="14" stroke-miterlimit="10" d="M4232.036,4663.812
		c-0.189,6.97-9.27,15.082-37.846,23.192"/>
</g>
<polygon fill="#F7F7F7" stroke="#181716" stroke-width="5" stroke-miterlimit="10" points="1394.615,1138.759 733.369,1520.17 
	733.369,505.437 1394.615,124.027 "/>
<polygon fill="#CCCCCC" stroke="#181716" stroke-width="5" stroke-miterlimit="10" points="116.445,1164.286 733.369,1520.17 
	733.369,505.437 116.445,149.553 "/>
<path d="M541.782,394.916l191.587,110.521l69.338-39.994v-0.226h0.392l130.806-75.449v-11.462h-6.724
	c0.28-4.226,0.49-8.452,0.49-12.725c0-104.814-84.967-189.757-189.757-189.757S548.156,260.767,548.156,365.58
	c0,4.273,0.187,8.522,0.467,12.725h-6.841V394.916z"/>
<g>
	<g>
		<g>
			<path fill="#181716" d="M791.524,579.025c7.211-4.163,16.651-7.335,21.608-6.78l0.318,23.163l-2.003,1.157
				c-3.026-14.537-10.05-19.021-19.969-13.294c-8.109,4.682-13.763,12.274-13.654,20.177c0.107,7.801,4.867,8.698,10.211,8.456
				l10.694-0.479c11.195-0.541,19.596,0.877,19.765,13.191c0.203,14.807-12.169,32.54-27.192,41.214
				c-9.815,5.667-18.368,7.981-24.225,7.835l-0.378-27.573l2.003-1.156c3.093,19.4,10.621,23.6,22.543,16.716
				c8.814-5.089,16.055-14.171,15.916-24.341c-0.105-7.685-5.568-8.514-13.64-8.182l-8.976,0.398
				c-10.694,0.48-17.51-3.103-17.661-14.068C766.706,602.466,777.502,587.12,791.524,579.025z"/>
		</g>
		<g>
			<path fill="#181716" d="M861.609,588.45l-8.316,4.801l0.254,18.533c0.16,11.636,0.38,12.993,11.119,8.153l0.028,2.041
				l-34.557,19.952l-0.028-2.041c9.7-6.96,9.88-8.548,9.72-20.184l-0.672-48.935c-0.16-11.636-0.38-12.993-10.117-8.738
				l-0.028-2.034l12.82-7.402c4.911-2.835,16.023-9.361,19.132-11.156c18.526-10.696,32.926-13.087,33.168,4.542
				C894.373,563.611,880.134,577.754,861.609,588.45z M852.703,550.31l0.534,38.874l7.211-4.163
				c11.515-6.648,18.656-15.9,18.459-30.248c-0.197-14.356-7.478-15.274-18.993-8.626L852.703,550.31"/>
		</g>
		<g>
			<path fill="#181716" d="M943.754,491.481c19.631-11.334,38.361-7.12,38.744,20.796c0.383,27.909-17.938,53.522-37.569,64.855
				c-19.631,11.334-38.361,7.113-38.744-20.796C905.802,528.419,924.123,502.814,943.754,491.481z M944.872,572.947
				c13.822-7.98,22.633-27.984,22.305-51.825c-0.327-23.848-9.544-33.444-23.366-25.464s-22.632,27.984-22.305,51.832
				C921.833,571.331,931.05,580.927,944.872,572.947"/>
		</g>
		<g>
			<path fill="#181716" d="M1067.675,422.205l0.028,2.034c-9.693,6.963-9.874,8.551-9.714,20.188l0.434,31.642
				c0.337,24.526-9.635,41.1-27.56,51.449c-19.934,11.509-29.509,5.309-29.796-15.601l-0.47-34.237
				c-0.16-11.643-0.375-13.114-10.112-8.859l-0.028-2.034l33.549-19.37l0.028,2.034c-9.693,6.963-9.875,8.435-9.712,20.304
				l0.448,32.655c0.244,17.745,5.685,24.62,19.306,16.755c14.726-8.502,19.574-23.029,19.639-40.152l-0.438-31.868
				c-0.16-11.636-0.38-12.993-10.111-8.742l-0.028-2.034L1067.675,422.205z"/>
		</g>
		<g>
			<path fill="#181716" d="M1143.582,378.042l3.419,28.434l-2.1,1.212c-5.159-15.245-11.175-19.856-25.197-11.76l-2.501,1.444
				l0.847,61.701c0.155,11.301,0.581,12.877,11.209,8.101l0.028,2.041l-35.753,20.642l-0.028-2.041
				c10.598-7.478,10.974-9.518,10.819-20.818l-0.847-61.701l-2.501,1.444c-14.022,8.095-19.824,19.529-24.584,40.501l-2.003,1.157
				l2.591-31.904c7.72-4.119,17.031-9.495,23.945-13.487l18.629-10.756C1126.464,388.263,1135.775,382.888,1143.582,378.042z"/>
		</g>
		<g>
			<path fill="#181716" d="M1231.324,327.722l0.028,2.034c-9.7,6.967-9.88,8.555-9.72,20.191l0.898,65.427l-8.413,4.857
				l-43.521-37.629l0.628,45.771c0.16,11.636,0.38,12.986,10.117,8.731l0.028,2.034l-24.535,14.165l-0.028-2.034
				c9.693-6.963,9.873-8.544,9.714-20.18l-0.723-52.661l-1.733-1.505c-3.58-3.172-5.516-4.223-8.331-3.847l-0.023-1.699
				l18.623-10.752l43.213,37.013l-0.617-44.976c-0.16-11.636-0.38-12.993-10.117-8.738l-0.028-2.034L1231.324,327.722z"/>
		</g>
		<g>
			<path fill="#181716" d="M1272.783,303.786l0.028,2.034c-9.694,6.963-9.874,8.551-9.714,20.188l0.672,48.935
				c0.16,11.636,0.38,12.993,10.111,8.735l0.028,2.034l-33.549,19.37l-0.028-2.034c9.693-6.956,9.873-8.544,9.714-20.18
				l-0.672-48.935c-0.16-11.636-0.38-12.993-10.11-8.742l-0.028-2.034L1272.783,303.786z"/>
		</g>
		<g>
			<path fill="#181716" d="M1307.333,349.791c0.16,11.636,0.38,12.993,10.11,8.735l0.028,2.034l-33.549,19.37l-0.028-2.034
				c9.694-6.956,9.874-8.544,9.714-20.181l-0.672-48.935c-0.16-11.636-0.38-12.993-10.111-8.742l-0.028-2.034l33.549-19.37
				l0.028,2.034c-9.693,6.963-9.873,8.551-9.713,20.187L1307.333,349.791z"/>
		</g>
		<g>
			<path fill="#181716" d="M1345.926,330.125c6.118,4.441,8.165,6.448,14.185,3.766l0.028,2.034l-32.25,18.62l-0.028-2.034
				c6.704-4.554,6.759-7.658,3.193-10.272l-23.965-17.366l22.017-36.293c9.771-16.003,11.518-21.112,0.891-15.777l-0.028-2.034
				l24.742-14.285l0.028,2.034c-6.596,4.837-8.871,8.539-19.928,26.658l-15.795,25.977L1345.926,330.125z"/>
		</g>
	</g>
</g>
<g>
	<g>
		<g>
			<path fill="#181716" d="M187.647,286.781c8.144,4.514,16.517,11.171,21.519,16.41l3.054,26.913l-1.883-1.044
				c-3.908-17.971-11.506-31.932-23.822-38.759c-12.213-6.77-22.156,0.379-21.776,26.37c0.332,22.711,8.991,42.304,23.988,50.617
				c12.909,7.156,20.316,1.511,23.646-6.503l2.697,2.499c-3.099,10.281-12.464,16.746-28.358,7.936
				c-21.549-11.945-36.805-37.886-37.172-62.974C149.146,281.244,166.691,275.165,187.647,286.781z"/>
		</g>
		<g>
			<path fill="#181716" d="M256.906,327.413l0.03,2.032c-9.613-3.983-9.792-2.626-9.622,9.015l0.715,48.922
				c0.17,11.642,0.392,13.22,10.045,19.917l0.03,2.032l-33.272-18.443l-0.03-2.032c9.614,3.983,9.792,2.626,9.622-9.015
				l-0.715-48.922c-0.17-11.642-0.392-13.22-10.045-19.917l-0.03-2.032L256.906,327.413z"/>
		</g>
		<g>
			<path fill="#181716" d="M341.13,374.099l0.03,2.032c-9.614-3.983-9.792-2.627-9.622,9.015l0.956,65.42l-8.344-4.625
				l-43.215-85.708l0.669,45.76c0.17,11.642,0.385,13.216,10.038,19.913l0.03,2.032l-24.328-13.485l-0.03-2.032
				c9.614,3.983,9.792,2.626,9.622-9.015l-0.77-52.656l-1.726-3.423c-3.551-7.12-5.472-10.317-8.269-13.097l-0.025-1.695
				l18.474,10.24l42.907,84.752l-0.657-44.968c-0.17-11.642-0.385-13.216-10.045-19.917l-0.03-2.032L341.13,374.099z"/>
		</g>
		<g>
			<polygon fill="#181716" points="401.293,385.365 379.757,387.885 377.668,386.727 385.702,376.722 			"/>
		</g>
		<g>
			<path fill="#181716" d="M411.463,467.665l1.883,1.044l-3.577,24.808c-7.946-4.521-16.089-9.035-23.143-12.945l-36.85-20.427
				l-0.03-2.032c9.62,3.986,9.798,2.63,9.628-9.012l-0.715-48.922c-0.17-11.642-0.392-13.22-10.051-19.92l-0.03-2.032l35.857,19.876
				c6.854,3.799,15.694,8.699,23.434,12.655l2.781,28.326l-1.986-1.101c-5.244-21.847-12.053-29.099-31.32-39.779l-5.262-2.917
				l0.484,33.113l11.619,6.441c5.661,3.138,9.187,1.949,10.048-6.989l1.786,0.99l0.443,30.282l-1.786-0.99
				c-1.138-10.039-4.757-15.188-10.418-18.326l-11.619-6.441l0.453,30.964c0.058,3.954,0.761,5.239,5.133,7.662l3.778,2.094
				C400.076,484.106,406.366,483.001,411.463,467.665z"/>
		</g>
		<g>
			<path fill="#181716" d="M515.742,470.888l0.03,2.032c-9.62-3.986-9.798-2.63-9.628,9.012l0.715,48.922
				c0.17,11.642,0.391,13.22,10.051,19.92l0.03,2.032l-33.278-18.446l-0.03-2.032c9.614,3.983,9.792,2.626,9.622-9.015l-0.798-54.57
				l-24.032,54.035l-2.985-1.655l-27.635-84.363l0.823,56.272c0.17,11.642,0.391,13.22,10.045,19.917l0.03,2.032l-24.335-13.489
				l-0.03-2.032c9.613,3.983,9.792,2.626,9.622-9.015l-0.715-48.922c-0.17-11.642-0.392-13.22-10.045-19.917l-0.03-2.032
				l26.121,14.479l21.775,67.21l19.744-44.195L515.742,470.888z"/>
		</g>
		<g>
			<path fill="#181716" d="M588.948,579.384c3.313,10.917,4.126,12.714,10.297,17.029l0.03,2.032l-30.196-16.738l-0.03-2.032
				c8.131,3.612,7.903,1.128,5.931-5.568l-5.598-18.907l-27.017-14.976l-0.567,1.483c-6.948,16.878-4.248,19.613,4.406,25.304
				l0.03,2.032l-22.839-12.66l-0.03-2.032c6.441,2.676,7.21,1.421,12.531-12.11l19.572-49.333c2.573,0.975,5.328,0.487,6.782-1.174
				l0.393,0.218L588.948,579.384z M544.27,535.794l23.245,12.885l-11.927-40.577L544.27,535.794"/>
		</g>
		<g>
			<path fill="#181716" d="M706.796,610.407l0.702,48.027l-2.399-1.33l-0.601-41.091c0.551-1.898,0.898-4.009,1.019-6.315
				L706.796,610.407z"/>
		</g>
		<g>
			<path fill="#181716" d="M649.247,578.508l0.101,6.94c-0.616-2.547-1.031-5.081-1.222-7.561L649.247,578.508z"/>
		</g>
		<g>
			<path fill="#181716" d="M648.127,577.887c0.19,2.48,0.605,5.015,1.222,7.561l0.601,41.086l-2.399-1.33l-0.702-48.027
				L648.127,577.887z"/>
		</g>
		<g>
			<path fill="#181716" d="M668.852,618.022c0.79,0.708,1.593,1.386,2.409,2.032l0.27,18.443l-2.399-1.33L668.852,618.022z"/>
		</g>
		<g>
			<path fill="#181716" d="M705.517,609.699c-0.12,2.306-0.468,4.417-1.019,6.315l-0.101-6.936L705.517,609.699z"/>
		</g>
		<g>
			<path fill="#181716" d="M670.854,592.224l0.407,27.831c-0.816-0.646-1.619-1.324-2.409-2.032l-0.397-27.128L670.854,592.224z"/>
		</g>
		<g>
			<path fill="#181716" d="M685.24,600.198l0.148,10.109l0.249,17.019c-0.782-0.164-1.579-0.373-2.388-0.628l-0.407-27.83
				L685.24,600.198z"/>
		</g>
		<g>
			<path fill="#181716" d="M685.388,610.307l0.529,36.165l-2.399-1.33l-0.27-18.444c0.809,0.254,1.606,0.463,2.388,0.628
				L685.388,610.307z"/>
		</g>
		<g>
			<path fill="#181716" d="M676.311,558.62c15.888,8.807,28.985,30.605,29.25,48.68c0.012,0.822-0.003,1.621-0.044,2.399
				l-1.12-0.621l0.101,6.936c-2.357,8.122-8.435,12.383-16.369,11.683l-0.234-15.999l-2.508-1.39l-0.148-10.109l-2.399-1.33
				l0.407,27.83c-1.925-0.605-3.924-1.467-5.98-2.607c-2.057-1.14-4.066-2.498-6.007-4.036l-0.407-27.831l-2.399-1.33l0.397,27.128
				c-9.237-8.279-16.6-20.569-19.504-32.574l-0.101-6.94l-1.12-0.621c-0.064-0.836-0.103-1.664-0.115-2.487
				C647.748,557.325,660.417,549.81,676.311,558.62z"/>
		</g>
	</g>
</g>
<g>
	<g>
		<path d="M133.28,669.125c-25.085-7.133-37.019-14.948-38.696-25.34c-0.775-4.806,0.526-12.048,11.133-19.258l7.87,11.578
			c-4.535,3.083-5.241,5.083-5.182,5.45c0.01,0.062,1.321,6.317,28.704,14.104L133.28,669.125z"/>
	</g>
	<g>
		<path d="M138.95,694.23c-28.964-8.221-42.606-17.67-42.932-29.737l13.995-0.379c0.002,0.074,0.572,7.512,32.759,16.648
			L138.95,694.23z"/>
	</g>
</g>
<g>
	<g>
		<path d="M1377.826,669.125l-3.83-13.466c27.382-7.787,28.693-14.042,28.703-14.104c0.06-0.367-0.646-2.367-5.182-5.45
			l7.871-11.578c10.605,7.209,11.907,14.452,11.132,19.258C1414.843,654.177,1402.91,661.992,1377.826,669.125z"/>
	</g>
	<g>
		<path d="M1372.156,694.23l-3.822-13.468c32.186-9.136,32.758-16.575,32.76-16.649l13.994,0.381
			C1414.759,676.561,1401.118,686.009,1372.156,694.23z"/>
	</g>
</g>
<path d="M1394.615,669.376v16.809c2.502,2.009,3.983,3.808,3.906,4.932c-0.005,0.074-1.505,7.611-37.06,15.376l2.988,13.678
	c32.381-7.073,47.196-15.74,48.039-28.103C1413.182,681.891,1403.422,674.199,1394.615,669.376z"/>
<path d="M1399.729,643.885c-1.747-1.028-3.488-1.941-5.114-2.735v16.05c3.916,2.599,6.528,5.213,6.477,6.916
	c-0.002,0.074-0.591,7.514-32.759,16.645l3.822,13.468c28.946-8.216,42.588-17.658,42.931-29.715
	C1415.302,656.951,1410.135,650.01,1399.729,643.885z"/>
<path d="M1394.615,618.573v15.736c4.87,2.806,8.115,5.643,8.089,7.19c-0.001,0.06-1.331,6.375-28.709,14.161l3.83,13.466
	c10.557-3.002,38.602-10.977,38.877-27.392C1416.891,630.499,1404.221,622.793,1394.615,618.573z"/>
<path d="M112.584,691.118c-0.077-1.117,1.386-2.901,3.86-4.896v-16.82c-8.795,4.825-18.521,12.507-17.828,22.667
	c0.843,12.363,15.659,21.03,48.04,28.103l2.987-13.678C114.089,698.728,112.589,691.191,112.584,691.118z"/>
<path d="M110.013,664.117c-0.05-1.697,2.542-4.297,6.432-6.886v-16.059c-1.613,0.789-3.338,1.694-5.068,2.713
	c-10.406,6.125-15.573,13.066-15.357,20.629c0.343,12.057,13.985,21.5,42.931,29.715l3.823-13.468
	C110.604,671.631,110.015,664.191,110.013,664.117z"/>
<path d="M108.401,641.499c-0.01-0.559,1.369-3.349,8.044-7.159v-15.747c-9.6,4.225-22.231,11.924-22.042,23.141
	c0.099,5.867,3.635,11.165,10.513,15.747c6.304,4.201,15.582,8.01,28.365,11.645l3.829-13.466
	C109.736,647.875,108.402,641.559,108.401,641.499z"/>
<rect x="-6974.453" y="-1091.901" fill="#EEEEEE" width="3058.235" height="3933.085"/>
<polygon fill="#F7F7F7" stroke="#181716" stroke-width="5" stroke-miterlimit="10" points="-4934.117,1138.759 -5595.363,1520.17 
	-5595.363,505.437 -4934.117,124.027 "/>
<polygon fill="#CCCCCC" stroke="#181716" stroke-width="5" stroke-miterlimit="10" points="-6212.287,1164.286 -5595.363,1520.17 
	-5595.363,505.437 -6212.287,149.553 "/>
<path d="M-5786.95,394.916l191.587,110.521l69.337-39.994v-0.226h0.393l130.806-75.449v-11.462h-6.725
	c0.28-4.226,0.49-8.452,0.49-12.725c0-104.814-84.967-189.757-189.757-189.757c-104.79,0-189.757,84.944-189.757,189.757
	c0,4.273,0.187,8.522,0.467,12.725h-6.841V394.916z"/>
<g>
	<g>
		<g>
			<path fill="#181716" d="M-5537.208,579.025c7.211-4.163,16.651-7.335,21.608-6.78l0.318,23.163l-2.003,1.157
				c-3.026-14.537-10.05-19.021-19.969-13.294c-8.109,4.682-13.763,12.274-13.654,20.177c0.107,7.801,4.867,8.698,10.211,8.456
				l10.694-0.479c11.194-0.541,19.596,0.877,19.765,13.191c0.203,14.807-12.169,32.54-27.192,41.214
				c-9.815,5.667-18.368,7.981-24.225,7.835l-0.378-27.573l2.003-1.156c3.093,19.4,10.621,23.6,22.542,16.716
				c8.814-5.089,16.056-14.171,15.916-24.341c-0.105-7.685-5.568-8.514-13.64-8.182l-8.976,0.398
				c-10.694,0.48-17.51-3.103-17.661-14.068C-5562.026,602.466-5551.23,587.12-5537.208,579.025z"/>
		</g>
		<g>
			<path fill="#181716" d="M-5467.124,588.45l-8.316,4.801l0.254,18.533c0.16,11.636,0.38,12.993,11.119,8.153l0.028,2.041
				l-34.557,19.952l-0.028-2.041c9.7-6.96,9.88-8.548,9.72-20.184l-0.671-48.935c-0.16-11.636-0.38-12.993-10.118-8.738
				l-0.028-2.034l12.82-7.402c4.911-2.835,16.023-9.361,19.131-11.156c18.526-10.696,32.926-13.087,33.167,4.542
				C-5434.359,563.611-5448.598,577.754-5467.124,588.45z M-5476.029,550.31l0.534,38.874l7.211-4.163
				c11.515-6.648,18.656-15.9,18.459-30.248c-0.197-14.356-7.478-15.274-18.993-8.626L-5476.029,550.31"/>
		</g>
		<g>
			<path fill="#181716" d="M-5384.978,491.481c19.63-11.334,38.361-7.12,38.744,20.796c0.383,27.909-17.938,53.522-37.569,64.855
				c-19.63,11.334-38.361,7.113-38.744-20.796C-5422.93,528.419-5404.609,502.814-5384.978,491.481z M-5383.86,572.947
				c13.821-7.98,22.632-27.984,22.305-51.825c-0.328-23.848-9.544-33.444-23.366-25.464s-22.632,27.984-22.305,51.832
				C-5406.899,571.331-5397.682,580.927-5383.86,572.947"/>
		</g>
		<g>
			<path fill="#181716" d="M-5261.057,422.205l0.028,2.034c-9.693,6.963-9.874,8.551-9.714,20.188l0.435,31.642
				c0.336,24.526-9.635,41.1-27.56,51.449c-19.935,11.509-29.509,5.309-29.796-15.601l-0.47-34.237
				c-0.16-11.643-0.375-13.114-10.112-8.859l-0.028-2.034l33.549-19.37l0.028,2.034c-9.693,6.963-9.875,8.435-9.712,20.304
				l0.448,32.655c0.244,17.745,5.685,24.62,19.307,16.755c14.726-8.502,19.574-23.029,19.639-40.152l-0.438-31.868
				c-0.16-11.636-0.38-12.993-10.111-8.742l-0.028-2.034L-5261.057,422.205z"/>
		</g>
		<g>
			<path fill="#181716" d="M-5185.149,378.042l3.419,28.434l-2.1,1.212c-5.159-15.245-11.175-19.856-25.197-11.76l-2.5,1.444
				l0.847,61.701c0.155,11.301,0.581,12.877,11.209,8.101l0.028,2.041l-35.752,20.642l-0.028-2.041
				c10.598-7.478,10.974-9.518,10.819-20.818l-0.847-61.701l-2.5,1.444c-14.021,8.095-19.824,19.529-24.583,40.501l-2.003,1.157
				l2.591-31.904c7.719-4.119,17.031-9.495,23.945-13.487l18.629-10.756C-5202.268,388.263-5192.957,382.888-5185.149,378.042z"/>
		</g>
		<g>
			<path fill="#181716" d="M-5097.408,327.722l0.028,2.034c-9.7,6.967-9.88,8.555-9.72,20.191l0.898,65.427l-8.413,4.857
				l-43.521-37.629l0.628,45.771c0.16,11.636,0.38,12.986,10.117,8.731l0.028,2.034l-24.535,14.165l-0.028-2.034
				c9.693-6.963,9.873-8.544,9.713-20.18l-0.723-52.661l-1.733-1.505c-3.58-3.172-5.516-4.223-8.331-3.847l-0.023-1.699
				l18.623-10.752l43.213,37.013l-0.617-44.976c-0.16-11.636-0.38-12.993-10.117-8.738l-0.028-2.034L-5097.408,327.722z"/>
		</g>
		<g>
			<path fill="#181716" d="M-5055.949,303.786l0.028,2.034c-9.693,6.963-9.874,8.551-9.714,20.188l0.672,48.935
				c0.16,11.636,0.38,12.993,10.111,8.735l0.028,2.034l-33.549,19.37l-0.028-2.034c9.693-6.956,9.873-8.544,9.713-20.18
				l-0.671-48.935c-0.16-11.636-0.38-12.993-10.111-8.742l-0.028-2.034L-5055.949,303.786z"/>
		</g>
		<g>
			<path fill="#181716" d="M-5021.398,349.791c0.16,11.636,0.38,12.993,10.11,8.735l0.028,2.034l-33.549,19.37l-0.028-2.034
				c9.694-6.956,9.874-8.544,9.714-20.181l-0.671-48.935c-0.16-11.636-0.38-12.993-10.111-8.742l-0.028-2.034l33.549-19.37
				l0.028,2.034c-9.693,6.963-9.873,8.551-9.713,20.187L-5021.398,349.791z"/>
		</g>
		<g>
			<path fill="#181716" d="M-4982.806,330.125c6.118,4.441,8.165,6.448,14.185,3.766l0.028,2.034l-32.25,18.62l-0.028-2.034
				c6.704-4.554,6.759-7.658,3.193-10.272l-23.965-17.366l22.017-36.293c9.771-16.003,11.519-21.112,0.891-15.777l-0.028-2.034
				l24.742-14.285l0.028,2.034c-6.596,4.837-8.871,8.539-19.928,26.658l-15.795,25.977L-4982.806,330.125z"/>
		</g>
	</g>
</g>
<g>
	<g>
		<g>
			<path fill="#181716" d="M-6141.085,286.781c8.144,4.514,16.517,11.171,21.519,16.41l3.054,26.913l-1.882-1.044
				c-3.909-17.971-11.506-31.932-23.822-38.759c-12.212-6.77-22.156,0.379-21.776,26.37c0.332,22.711,8.991,42.304,23.988,50.617
				c12.909,7.156,20.316,1.511,23.646-6.503l2.697,2.499c-3.099,10.281-12.463,16.746-28.357,7.936
				c-21.549-11.945-36.805-37.886-37.172-62.974C-6179.585,281.244-6162.041,275.165-6141.085,286.781z"/>
		</g>
		<g>
			<path fill="#181716" d="M-6071.826,327.413l0.03,2.032c-9.613-3.983-9.792-2.626-9.622,9.015l0.715,48.922
				c0.17,11.642,0.392,13.22,10.045,19.917l0.03,2.032l-33.272-18.443l-0.03-2.032c9.614,3.983,9.792,2.626,9.622-9.015
				l-0.715-48.922c-0.17-11.642-0.392-13.22-10.045-19.917l-0.03-2.032L-6071.826,327.413z"/>
		</g>
		<g>
			<path fill="#181716" d="M-5987.602,374.099l0.03,2.032c-9.614-3.983-9.792-2.627-9.622,9.015l0.957,65.42l-8.344-4.625
				l-43.215-85.708l0.669,45.76c0.17,11.642,0.385,13.216,10.038,19.913l0.03,2.032l-24.329-13.485l-0.03-2.032
				c9.614,3.983,9.792,2.626,9.622-9.015l-0.77-52.656l-1.726-3.423c-3.551-7.12-5.472-10.317-8.27-13.097l-0.025-1.695
				l18.474,10.24l42.907,84.752l-0.657-44.968c-0.17-11.642-0.385-13.216-10.045-19.917l-0.03-2.032L-5987.602,374.099z"/>
		</g>
		<g>
			<polygon fill="#181716" points="-5927.439,385.365 -5948.975,387.885 -5951.064,386.727 -5943.03,376.722 			"/>
		</g>
		<g>
			<path fill="#181716" d="M-5917.269,467.665l1.883,1.044l-3.578,24.808c-7.945-4.521-16.089-9.035-23.143-12.945l-36.851-20.427
				l-0.03-2.032c9.62,3.986,9.798,2.63,9.628-9.012l-0.715-48.922c-0.17-11.642-0.392-13.22-10.051-19.92l-0.03-2.032l35.857,19.876
				c6.854,3.799,15.694,8.699,23.434,12.655l2.781,28.326l-1.986-1.101c-5.245-21.847-12.053-29.099-31.32-39.779l-5.262-2.917
				l0.484,33.113l11.619,6.441c5.662,3.138,9.187,1.949,10.048-6.989l1.786,0.99l0.443,30.282l-1.786-0.99
				c-1.138-10.039-4.757-15.188-10.418-18.326l-11.62-6.441l0.453,30.964c0.058,3.954,0.761,5.239,5.133,7.662l3.779,2.094
				C-5928.656,484.106-5922.366,483.001-5917.269,467.665z"/>
		</g>
		<g>
			<path fill="#181716" d="M-5812.99,470.888l0.03,2.032c-9.62-3.986-9.798-2.63-9.628,9.012l0.715,48.922
				c0.17,11.642,0.392,13.22,10.051,19.92l0.03,2.032l-33.278-18.446l-0.03-2.032c9.613,3.983,9.792,2.626,9.622-9.015l-0.798-54.57
				l-24.032,54.035l-2.985-1.655l-27.635-84.363l0.823,56.272c0.17,11.642,0.392,13.22,10.044,19.917l0.03,2.032l-24.334-13.489
				l-0.03-2.032c9.613,3.983,9.792,2.626,9.622-9.015l-0.715-48.922c-0.17-11.642-0.392-13.22-10.044-19.917l-0.03-2.032
				l26.121,14.479l21.775,67.21l19.744-44.195L-5812.99,470.888z"/>
		</g>
		<g>
			<path fill="#181716" d="M-5739.784,579.384c3.312,10.917,4.125,12.714,10.296,17.029l0.03,2.032l-30.196-16.738l-0.029-2.032
				c8.13,3.612,7.902,1.128,5.93-5.568l-5.597-18.907l-27.018-14.976l-0.566,1.483c-6.949,16.878-4.248,19.613,4.405,25.304
				l0.03,2.032l-22.839-12.66l-0.03-2.032c6.441,2.676,7.21,1.421,12.532-12.11l19.572-49.333c2.573,0.975,5.329,0.487,6.782-1.174
				l0.393,0.218L-5739.784,579.384z M-5784.462,535.794l23.245,12.885l-11.927-40.577L-5784.462,535.794"/>
		</g>
		<g>
			<path fill="#181716" d="M-5621.936,610.407l0.702,48.027l-2.399-1.33l-0.601-41.091c0.551-1.898,0.898-4.009,1.019-6.315
				L-5621.936,610.407z"/>
		</g>
		<g>
			<path fill="#181716" d="M-5679.484,578.508l0.101,6.94c-0.616-2.547-1.031-5.081-1.221-7.561L-5679.484,578.508z"/>
		</g>
		<g>
			<path fill="#181716" d="M-5680.604,577.887c0.19,2.48,0.605,5.015,1.221,7.561l0.601,41.086l-2.399-1.33l-0.702-48.027
				L-5680.604,577.887z"/>
		</g>
		<g>
			<path fill="#181716" d="M-5659.879,618.022c0.79,0.708,1.593,1.386,2.409,2.032l0.27,18.443l-2.398-1.33L-5659.879,618.022z"/>
		</g>
		<g>
			<path fill="#181716" d="M-5623.215,609.699c-0.12,2.306-0.468,4.417-1.019,6.315l-0.102-6.936L-5623.215,609.699z"/>
		</g>
		<g>
			<path fill="#181716" d="M-5657.877,592.224l0.407,27.831c-0.816-0.646-1.619-1.324-2.409-2.032l-0.396-27.128L-5657.877,592.224z
				"/>
		</g>
		<g>
			<path fill="#181716" d="M-5643.492,600.198l0.147,10.109l0.249,17.019c-0.783-0.164-1.579-0.373-2.389-0.628l-0.407-27.83
				L-5643.492,600.198z"/>
		</g>
		<g>
			<path fill="#181716" d="M-5643.344,610.307l0.529,36.165l-2.398-1.33l-0.27-18.444c0.81,0.254,1.606,0.463,2.389,0.628
				L-5643.344,610.307z"/>
		</g>
		<g>
			<path fill="#181716" d="M-5652.42,558.62c15.888,8.807,28.985,30.605,29.25,48.68c0.012,0.822-0.003,1.621-0.044,2.399
				l-1.12-0.621l0.102,6.936c-2.356,8.122-8.435,12.383-16.369,11.683l-0.234-15.999l-2.508-1.39l-0.147-10.109l-2.399-1.33
				l0.407,27.83c-1.925-0.605-3.923-1.467-5.979-2.607c-2.057-1.14-4.066-2.498-6.007-4.036l-0.407-27.831l-2.398-1.33l0.396,27.128
				c-9.237-8.279-16.6-20.569-19.504-32.574l-0.101-6.94l-1.12-0.621c-0.064-0.836-0.103-1.664-0.115-2.487
				C-5680.984,557.325-5668.315,549.81-5652.42,558.62z"/>
		</g>
	</g>
</g>
<g>
	<g>
		<path d="M-6195.452,669.125c-25.085-7.133-37.019-14.948-38.696-25.34c-0.775-4.806,0.526-12.048,11.133-19.258l7.87,11.578
			c-4.535,3.083-5.241,5.083-5.182,5.45c0.01,0.062,1.321,6.317,28.704,14.104L-6195.452,669.125z"/>
	</g>
	<g>
		<path d="M-6189.782,694.23c-28.964-8.221-42.606-17.67-42.932-29.737l13.995-0.379c0.002,0.074,0.572,7.512,32.759,16.648
			L-6189.782,694.23z"/>
	</g>
</g>
<g>
	<g>
		<path d="M-4950.906,669.125l-3.83-13.466c27.382-7.787,28.693-14.042,28.703-14.104c0.06-0.367-0.646-2.367-5.182-5.45
			l7.871-11.578c10.605,7.209,11.907,14.452,11.132,19.258C-4913.889,654.177-4925.822,661.992-4950.906,669.125z"/>
	</g>
	<g>
		<path d="M-4956.576,694.23l-3.822-13.468c32.186-9.136,32.758-16.575,32.76-16.649l13.994,0.381
			C-4913.973,676.561-4927.614,686.009-4956.576,694.23z"/>
	</g>
</g>
<path d="M-4934.117,669.376v16.809c2.502,2.009,3.983,3.808,3.906,4.932c-0.005,0.074-1.505,7.611-37.06,15.376l2.988,13.678
	c32.381-7.073,47.196-15.74,48.039-28.103C-4915.549,681.891-4925.31,674.199-4934.117,669.376z"/>
<path d="M-4929.003,643.885c-1.747-1.028-3.487-1.941-5.114-2.735v16.05c3.916,2.599,6.528,5.213,6.477,6.916
	c-0.002,0.074-0.591,7.514-32.759,16.645l3.822,13.468c28.946-8.216,42.588-17.658,42.931-29.715
	C-4913.43,656.951-4918.597,650.01-4929.003,643.885z"/>
<path d="M-4934.117,618.573v15.736c4.871,2.806,8.115,5.643,8.089,7.19c-0.001,0.06-1.331,6.375-28.709,14.161l3.83,13.466
	c10.557-3.002,38.602-10.977,38.877-27.392C-4911.84,630.499-4924.511,622.793-4934.117,618.573z"/>
<path d="M-6216.148,691.118c-0.077-1.117,1.386-2.901,3.861-4.896v-16.82c-8.795,4.825-18.521,12.507-17.829,22.667
	c0.843,12.363,15.659,21.03,48.04,28.103l2.987-13.678C-6214.643,698.728-6216.143,691.191-6216.148,691.118z"/>
<path d="M-6218.719,664.117c-0.05-1.697,2.542-4.297,6.432-6.886v-16.059c-1.613,0.789-3.338,1.694-5.069,2.713
	c-10.406,6.125-15.573,13.066-15.357,20.629c0.343,12.057,13.985,21.5,42.931,29.715l3.823-13.468
	C-6218.128,671.631-6218.717,664.191-6218.719,664.117z"/>
<path d="M-6220.332,641.499c-0.01-0.559,1.37-3.349,8.044-7.159v-15.747c-9.6,4.225-22.231,11.924-22.042,23.141
	c0.099,5.867,3.635,11.165,10.513,15.747c6.304,4.201,15.582,8.01,28.365,11.645l3.829-13.466
	C-6218.996,647.875-6220.331,641.559-6220.332,641.499z"/>
</svg>
