<?xml version="1.0" encoding="utf-8"?>
<!-- Generator: Adobe Illustrator 17.0.0, SVG Export Plug-In . SVG Version: 6.00 Build 0)  -->
<!DOCTYPE svg PUBLIC "-//W3C//DTD SVG 1.1//EN" "http://www.w3.org/Graphics/SVG/1.1/DTD/svg11.dtd">
<svg version="1.1" id="Calque_1" xmlns="http://www.w3.org/2000/svg" xmlns:xlink="http://www.w3.org/1999/xlink" x="0px" y="0px"
	 width="100px" height="100px" viewBox="12.288 18.644 100 100" enable-background="new 12.288 18.644 100 100"
	 xml:space="preserve">
<g>
	<path d="M88.512,47.872c0.04-0.594,0.069-1.19,0.069-1.794c0-14.762-11.967-26.728-26.728-26.728
		c-14.762,0-26.728,11.967-26.728,26.728c0,0.604,0.027,1.2,0.067,1.794h-0.966v39.604h1.764V52.843
		C38.21,61.358,44.524,68.22,52.705,71.2v16.278h1.764V71.766c2.346,0.673,4.821,1.041,7.383,1.041c2.555,0,5.023-0.365,7.363-1.034
		v15.705h1.764v-16.27v-18.28h0.883v17.936c7.752-3.134,13.685-9.802,15.833-18.002v34.618h1.764V47.872H88.512z"/>
	<g>
		<path d="M26.68,97.999c-1.584-0.319-2.903-1.139-2.903-2.848c0-1.889,1.959-2.834,3.806-2.834c1.986,0,3.542,0.903,3.945,2.999
			H29.82c-0.292-1.208-1.347-1.556-2.334-1.556c-0.778,0-1.931,0.347-1.931,1.333c0,0.778,0.639,1.167,1.5,1.333l1.236,0.236
			c1.764,0.347,3.445,0.986,3.445,3.014c0,2.028-2.014,3.07-4,3.07c-2.389,0-4.028-1.306-4.237-3.514h1.736
			c0.306,1.374,1.195,2.069,2.584,2.069c1.195,0,2.153-0.542,2.153-1.514c0-1.027-1.111-1.374-2.07-1.556L26.68,97.999z"/>
		<path d="M37.543,92.498c2.209,0,4.278,0.362,4.278,3.167c0,2.542-1.875,3.098-4.25,3.098h-1.584v3.805h-1.764V92.498H37.543z
			 M35.987,93.915v3.403h1.639c1.333,0,2.361-0.194,2.361-1.639c0-1.64-1.208-1.764-2.445-1.764
			C37.543,93.915,35.987,93.915,35.987,93.915z"/>
		<path d="M48.461,102.75c-2.959,0-4.805-2.125-4.805-5.223c0-3.098,1.847-5.209,4.805-5.209s4.806,2.11,4.806,5.209
			C53.267,100.624,51.419,102.75,48.461,102.75z M48.461,101.304c1.667,0,2.986-1.333,2.986-3.777c0-2.446-1.32-3.764-2.986-3.764
			c-1.667,0-2.986,1.32-2.986,3.764C45.474,99.971,46.794,101.304,48.461,101.304z"/>
		<path d="M57.573,92.498v5.945c0,1.847,0.486,2.861,2.361,2.861c1.847,0,2.347-1.069,2.347-2.916v-5.89h1.764v5.82
			c0,3.181-1.181,4.431-4.112,4.431c-2.889,0-4.125-1.125-4.125-4.376v-5.876H57.573z"/>
		<path d="M69.213,93.971h-3.167v-1.473h8.098v1.473h-3.167v8.597h-1.764C69.213,102.568,69.213,93.971,69.213,93.971z"/>
		<path d="M82.27,102.569l-4.263-8.043v8.043h-1.709V92.498h2.362l4.263,8.043v-8.043h1.709v10.071H82.27z"/>
		<path d="M89.493,102.569h-1.764V92.498h1.764V102.569z"/>
		<path d="M94.354,97.29l4.278-4.792h2.097l-3.736,4.098l4.083,5.973h-2.084l-3.167-4.694l-1.472,1.61v3.084h-1.764v-10.07h1.764
			C94.354,92.498,94.354,97.29,94.354,97.29z"/>
		<path d="M41.779,114.408c-0.417,2.251-2.028,3.529-4.348,3.529c-2.945,0-4.652-2.098-4.652-5.251c0-3.167,1.82-5.181,4.737-5.181
			c2.236,0,3.834,1.278,4.237,3.528h-1.695c-0.306-1.361-1.292-2.084-2.598-2.084c-1.597,0-2.861,1.306-2.861,3.737
			c0,2.445,1.236,3.805,2.848,3.805c1.361,0,2.334-0.708,2.639-2.084C40.086,114.408,41.779,114.408,41.779,114.408z"/>
		<path d="M46.099,117.756h-1.764v-10.071h1.764V117.756z"/>
		<path d="M55.17,117.756l-4.264-8.043v8.043h-1.709v-10.071h2.361l4.263,8.043v-8.043h1.709v10.071H55.17z"/>
		<path d="M60.629,107.685h7.126v1.473h-5.362v2.694h5.069v1.458h-5.069v2.959h5.362v1.485h-7.126
			C60.629,117.755,60.629,107.685,60.629,107.685z M64.768,107.019h-1.446l1.458-1.569h2.139L64.768,107.019z"/>
		<path d="M74.519,117.756l-2.556-8.154v8.154h-1.722v-10.071h2.736l2.445,8.029l2.431-8.029h2.736v10.071h-1.722v-8.154
			l-2.556,8.154H74.519z"/>
		<path d="M86.283,107.685h1.861l3.778,10.071h-1.931l-0.791-2.236h-4.084l-0.778,2.236h-1.806L86.283,107.685z M85.63,114.047
			h3.042l-1.527-4.32L85.63,114.047z"/>
	</g>
</g>
</svg>
