<?xml version="1.0" standalone="no"?>
<!DOCTYPE svg PUBLIC "-//W3C//DTD SVG 1.1//EN" "http://www.w3.org/Graphics/SVG/1.1/DTD/svg11.dtd" >
<svg xmlns="http://www.w3.org/2000/svg" xmlns:xlink="http://www.w3.org/1999/xlink" version="1.1">
<metadata>
Created by Christoph Koeberlin (http://christoph.koe.berlin)
Copyright (c) 2014 Swiss Typefaces Sa`rl. All rights reserved.
</metadata>
<defs>
<font id="Font" horiz-adv-x="678" >
  <font-face 
    font-family="Font"
    font-weight="500"
    font-stretch="normal"
    units-per-em="1000"
    panose-1="2 2 6 4 6 0 0 0 0 0"
    ascent="800"
    descent="-200"
    x-height="538"
    cap-height="725"
    bbox="-149 -311 1422 974"
    underline-thickness="60"
    underline-position="-50"
    unicode-range="U+0020-FB02"
  />
<missing-glyph horiz-adv-x="500" 
d="M0 725h500v-725h-500v725zM19 696v-667l220 333zM481 29v667l-221 -334zM33 19h433l-216 327zM250 378l216 328h-433z" />
    <glyph glyph-name=".notdef" horiz-adv-x="500" 
d="M0 725h500v-725h-500v725zM19 696v-667l220 333zM481 29v667l-221 -334zM33 19h433l-216 327zM250 378l216 328h-433z" />
    <glyph glyph-name=".null" horiz-adv-x="0" 
 />
    <glyph glyph-name="nonmarkingreturn" horiz-adv-x="250" 
 />
    <glyph glyph-name="space" unicode=" " horiz-adv-x="250" 
 />
    <glyph glyph-name="exclam" unicode="!" horiz-adv-x="422" 
d="M138 723q0 17 22.5 25.5t49 8.5t49 -8.5t22.5 -25.5v-221l-61 -290h-20l-62 291v220zM130 68q0 33 23.5 56.5t56.5 23.5q35 0 58.5 -23.5t23.5 -56.5q0 -34 -23.5 -57.5t-58.5 -23.5q-33 0 -56.5 23.5t-23.5 57.5z" />
    <glyph glyph-name="quotedbl" unicode="&#x22;" horiz-adv-x="386" 
d="M343 725l-40 -262h-47l-39 262h126zM170 725l-40 -262h-47l-39 262h126z" />
    <glyph glyph-name="numbersign" unicode="#" horiz-adv-x="698" 
d="M219 531l28 194h71l-28 -194h165l28 194h71l-28 -194h137l-9 -68h-137l-24 -169h137l-10 -68h-136l-32 -226h-71l32 226h-165l-32 -226h-71l32 226h-142l9 68h142l24 169h-142l10 68h141zM257 294h165l24 169h-165z" />
    <glyph glyph-name="dollar" unicode="$" horiz-adv-x="650" 
d="M288 -11q-48 4 -92 19.5t-78 42t-56 63t-26 81.5h129q0 -31 8 -59t23.5 -50.5t38.5 -38t53 -21.5v296l-34 10q-39 12 -74.5 31t-62.5 45.5t-43 60.5t-16 77q0 44 18 79t49 60t73 39t90 17v104h47v-104q48 -3 91 -18.5t75.5 -42t53.5 -63.5t26 -83h-129q1 64 -27.5 111.5
t-89.5 57.5v-262l41 -12q45 -14 86 -32t72 -44.5t49.5 -62t18.5 -83.5q0 -53 -20.5 -93.5t-56.5 -68t-84.5 -42.5t-105.5 -16v-89h-47v91zM335 308v-285q75 2 116.5 37.5t41.5 101.5q0 30 -11 53t-31.5 40t-48.5 30t-61 22zM162 586q0 -28 11.5 -49.5t29.5 -37.5t40.5 -26.5
t44.5 -17.5v250q-68 -5 -97 -39t-29 -80z" />
    <glyph glyph-name="percent" unicode="%" horiz-adv-x="1056" 
d="M123 524q0 -36 3 -71t10.5 -62.5t21.5 -44.5t36 -17t36.5 17t22 44.5t10.5 62.5t3 71t-3 70.5t-10.5 61.5t-22 43.5t-36.5 16.5t-36 -16.5t-21.5 -43.5t-10.5 -61.5t-3 -70.5zM22 524q0 44 14 82.5t37.5 67t54.5 45t66 16.5t66.5 -16.5t55 -45t37 -67t13.5 -82.5
t-13.5 -83t-37 -68t-55 -46t-66.5 -17t-66 17t-54.5 46t-37.5 68t-14 83zM239 0l508 725h70l-508 -725h-70zM791 207q0 -36 3 -71t10.5 -62.5t21.5 -44.5t36 -17t36.5 17t22 44.5t10.5 62.5t3 71t-3 70.5t-10.5 61.5t-22 43.5t-36.5 16.5t-36 -16.5t-21.5 -43.5t-10.5 -61.5
t-3 -70.5zM690 207q0 44 14 82.5t37.5 67t54.5 45t66 16.5t66.5 -16.5t55 -45t37 -67t13.5 -82.5t-13.5 -83t-37 -68t-55 -46t-66.5 -17t-66 17t-54.5 46t-37.5 68t-14 83z" />
    <glyph glyph-name="ampersand" unicode="&#x26;" horiz-adv-x="750" 
d="M293 -13q-53 0 -100 16.5t-82 46.5t-55.5 70.5t-20.5 88.5q0 43 17.5 76.5t46.5 59t66 43t76 29.5q-41 48 -59 91t-18 81q0 37 15.5 65.5t42.5 48t63 29.5t78 10q38 0 71 -8.5t57 -24.5t38 -40.5t14 -55.5q0 -30 -14 -55.5t-37.5 -46.5t-53.5 -37.5t-61 -28.5l1 -1
l189 -207q20 54 24 112.5t-2 109.5h90q-3 -78 -27 -139.5t-56 -113.5l126 -137l-92 -82l-103 114q-25 -29 -50 -50.5t-52.5 -35.5t-59.5 -21t-72 -7zM256 399q-22 -11 -38.5 -29t-27 -39.5t-15.5 -45t-5 -45.5q0 -42 12.5 -77t35.5 -60.5t54.5 -40t70.5 -14.5q51 0 90 21.5
t69 58.5l-241 266q-2 1 -2.5 2t-2.5 3zM463 608q0 51 -27 76.5t-71 25.5q-47 0 -68 -25.5t-21 -59.5q0 -45 24 -83t60 -79q18 9 36.5 21.5t33.5 30t24 40.5t9 53z" />
    <glyph glyph-name="quotesingle" unicode="'" horiz-adv-x="213" 
d="M170 725l-40 -262h-47l-39 262h126z" />
    <glyph glyph-name="parenleft" unicode="(" horiz-adv-x="324" 
d="M177 276q0 -73 5 -147t18.5 -141.5t37 -124.5t60.5 -96l-14 -17q-111 88 -170 224.5t-59 301.5q0 166 59 302.5t170 224.5l14 -18q-37 -39 -60.5 -96t-37 -124.5t-18.5 -141.5t-5 -147z" />
    <glyph glyph-name="parenright" unicode=")" horiz-adv-x="326" 
d="M148 276q0 73 -5 147t-18.5 141.5t-37.5 124.5t-61 96l14 18q112 -88 171.5 -224.5t59.5 -302.5q0 -165 -59.5 -301.5t-171.5 -224.5l-14 17q37 39 61 96t37.5 124.5t18.5 141.5t5 147z" />
    <glyph glyph-name="asterisk" unicode="*" horiz-adv-x="375" 
d="M214 604l120 41l19 -53l-119 -39l72 -101l-44 -34l-75 103l-72 -102l-47 32l72 101l-117 40l16 55l119 -43v121h56v-121z" />
    <glyph glyph-name="plus" unicode="+" 
d="M299 0v236h-236v76h236v227h81v-227h235v-76h-235v-236h-81z" />
    <glyph glyph-name="comma" unicode="," horiz-adv-x="352" 
d="M95 68q0 32 23 56t58 24q37 0 59 -25.5t22 -64.5q0 -38 -17 -77t-44 -74t-61 -63t-68 -45l-7 12q16 13 36 32t37.5 42t29 49.5t11.5 53.5q-34 1 -56.5 23t-22.5 57z" />
    <glyph glyph-name="hyphen" unicode="-" horiz-adv-x="371" 
d="M50 320h271v-90h-271v90z" />
    <glyph glyph-name="period" unicode="." horiz-adv-x="352" 
d="M95 68q0 33 23.5 56.5t56.5 23.5q35 0 58.5 -23.5t23.5 -56.5q0 -34 -23.5 -57.5t-58.5 -23.5q-33 0 -56.5 23.5t-23.5 57.5z" />
    <glyph glyph-name="slash" unicode="/" horiz-adv-x="400" 
d="M0 -32l343 808h57l-346 -808h-54z" />
    <glyph glyph-name="zero" unicode="0" horiz-adv-x="680" 
d="M190 366q0 -61 7 -122.5t24 -110.5t46 -79.5t73 -30.5q43 0 72 30.5t46 79.5t24 110.5t7 122.5t-7 122t-24 109.5t-46 79t-72 30.5q-44 0 -73 -30.5t-46 -79t-24 -109.5t-7 -122zM50 366q0 72 20.5 139.5t58 120t91 84.5t120.5 32t120.5 -32t91 -84.5t58 -120
t20.5 -139.5t-20.5 -140t-58 -121.5t-91 -85.5t-120.5 -32t-120.5 32t-91 85.5t-58 121.5t-20.5 140z" />
    <glyph glyph-name="one" unicode="1" horiz-adv-x="483" 
d="M319 146q0 -39 2 -62t11.5 -36t29.5 -19.5t56 -10.5v-18h-341v19q42 4 65.5 9.5t35 18.5t13.5 36t2 62v467h-138v23q90 9 147 33t95 68h22v-590z" />
    <glyph glyph-name="two" unicode="2" horiz-adv-x="551" 
d="M479 561q0 -39 -9.5 -71t-31.5 -65.5t-57 -72t-86 -90.5q-36 -37 -72.5 -73t-74.5 -72h351v-117h-514v14q112 102 183.5 178.5t112 135.5t55.5 104t15 84q0 69 -36.5 104t-98.5 35q-61 0 -103.5 -30.5t-56.5 -87.5h-30q17 98 80 151.5t163 53.5q42 0 80 -11.5t67 -34
t46 -56.5t17 -79z" />
    <glyph glyph-name="three" unicode="3" horiz-adv-x="553" 
d="M213 -13q-52 0 -100.5 10.5t-77.5 23.5v175h19q20 -84 67 -126t106 -42q33 0 60 10.5t46.5 29t30 44t10.5 56.5q0 22 -7.5 51t-29 57.5t-60 52t-99.5 32.5v22l23 10q37 16 63 37t42 43.5t23.5 44.5t7.5 39q0 47 -31 73t-90 26q-55 0 -98.5 -31t-56.5 -88h-30
q17 98 81 151.5t162 53.5q37 0 71.5 -9t61 -26t42 -43t15.5 -59q0 -30 -15 -56.5t-37.5 -48t-48.5 -38.5t-48 -27v-3q42 -14 76 -34.5t59 -48t38.5 -61.5t13.5 -74q0 -54 -25.5 -96t-66.5 -71t-93 -44.5t-104 -15.5z" />
    <glyph glyph-name="four" unicode="4" horiz-adv-x="602" 
d="M329 0v184h-320v59l339 482h108v-436h123v-105h-123v-184h-127zM329 620l-233 -331h233v331z" />
    <glyph glyph-name="five" unicode="5" horiz-adv-x="535" 
d="M168 725h322l-36 -116h-284l-39 -110q174 -16 261.5 -86t87.5 -176q0 -59 -23 -105.5t-61.5 -78.5t-88.5 -49t-104 -17q-52 0 -100.5 10.5t-77.5 23.5v175h19q20 -84 67 -126t106 -42q31 0 57 10.5t44.5 30t28.5 46.5t10 60q0 39 -15 75t-50.5 65t-94.5 49.5t-147 27.5z
" />
    <glyph glyph-name="six" unicode="6" horiz-adv-x="624" 
d="M319 -13q-63 0 -113 21.5t-84.5 60.5t-53 94t-18.5 123q0 90 37.5 167t101 137.5t148 102t177.5 61.5l8 -26q-137 -41 -219.5 -121.5t-105.5 -202.5q29 37 71 59t93 22q44 0 82.5 -15.5t67.5 -45t46 -72t17 -96.5q0 -56 -20 -105t-54.5 -85.5t-81 -57.5t-99.5 -21z
M307 415q-30 0 -61.5 -11t-53.5 -31q-2 -17 -3 -34t-1 -34q0 -55 7 -106t23 -90t41 -62.5t61 -23.5q32 0 54.5 15t37 40.5t21 60.5t6.5 74q0 40 -8 76.5t-24 64.5t-41 44.5t-59 16.5z" />
    <glyph glyph-name="seven" unicode="7" horiz-adv-x="542" 
d="M18 725h505v-117q-67 -64 -122.5 -128.5t-95 -136.5t-61.5 -156t-21 -187h-142q3 114 40.5 205t95 164t128.5 131.5t141 108.5h-468v116z" />
    <glyph glyph-name="eight" unicode="8" horiz-adv-x="630" 
d="M307 -13q-50 0 -96.5 11.5t-82 35t-57 59.5t-21.5 85q0 32 13 60t34.5 51t51 41t62.5 30q-58 35 -93.5 83.5t-35.5 111.5q0 43 19 77.5t51 58.5t75 37t91 13q45 0 85.5 -10t72 -29.5t50 -48.5t18.5 -67q0 -31 -13 -56.5t-34.5 -46t-49 -36t-56.5 -27.5l2 -1
q38 -18 72 -38.5t59.5 -46.5t40.5 -58t15 -74q0 -53 -23 -93t-61 -67t-87.5 -41t-101.5 -14zM148 182q0 -34 10 -63t30 -50t49.5 -32.5t69.5 -11.5q81 0 122.5 35.5t41.5 87.5q0 27 -9.5 48.5t-27.5 39.5t-44 33.5t-59 31.5l-75 35l-18 8q-43 -22 -66.5 -63.5t-23.5 -98.5z
M452 580q0 66 -37.5 95t-97.5 29q-63 0 -98 -30.5t-35 -75.5q0 -46 33.5 -79t96.5 -62l51 -25q37 23 62 58.5t25 89.5z" />
    <glyph glyph-name="nine" unicode="9" horiz-adv-x="614" 
d="M295 742q63 0 113 -21.5t84.5 -60.5t53 -94.5t18.5 -123.5q0 -90 -37.5 -166.5t-101 -137t-148 -102.5t-177.5 -62l-8 26q137 41 219 121.5t106 203.5q-29 -38 -71 -60t-93 -22q-44 0 -82.5 16t-67.5 46.5t-46 73.5t-17 97q0 56 20 104.5t54.5 84.5t81 56.5t99.5 20.5z
M307 314q29 0 61 10.5t54 30.5q2 17 3 34t1 35q0 55 -7 106t-23 90t-41 62.5t-61 23.5q-32 0 -55 -15t-37 -41t-20.5 -61t-6.5 -74q0 -40 8 -76.5t24 -64t41 -44t59 -16.5z" />
    <glyph glyph-name="colon" unicode=":" horiz-adv-x="352" 
d="M95 467q0 33 23.5 56.5t56.5 23.5q35 0 58.5 -23.5t23.5 -56.5q0 -34 -23.5 -57.5t-58.5 -23.5q-33 0 -56.5 23.5t-23.5 57.5zM95 68q0 33 23.5 56.5t56.5 23.5q35 0 58.5 -23.5t23.5 -56.5q0 -34 -23.5 -57.5t-58.5 -23.5q-33 0 -56.5 23.5t-23.5 57.5z" />
    <glyph glyph-name="semicolon" unicode=";" horiz-adv-x="352" 
d="M95 467q0 33 23.5 56.5t56.5 23.5q35 0 58.5 -23.5t23.5 -56.5q0 -34 -23.5 -57.5t-58.5 -23.5q-33 0 -56.5 23.5t-23.5 57.5zM95 68q0 32 23 56t58 24q37 0 59 -25.5t22 -64.5q0 -38 -17 -77t-44 -74t-61 -63t-68 -45l-7 12q16 13 36 32t37.5 42t29 49.5t11.5 53.5
q-34 1 -56.5 23t-22.5 57z" />
    <glyph glyph-name="less" unicode="&#x3c;" 
d="M580 543v-87l-424 -183l424 -180v-86l-521 231v71z" />
    <glyph glyph-name="equal" unicode="=" 
d="M92 344v75h494v-75h-494zM92 138v75h494v-75h-494z" />
    <glyph glyph-name="greater" unicode="&#x3e;" 
d="M620 238l-521 -231v86l424 180l-424 183v87l521 -234v-71z" />
    <glyph glyph-name="question" unicode="?" horiz-adv-x="610" 
d="M265 716q-33 0 -58 -13t-43.5 -36.5t-32.5 -56t-24 -70.5h-20v181q31 13 79.5 24.5t105.5 11.5q114 0 178.5 -38.5t64.5 -117.5q0 -48 -19.5 -81t-49 -58t-63.5 -47t-63.5 -47.5t-49 -59t-19.5 -82.5v-12h-31v9q0 52 11.5 91.5t28.5 71.5t37 58.5t37 51.5t28.5 51.5
t11.5 58.5q0 52 -25 81t-84 29zM165 68q0 33 23.5 56.5t56.5 23.5q35 0 58.5 -23.5t23.5 -56.5q0 -34 -23.5 -57.5t-58.5 -23.5q-33 0 -56.5 23.5t-23.5 57.5z" />
    <glyph glyph-name="at" unicode="@" horiz-adv-x="848" 
d="M628 158q-45 0 -73 29t-31 75q-23 -45 -62.5 -72t-96.5 -27q-30 0 -56.5 10.5t-46.5 32t-32 55t-12 79.5q0 45 14.5 88t42 76.5t66 53.5t86.5 20t78 -26t41 -64l10 71h57l-31 -227q-3 -17 -2.5 -36.5t5.5 -37t17 -29t33 -11.5q45 0 76.5 50t31.5 143q0 63 -22 113
t-61.5 85t-94 53.5t-119.5 18.5q-74 0 -135 -24.5t-104.5 -68.5t-67.5 -104t-24 -132q0 -66 21.5 -122t61 -97t95 -64t123.5 -23q48 0 97.5 12.5t94.5 34.5l23 -60q-51 -23 -110 -34.5t-109 -11.5q-81 0 -148 27.5t-115 76t-74 116t-26 147.5q0 81 30 151t83 121.5t126.5 81
t159.5 29.5q76 0 141.5 -21.5t114 -63t76 -101.5t27.5 -137q0 -62 -15.5 -109.5t-40.5 -80t-57.5 -49.5t-65.5 -17zM428 515q-32 0 -57.5 -14.5t-44 -38.5t-28.5 -56t-10 -68q0 -58 25.5 -86t68.5 -28q32 0 58 15t44 39.5t28 57.5t10 69q0 54 -24.5 82t-69.5 28z" />
    <glyph glyph-name="A" unicode="A" horiz-adv-x="774" 
d="M5 18q24 3 39.5 9.5t28.5 23.5t26.5 49.5t34.5 87.5l206 537q20 3 39 15t30 29h4l254 -650q12 -30 20.5 -48.5t19 -29t25 -15.5t37.5 -8v-18h-304v18q31 3 47 8.5t21.5 15t2.5 23t-10 32.5l-54 141h-272l-6 -16q-27 -69 -36.5 -108.5t-3 -60t27 -26.5t53.5 -9v-18h-230
v18zM220 287h234l-115 303z" />
    <glyph glyph-name="B" unicode="B" horiz-adv-x="753" 
d="M272 73q0 -22 20.5 -30.5t46.5 -8.5h25q54 0 90.5 11t59 32.5t32 53t9.5 73.5q0 37 -8.5 66t-29.5 48.5t-55.5 29.5t-86.5 10h-103v-285zM272 392h102q43 0 72 12t46.5 33t25 49.5t7.5 61.5q0 37 -8.5 63.5t-29 43.5t-53.5 25.5t-82 8.5h-80v-297zM168 725q50 0 106 1
t94 1q81 0 137 -9.5t91.5 -29.5t51 -50t15.5 -70q0 -33 -11.5 -61.5t-32 -51.5t-48 -39.5t-58.5 -25.5v-2q33 -6 67.5 -19t62 -34.5t45 -52.5t17.5 -72q0 -45 -18.5 -84t-58.5 -67.5t-103 -44.5t-152 -16q-15 0 -37 0.5t-48 0.5t-54.5 0.5t-56.5 0.5h-141v18q36 4 56 10.5
t29.5 19.5t11.5 36t2 62v433q0 39 -2 62t-11.5 36t-29.5 19t-56 11v18h132z" />
    <glyph glyph-name="C" unicode="C" horiz-adv-x="742" 
d="M203 365q0 -75 15.5 -136.5t45.5 -105t74 -67.5t101 -24q49 0 87.5 15t68.5 39.5t51 56t34 64.5l27 -9q-12 -40 -36.5 -78t-60.5 -67.5t-84 -47.5t-108 -18q-81 0 -149 28t-116.5 78t-75.5 119.5t-27 152.5q0 90 31.5 160.5t84.5 119t124 74.5t150 26q62 0 120 -11.5
t96 -28.5l27 -225h-19q-28 106 -85.5 167t-150.5 61q-46 0 -87 -21.5t-71.5 -64t-48.5 -107t-18 -150.5z" />
    <glyph glyph-name="D" unicode="D" horiz-adv-x="821" 
d="M309 36q84 0 142.5 21.5t95.5 63.5t54 104.5t17 145.5q0 167 -79.5 242.5t-240.5 75.5h-26v-653h37zM317 725q93 0 176 -18t144.5 -59.5t97.5 -109.5t36 -168q0 -98 -32 -168t-91.5 -115t-144 -66t-189.5 -21h-278v18q36 4 56 10.5t29.5 19.5t11.5 36t2 62v433
q0 39 -2 62t-11.5 36t-29.5 19t-56 11v18h281z" />
    <glyph glyph-name="E" unicode="E" horiz-adv-x="727" 
d="M640 -1q-60 1 -119.5 1h-113.5h-371v18q36 4 56 10.5t29.5 19.5t11.5 36t2 62v433q0 39 -2 62t-11.5 36t-29.5 19t-56 11v18h361q52 0 114.5 0.5t121.5 2.5l24 -239h-20q-19 63 -42.5 102.5t-59.5 61t-86.5 29t-123.5 7.5h-53v-293h117q43 0 69 24.5t34 87.5h18v-268h-18
q-8 63 -34 87.5t-69 24.5h-117v-274q0 -26 9 -34.5t42 -8.5h38q68 0 116 9t82 32t58 62t44 100h19l-40 -239v0z" />
    <glyph glyph-name="F" unicode="F" horiz-adv-x="692" 
d="M36 18q36 4 56 10.5t29.5 19.5t11.5 36t2 62v433q0 39 -2 62t-11.5 36t-29.5 19t-56 11v18h381q52 0 114.5 0.5t121.5 2.5l24 -239h-20q-19 63 -42.5 102.5t-59.5 61t-86.5 29t-123.5 7.5h-73v-293h117q43 0 69 24.5t34 87.5h18v-268h-18q-8 63 -34 87.5t-69 24.5h-117
v-207q0 -38 2.5 -60.5t13 -36t32.5 -20t62 -10.5v-18h-346v18z" />
    <glyph glyph-name="G" unicode="G" horiz-adv-x="825" 
d="M798 341v-19q-24 -3 -37.5 -9.5t-19.5 -20t-7 -36.5t-1 -61v-131q-29 -20 -66 -34.5t-77.5 -24t-82 -14t-77.5 -4.5q-89 0 -160 28t-120.5 78t-76 119t-26.5 151q0 90 32.5 161t88 120t128.5 75t154 26q72 0 130 -10.5t100 -27.5l27 -227h-19q-29 107 -89.5 167.5
t-154.5 60.5q-50 0 -94 -21.5t-77.5 -65t-53 -108.5t-19.5 -152q0 -76 17 -138t49 -106t77.5 -68t102.5 -24q24 0 50 2.5t48.5 12.5t37 28t14.5 50v77q0 38 -2.5 61t-12 36.5t-29.5 20t-55 9.5v19h301z" />
    <glyph glyph-name="H" unicode="H" horiz-adv-x="854" 
d="M718 146q0 -39 2 -62t11.5 -36t29.5 -19.5t56 -10.5v-18h-335v18q36 4 56 10.5t29.5 19.5t11.5 36t2 62v206h-309v-206q0 -39 2 -62t11.5 -36t29.5 -19.5t56 -10.5v-18h-335v18q36 4 56 10.5t29.5 19.5t11.5 36t2 62v433q0 39 -2 62t-11.5 36t-29.5 19t-56 11v18h335v-18
q-36 -5 -56 -11t-29.5 -19t-11.5 -36t-2 -62v-183h309v183q0 39 -2 62t-11.5 36t-29.5 19t-56 11v18h335v-18q-36 -5 -56 -11t-29.5 -19t-11.5 -36t-2 -62v-433z" />
    <glyph glyph-name="I" unicode="I" horiz-adv-x="407" 
d="M272 146q0 -39 2 -62t11.5 -36t29.5 -19.5t56 -10.5v-18h-335v18q36 4 56 10.5t29.5 19.5t11.5 36t2 62v433q0 39 -2 62t-11.5 36t-29.5 19t-56 11v18h335v-18q-36 -5 -56 -11t-29.5 -19t-11.5 -36t-2 -62v-433z" />
    <glyph glyph-name="J" unicode="J" horiz-adv-x="454" 
d="M203 579q0 39 -2 62t-11.5 36t-29.5 19t-56 11v18h335v-18q-36 -5 -56 -11t-29.5 -19t-11.5 -36t-2 -62v-346q0 -75 -18.5 -123t-48 -75t-67 -37.5t-75.5 -10.5q-28 0 -63 4t-55 10v157h11q10 -18 23.5 -41t29.5 -44t33.5 -35t34.5 -14q12 0 22.5 5t18.5 24.5t12.5 59.5
t4.5 111v355v0z" />
    <glyph glyph-name="K" unicode="K" horiz-adv-x="800" 
d="M272 146q0 -39 2 -62t11.5 -36t29.5 -19.5t56 -10.5v-18h-335v18q36 4 56 10.5t29.5 19.5t11.5 36t2 62v433q0 39 -2 62t-11.5 36t-29.5 19t-56 11v18h335v-18q-36 -5 -56 -11t-29.5 -19t-11.5 -36t-2 -62v-433zM496 573q37 34 58.5 58.5t24 40t-14.5 24t-57 11.5v18h247
v-18q-25 -3 -43.5 -10t-39.5 -21.5t-48.5 -38.5t-69.5 -63l-160 -148l264 -303q22 -26 38.5 -45t31.5 -31.5t31 -19t39 -9.5v-18h-322v18q50 4 54.5 23.5t-21.5 50.5l-235 274z" />
    <glyph glyph-name="L" unicode="L" horiz-adv-x="651" 
d="M36 18q36 4 56 10.5t29.5 19.5t11.5 36t2 62v433q0 39 -2 62t-11.5 36t-29.5 19t-56 11v18h335v-18q-36 -5 -56 -11t-29.5 -19t-11.5 -36t-2 -62v-503q0 -25 9 -33t32 -8h31q68 0 113 9.5t76 34t52.5 66t41.5 105.5h20l-32 -251q-18 0 -46.5 0.5t-59 0.5h-57.5h-42h-374
v18z" />
    <glyph glyph-name="M" unicode="M" horiz-adv-x="1004" 
d="M968 707q-36 -5 -56 -11t-29.5 -19t-11.5 -36t-2 -62v-433q0 -39 2 -62t11.5 -36t29.5 -19.5t56 -10.5v-18h-335v18q36 4 56 10.5t29.5 19.5t11.5 36t2 62v483l-252 -601h-30l-268 616v-498q0 -39 2 -62t11.5 -36t29.5 -19.5t56 -10.5v-18h-245v18q36 4 56 10.5
t29.5 19.5t11.5 36t2 62v433q0 39 -2 62t-11.5 36t-29.5 19t-56 11v18h263l211 -492l207 492h251v-18z" />
    <glyph glyph-name="N" unicode="N" horiz-adv-x="803" 
d="M642 579q0 39 -2 62t-11.5 36t-29.5 19t-56 11v18h245v-18q-36 -5 -56 -11t-29.5 -19t-11.5 -36t-2 -62v-579h-84l-426 551v-405q0 -39 2 -62t11.5 -36t29.5 -19.5t56 -10.5v-18h-245v18q36 4 56 10.5t29.5 19.5t11.5 36t2 62v466l-17 22q-26 35 -43.5 51.5t-38.5 24.5
v15h186l423 -544v398v0z" />
    <glyph glyph-name="O" unicode="O" horiz-adv-x="862" 
d="M50 366q0 93 32 163.5t85 118.5t121.5 72.5t142.5 24.5q73 0 142 -24.5t122 -72.5t85 -118.5t32 -163.5t-32 -163.5t-85 -118.5t-122 -72.5t-142 -24.5q-74 0 -142.5 24.5t-121.5 72.5t-85 118.5t-32 163.5zM659 366q0 79 -16 142.5t-46 107.5t-72 68t-94 24t-94 -24
t-72 -68t-46 -107.5t-16 -142.5t16 -142.5t46 -107.5t72 -68t94 -24t94 24t72 68t46 107.5t16 142.5z" />
    <glyph glyph-name="P" unicode="P" horiz-adv-x="693" 
d="M531 518q0 48 -13 80.5t-37.5 53t-59 29.5t-77.5 9h-72v-344h72q43 0 77.5 9t59 29.5t37.5 53t13 80.5zM36 18q36 4 56 10.5t29.5 19.5t11.5 36t2 62v433q0 39 -2 62t-11.5 36t-29.5 19t-56 11v18h128h46t56.5 0.5t52.5 0.5h36q69 0 129 -10.5t104.5 -35t69.5 -64.5
t25 -98q0 -59 -25 -98.5t-69.5 -64t-104.5 -35t-129 -10.5h-83v-164q0 -39 2 -62t12.5 -36t32.5 -19.5t62 -10.5v-18h-345v18z" />
    <glyph glyph-name="Q" unicode="Q" horiz-adv-x="862" 
d="M50 366q0 93 32 163.5t85 118.5t121.5 72.5t142.5 24.5q73 0 142 -24.5t122 -72.5t85 -118.5t32 -163.5q0 -85 -27.5 -152t-73.5 -114t-106.5 -75t-126.5 -35l-57 -42q-5 -3 -10 -7t-10 -7q-5 -4 -11 -8l1 -2q33 13 87 13q46 0 75.5 -9t49 -22.5t32 -29.5t26 -29.5
t31 -22.5t46.5 -9q25 0 36.5 3t20.5 7l8 -30q-6 -3 -36 -12.5t-87 -9.5t-92.5 10t-58 25.5t-36 33t-26 33t-27.5 25.5t-41 10q-25 0 -42.5 -10.5t-44.5 -27.5l-14 23l130 92q-73 1 -141.5 25.5t-121 72.5t-84 118.5t-31.5 162.5zM659 366q0 79 -16 142.5t-46 107.5t-72 68
t-94 24t-94 -24t-72 -68t-46 -107.5t-16 -142.5t16 -142.5t46 -107.5t72 -68t94 -24t94 24t72 68t46 107.5t16 142.5z" />
    <glyph glyph-name="R" unicode="R" horiz-adv-x="783" 
d="M36 18q36 4 56 10.5t29.5 19.5t11.5 36t2 62v433q0 39 -2 62t-11.5 36t-29.5 19t-56 11v18h128h44.5t53 0.5t49 0.5h34.5q69 0 129 -10t104.5 -32.5t69.5 -59t25 -89.5q0 -73 -50 -116.5t-131 -63.5l155 -240q17 -27 30 -44t26.5 -28t31 -16.5t43.5 -8.5v-18h-224
q-14 28 -36 66.5t-47 79.5l-43 67q-32 49 -50.5 78t-33.5 49h-72v-194q0 -39 2 -62t12.5 -36t32.5 -19.5t62 -10.5v-18h-345v18zM521 533q0 44 -12.5 74t-35.5 48.5t-57 26.5t-77 8h-67v-314h67q43 0 77 8t57 26.5t35.5 48.5t12.5 74z" />
    <glyph glyph-name="S" unicode="S" horiz-adv-x="628" 
d="M304 -13q-74 0 -135.5 15.5t-105.5 38.5v244h20q10 -70 29.5 -119.5t47 -81t63.5 -46t81 -14.5q33 0 62.5 8t51 24.5t34.5 41.5t13 59q0 25 -9.5 45t-27.5 36.5t-42.5 31t-54.5 28.5l-89 42q-80 38 -126.5 89t-46.5 124q0 43 19 79t53 61.5t79 40t98 14.5q27 0 57 -3.5
t59 -10t55 -16t44 -20.5v-205h-20q-21 108 -71 163t-125 55q-61 0 -99.5 -27.5t-38.5 -80.5q0 -26 8 -45.5t22 -34t32 -26t38 -20.5l106 -50q42 -20 77.5 -40.5t61.5 -46t40.5 -57t14.5 -72.5q0 -49 -22 -90t-59.5 -71t-87.5 -46.5t-106 -16.5z" />
    <glyph glyph-name="T" unicode="T" horiz-adv-x="785" 
d="M214 18q40 4 62 10.5t32.5 20t13 36.5t2.5 61v546h-25q-53 0 -91 -13.5t-67 -42t-50.5 -72t-40.5 -103.5h-20l30 267q58 -2 122.5 -2.5t116.5 -0.5h186q52 0 116.5 0.5t123.5 2.5l30 -267h-21q-18 60 -39.5 103.5t-50.5 72t-67.5 42t-90.5 13.5h-25v-546q0 -38 2.5 -61
t13 -36.5t32.5 -20t62 -10.5v-18h-357v18z" />
    <glyph glyph-name="U" unicode="U" horiz-adv-x="793" 
d="M116 578q0 39 -2 62t-11.5 36.5t-29.5 19.5t-56 11v18h335v-18q-36 -5 -56 -10.5t-29.5 -19t-11.5 -37t-2 -62.5v-289q0 -118 43.5 -181.5t145.5 -63.5q55 0 93 18.5t61 52t34 80t12 102.5v282q0 39 -2 62t-11.5 36t-29.5 19t-56 11v18h245v-18q-36 -5 -56 -11t-29.5 -19
t-11.5 -36t-2 -62v-280q0 -163 -73 -237.5t-207 -74.5q-150 0 -221.5 74t-71.5 214v303v0z" />
    <glyph glyph-name="V" unicode="V" horiz-adv-x="746" 
d="M108 609q-11 27 -19.5 45t-19 28.5t-25.5 16t-38 8.5v18h309v-18q-48 -6 -63 -22t-1 -54l176 -481l122 353q24 70 32 110t1.5 59.5t-25.5 25.5t-48 9v18h231v-18q-25 -3 -41 -9t-29 -23t-26.5 -49.5t-32.5 -88.5l-189 -537h-81z" />
    <glyph glyph-name="W" unicode="W" horiz-adv-x="1059" 
d="M1053 707q-25 -3 -42 -8.5t-31.5 -22.5t-27 -49.5t-28.5 -89.5l-150 -545h-87l-159 487l-135 -487h-87l-200 617q-9 28 -17.5 46t-19 28.5t-25.5 15.5t-38 8v18h307v-18q-49 -6 -62 -22t-2 -54l141 -463l110 401l-52 156h155l167 -557l94 343q19 69 25 107.5t0.5 57
t-22.5 23.5t-45 8v18h231v-18z" />
    <glyph glyph-name="X" unicode="X" horiz-adv-x="822" 
d="M385 308l-123 -162q-28 -38 -40.5 -61.5t-10 -37.5t18.5 -20t45 -9v-18h-262v18q26 2 49.5 9.5t47.5 24t50 43.5t57 68l141 186l-172 264q-35 53 -69.5 73t-64.5 21v18h340v-18q-59 -4 -69.5 -21.5t11.5 -51.5l111 -171l88 116q28 37 40.5 61t10.5 38t-18.5 20t-44.5 9
v18h261v-18q-26 -2 -49.5 -9.5t-47.5 -24t-50 -43.5t-56 -68l-107 -140l204 -310q35 -53 69.5 -73t63.5 -21v-18h-341v18q60 4 71 21.5t-12 51.5z" />
    <glyph glyph-name="Y" unicode="Y" horiz-adv-x="723" 
d="M419 146q0 -38 2.5 -61t13 -36.5t32.5 -20t62 -10.5v-18h-357v18q40 4 62 10.5t32.5 20t13 36.5t2.5 61v139l-183 329q-15 27 -25.5 44t-21 26.5t-23 14.5t-29.5 8v18h309v-18q-48 -6 -64 -21.5t2 -50.5l154 -290l123 218q24 42 33.5 69t6 42.5t-20 22.5t-43.5 10v18h223
v-18q-20 -3 -36 -9t-31 -19.5t-31.5 -36.5t-38.5 -60l-167 -290v-146v0z" />
    <glyph glyph-name="Z" unicode="Z" horiz-adv-x="681" 
d="M297 36q73 0 123 7.5t84.5 29t58 61t42.5 102.5h20l-25 -239q-58 2 -118 2.5t-112 0.5h-331v12l427 677h-57q-73 0 -123 -7.5t-84.5 -29t-58 -61t-42.5 -102.5h-19l24 239q58 -2 118.5 -2.5t112.5 -0.5h295v-11l-431 -678h96z" />
    <glyph glyph-name="bracketleft" unicode="[" horiz-adv-x="304" 
d="M83 772h207v-35h-89v-918h89v-35h-207v988z" />
    <glyph glyph-name="backslash" unicode="\" horiz-adv-x="400" 
d="M400 -32h-54l-346 808h57z" />
    <glyph glyph-name="bracketright" unicode="]" horiz-adv-x="304" 
d="M221 -216h-207v35h89v918h-89v35h207v-988z" />
    <glyph glyph-name="asciicircum" unicode="^" horiz-adv-x="459" 
d="M467 332h-83l-156 300l-154 -300h-82l201 393h71z" />
    <glyph glyph-name="underscore" unicode="_" horiz-adv-x="469" 
d="M23 0h423v-74h-423v74z" />
    <glyph glyph-name="grave" unicode="`" horiz-adv-x="259" 
d="M161 772l69 -169h-16l-197 169h144z" />
    <glyph glyph-name="a" unicode="a" horiz-adv-x="562" 
d="M347 74q-27 -38 -60.5 -62.5t-87.5 -24.5q-28 0 -56.5 8.5t-52 25t-38.5 41t-15 57.5q0 24 11 44t32 38t52 35t70 36q20 10 55.5 26t91.5 40v27q0 79 -22 110.5t-72 31.5q-32 0 -51 -11t-29 -29.5t-12 -44t0 -54.5h-113q0 31 18 63t48.5 57.5t72.5 41.5t90 16
q35 0 69.5 -7.5t61 -27t42.5 -52.5t15 -83l-6 -259q-1 -42 7.5 -53.5t28.5 -11.5q12 0 22.5 6t21.5 14l10 -10q-20 -25 -48 -47.5t-64 -22.5q-15 0 -31 6t-29 16.5t-22 25.5t-10 34zM347 302q-57 -23 -87 -38t-43 -23q-31 -19 -44.5 -38.5t-13.5 -48.5q0 -18 7 -35.5t20 -32
t32 -23t42 -8.5q28 0 47.5 12t36.5 35z" />
    <glyph glyph-name="b" unicode="b" horiz-adv-x="610" 
d="M89 -8h-16q2 43 3 85.5t1 85.5v480q0 35 -2 54t-10.5 28t-24.5 11t-43 3v17l209 67q-1 -40 -2 -92t-1 -129v-151q13 19 28.5 36.5t35 30.5t42.5 21t51 8q48 0 87 -22t66.5 -58.5t42 -84t14.5 -99.5q0 -66 -21.5 -120.5t-57 -93.5t-82 -60.5t-95.5 -21.5q-14 0 -32 2.5
t-38.5 9.5t-40.5 19t-36 30zM311 22q33 0 57 15.5t40 43t24 66t8 83.5q0 48 -10.5 90.5t-30.5 74t-48 50t-62 18.5q-26 0 -49 -11t-37 -30v-345q14 -24 42.5 -39.5t65.5 -15.5z" />
    <glyph glyph-name="c" unicode="c" horiz-adv-x="523" 
d="M315 547q33 0 61.5 -8t50.5 -21.5t34.5 -31.5t12.5 -39q0 -26 -18 -43.5t-49 -17.5q-13 0 -24 4t-21 21l-45 76q-7 11 -13 14.5t-18 3.5q-27 0 -51.5 -11.5t-43.5 -35.5t-30 -61t-11 -87q0 -54 14.5 -96.5t40 -71t60.5 -43.5t75 -15q32 0 68.5 13t65.5 36l12 -10
q-14 -22 -32.5 -46t-43 -44t-56 -33t-71.5 -13q-60 0 -106 20.5t-77 57t-47 86t-16 106.5q0 70 25 124t64.5 91t89 56t99.5 19z" />
    <glyph glyph-name="d" unicode="d" horiz-adv-x="621" 
d="M404 640q0 35 -2.5 54t-11.5 28t-27 11t-49 3v17l219 70q-1 -40 -2 -92t-1 -129v-434q0 -35 1.5 -54.5t8.5 -30t22 -13.5t42 -4v-17l-183 -57l-14 96q-13 -20 -29 -38t-35.5 -32t-43.5 -22.5t-52 -8.5q-48 0 -87 22t-66.5 58.5t-42 84t-14.5 99.5q0 66 21.5 120.5
t57 93.5t81.5 60.5t96 21.5q27 0 56 -7.5t55 -29.5v130zM296 512q-33 0 -57 -15.5t-40 -43t-24 -66t-8 -83.5q0 -48 10.5 -90.5t30.5 -74t47.5 -50t62.5 -18.5q26 0 49 11t37 30v345q-14 24 -42.5 39.5t-65.5 15.5z" />
    <glyph glyph-name="e" unicode="e" horiz-adv-x="545" 
d="M282 -13q-59 0 -105 20t-77 56t-47 85.5t-16 107.5q0 59 20 112t54.5 92.5t80 63t97.5 23.5q45 0 83.5 -14t67 -41t46 -67.5t20.5 -93.5h-357v-8q0 -61 15.5 -106t41.5 -74.5t61.5 -44t76.5 -14.5q51 0 89.5 16.5t62.5 41.5l12 -10q-13 -22 -33 -47.5t-47.5 -47t-64 -36
t-81.5 -14.5zM274 508q-54 0 -84.5 -37t-38.5 -100h229q-3 72 -32.5 104.5t-73.5 32.5z" />
    <glyph glyph-name="f" unicode="f" horiz-adv-x="400" 
d="M325 739q-8 11 -12.5 14t-14.5 3q-14 0 -35.5 -9.5t-36.5 -34.5t-16.5 -67t24.5 -107h163v-44h-160v-350q0 -42 2.5 -65t14 -35t34 -16.5t61.5 -7.5v-20h-318v18q30 3 46 9t23.5 19t9 36t1.5 62v350h-80v44h80v5q0 55 19.5 102t53.5 81.5t79 54.5t96 20q46 0 76.5 -23.5
t30.5 -55.5q0 -27 -18.5 -42t-41.5 -15q-12 0 -21 4t-17 15l-43 55v0z" />
    <glyph glyph-name="g" unicode="g" horiz-adv-x="620" 
d="M279 199q-37 0 -72 8q-23 -19 -36 -38t-13 -33q0 -17 16 -26t52 -11l115 -6q45 -2 86.5 -9.5t73 -22.5t50 -39t18.5 -60q0 -30 -19 -63t-57 -60.5t-95.5 -45t-134.5 -17.5q-52 0 -95 9t-74 25t-48 38t-17 48q0 37 37.5 60.5t106.5 39.5q-50 8 -75.5 31t-25.5 57
q0 38 31 70.5t75 61.5q-52 20 -81.5 60.5t-29.5 96.5q0 40 15.5 72t44 54.5t67.5 35t86 12.5q45 0 82 -11.5t65 -31.5h168v-40h-130q27 -41 27 -91q0 -40 -15.5 -72t-44 -54.5t-67.5 -35t-86 -12.5zM209 -8h-3q-40 -14 -56 -35.5t-16 -46.5q0 -22 13 -38.5t36 -28t53 -17.5
t65 -6q36 0 70 6t60.5 19t42.5 32.5t16 46.5q0 36 -37.5 48t-101.5 15zM290 232q42 0 63 30t21 87q0 30 -7.5 60t-21.5 53t-33.5 37.5t-42.5 14.5q-42 0 -63 -30t-21 -87q0 -30 7.5 -60t21.5 -53t33.5 -37.5t42.5 -14.5z" />
    <glyph glyph-name="h" unicode="h" horiz-adv-x="620" 
d="M220 449q15 19 30.5 37t34 31.5t41.5 21.5t53 8q32 0 59.5 -11t48 -34.5t32.5 -59.5t12 -85v-213q0 -39 1.5 -62t9 -36t23.5 -19t46 -9v-18h-276v18q26 3 40 9t21 19t8 36t1 62v189q0 129 -93 129q-29 0 -53.5 -10.5t-38.5 -30.5v-277q0 -39 1 -62t8 -36t21 -19t40 -9
v-18h-276v18q30 3 46 9t23.5 19t9 36t1.5 62v499q0 35 -2 54t-10.5 28t-24.5 11t-43 3v17l209 67q-1 -40 -2 -92t-1 -129v-153v0z" />
    <glyph glyph-name="i" unicode="i" horiz-adv-x="341" 
d="M237 144q0 -39 1.5 -62t9 -36t23.5 -19t46 -9v-18h-286v18q30 3 46 9t23.5 19t9 36t1.5 62v210q0 40 -2 61.5t-10.5 32t-24.5 12.5t-43 3v17l209 67q-1 -40 -2 -92t-1 -129v-182zM168 656q-34 0 -58 23.5t-24 57.5q0 33 24 56t58 23q35 0 58.5 -23t23.5 -56
q0 -34 -23.5 -57.5t-58.5 -23.5z" />
    <glyph glyph-name="j" unicode="j" horiz-adv-x="318" 
d="M104 354q0 40 -2 61.5t-10.5 32t-24.5 12.5t-43 3v17l209 67q-1 -40 -2 -92t-1 -129v-226q0 -62 -11 -111t-36.5 -89t-67.5 -73.5t-103 -64.5l-9 12q33 35 53 71.5t30.5 74.5t14 78.5t3.5 84.5v271zM160 656q-34 0 -58 23.5t-24 57.5q0 33 24 56t58 23q35 0 58.5 -23
t23.5 -56q0 -34 -23.5 -57.5t-58.5 -23.5z" />
    <glyph glyph-name="k" unicode="k" horiz-adv-x="647" 
d="M94 643q0 35 -2 54t-10.5 28t-24.5 11t-43 3v17l209 67q-1 -40 -2 -92t-1 -129v-458q0 -39 1.5 -62t9 -36t23.5 -19t46 -9v-18h-286v18q30 3 46 9t23.5 19t9 36t1.5 62v499zM360 18q50 3 54.5 16.5t-26.5 51.5l-166 203l169 144q18 16 32 31.5t17 27.5t-8.5 20t-43.5 8
v18h225v-18q-24 0 -43.5 -5t-39 -15.5t-40.5 -26.5t-46 -38l-110 -93l215 -268q23 -28 45 -41.5t55 -14.5v-18h-289v18z" />
    <glyph glyph-name="l" unicode="l" horiz-adv-x="340" 
d="M113 643q0 35 -2 54t-10.5 28t-24.5 11t-43 3v17l209 67q-1 -40 -2 -92t-1 -129v-458q0 -39 1.5 -62t9 -36t23.5 -19t46 -9v-18h-286v18q30 3 46 9t23.5 19t9 36t1.5 62v499v0z" />
    <glyph glyph-name="m" unicode="m" horiz-adv-x="930" 
d="M15 480l205 67v-99q15 19 30.5 37t34 31.5t42 22t53.5 8.5q48 0 85.5 -25.5t54.5 -80.5q28 43 70.5 74.5t101.5 31.5q31 0 59 -11t48 -34.5t32 -59.5t12 -85v-213q0 -39 1.5 -62t9 -36t23.5 -19t46 -9v-18h-276v18q26 3 40 9t21 19t8 36t1 62v189q0 129 -92 129
q-27 0 -54.5 -10.5t-44.5 -33.5q2 -14 4 -29t2 -32v-213q0 -39 1.5 -62t9 -36t23.5 -19t46 -9v-18h-276v18q26 3 40 9t21 19t8 36t1 62v189q0 129 -93 129q-29 0 -53.5 -10.5t-38.5 -30.5v-277q0 -39 1 -62t8 -36t21 -19t40 -9v-18h-276v18q30 3 46 9t23.5 19t9 36t1.5 62
v223q0 35 -2 54t-10.5 28t-24.5 11t-43 3v17z" />
    <glyph glyph-name="n" unicode="n" horiz-adv-x="619" 
d="M15 480l205 67v-99q15 19 30.5 37t34 31.5t42 22t53.5 8.5q32 0 59.5 -11t48 -34.5t32.5 -59.5t12 -85v-213q0 -39 1.5 -62t9 -36t23.5 -19t46 -9v-18h-276v18q26 3 40 9t21 19t8 36t1 62v189q0 129 -93 129q-29 0 -53.5 -10.5t-38.5 -30.5v-277q0 -39 1 -62t8 -36
t21 -19t40 -9v-18h-276v18q30 3 46 9t23.5 19t9 36t1.5 62v223q0 35 -2 54t-10.5 28t-24.5 11t-43 3v17z" />
    <glyph glyph-name="o" unicode="o" horiz-adv-x="622" 
d="M298 511q-34 0 -58 -16t-39.5 -44t-22.5 -66t-7 -82q0 -36 7.5 -84.5t25 -92t47 -73.5t73.5 -30q33 0 57 16.5t39 45.5t22 67t7 82q0 35 -7.5 83t-24.5 91t-46.5 73t-72.5 30zM307 547q56 0 106 -21t87.5 -58t59.5 -88t22 -112q0 -57 -20.5 -108t-56.5 -89.5t-85.5 -61
t-107.5 -22.5q-57 0 -107 21t-87.5 58.5t-59 89.5t-21.5 114q0 55 20 105.5t56 88.5t85.5 60.5t108.5 22.5z" />
    <glyph glyph-name="p" unicode="p" horiz-adv-x="619" 
d="M6 -198q30 3 46 9t23.5 19t9 36t1.5 62v438q0 35 -2 54t-10.5 28.5t-24.5 11.5t-43 3v17l203 67v-101q13 20 29 38t35.5 32t43 22.5t52.5 8.5q48 0 87 -22t66.5 -58.5t42 -84t14.5 -99.5q0 -66 -21.5 -120.5t-57 -93.5t-82 -60.5t-95.5 -21.5q-27 0 -56 7.5t-55 29.5v-96
q0 -39 1.5 -62t11 -36t30 -19t57.5 -9v-18h-306v18zM320 22q33 0 57 15.5t40 43t24 66t8 83.5q0 48 -10.5 90.5t-30.5 74t-48 50t-62 18.5q-26 0 -49 -11t-37 -30v-345q14 -24 42.5 -39.5t65.5 -15.5z" />
    <glyph glyph-name="q" unicode="q" horiz-adv-x="611" 
d="M304 -198q37 3 57.5 9t30 19t11 36t1.5 62v155q-13 -19 -28.5 -36.5t-35 -30.5t-42.5 -21t-51 -8q-48 0 -87 22t-66.5 58.5t-42 84t-14.5 99.5q0 66 21.5 120.5t57 93.5t81.5 60.5t96 21.5q27 0 56 -7.5t55 -29.5l128 33q-1 -20 -1.5 -42t-0.5 -49v-61v-77v-386
q0 -39 1.5 -62t9 -36t23.5 -19t46 -9v-18h-306v18zM296 512q-33 0 -57 -15.5t-40 -43t-24 -66t-8 -83.5q0 -48 10.5 -90.5t30.5 -74t47.5 -50t62.5 -18.5q26 0 49 11t37 30v345q-14 24 -42.5 39.5t-65.5 15.5z" />
    <glyph glyph-name="r" unicode="r" horiz-adv-x="467" 
d="M17 18q30 3 46 9t23.5 19t9 36t1.5 62v222q0 35 -2 54t-10.5 28.5t-24.5 11.5t-43 3v17l204 67l2 -115q14 18 30.5 38t35 37.5t40.5 28.5t46 11q35 0 58.5 -19.5t23.5 -55.5q0 -29 -21.5 -51t-55.5 -22q-13 0 -20.5 4t-18.5 16l-32 37q-8 9 -14 9q-11 0 -31.5 -18
t-40.5 -44v-259q0 -42 2.5 -65t14 -35t34 -16.5t61.5 -7.5v-20h-318v18z" />
    <glyph glyph-name="s" unicode="s" horiz-adv-x="482" 
d="M252 546q32 0 69.5 -6.5t63.5 -17.5l5 -162h-19q-17 75 -53 111.5t-81 36.5q-38 0 -63 -17t-25 -47q0 -29 20.5 -49t52.5 -38l55 -31q34 -20 61 -37.5t46 -37t28.5 -43t9.5 -54.5q0 -41 -18 -72t-46.5 -52t-64.5 -32t-73 -11q-18 0 -39.5 2.5t-43 7t-42 11t-36.5 14.5
v189h19q15 -96 52.5 -139t92.5 -43q20 0 38.5 4.5t32.5 14.5t22 25.5t8 36.5q0 29 -21 50t-58 42l-53 29q-27 15 -51 31t-42 35.5t-28.5 43t-10.5 55.5q0 39 17.5 67t45 46.5t62 27.5t67.5 9z" />
    <glyph glyph-name="t" unicode="t" horiz-adv-x="365" 
d="M213 -13q-31 0 -55 8.5t-40.5 27.5t-25 50t-8.5 76v345h-85v44h87v77l124 94v-171h131v-44h-131v-324q0 -29 1.5 -50t8 -34.5t19 -19.5t35.5 -6q20 0 39 7t42 24l10 -9l-28 -34t-31.5 -30.5t-40 -22t-52.5 -8.5z" />
    <glyph glyph-name="u" unicode="u" horiz-adv-x="600" 
d="M505 168q0 -35 1.5 -54.5t8.5 -30t22 -13.5t42 -4v-17l-184 -57l-14 99q-10 -20 -24.5 -38.5t-33 -33t-42.5 -23.5t-53 -9q-32 0 -60.5 10.5t-49.5 34t-33 61t-12 90.5v43.5t0.5 62t0.5 62v43.5q0 29 -1 48t-8 30t-22 16t-43 7v17l202 27q-1 -39 -2 -85.5t-1 -116.5v-131
q0 -68 20 -103t66 -35q58 0 94 52v274q0 29 -1 48t-8 30t-22 16t-43 7v17l203 27q-1 -39 -2 -86.5t-1 -118.5v-166v0z" />
    <glyph glyph-name="v" unicode="v" horiz-adv-x="574" 
d="M250 -8l-182 461q-7 16 -12.5 28.5t-13 20.5t-17.5 12.5t-25 6.5v17h265v-17q-27 -1 -41.5 -7t-19 -16t-1.5 -24.5t10 -32.5l110 -298l99 248q15 35 22 59t4 39t-16 22.5t-39 9.5v17h181v-17q-19 -2 -31.5 -7t-22.5 -16t-18.5 -29t-18.5 -44l-177 -433h-56z" />
    <glyph glyph-name="w" unicode="w" horiz-adv-x="809" 
d="M401 368l-121 -376h-63l-150 461q-11 33 -23.5 48.5t-43.5 18.5v18h263v-18q-28 -2 -42 -7.5t-18.5 -15t-2 -23.5t8.5 -33l82 -279l118 376h66l114 -378l73 233q12 38 16.5 62t0.5 38t-16.5 19.5t-34.5 7.5v18h181v-18q-19 -2 -31.5 -6.5t-22 -15t-17.5 -28t-17 -44.5
l-139 -434h-64z" />
    <glyph glyph-name="x" unicode="x" horiz-adv-x="638" 
d="M264 248l-145 212q-20 29 -38 42t-44 18v18h263v-18q-23 -3 -34 -7t-13.5 -12t4 -20.5t19.5 -32.5l67 -99l48 62q22 29 34.5 48.5t13 32t-12.5 19t-41 9.5v18h208v-18q-22 -2 -41 -10t-38 -23t-39.5 -38.5t-46.5 -56.5l-61 -78l162 -236q20 -29 38 -42t44 -18v-18h-263
v18q45 5 48 19t-24 53l-84 122l-66 -85q-23 -29 -35 -48.5t-12.5 -32t12.5 -19t41 -9.5v-18h-208v18q22 2 41 10t38 23t39.5 38.5t46.5 56.5z" />
    <glyph glyph-name="y" unicode="y" horiz-adv-x="587" 
d="M152 -222q-34 0 -56.5 17t-22.5 49q0 21 13 40t36 19q5 0 11 -2t17 -11l51 -45q12 20 24.5 46t23.5 52l21 51l-202 460q-6 15 -11.5 26.5t-12.5 20t-17.5 13.5t-26.5 6v18h278v-18q-27 -1 -42.5 -6.5t-21.5 -15.5t-4 -24t9 -32l116 -296l98 245q13 33 19.5 56t3.5 38
t-17 23.5t-41 11.5v18h189v-18q-20 -2 -32.5 -7.5t-21.5 -16t-17 -27.5t-19 -44l-199 -489q-14 -35 -27.5 -64t-30 -50t-37.5 -32.5t-51 -11.5z" />
    <glyph glyph-name="z" unicode="z" horiz-adv-x="565" 
d="M41 0v9l317 490h-78q-46 0 -77 -3.5t-50.5 -18.5t-30.5 -45t-18 -82h-22v188h429v-10l-314 -489h112q44 0 72.5 5t47 20.5t29 45t18.5 78.5h21v-188h-456z" />
    <glyph glyph-name="braceleft" unicode="{" horiz-adv-x="346" 
d="M277 -216q-49 0 -82 6.5t-53 20.5t-28.5 37.5t-8.5 58.5v239q0 20 -2.5 41t-11 37.5t-24 27t-42.5 10.5v36q27 0 42.5 10.5t24 27t11 37t2.5 40.5v236q0 34 8.5 57.5t28.5 38t53 21t82 6.5h44v-35h-13q-26 0 -42 -5t-24.5 -15.5t-11.5 -26.5t-3 -37v-230q0 -36 -9 -61
t-25 -41t-38 -25.5t-47 -14.5v-3q25 -5 47 -14t38 -25t25 -40.5t9 -60.5v-235q0 -21 3 -37t11.5 -26.5t24.5 -15.5t42 -5h13v-35h-44v0z" />
    <glyph glyph-name="bar" unicode="|" horiz-adv-x="241" 
d="M84 -90v815h73v-815h-73z" />
    <glyph glyph-name="braceright" unicode="}" horiz-adv-x="346" 
d="M119 138q0 36 9 60.5t24.5 40.5t37.5 25t48 14v3q-26 5 -48 14.5t-37.5 25.5t-24.5 41t-9 61v230q0 21 -3 37t-11.5 26.5t-24.5 15.5t-42 5h-13v35h44q49 0 82 -6.5t53 -21t28.5 -38t8.5 -57.5v-240q0 -20 2.5 -40t11 -35.5t24 -25.5t42.5 -10v-36q-27 0 -42.5 -10
t-24 -26t-11 -36t-2.5 -40v-243q0 -35 -8.5 -58.5t-28.5 -37.5t-53 -20.5t-82 -6.5h-44v35h13q26 0 42 5t24.5 15.5t11.5 26.5t3 37v235z" />
    <glyph glyph-name="asciitilde" unicode="~" 
d="M454 273q28 0 48 18t22 55h72q-4 -66 -43 -103t-99 -37q-31 0 -61 11.5t-58.5 25.5t-56 25.5t-53.5 11.5q-28 0 -48 -18t-22 -56h-73q4 67 42.5 103.5t100.5 36.5q36 0 67.5 -11.5t60 -25t53.5 -25t48 -11.5z" />
    <glyph glyph-name="uni00A0" unicode="&#xa0;" horiz-adv-x="250" 
 />
    <glyph glyph-name="exclamdown" unicode="&#xa1;" horiz-adv-x="422" 
d="M138 31l62 291h20l61 -290v-222q0 -17 -22.5 -25.5t-49 -8.5t-49 8.5t-22.5 25.5v221zM130 467q0 33 23.5 56.5t56.5 23.5q35 0 58.5 -23.5t23.5 -56.5q0 -34 -23.5 -57.5t-58.5 -23.5q-33 0 -56.5 23.5t-23.5 57.5z" />
    <glyph glyph-name="cent" unicode="&#xa2;" horiz-adv-x="586" 
d="M277 -12q-54 4 -98 26t-75.5 58t-48.5 85t-17 108t17 108.5t48.5 85.5t75.5 57.5t98 26.5v88h46v-88q41 -2 78 -14t67 -34.5t50.5 -55t28.5 -76.5h-118q-5 66 -32.5 102.5t-73.5 41.5v-483q48 5 75.5 41t31.5 104h118q-8 -45 -28.5 -78t-50.5 -55t-67.5 -34t-78.5 -14
v-90h-46v90zM167 265q0 -49 6 -90t19 -72t34 -51t51 -26v478q-60 -13 -85 -76.5t-25 -162.5z" />
    <glyph glyph-name="sterling" unicode="&#xa3;" horiz-adv-x="666" 
d="M358 706q-68 0 -102.5 -37.5t-34.5 -104.5q0 -48 16 -85t33 -72h197v-47h-175q16 -38 16 -76q0 -32 -17 -58.5t-42 -48.5t-53.5 -38.5t-50.5 -29.5l1 -2q29 12 61.5 20.5t55.5 8.5q30 0 51.5 -7t41.5 -15t41.5 -15t50.5 -7q35 0 68 9t62 22l38 -102q-12 -6 -31 -12.5
t-41 -12t-45 -8.5t-44 -3q-33 0 -59 6t-50.5 13.5t-49.5 14t-55 6.5q-43 0 -87.5 -12t-86.5 -30l-33 95q28 11 54 25.5t46.5 36.5t32.5 52.5t12 73.5q0 26 -6 49t-15 45h-123v47h101q-17 33 -31 67t-14 75q0 47 20.5 83t56 60.5t84 37t104.5 12.5q57 0 104.5 -13.5t82.5 -39
t56.5 -63t26.5 -84.5h-129q0 33 -6.5 63t-23 52.5t-43.5 35.5t-66 13z" />
    <glyph glyph-name="currency" unicode="&#xa4;" horiz-adv-x="645" 
d="M80 352q0 40 12 76.5t34 66.5l-69 71l46 44l68 -68q31 25 69 38.5t80 13.5q44 0 82.5 -14t70.5 -40l70 70l46 -44l-72 -73q22 -30 34 -65.5t12 -75.5t-12.5 -76t-34.5 -66l73 -72l-46 -45l-72 70q-31 -25 -69.5 -38.5t-81.5 -13.5q-42 0 -79.5 13.5t-68.5 37.5l-69 -69
l-46 45l70 71q-23 30 -35 66t-12 77zM151 352q0 -38 12.5 -70t35 -56t53 -37.5t67.5 -13.5q39 0 71 13.5t55 37.5t36 56t13 70t-13 71t-36 57t-55 38t-71 14q-37 0 -67.5 -14t-53 -38t-35 -57t-12.5 -71z" />
    <glyph glyph-name="yen" unicode="&#xa5;" horiz-adv-x="699" 
d="M279 142h-176v45h176v75h-176v44h165l-167 312q-14 26 -23 42.5t-18 26t-20.5 14.5t-29.5 8v16h294v-16q-48 -6 -65 -19.5t1 -49.5l149 -295l94 173q33 60 44.5 96.5t7.5 56.5t-21 27.5t-41 10.5v16h217v-16q-21 -4 -37 -12t-32 -26.5t-35.5 -50.5t-47.5 -83l-124 -231
h175v-44h-186v-75h186v-45h-186v-4q0 -39 2.5 -61t13 -34.5t31 -17.5t55.5 -9v-16h-329v16q36 4 56.5 9t31 17.5t13 34.5t2.5 61v4z" />
    <glyph glyph-name="brokenbar" unicode="&#xa6;" horiz-adv-x="241" 
d="M157 725v-305h-73v305h73zM157 215v-305h-73v305h73z" />
    <glyph glyph-name="section" unicode="&#xa7;" horiz-adv-x="629" 
d="M315 -186q53 0 83 27t30 67q0 38 -22.5 65t-76.5 55l-145 75q-33 17 -60 35.5t-46.5 40t-30 47t-10.5 56.5q0 30 12.5 54.5t33 44t48 34t57.5 24.5q-43 29 -70 66.5t-27 86.5q0 37 18.5 65.5t48.5 47t68 28t77 9.5q108 0 170 -46.5t74 -131.5h-120q0 26 -7 51.5t-22 45.5
t-38.5 32.5t-56.5 12.5q-45 0 -76 -23t-31 -61q0 -31 22.5 -56.5t68.5 -49.5l151 -77q33 -17 61 -35t47.5 -39t30.5 -45t11 -54q0 -33 -12 -59t-33 -46t-48.5 -35t-58.5 -26q48 -32 73.5 -69.5t25.5 -82.5q0 -42 -18.5 -74t-49 -53t-69.5 -32t-81 -11q-112 0 -178.5 53
t-77.5 141h121q1 -33 9 -61.5t24.5 -50t41.5 -34t58 -12.5zM223 418q-31 -14 -53.5 -39.5t-22.5 -61.5q0 -40 29 -66t70 -48l137 -72q5 -3 9.5 -5.5t9.5 -4.5q32 14 54.5 39.5t22.5 61.5q0 38 -32 67t-77 53l-135 70z" />
    <glyph glyph-name="dieresis" unicode="&#xa8;" horiz-adv-x="395" 
d="M17 705q0 29 19.5 48t48.5 19q28 0 47.5 -19t19.5 -48q0 -30 -19.5 -49.5t-47.5 -19.5q-29 0 -48.5 19.5t-19.5 49.5zM240 705q0 29 20 48t49 19q28 0 47.5 -19t19.5 -48q0 -30 -19.5 -49.5t-47.5 -19.5q-29 0 -49 19.5t-20 49.5z" />
    <glyph glyph-name="copyright" unicode="&#xa9;" horiz-adv-x="837" 
d="M44 361q0 83 29.5 152.5t80.5 119t119.5 77t146.5 27.5q77 0 145 -27.5t119 -77t80.5 -119t29.5 -152.5t-29.5 -152t-80.5 -118.5t-119 -76.5t-145 -27q-78 0 -146.5 27t-119.5 76.5t-80.5 118.5t-29.5 152zM111 361q0 -70 24 -128t65.5 -99.5t98 -64.5t121.5 -23
q66 0 122 23t97.5 64.5t65 99.5t23.5 128q0 71 -23.5 129t-65 99.5t-97.5 64.5t-122 23q-65 0 -121.5 -23t-98 -64.5t-65.5 -99.5t-24 -129zM416 216q36 0 68 18.5t44 60.5l64 -19q-8 -24 -22.5 -45t-36.5 -37.5t-51 -26t-66 -9.5q-88 0 -136.5 55.5t-48.5 153.5
q0 97 51.5 150.5t138.5 53.5q71 0 112.5 -35t55.5 -88l-63 -20q-11 42 -41 63.5t-69 21.5q-23 0 -44.5 -9t-37.5 -27t-25.5 -45.5t-9.5 -64.5t9.5 -65t25.5 -47t37.5 -29t44.5 -10z" />
    <glyph glyph-name="ordfeminine" unicode="&#xaa;" horiz-adv-x="317" 
d="M268 519q-1 -28 4.5 -36.5t13.5 -8.5q14 0 25 14l7 -6q-13 -20 -29.5 -35t-42.5 -15q-22 0 -41 12.5t-21 47.5q-11 -23 -31 -42t-56 -19q-37 0 -60.5 22.5t-23.5 52.5q0 32 21.5 51.5t60.5 35.5q16 7 35.5 13.5t51.5 16.5l1 19q1 42 -9 61t-37 19q-49 0 -45 -80h-71
q3 25 15 45t30.5 33t41.5 20t48 7q22 0 42.5 -6t37 -19t26 -33.5t8.5 -50.5zM143 487q25 0 37 16l2 94q-23 -4 -39.5 -9.5t-27.5 -13.5q-21 -14 -21 -40q0 -22 14.5 -34.5t34.5 -12.5z" />
    <glyph glyph-name="guillemotleft" unicode="&#xab;" horiz-adv-x="575" 
d="M246 273l212 234h49l-125 -234l125 -235h-49zM33 273l212 234h49l-125 -234l125 -235h-49z" />
    <glyph glyph-name="logicalnot" unicode="&#xac;" 
d="M53 361v76h530v-338h-81v262h-449z" />
    <glyph glyph-name="uni00AD" unicode="&#xad;" horiz-adv-x="371" 
d="M50 320h271v-90h-271v90z" />
    <glyph glyph-name="registered" unicode="&#xae;" horiz-adv-x="837" 
d="M44 361q0 83 29.5 152.5t80.5 119t119.5 77t146.5 27.5q77 0 145 -27.5t119 -77t80.5 -119t29.5 -152.5t-29.5 -152t-80.5 -118.5t-119 -76.5t-145 -27q-78 0 -146.5 27t-119.5 76.5t-80.5 118.5t-29.5 152zM111 361q0 -70 24 -128t65.5 -99.5t98 -64.5t121.5 -23
q66 0 122 23t97.5 64.5t65 99.5t23.5 128q0 71 -23.5 129t-65 99.5t-97.5 64.5t-122 23q-65 0 -121.5 -23t-98 -64.5t-65.5 -99.5t-24 -129zM444 331q-5 -1 -10.5 -1h-10.5h-80v-155h-66v397h121q43 0 77.5 -4.5t58.5 -17.5t37 -36.5t13 -61.5q0 -34 -18 -62t-56 -45
l91 -170h-75zM515 451q0 37 -27.5 49t-71.5 12h-73v-124h78q50 0 72 15.5t22 47.5z" />
    <glyph glyph-name="macron" unicode="&#xaf;" horiz-adv-x="340" 
d="M22 665v68h296v-68h-296z" />
    <glyph glyph-name="degree" unicode="&#xb0;" horiz-adv-x="342" 
d="M22 589q0 31 11.5 58.5t32 47.5t47.5 31.5t57 11.5q31 0 58.5 -11.5t47.5 -31.5t32 -47.5t12 -58.5t-12 -58t-32 -47.5t-47.5 -32t-58.5 -11.5q-30 0 -57 11.5t-47.5 32t-32 47.5t-11.5 58zM91 589q0 -37 21.5 -62.5t57.5 -25.5q38 0 60 25.5t22 62.5t-22 62.5t-60 25.5
q-36 0 -57.5 -25.5t-21.5 -62.5z" />
    <glyph glyph-name="plusminus" unicode="&#xb1;" 
d="M299 539h80v-168h230v-75h-230v-172h-80v172h-230v75h230v168zM69 0v75h540v-75h-540z" />
    <glyph glyph-name="twosuperior" unicode="&#xb2;" horiz-adv-x="341" 
d="M291 751q0 -23 -9 -43.5t-23.5 -40t-33.5 -37.5t-39 -36l-85 -74h193v-82h-295v7q45 44 81.5 81.5t63 71.5t41 66.5t14.5 68.5q0 35 -20 53.5t-52 18.5q-35 0 -56.5 -17t-29.5 -48h-18q11 56 47 86t98 30q25 0 47.5 -7t39 -20t26.5 -33t10 -45z" />
    <glyph glyph-name="threesuperior" unicode="&#xb3;" horiz-adv-x="351" 
d="M136 432q-29 0 -56 5t-45 12v102h10q14 -44 39.5 -69.5t58.5 -25.5q35 0 57 22t22 55q0 13 -5 29.5t-17 32t-32.5 28t-52.5 17.5v12l12 6q41 18 56.5 46t15.5 48q0 26 -17.5 39t-45.5 14q-32 0 -54 -17t-30 -48h-18q9 56 48 86t97 30q19 0 39 -4.5t35.5 -14.5t25.5 -24.5
t10 -33.5q0 -18 -9.5 -32.5t-22.5 -25.5t-28 -18.5t-25 -11.5v-2q46 -14 77.5 -46.5t31.5 -78.5q0 -32 -15 -56.5t-40 -41.5t-57 -25.5t-65 -8.5z" />
    <glyph glyph-name="acute" unicode="&#xb4;" horiz-adv-x="259" 
d="M230 772l-197 -169h-16l69 169h144z" />
    <glyph glyph-name="mu" unicode="&#xb5;" horiz-adv-x="572" 
d="M64 -189q7 29 8.5 64.5t1.5 92.5v570h74v-297q0 -96 34.5 -143t99.5 -47q66 0 103 51t37 145v291h74v-538h-74v83q-21 -47 -57 -71.5t-82 -24.5q-95 0 -135 86v-96q0 -62 -2.5 -99.5t-8.5 -66.5h-73v0z" />
    <glyph glyph-name="mu" unicode="&#x3bc;" horiz-adv-x="572" 
d="M64 -189q7 29 8.5 64.5t1.5 92.5v570h74v-297q0 -96 34.5 -143t99.5 -47q66 0 103 51t37 145v291h74v-538h-74v83q-21 -47 -57 -71.5t-82 -24.5q-95 0 -135 86v-96q0 -62 -2.5 -99.5t-8.5 -66.5h-73v0z" />
    <glyph glyph-name="paragraph" unicode="&#xb6;" horiz-adv-x="542" 
d="M13 534q0 89 60.5 140t184.5 51h188v-815h-67v751h-119v-751h-68v445q-33 4 -65.5 16t-57.5 34t-40.5 54t-15.5 75z" />
    <glyph glyph-name="periodcentered" unicode="&#xb7;" horiz-adv-x="352" 
d="M95 280q0 33 23.5 56.5t56.5 23.5q35 0 58.5 -23.5t23.5 -56.5q0 -34 -23.5 -57.5t-58.5 -23.5q-33 0 -56.5 23.5t-23.5 57.5z" />
    <glyph glyph-name="cedilla" unicode="&#xb8;" horiz-adv-x="255" 
d="M125 3h37l-51 -86q11 5 22 7t20 2q35 0 57.5 -21t22.5 -50q0 -25 -11 -43t-28 -29t-37.5 -16.5t-39.5 -5.5q-32 0 -54.5 8.5t-39.5 18.5l11 26q13 -6 30.5 -10t33.5 -4q26 0 44.5 11t18.5 34q0 17 -11 27t-26.5 13.5t-32.5 0.5t-30 -10l-9 5z" />
    <glyph glyph-name="onesuperior" unicode="&#xb9;" horiz-adv-x="290" 
d="M199 514q0 -21 1.5 -33t5.5 -19t12 -9.5t21 -4.5v-10h-188v10q19 1 30 4.5t16.5 11t7 21t1.5 35.5v267h-74v11q44 5 85 17.5t70 38.5h12v-340z" />
    <glyph glyph-name="ordmasculine" unicode="&#xba;" horiz-adv-x="352" 
d="M176 746q33 0 62 -12t50 -33t33 -50t12 -63q0 -30 -11 -58.5t-31.5 -50.5t-49.5 -35t-65 -13q-35 0 -63.5 12t-49 33.5t-32 51t-11.5 64.5q0 28 11 56t31.5 49.5t49.5 35t64 13.5zM171 726q-17 0 -27.5 -10.5t-16.5 -27t-8 -37.5t-2 -42q0 -20 2.5 -47.5t9.5 -52t20 -42
t34 -17.5q16 0 26.5 11.5t16.5 29t8 39t2 41.5q0 19 -2.5 45.5t-9 51t-19.5 41.5t-34 17z" />
    <glyph glyph-name="guillemotright" unicode="&#xbb;" horiz-adv-x="575" 
d="M330 38h-49l124 235l-124 234h49l213 -234zM117 38h-49l124 235l-124 234h49l213 -234z" />
    <glyph glyph-name="onequarter" unicode="&#xbc;" horiz-adv-x="945" 
d="M199 393q0 -21 1.5 -33t5.5 -19t12 -9.5t21 -4.5v-10h-188v10q19 1 30 4.5t16.5 11t7 21t1.5 35.5v267h-74v11q44 5 85 17.5t70 38.5h12v-340zM141 0l508 725h70l-508 -725h-70zM762 0v92h-172v68l181 248h83v-241h62v-75h-62v-92h-92zM762 350l-134 -183h134v183z" />
    <glyph glyph-name="onehalf" unicode="&#xbd;" horiz-adv-x="911" 
d="M199 393q0 -21 1.5 -33t5.5 -19t12 -9.5t21 -4.5v-10h-188v10q19 1 30 4.5t16.5 11t7 21t1.5 35.5v267h-74v11q44 5 85 17.5t70 38.5h12v-340zM141 0l508 725h70l-508 -725h-70zM861 313q0 -23 -9 -43.5t-23.5 -40t-33.5 -37.5t-39 -36l-85 -74h193v-82h-295v7
q45 44 81.5 81.5t63 71.5t41 66.5t14.5 68.5q0 35 -20 53.5t-52 18.5q-35 0 -56.5 -17t-29.5 -48h-18q11 56 47 86t98 30q25 0 47.5 -7t39 -20t26.5 -33t10 -45z" />
    <glyph glyph-name="threequarters" unicode="&#xbe;" horiz-adv-x="1006" 
d="M136 311q-29 0 -56 5t-45 12v102h10q14 -44 39.5 -69.5t58.5 -25.5q35 0 57 22t22 55q0 13 -5 29.5t-17 32t-32.5 28t-52.5 17.5v12l12 6q41 18 56.5 46t15.5 48q0 26 -17.5 39t-45.5 14q-32 0 -54 -17t-30 -48h-18q9 56 48 86t97 30q19 0 39 -4.5t35.5 -14.5t25.5 -24.5
t10 -33.5q0 -18 -9.5 -32.5t-22.5 -25.5t-28 -18.5t-25 -11.5v-2q46 -14 77.5 -46.5t31.5 -78.5q0 -32 -15 -56.5t-40 -41.5t-57 -25.5t-65 -8.5zM202 0l508 725h70l-508 -725h-70zM823 0v92h-172v68l181 248h83v-241h62v-75h-62v-92h-92zM823 350l-134 -183h134v183z" />
    <glyph glyph-name="questiondown" unicode="&#xbf;" horiz-adv-x="623" 
d="M350 -183q33 0 58 13t43.5 36.5t32 56t24.5 70.5h20v-181q-31 -13 -79.5 -24.5t-105.5 -11.5q-114 0 -178.5 38.5t-64.5 117.5q0 48 19.5 81t49 58t63.5 47t63.5 47.5t49 59t19.5 82.5v12h31v-9q0 -52 -11.5 -91.5t-28.5 -71.5t-37 -58.5t-37 -51.5t-28.5 -51.5
t-11.5 -58.5q0 -52 25 -81t84 -29zM288 467q0 33 23.5 56.5t56.5 23.5q35 0 58.5 -23.5t23.5 -56.5q0 -34 -23.5 -57.5t-58.5 -23.5q-33 0 -56.5 23.5t-23.5 57.5z" />
    <glyph glyph-name="Agrave" unicode="&#xc0;" horiz-adv-x="774" 
d="M5 18q24 3 39.5 9.5t28.5 23.5t26.5 49.5t34.5 87.5l206 537q20 3 39 15t30 29h4l254 -650q12 -30 20.5 -48.5t19 -29t25 -15.5t37.5 -8v-18h-304v18q31 3 47 8.5t21.5 15t2.5 23t-10 32.5l-54 141h-272l-6 -16q-27 -69 -36.5 -108.5t-3 -60t27 -26.5t53.5 -9v-18h-230
v18zM220 287h234l-115 303zM319 922l83 -129h-21l-219 129h157z" />
    <glyph glyph-name="Aacute" unicode="&#xc1;" horiz-adv-x="774" 
d="M5 18q24 3 39.5 9.5t28.5 23.5t26.5 49.5t34.5 87.5l206 537q20 3 39 15t30 29h4l254 -650q12 -30 20.5 -48.5t19 -29t25 -15.5t37.5 -8v-18h-304v18q31 3 47 8.5t21.5 15t2.5 23t-10 32.5l-54 141h-272l-6 -16q-27 -69 -36.5 -108.5t-3 -60t27 -26.5t53.5 -9v-18h-230
v18zM220 287h234l-115 303zM371 793h-21l83 129h157z" />
    <glyph glyph-name="Acircumflex" unicode="&#xc2;" horiz-adv-x="774" 
d="M5 18q24 3 39.5 9.5t28.5 23.5t26.5 49.5t34.5 87.5l206 537q20 3 39 15t30 29h4l254 -650q12 -30 20.5 -48.5t19 -29t25 -15.5t37.5 -8v-18h-304v18q31 3 47 8.5t21.5 15t2.5 23t-10 32.5l-54 141h-272l-6 -16q-27 -69 -36.5 -108.5t-3 -60t27 -26.5t53.5 -9v-18h-230
v18zM220 287h234l-115 303zM399 932l145 -139h-23l-130 59l-130 -59h-23l145 139h16z" />
    <glyph glyph-name="Atilde" unicode="&#xc3;" horiz-adv-x="774" 
d="M5 18q24 3 39.5 9.5t28.5 23.5t26.5 49.5t34.5 87.5l206 537q20 3 39 15t30 29h4l254 -650q12 -30 20.5 -48.5t19 -29t25 -15.5t37.5 -8v-18h-304v18q31 3 47 8.5t21.5 15t2.5 23t-10 32.5l-54 141h-272l-6 -16q-27 -69 -36.5 -108.5t-3 -60t27 -26.5t53.5 -9v-18h-230
v18zM220 287h234l-115 303zM483 864q25 0 40.5 11.5t20.5 38.5h16q0 -24 -5.5 -47t-17 -41t-29 -28.5t-41.5 -10.5q-25 0 -45 9.5t-38.5 21t-37.5 21t-42 9.5q-26 0 -41.5 -11.5t-20.5 -38.5h-16q0 24 5.5 47t17 41t29 28.5t41.5 10.5t44.5 -9.5t39.5 -21t38.5 -21
t41.5 -9.5z" />
    <glyph glyph-name="Adieresis" unicode="&#xc4;" horiz-adv-x="774" 
d="M5 18q24 3 39.5 9.5t28.5 23.5t26.5 49.5t34.5 87.5l206 537q20 3 39 15t30 29h4l254 -650q12 -30 20.5 -48.5t19 -29t25 -15.5t37.5 -8v-18h-304v18q31 3 47 8.5t21.5 15t2.5 23t-10 32.5l-54 141h-272l-6 -16q-27 -69 -36.5 -108.5t-3 -60t27 -26.5t53.5 -9v-18h-230
v18zM220 287h234l-115 303zM431 865q0 29 20 48t49 19q28 0 47.5 -19t19.5 -48q0 -30 -19.5 -49.5t-47.5 -19.5q-29 0 -49 19.5t-20 49.5zM208 865q0 29 19.5 48t48.5 19q28 0 47.5 -19t19.5 -48q0 -30 -19.5 -49.5t-47.5 -19.5q-29 0 -48.5 19.5t-19.5 49.5z" />
    <glyph glyph-name="Aring" unicode="&#xc5;" horiz-adv-x="774" 
d="M5 18q24 3 39.5 9.5t28.5 23.5t26.5 49.5t34.5 87.5l206 537q20 3 39 15t30 29h4l254 -650q12 -30 20.5 -48.5t19 -29t25 -15.5t37.5 -8v-18h-304v18q31 3 47 8.5t21.5 15t2.5 23t-10 32.5l-54 141h-272l-6 -16q-27 -69 -36.5 -108.5t-3 -60t27 -26.5t53.5 -9v-18h-230
v18zM220 287h234l-115 303zM294 880q0 39 27 66.5t66 27.5q19 0 36.5 -7.5t30 -20t20 -30t7.5 -36.5t-7.5 -36t-20 -29.5t-30 -20t-36.5 -7.5q-20 0 -36.5 7.5t-29.5 20t-20 29.5t-7 36zM333 880q0 -25 15 -40.5t39 -15.5q23 0 38.5 15.5t15.5 40.5t-15.5 41t-38.5 16
q-24 0 -39 -16t-15 -41z" />
    <glyph glyph-name="AE" unicode="&#xc6;" horiz-adv-x="1101" 
d="M771 725q53 2 115 1.5t121 1.5l24 -239h-20q-19 63 -42.5 102.5t-59.5 61t-86.5 29t-123.5 7.5h-53v-293h117q43 0 69 24.5t34 87.5h18v-268h-18q-8 63 -34 87.5t-69 24.5h-117v-274q0 -26 9 -34.5t42 -8.5h38q68 0 116 9t82 32t58 62t44 100h19l-40 -239q-60 1 -119.5 1
h-113.5h-371v18q36 4 56 10.5t29.5 19.5t11.5 36t2 62v92h-254l-10 -16q-39 -63 -57.5 -101.5t-19 -61t16 -31.5t47.5 -12v-16h-247v16q27 3 47.5 11.5t41 28t43.5 51t54 81.5l338 537h262zM289 292h220v352z" />
    <glyph glyph-name="Ccedilla" unicode="&#xc7;" horiz-adv-x="742" 
d="M376 3h38l-51 -86q10 5 21.5 7t20.5 2q35 0 55 -21t20 -50q0 -25 -10 -43t-25.5 -29t-34.5 -16.5t-36 -5.5q-35 0 -58 9.5t-40 19.5l10 22q13 -7 30 -10.5t34 -3.5q28 0 45 12t17 35q0 17 -10.5 27t-26 13.5t-32.5 0.5t-30 -10l-9 5zM203 365q0 -75 15.5 -136.5
t45.5 -105t74 -67.5t101 -24q49 0 87.5 15t68.5 39.5t51 56t34 64.5l27 -9q-12 -40 -36.5 -78t-60.5 -67.5t-84 -47.5t-108 -18q-81 0 -149 28t-116.5 78t-75.5 119.5t-27 152.5q0 90 31.5 160.5t84.5 119t124 74.5t150 26q62 0 120 -11.5t96 -28.5l27 -225h-19
q-28 106 -85.5 167t-150.5 61q-46 0 -87 -21.5t-71.5 -64t-48.5 -107t-18 -150.5z" />
    <glyph glyph-name="Egrave" unicode="&#xc8;" horiz-adv-x="727" 
d="M338 922l83 -129h-21l-219 129h157zM640 -1q-60 1 -119.5 1h-113.5h-371v18q36 4 56 10.5t29.5 19.5t11.5 36t2 62v433q0 39 -2 62t-11.5 36t-29.5 19t-56 11v18h361q52 0 114.5 0.5t121.5 2.5l24 -239h-20q-19 63 -42.5 102.5t-59.5 61t-86.5 29t-123.5 7.5h-53v-293
h117q43 0 69 24.5t34 87.5h18v-268h-18q-8 63 -34 87.5t-69 24.5h-117v-274q0 -26 9 -34.5t42 -8.5h38q68 0 116 9t82 32t58 62t44 100h19l-40 -239v0z" />
    <glyph glyph-name="Eacute" unicode="&#xc9;" horiz-adv-x="727" 
d="M640 -1q-60 1 -119.5 1h-113.5h-371v18q36 4 56 10.5t29.5 19.5t11.5 36t2 62v433q0 39 -2 62t-11.5 36t-29.5 19t-56 11v18h361q52 0 114.5 0.5t121.5 2.5l24 -239h-20q-19 63 -42.5 102.5t-59.5 61t-86.5 29t-123.5 7.5h-53v-293h117q43 0 69 24.5t34 87.5h18v-268h-18
q-8 63 -34 87.5t-69 24.5h-117v-274q0 -26 9 -34.5t42 -8.5h38q68 0 116 9t82 32t58 62t44 100h19l-40 -239v0zM351 793h-21l83 129h157z" />
    <glyph glyph-name="Ecircumflex" unicode="&#xca;" horiz-adv-x="727" 
d="M390 932l145 -139h-23l-130 59l-130 -59h-23l145 139h16zM640 -1q-60 1 -119.5 1h-113.5h-371v18q36 4 56 10.5t29.5 19.5t11.5 36t2 62v433q0 39 -2 62t-11.5 36t-29.5 19t-56 11v18h361q52 0 114.5 0.5t121.5 2.5l24 -239h-20q-19 63 -42.5 102.5t-59.5 61t-86.5 29
t-123.5 7.5h-53v-293h117q43 0 69 24.5t34 87.5h18v-268h-18q-8 63 -34 87.5t-69 24.5h-117v-274q0 -26 9 -34.5t42 -8.5h38q68 0 116 9t82 32t58 62t44 100h19l-40 -239v0z" />
    <glyph glyph-name="Edieresis" unicode="&#xcb;" horiz-adv-x="727" 
d="M640 -1q-60 1 -119.5 1h-113.5h-371v18q36 4 56 10.5t29.5 19.5t11.5 36t2 62v433q0 39 -2 62t-11.5 36t-29.5 19t-56 11v18h361q52 0 114.5 0.5t121.5 2.5l24 -239h-20q-19 63 -42.5 102.5t-59.5 61t-86.5 29t-123.5 7.5h-53v-293h117q43 0 69 24.5t34 87.5h18v-268h-18
q-8 63 -34 87.5t-69 24.5h-117v-274q0 -26 9 -34.5t42 -8.5h38q68 0 116 9t82 32t58 62t44 100h19l-40 -239v0zM428 865q0 29 20 48t49 19q28 0 47.5 -19t19.5 -48q0 -30 -19.5 -49.5t-47.5 -19.5q-29 0 -49 19.5t-20 49.5zM205 865q0 29 19.5 48t48.5 19q28 0 47.5 -19
t19.5 -48q0 -30 -19.5 -49.5t-47.5 -19.5q-29 0 -48.5 19.5t-19.5 49.5z" />
    <glyph glyph-name="Igrave" unicode="&#xcc;" horiz-adv-x="407" 
d="M272 146q0 -39 2 -62t11.5 -36t29.5 -19.5t56 -10.5v-18h-335v18q36 4 56 10.5t29.5 19.5t11.5 36t2 62v433q0 39 -2 62t-11.5 36t-29.5 19t-56 11v18h335v-18q-36 -5 -56 -11t-29.5 -19t-11.5 -36t-2 -62v-433zM183 922l83 -129h-21l-219 129h157z" />
    <glyph glyph-name="Iacute" unicode="&#xcd;" horiz-adv-x="407" 
d="M272 146q0 -39 2 -62t11.5 -36t29.5 -19.5t56 -10.5v-18h-335v18q36 4 56 10.5t29.5 19.5t11.5 36t2 62v433q0 39 -2 62t-11.5 36t-29.5 19t-56 11v18h335v-18q-36 -5 -56 -11t-29.5 -19t-11.5 -36t-2 -62v-433zM155 793h-21l83 129h157z" />
    <glyph glyph-name="Icircumflex" unicode="&#xce;" horiz-adv-x="407" 
d="M272 146q0 -39 2 -62t11.5 -36t29.5 -19.5t56 -10.5v-18h-335v18q36 4 56 10.5t29.5 19.5t11.5 36t2 62v433q0 39 -2 62t-11.5 36t-29.5 19t-56 11v18h335v-18q-36 -5 -56 -11t-29.5 -19t-11.5 -36t-2 -62v-433zM211 932l145 -139h-23l-130 59l-130 -59h-23l145 139h16z
" />
    <glyph glyph-name="Idieresis" unicode="&#xcf;" horiz-adv-x="407" 
d="M272 146q0 -39 2 -62t11.5 -36t29.5 -19.5t56 -10.5v-18h-335v18q36 4 56 10.5t29.5 19.5t11.5 36t2 62v433q0 39 -2 62t-11.5 36t-29.5 19t-56 11v18h335v-18q-36 -5 -56 -11t-29.5 -19t-11.5 -36t-2 -62v-433zM247 865q0 29 20 48t49 19q28 0 47.5 -19t19.5 -48
q0 -30 -19.5 -49.5t-47.5 -19.5q-29 0 -49 19.5t-20 49.5zM24 865q0 29 19.5 48t48.5 19q28 0 47.5 -19t19.5 -48q0 -30 -19.5 -49.5t-47.5 -19.5q-29 0 -48.5 19.5t-19.5 49.5z" />
    <glyph glyph-name="Eth" unicode="&#xd0;" horiz-adv-x="840" 
d="M336 725q93 0 176 -18t144.5 -59.5t97.5 -109.5t36 -168q0 -98 -32 -168t-91.5 -115t-144 -66t-189.5 -21h-278v18q36 4 56 10.5t29.5 19.5t11.5 36t2 62v206h-122v44h122v183q0 39 -2 62t-11.5 36t-29.5 19t-56 11v18h281zM328 36q84 0 142.5 21.5t95.5 63.5t54 104.5
t17 145.5q0 167 -79.5 242.5t-240.5 75.5h-26v-293h123v-44h-123v-316h37z" />
    <glyph glyph-name="Ntilde" unicode="&#xd1;" horiz-adv-x="803" 
d="M526 864q25 0 40.5 11.5t20.5 38.5h16q0 -24 -5.5 -47t-17 -41t-29 -28.5t-41.5 -10.5q-25 0 -45 9.5t-38.5 21t-37.5 21t-42 9.5q-26 0 -41.5 -11.5t-20.5 -38.5h-16q0 24 5.5 47t17 41t29 28.5t41.5 10.5t44.5 -9.5t39.5 -21t38.5 -21t41.5 -9.5zM642 579q0 39 -2 62
t-11.5 36t-29.5 19t-56 11v18h245v-18q-36 -5 -56 -11t-29.5 -19t-11.5 -36t-2 -62v-579h-84l-426 551v-405q0 -39 2 -62t11.5 -36t29.5 -19.5t56 -10.5v-18h-245v18q36 4 56 10.5t29.5 19.5t11.5 36t2 62v466l-17 22q-26 35 -43.5 51.5t-38.5 24.5v15h186l423 -544v398v0z
" />
    <glyph glyph-name="Ograve" unicode="&#xd2;" horiz-adv-x="862" 
d="M399 922l83 -129h-21l-219 129h157zM50 366q0 93 32 163.5t85 118.5t121.5 72.5t142.5 24.5q73 0 142 -24.5t122 -72.5t85 -118.5t32 -163.5t-32 -163.5t-85 -118.5t-122 -72.5t-142 -24.5q-74 0 -142.5 24.5t-121.5 72.5t-85 118.5t-32 163.5zM659 366q0 79 -16 142.5
t-46 107.5t-72 68t-94 24t-94 -24t-72 -68t-46 -107.5t-16 -142.5t16 -142.5t46 -107.5t72 -68t94 -24t94 24t72 68t46 107.5t16 142.5z" />
    <glyph glyph-name="Oacute" unicode="&#xd3;" horiz-adv-x="862" 
d="M430 793h-21l83 129h157zM50 366q0 93 32 163.5t85 118.5t121.5 72.5t142.5 24.5q73 0 142 -24.5t122 -72.5t85 -118.5t32 -163.5t-32 -163.5t-85 -118.5t-122 -72.5t-142 -24.5q-74 0 -142.5 24.5t-121.5 72.5t-85 118.5t-32 163.5zM659 366q0 79 -16 142.5t-46 107.5
t-72 68t-94 24t-94 -24t-72 -68t-46 -107.5t-16 -142.5t16 -142.5t46 -107.5t72 -68t94 -24t94 24t72 68t46 107.5t16 142.5z" />
    <glyph glyph-name="Ocircumflex" unicode="&#xd4;" horiz-adv-x="862" 
d="M50 366q0 93 32 163.5t85 118.5t121.5 72.5t142.5 24.5q73 0 142 -24.5t122 -72.5t85 -118.5t32 -163.5t-32 -163.5t-85 -118.5t-122 -72.5t-142 -24.5q-74 0 -142.5 24.5t-121.5 72.5t-85 118.5t-32 163.5zM659 366q0 79 -16 142.5t-46 107.5t-72 68t-94 24t-94 -24
t-72 -68t-46 -107.5t-16 -142.5t16 -142.5t46 -107.5t72 -68t94 -24t94 24t72 68t46 107.5t16 142.5zM439 932l145 -139h-23l-130 59l-130 -59h-23l145 139h16z" />
    <glyph glyph-name="Otilde" unicode="&#xd5;" horiz-adv-x="862" 
d="M50 366q0 93 32 163.5t85 118.5t121.5 72.5t142.5 24.5q73 0 142 -24.5t122 -72.5t85 -118.5t32 -163.5t-32 -163.5t-85 -118.5t-122 -72.5t-142 -24.5q-74 0 -142.5 24.5t-121.5 72.5t-85 118.5t-32 163.5zM659 366q0 79 -16 142.5t-46 107.5t-72 68t-94 24t-94 -24
t-72 -68t-46 -107.5t-16 -142.5t16 -142.5t46 -107.5t72 -68t94 -24t94 24t72 68t46 107.5t16 142.5zM521 864q25 0 40.5 11.5t20.5 38.5h16q0 -24 -5.5 -47t-17 -41t-29 -28.5t-41.5 -10.5q-25 0 -45 9.5t-38.5 21t-37.5 21t-42 9.5q-26 0 -41.5 -11.5t-20.5 -38.5h-16
q0 24 5.5 47t17 41t29 28.5t41.5 10.5t44.5 -9.5t39.5 -21t38.5 -21t41.5 -9.5z" />
    <glyph glyph-name="Odieresis" unicode="&#xd6;" horiz-adv-x="862" 
d="M50 366q0 93 32 163.5t85 118.5t121.5 72.5t142.5 24.5q73 0 142 -24.5t122 -72.5t85 -118.5t32 -163.5t-32 -163.5t-85 -118.5t-122 -72.5t-142 -24.5q-74 0 -142.5 24.5t-121.5 72.5t-85 118.5t-32 163.5zM659 366q0 79 -16 142.5t-46 107.5t-72 68t-94 24t-94 -24
t-72 -68t-46 -107.5t-16 -142.5t16 -142.5t46 -107.5t72 -68t94 -24t94 24t72 68t46 107.5t16 142.5zM475 865q0 29 20 48t49 19q28 0 47.5 -19t19.5 -48q0 -30 -19.5 -49.5t-47.5 -19.5q-29 0 -49 19.5t-20 49.5zM252 865q0 29 19.5 48t48.5 19q28 0 47.5 -19t19.5 -48
q0 -30 -19.5 -49.5t-47.5 -19.5q-29 0 -48.5 19.5t-19.5 49.5z" />
    <glyph glyph-name="multiply" unicode="&#xd7;" 
d="M519 35l-181 181l-178 -178l-57 57l178 178l-178 179l57 57l178 -179l178 178l57 -57l-178 -178l181 -181z" />
    <glyph glyph-name="Oslash" unicode="&#xd8;" horiz-adv-x="862" 
d="M50 366q0 93 32 163.5t85 118.5t121.5 72.5t142.5 24.5q98 0 184 -43l65 94l34 -23l-64 -91q72 -47 117 -125.5t45 -190.5q0 -93 -32 -163.5t-85 -118.5t-122 -72.5t-142 -24.5q-60 0 -116.5 16t-104.5 48l-69 -99l-35 23l70 101q-57 48 -91.5 120.5t-34.5 169.5z
M659 366q0 77 -15 138t-44 106l-340 -487q30 -48 73.5 -73.5t97.5 -25.5q52 0 94 24t72 68t46 107.5t16 142.5zM203 366q0 -60 9.5 -110t26.5 -91l335 479q-28 31 -64 47.5t-79 16.5q-52 0 -94 -24t-72 -68t-46 -107.5t-16 -142.5z" />
    <glyph glyph-name="Ugrave" unicode="&#xd9;" horiz-adv-x="793" 
d="M404 922l83 -129h-21l-219 129h157zM116 578q0 39 -2 62t-11.5 36.5t-29.5 19.5t-56 11v18h335v-18q-36 -5 -56 -10.5t-29.5 -19t-11.5 -37t-2 -62.5v-289q0 -118 43.5 -181.5t145.5 -63.5q55 0 93 18.5t61 52t34 80t12 102.5v282q0 39 -2 62t-11.5 36t-29.5 19t-56 11
v18h245v-18q-36 -5 -56 -11t-29.5 -19t-11.5 -36t-2 -62v-280q0 -163 -73 -237.5t-207 -74.5q-150 0 -221.5 74t-71.5 214v303v0z" />
    <glyph glyph-name="Uacute" unicode="&#xda;" horiz-adv-x="793" 
d="M116 578q0 39 -2 62t-11.5 36.5t-29.5 19.5t-56 11v18h335v-18q-36 -5 -56 -10.5t-29.5 -19t-11.5 -37t-2 -62.5v-289q0 -118 43.5 -181.5t145.5 -63.5q55 0 93 18.5t61 52t34 80t12 102.5v282q0 39 -2 62t-11.5 36t-29.5 19t-56 11v18h245v-18q-36 -5 -56 -11t-29.5 -19
t-11.5 -36t-2 -62v-280q0 -163 -73 -237.5t-207 -74.5q-150 0 -221.5 74t-71.5 214v303v0zM422 793h-21l83 129h157z" />
    <glyph glyph-name="Ucircumflex" unicode="&#xdb;" horiz-adv-x="793" 
d="M450 932l145 -139h-23l-130 59l-130 -59h-23l145 139h16zM116 578q0 39 -2 62t-11.5 36.5t-29.5 19.5t-56 11v18h335v-18q-36 -5 -56 -10.5t-29.5 -19t-11.5 -37t-2 -62.5v-289q0 -118 43.5 -181.5t145.5 -63.5q55 0 93 18.5t61 52t34 80t12 102.5v282q0 39 -2 62
t-11.5 36t-29.5 19t-56 11v18h245v-18q-36 -5 -56 -11t-29.5 -19t-11.5 -36t-2 -62v-280q0 -163 -73 -237.5t-207 -74.5q-150 0 -221.5 74t-71.5 214v303v0z" />
    <glyph glyph-name="Udieresis" unicode="&#xdc;" horiz-adv-x="793" 
d="M116 578q0 39 -2 62t-11.5 36.5t-29.5 19.5t-56 11v18h335v-18q-36 -5 -56 -10.5t-29.5 -19t-11.5 -37t-2 -62.5v-289q0 -118 43.5 -181.5t145.5 -63.5q55 0 93 18.5t61 52t34 80t12 102.5v282q0 39 -2 62t-11.5 36t-29.5 19t-56 11v18h245v-18q-36 -5 -56 -11t-29.5 -19
t-11.5 -36t-2 -62v-280q0 -163 -73 -237.5t-207 -74.5q-150 0 -221.5 74t-71.5 214v303v0zM478 865q0 29 20 48t49 19q28 0 47.5 -19t19.5 -48q0 -30 -19.5 -49.5t-47.5 -19.5q-29 0 -49 19.5t-20 49.5zM255 865q0 29 19.5 48t48.5 19q28 0 47.5 -19t19.5 -48
q0 -30 -19.5 -49.5t-47.5 -19.5q-29 0 -48.5 19.5t-19.5 49.5z" />
    <glyph glyph-name="Yacute" unicode="&#xdd;" horiz-adv-x="723" 
d="M419 146q0 -38 2.5 -61t13 -36.5t32.5 -20t62 -10.5v-18h-357v18q40 4 62 10.5t32.5 20t13 36.5t2.5 61v139l-183 329q-15 27 -25.5 44t-21 26.5t-23 14.5t-29.5 8v18h309v-18q-48 -6 -64 -21.5t2 -50.5l154 -290l123 218q24 42 33.5 69t6 42.5t-20 22.5t-43.5 10v18h223
v-18q-20 -3 -36 -9t-31 -19.5t-31.5 -36.5t-38.5 -60l-167 -290v-146v0zM399 793h-21l83 129h157z" />
    <glyph glyph-name="Thorn" unicode="&#xde;" horiz-adv-x="693" 
d="M344 224q43 0 77.5 9t59 29.5t37.5 53t13 80.5t-13 80.5t-37.5 53t-59 29.5t-77.5 9h-72v-344h72zM683 396q0 -59 -25 -98.5t-69.5 -64t-104.5 -35t-129 -10.5h-83v-42q0 -39 2 -62t12.5 -36t32.5 -19.5t62 -10.5v-18h-345v18q36 4 56 10.5t29.5 19.5t11.5 36t2 62v433
q0 39 -2 62t-11.5 36t-29.5 19t-56 11v18h236v-122h83q69 0 129 -10.5t104.5 -34.5t69.5 -64t25 -98z" />
    <glyph glyph-name="germandbls" unicode="&#xdf;" horiz-adv-x="684" 
d="M33 18q30 3 46 9t23.5 19t9 36t1.5 62v354q0 70 17 126t50 95.5t81 60.5t110 21q54 0 94 -11.5t67 -31.5t40.5 -47t13.5 -58q0 -28 -11.5 -51t-29.5 -41.5t-41 -33t-47 -24.5v-3q43 -18 77.5 -44.5t59 -59t37.5 -70t13 -77.5q0 -62 -21 -110.5t-55.5 -82t-79 -51.5
t-91.5 -18q-32 0 -59.5 3t-56.5 9v82h3q32 -31 59 -41.5t59 -10.5q24 0 45 12t36.5 34t25 54t9.5 71q0 34 -10.5 69.5t-33.5 67t-60.5 57t-91.5 39.5v21l23 10q39 15 64 36t39.5 43t20.5 44t6 40q0 76 -31 107t-82 31q-65 0 -94 -53t-29 -164v-344l2 -204h-208v18z" />
    <glyph glyph-name="agrave" unicode="&#xe0;" horiz-adv-x="562" 
d="M347 74q-27 -38 -60.5 -62.5t-87.5 -24.5q-28 0 -56.5 8.5t-52 25t-38.5 41t-15 57.5q0 24 11 44t32 38t52 35t70 36q20 10 55.5 26t91.5 40v27q0 79 -22 110.5t-72 31.5q-32 0 -51 -11t-29 -29.5t-12 -44t0 -54.5h-113q0 31 18 63t48.5 57.5t72.5 41.5t90 16
q35 0 69.5 -7.5t61 -27t42.5 -52.5t15 -83l-6 -259q-1 -42 7.5 -53.5t28.5 -11.5q12 0 22.5 6t21.5 14l10 -10q-20 -25 -48 -47.5t-64 -22.5q-15 0 -31 6t-29 16.5t-22 25.5t-10 34zM347 302q-57 -23 -87 -38t-43 -23q-31 -19 -44.5 -38.5t-13.5 -48.5q0 -18 7 -35.5t20 -32
t32 -23t42 -8.5q28 0 47.5 12t36.5 35zM241 772l69 -169h-16l-197 169h144z" />
    <glyph glyph-name="aacute" unicode="&#xe1;" horiz-adv-x="562" 
d="M347 74q-27 -38 -60.5 -62.5t-87.5 -24.5q-28 0 -56.5 8.5t-52 25t-38.5 41t-15 57.5q0 24 11 44t32 38t52 35t70 36q20 10 55.5 26t91.5 40v27q0 79 -22 110.5t-72 31.5q-32 0 -51 -11t-29 -29.5t-12 -44t0 -54.5h-113q0 31 18 63t48.5 57.5t72.5 41.5t90 16
q35 0 69.5 -7.5t61 -27t42.5 -52.5t15 -83l-6 -259q-1 -42 7.5 -53.5t28.5 -11.5q12 0 22.5 6t21.5 14l10 -10q-20 -25 -48 -47.5t-64 -22.5q-15 0 -31 6t-29 16.5t-22 25.5t-10 34zM347 302q-57 -23 -87 -38t-43 -23q-31 -19 -44.5 -38.5t-13.5 -48.5q0 -18 7 -35.5t20 -32
t32 -23t42 -8.5q28 0 47.5 12t36.5 35zM466 772l-197 -169h-16l69 169h144z" />
    <glyph glyph-name="acircumflex" unicode="&#xe2;" horiz-adv-x="562" 
d="M347 74q-27 -38 -60.5 -62.5t-87.5 -24.5q-28 0 -56.5 8.5t-52 25t-38.5 41t-15 57.5q0 24 11 44t32 38t52 35t70 36q20 10 55.5 26t91.5 40v27q0 79 -22 110.5t-72 31.5q-32 0 -51 -11t-29 -29.5t-12 -44t0 -54.5h-113q0 31 18 63t48.5 57.5t72.5 41.5t90 16
q35 0 69.5 -7.5t61 -27t42.5 -52.5t15 -83l-6 -259q-1 -42 7.5 -53.5t28.5 -11.5q12 0 22.5 6t21.5 14l10 -10q-20 -25 -48 -47.5t-64 -22.5q-15 0 -31 6t-29 16.5t-22 25.5t-10 34zM347 302q-57 -23 -87 -38t-43 -23q-31 -19 -44.5 -38.5t-13.5 -48.5q0 -18 7 -35.5t20 -32
t32 -23t42 -8.5q28 0 47.5 12t36.5 35zM440 603h-20l-145 73l-145 -73h-19l158 169h13z" />
    <glyph glyph-name="atilde" unicode="&#xe3;" horiz-adv-x="562" 
d="M347 74q-27 -38 -60.5 -62.5t-87.5 -24.5q-28 0 -56.5 8.5t-52 25t-38.5 41t-15 57.5q0 24 11 44t32 38t52 35t70 36q20 10 55.5 26t91.5 40v27q0 79 -22 110.5t-72 31.5q-32 0 -51 -11t-29 -29.5t-12 -44t0 -54.5h-113q0 31 18 63t48.5 57.5t72.5 41.5t90 16
q35 0 69.5 -7.5t61 -27t42.5 -52.5t15 -83l-6 -259q-1 -42 7.5 -53.5t28.5 -11.5q12 0 22.5 6t21.5 14l10 -10q-20 -25 -48 -47.5t-64 -22.5q-15 0 -31 6t-29 16.5t-22 25.5t-10 34zM347 302q-57 -23 -87 -38t-43 -23q-31 -19 -44.5 -38.5t-13.5 -48.5q0 -18 7 -35.5t20 -32
t32 -23t42 -8.5q28 0 47.5 12t36.5 35zM105 636q0 23 5.5 47t16.5 44t29 32.5t43 12.5q21 0 41 -10t39 -21.5t36.5 -21.5t34.5 -10q27 0 40 14t15 46h19q0 -41 -8 -66.5t-20 -39.5t-27 -19.5t-31 -5.5q-25 0 -45.5 10t-39 21.5t-36 21.5t-37.5 10q-24 0 -39 -17t-17 -48h-19
z" />
    <glyph glyph-name="adieresis" unicode="&#xe4;" horiz-adv-x="562" 
d="M347 74q-27 -38 -60.5 -62.5t-87.5 -24.5q-28 0 -56.5 8.5t-52 25t-38.5 41t-15 57.5q0 24 11 44t32 38t52 35t70 36q20 10 55.5 26t91.5 40v27q0 79 -22 110.5t-72 31.5q-32 0 -51 -11t-29 -29.5t-12 -44t0 -54.5h-113q0 31 18 63t48.5 57.5t72.5 41.5t90 16
q35 0 69.5 -7.5t61 -27t42.5 -52.5t15 -83l-6 -259q-1 -42 7.5 -53.5t28.5 -11.5q12 0 22.5 6t21.5 14l10 -10q-20 -25 -48 -47.5t-64 -22.5q-15 0 -31 6t-29 16.5t-22 25.5t-10 34zM347 302q-57 -23 -87 -38t-43 -23q-31 -19 -44.5 -38.5t-13.5 -48.5q0 -18 7 -35.5t20 -32
t32 -23t42 -8.5q28 0 47.5 12t36.5 35zM104 705q0 29 19.5 48t48.5 19q28 0 47.5 -19t19.5 -48q0 -30 -19.5 -49.5t-47.5 -19.5q-29 0 -48.5 19.5t-19.5 49.5zM327 705q0 29 20 48t49 19q28 0 47.5 -19t19.5 -48q0 -30 -19.5 -49.5t-47.5 -19.5q-29 0 -49 19.5t-20 49.5z
" />
    <glyph glyph-name="aring" unicode="&#xe5;" horiz-adv-x="562" 
d="M347 74q-27 -38 -60.5 -62.5t-87.5 -24.5q-28 0 -56.5 8.5t-52 25t-38.5 41t-15 57.5q0 24 11 44t32 38t52 35t70 36q20 10 55.5 26t91.5 40v27q0 79 -22 110.5t-72 31.5q-32 0 -51 -11t-29 -29.5t-12 -44t0 -54.5h-113q0 31 18 63t48.5 57.5t72.5 41.5t90 16
q35 0 69.5 -7.5t61 -27t42.5 -52.5t15 -83l-6 -259q-1 -42 7.5 -53.5t28.5 -11.5q12 0 22.5 6t21.5 14l10 -10q-20 -25 -48 -47.5t-64 -22.5q-15 0 -31 6t-29 16.5t-22 25.5t-10 34zM347 302q-57 -23 -87 -38t-43 -23q-31 -19 -44.5 -38.5t-13.5 -48.5q0 -18 7 -35.5t20 -32
t32 -23t42 -8.5q28 0 47.5 12t36.5 35zM175 694q0 40 27 67t66 27t66.5 -27t27.5 -67q0 -19 -7.5 -36t-20 -29.5t-30 -20t-36.5 -7.5q-20 0 -36.5 7.5t-29.5 20t-20 29.5t-7 36zM214 694q0 -25 15 -40t39 -15q23 0 38.5 15t15.5 40t-15.5 41t-38.5 16q-24 0 -39 -16t-15 -41
z" />
    <glyph glyph-name="ae" unicode="&#xe6;" horiz-adv-x="847" 
d="M584 -13q-75 0 -128.5 32t-82.5 87q-23 -54 -70 -86.5t-104 -32.5q-28 0 -56.5 8.5t-52 25t-38.5 41t-15 57.5q0 24 11 44t32 38t52 35t70 36q20 10 55.5 26t91.5 40v27q0 79 -22 110.5t-72 31.5q-32 0 -51 -11t-29 -29.5t-12 -44t0 -54.5h-113q0 31 18 63t48.5 57.5
t72.5 41.5t90 16q50 0 85.5 -18t55.5 -60q34 37 77.5 58t93.5 21q45 0 83.5 -14t67 -41t46 -67.5t20.5 -93.5h-357v-8q0 -61 15.5 -106t41.5 -74.5t61.5 -44t76.5 -14.5q51 0 89.5 16.5t62.5 41.5l12 -10q-13 -22 -33 -47.5t-47.5 -47t-64 -36t-81.5 -14.5zM576 508
q-54 0 -84.5 -37t-38.5 -100h229q-3 72 -32.5 104.5t-73.5 32.5zM347 302q-57 -23 -87 -38t-43 -23q-31 -19 -44.5 -38.5t-13.5 -48.5q0 -36 27 -60t74 -24q28 0 47.5 12t36.5 35z" />
    <glyph glyph-name="ccedilla" unicode="&#xe7;" horiz-adv-x="523" 
d="M315 547q33 0 61.5 -8t50.5 -21.5t34.5 -31.5t12.5 -39q0 -26 -18 -43.5t-49 -17.5q-13 0 -24 4t-21 21l-45 76q-7 11 -13 14.5t-18 3.5q-27 0 -51.5 -11.5t-43.5 -35.5t-30 -61t-11 -87q0 -54 14.5 -96.5t40 -71t60.5 -43.5t75 -15q32 0 68.5 13t65.5 36l12 -10
q-14 -22 -32.5 -46t-43 -44t-56 -33t-71.5 -13q-60 0 -106 20.5t-77 57t-47 86t-16 106.5q0 70 25 124t64.5 91t89 56t99.5 19zM252 3h37l-51 -86q11 5 22 7t20 2q35 0 57.5 -21t22.5 -50q0 -25 -11 -43t-28 -29t-37.5 -16.5t-39.5 -5.5q-32 0 -54.5 8.5t-39.5 18.5l11 26
q13 -6 30.5 -10t33.5 -4q26 0 44.5 11t18.5 34q0 17 -11 27t-26.5 13.5t-32.5 0.5t-30 -10l-9 5z" />
    <glyph glyph-name="egrave" unicode="&#xe8;" horiz-adv-x="545" 
d="M245 772l69 -169h-16l-197 169h144zM282 -13q-59 0 -105 20t-77 56t-47 85.5t-16 107.5q0 59 20 112t54.5 92.5t80 63t97.5 23.5q45 0 83.5 -14t67 -41t46 -67.5t20.5 -93.5h-357v-8q0 -61 15.5 -106t41.5 -74.5t61.5 -44t76.5 -14.5q51 0 89.5 16.5t62.5 41.5l12 -10
q-13 -22 -33 -47.5t-47.5 -47t-64 -36t-81.5 -14.5zM274 508q-54 0 -84.5 -37t-38.5 -100h229q-3 72 -32.5 104.5t-73.5 32.5z" />
    <glyph glyph-name="eacute" unicode="&#xe9;" horiz-adv-x="545" 
d="M467 772l-197 -169h-16l69 169h144zM282 -13q-59 0 -105 20t-77 56t-47 85.5t-16 107.5q0 59 20 112t54.5 92.5t80 63t97.5 23.5q45 0 83.5 -14t67 -41t46 -67.5t20.5 -93.5h-357v-8q0 -61 15.5 -106t41.5 -74.5t61.5 -44t76.5 -14.5q51 0 89.5 16.5t62.5 41.5l12 -10
q-13 -22 -33 -47.5t-47.5 -47t-64 -36t-81.5 -14.5zM274 508q-54 0 -84.5 -37t-38.5 -100h229q-3 72 -32.5 104.5t-73.5 32.5z" />
    <glyph glyph-name="ecircumflex" unicode="&#xea;" horiz-adv-x="545" 
d="M449 603h-20l-145 73l-145 -73h-19l158 169h13zM282 -13q-59 0 -105 20t-77 56t-47 85.5t-16 107.5q0 59 20 112t54.5 92.5t80 63t97.5 23.5q45 0 83.5 -14t67 -41t46 -67.5t20.5 -93.5h-357v-8q0 -61 15.5 -106t41.5 -74.5t61.5 -44t76.5 -14.5q51 0 89.5 16.5
t62.5 41.5l12 -10q-13 -22 -33 -47.5t-47.5 -47t-64 -36t-81.5 -14.5zM274 508q-54 0 -84.5 -37t-38.5 -100h229q-3 72 -32.5 104.5t-73.5 32.5z" />
    <glyph glyph-name="edieresis" unicode="&#xeb;" horiz-adv-x="545" 
d="M105 705q0 29 19.5 48t48.5 19q28 0 47.5 -19t19.5 -48q0 -30 -19.5 -49.5t-47.5 -19.5q-29 0 -48.5 19.5t-19.5 49.5zM328 705q0 29 20 48t49 19q28 0 47.5 -19t19.5 -48q0 -30 -19.5 -49.5t-47.5 -19.5q-29 0 -49 19.5t-20 49.5zM282 -13q-59 0 -105 20t-77 56
t-47 85.5t-16 107.5q0 59 20 112t54.5 92.5t80 63t97.5 23.5q45 0 83.5 -14t67 -41t46 -67.5t20.5 -93.5h-357v-8q0 -61 15.5 -106t41.5 -74.5t61.5 -44t76.5 -14.5q51 0 89.5 16.5t62.5 41.5l12 -10q-13 -22 -33 -47.5t-47.5 -47t-64 -36t-81.5 -14.5zM274 508
q-54 0 -84.5 -37t-38.5 -100h229q-3 72 -32.5 104.5t-73.5 32.5z" />
    <glyph glyph-name="igrave" unicode="&#xec;" horiz-adv-x="341" 
d="M150 772l69 -169h-16l-197 169h144zM237 144q0 -39 1.5 -62t9 -36t23.5 -19t46 -9v-18h-286v18q30 3 46 9t23.5 19t9 36t1.5 62v210q0 40 -2 61.5t-10.5 32t-24.5 12.5t-43 3v17l209 67q-1 -40 -2 -92t-1 -129v-182z" />
    <glyph glyph-name="iacute" unicode="&#xed;" horiz-adv-x="341" 
d="M320 772l-197 -169h-16l69 169h144zM237 144q0 -39 1.5 -62t9 -36t23.5 -19t46 -9v-18h-286v18q30 3 46 9t23.5 19t9 36t1.5 62v210q0 40 -2 61.5t-10.5 32t-24.5 12.5t-43 3v17l209 67q-1 -40 -2 -92t-1 -129v-182z" />
    <glyph glyph-name="icircumflex" unicode="&#xee;" horiz-adv-x="341" 
d="M331 603h-20l-145 73l-145 -73h-19l158 169h13zM237 144q0 -39 1.5 -62t9 -36t23.5 -19t46 -9v-18h-286v18q30 3 46 9t23.5 19t9 36t1.5 62v210q0 40 -2 61.5t-10.5 32t-24.5 12.5t-43 3v17l209 67q-1 -40 -2 -92t-1 -129v-182z" />
    <glyph glyph-name="idieresis" unicode="&#xef;" horiz-adv-x="341" 
d="M-12 705q0 29 19.5 48t48.5 19q28 0 47.5 -19t19.5 -48q0 -30 -19.5 -49.5t-47.5 -19.5q-29 0 -48.5 19.5t-19.5 49.5zM211 705q0 29 20 48t49 19q28 0 47.5 -19t19.5 -48q0 -30 -19.5 -49.5t-47.5 -19.5q-29 0 -49 19.5t-20 49.5zM237 144q0 -39 1.5 -62t9 -36t23.5 -19
t46 -9v-18h-286v18q30 3 46 9t23.5 19t9 36t1.5 62v210q0 40 -2 61.5t-10.5 32t-24.5 12.5t-43 3v17l209 67q-1 -40 -2 -92t-1 -129v-182z" />
    <glyph glyph-name="eth" unicode="&#xf0;" horiz-adv-x="596" 
d="M291 -13q-54 0 -101 19t-82 53.5t-55 83t-20 107.5q0 66 22 120t58 93t82.5 60t96.5 21q38 0 72 -17q-23 44 -57 81t-84 68l-68 -74l-24 21l64 70q-22 12 -46.5 22t-51.5 19l10 26q61 -11 119 -33l61 68l26 -21l-55 -60q62 -27 116.5 -67t95 -91t63.5 -112t23 -131
q0 -73 -20 -133t-55 -103t-83.5 -66.5t-106.5 -23.5zM418 272q0 53 -7 104t-24 99q-36 34 -94 34q-33 0 -57 -15t-39.5 -42t-23.5 -64.5t-8 -83.5q0 -53 9 -103.5t26 -89.5t43 -63t61 -24q54 0 84 62t30 186z" />
    <glyph glyph-name="ntilde" unicode="&#xf1;" horiz-adv-x="619" 
d="M15 480l205 67v-99q15 19 30.5 37t34 31.5t42 22t53.5 8.5q32 0 59.5 -11t48 -34.5t32.5 -59.5t12 -85v-213q0 -39 1.5 -62t9 -36t23.5 -19t46 -9v-18h-276v18q26 3 40 9t21 19t8 36t1 62v189q0 129 -93 129q-29 0 -53.5 -10.5t-38.5 -30.5v-277q0 -39 1 -62t8 -36
t21 -19t40 -9v-18h-276v18q30 3 46 9t23.5 19t9 36t1.5 62v223q0 35 -2 54t-10.5 28t-24.5 11t-43 3v17zM146 636q0 23 5.5 47t16.5 44t29 32.5t43 12.5q21 0 41 -10t39 -21.5t36.5 -21.5t34.5 -10q27 0 40 14t15 46h19q0 -41 -8 -66.5t-20 -39.5t-27 -19.5t-31 -5.5
q-25 0 -45.5 10t-39 21.5t-36 21.5t-37.5 10q-24 0 -39 -17t-17 -48h-19z" />
    <glyph glyph-name="ograve" unicode="&#xf2;" horiz-adv-x="622" 
d="M266 772l69 -169h-16l-197 169h144zM298 511q-34 0 -58 -16t-39.5 -44t-22.5 -66t-7 -82q0 -36 7.5 -84.5t25 -92t47 -73.5t73.5 -30q33 0 57 16.5t39 45.5t22 67t7 82q0 35 -7.5 83t-24.5 91t-46.5 73t-72.5 30zM307 547q56 0 106 -21t87.5 -58t59.5 -88t22 -112
q0 -57 -20.5 -108t-56.5 -89.5t-85.5 -61t-107.5 -22.5q-57 0 -107 21t-87.5 58.5t-59 89.5t-21.5 114q0 55 20 105.5t56 88.5t85.5 60.5t108.5 22.5z" />
    <glyph glyph-name="oacute" unicode="&#xf3;" horiz-adv-x="622" 
d="M508 772l-197 -169h-16l69 169h144zM298 511q-34 0 -58 -16t-39.5 -44t-22.5 -66t-7 -82q0 -36 7.5 -84.5t25 -92t47 -73.5t73.5 -30q33 0 57 16.5t39 45.5t22 67t7 82q0 35 -7.5 83t-24.5 91t-46.5 73t-72.5 30zM307 547q56 0 106 -21t87.5 -58t59.5 -88t22 -112
q0 -57 -20.5 -108t-56.5 -89.5t-85.5 -61t-107.5 -22.5q-57 0 -107 21t-87.5 58.5t-59 89.5t-21.5 114q0 55 20 105.5t56 88.5t85.5 60.5t108.5 22.5z" />
    <glyph glyph-name="ocircumflex" unicode="&#xf4;" horiz-adv-x="622" 
d="M476 603h-20l-145 73l-145 -73h-19l158 169h13zM298 511q-34 0 -58 -16t-39.5 -44t-22.5 -66t-7 -82q0 -36 7.5 -84.5t25 -92t47 -73.5t73.5 -30q33 0 57 16.5t39 45.5t22 67t7 82q0 35 -7.5 83t-24.5 91t-46.5 73t-72.5 30zM307 547q56 0 106 -21t87.5 -58t59.5 -88
t22 -112q0 -57 -20.5 -108t-56.5 -89.5t-85.5 -61t-107.5 -22.5q-57 0 -107 21t-87.5 58.5t-59 89.5t-21.5 114q0 55 20 105.5t56 88.5t85.5 60.5t108.5 22.5z" />
    <glyph glyph-name="otilde" unicode="&#xf5;" horiz-adv-x="622" 
d="M298 511q-34 0 -58 -16t-39.5 -44t-22.5 -66t-7 -82q0 -36 7.5 -84.5t25 -92t47 -73.5t73.5 -30q33 0 57 16.5t39 45.5t22 67t7 82q0 35 -7.5 83t-24.5 91t-46.5 73t-72.5 30zM307 547q56 0 106 -21t87.5 -58t59.5 -88t22 -112q0 -57 -20.5 -108t-56.5 -89.5t-85.5 -61
t-107.5 -22.5q-57 0 -107 21t-87.5 58.5t-59 89.5t-21.5 114q0 55 20 105.5t56 88.5t85.5 60.5t108.5 22.5zM146 636q0 23 5.5 47t16.5 44t29 32.5t43 12.5q21 0 41 -10t39 -21.5t36.5 -21.5t34.5 -10q27 0 40 14t15 46h19q0 -41 -8 -66.5t-20 -39.5t-27 -19.5t-31 -5.5
q-25 0 -45.5 10t-39 21.5t-36 21.5t-37.5 10q-24 0 -39 -17t-17 -48h-19z" />
    <glyph glyph-name="odieresis" unicode="&#xf6;" horiz-adv-x="622" 
d="M128 705q0 29 19.5 48t48.5 19q28 0 47.5 -19t19.5 -48q0 -30 -19.5 -49.5t-47.5 -19.5q-29 0 -48.5 19.5t-19.5 49.5zM351 705q0 29 20 48t49 19q28 0 47.5 -19t19.5 -48q0 -30 -19.5 -49.5t-47.5 -19.5q-29 0 -49 19.5t-20 49.5zM298 511q-34 0 -58 -16t-39.5 -44
t-22.5 -66t-7 -82q0 -36 7.5 -84.5t25 -92t47 -73.5t73.5 -30q33 0 57 16.5t39 45.5t22 67t7 82q0 35 -7.5 83t-24.5 91t-46.5 73t-72.5 30zM307 547q56 0 106 -21t87.5 -58t59.5 -88t22 -112q0 -57 -20.5 -108t-56.5 -89.5t-85.5 -61t-107.5 -22.5q-57 0 -107 21
t-87.5 58.5t-59 89.5t-21.5 114q0 55 20 105.5t56 88.5t85.5 60.5t108.5 22.5z" />
    <glyph glyph-name="divide" unicode="&#xf7;" 
d="M289 156h105v-107h-105v107zM289 494h105v-109h-105v109zM78 230v76h522v-76h-522z" />
    <glyph glyph-name="oslash" unicode="&#xf8;" horiz-adv-x="622" 
d="M307 547q84 0 152 -45l66 80l32 -26l-66 -80q42 -38 66.5 -91t24.5 -117q0 -57 -20.5 -108t-56.5 -89.5t-85.5 -61t-107.5 -22.5q-50 0 -94 15.5t-79 44.5l-67 -81l-32 27l69 83q-34 38 -53 86.5t-19 107.5q0 55 20 105.5t56 88.5t85.5 60.5t108.5 22.5zM449 234
q0 32 -6.5 74.5t-20.5 83.5l-219 -266q18 -44 47 -73.5t74 -29.5q33 0 57 16.5t39 45.5t22 67t7 82zM298 511q-34 0 -58 -16t-39.5 -44t-22.5 -66t-7 -82q0 -27 4 -61t13 -69l216 262q-18 33 -44 54.5t-62 21.5z" />
    <glyph glyph-name="ugrave" unicode="&#xf9;" horiz-adv-x="600" 
d="M253 772l69 -169h-16l-197 169h144zM505 168q0 -35 1.5 -54.5t8.5 -30t22 -13.5t42 -4v-17l-184 -57l-14 99q-10 -20 -24.5 -38.5t-33 -33t-42.5 -23.5t-53 -9q-32 0 -60.5 10.5t-49.5 34t-33 61t-12 90.5v43.5t0.5 62t0.5 62v43.5q0 29 -1 48t-8 30t-22 16t-43 7v17
l202 27q-1 -39 -2 -85.5t-1 -116.5v-131q0 -68 20 -103t66 -35q58 0 94 52v274q0 29 -1 48t-8 30t-22 16t-43 7v17l203 27q-1 -39 -2 -86.5t-1 -118.5v-166v0z" />
    <glyph glyph-name="uacute" unicode="&#xfa;" horiz-adv-x="600" 
d="M471 772l-197 -169h-16l69 169h144zM505 168q0 -35 1.5 -54.5t8.5 -30t22 -13.5t42 -4v-17l-184 -57l-14 99q-10 -20 -24.5 -38.5t-33 -33t-42.5 -23.5t-53 -9q-32 0 -60.5 10.5t-49.5 34t-33 61t-12 90.5v43.5t0.5 62t0.5 62v43.5q0 29 -1 48t-8 30t-22 16t-43 7v17
l202 27q-1 -39 -2 -85.5t-1 -116.5v-131q0 -68 20 -103t66 -35q58 0 94 52v274q0 29 -1 48t-8 30t-22 16t-43 7v17l203 27q-1 -39 -2 -86.5t-1 -118.5v-166v0z" />
    <glyph glyph-name="ucircumflex" unicode="&#xfb;" horiz-adv-x="600" 
d="M452 603h-20l-145 73l-145 -73h-19l158 169h13zM505 168q0 -35 1.5 -54.5t8.5 -30t22 -13.5t42 -4v-17l-184 -57l-14 99q-10 -20 -24.5 -38.5t-33 -33t-42.5 -23.5t-53 -9q-32 0 -60.5 10.5t-49.5 34t-33 61t-12 90.5v43.5t0.5 62t0.5 62v43.5q0 29 -1 48t-8 30t-22 16
t-43 7v17l202 27q-1 -39 -2 -85.5t-1 -116.5v-131q0 -68 20 -103t66 -35q58 0 94 52v274q0 29 -1 48t-8 30t-22 16t-43 7v17l203 27q-1 -39 -2 -86.5t-1 -118.5v-166v0z" />
    <glyph glyph-name="udieresis" unicode="&#xfc;" horiz-adv-x="600" 
d="M110 705q0 29 19.5 48t48.5 19q28 0 47.5 -19t19.5 -48q0 -30 -19.5 -49.5t-47.5 -19.5q-29 0 -48.5 19.5t-19.5 49.5zM333 705q0 29 20 48t49 19q28 0 47.5 -19t19.5 -48q0 -30 -19.5 -49.5t-47.5 -19.5q-29 0 -49 19.5t-20 49.5zM505 168q0 -35 1.5 -54.5t8.5 -30
t22 -13.5t42 -4v-17l-184 -57l-14 99q-10 -20 -24.5 -38.5t-33 -33t-42.5 -23.5t-53 -9q-32 0 -60.5 10.5t-49.5 34t-33 61t-12 90.5v43.5t0.5 62t0.5 62v43.5q0 29 -1 48t-8 30t-22 16t-43 7v17l202 27q-1 -39 -2 -85.5t-1 -116.5v-131q0 -68 20 -103t66 -35q58 0 94 52
v274q0 29 -1 48t-8 30t-22 16t-43 7v17l203 27q-1 -39 -2 -86.5t-1 -118.5v-166v0z" />
    <glyph glyph-name="yacute" unicode="&#xfd;" horiz-adv-x="587" 
d="M152 -222q-34 0 -56.5 17t-22.5 49q0 21 13 40t36 19q5 0 11 -2t17 -11l51 -45q12 20 24.5 46t23.5 52l21 51l-202 460q-6 15 -11.5 26.5t-12.5 20t-17.5 13.5t-26.5 6v18h278v-18q-27 -1 -42.5 -6.5t-21.5 -15.5t-4 -24t9 -32l116 -296l98 245q13 33 19.5 56t3.5 38
t-17 23.5t-41 11.5v18h189v-18q-20 -2 -32.5 -7.5t-21.5 -16t-17 -27.5t-19 -44l-199 -489q-14 -35 -27.5 -64t-30 -50t-37.5 -32.5t-51 -11.5zM527 772l-197 -169h-16l69 169h144z" />
    <glyph glyph-name="thorn" unicode="&#xfe;" horiz-adv-x="646" 
d="M347 22q33 0 57 15.5t40 43t24 66t8 83.5q0 48 -10.5 90.5t-30.5 74t-48 50t-62 18.5q-26 0 -49 -11t-37 -30v-345q14 -24 42.5 -39.5t65.5 -15.5zM339 -216h-306v18q30 3 46 9t23.5 19t9 36t1.5 62v715q0 35 -2 54t-10.5 28t-24.5 11t-43 3v17l209 67q-1 -40 -2 -92
t-1 -129v-87l-3 -69q13 20 29 38t35.5 32t43 22.5t52.5 8.5q48 0 87 -22t66.5 -58.5t42 -84t14.5 -99.5q0 -66 -21.5 -120.5t-57 -93.5t-82 -60.5t-95.5 -21.5q-27 0 -56 7.5t-55 29.5v-96q0 -39 1.5 -62t11 -36t30 -19t57.5 -9v-18z" />
    <glyph glyph-name="ydieresis" unicode="&#xff;" horiz-adv-x="587" 
d="M152 -222q-34 0 -56.5 17t-22.5 49q0 21 13 40t36 19q5 0 11 -2t17 -11l51 -45q12 20 24.5 46t23.5 52l21 51l-202 460q-6 15 -11.5 26.5t-12.5 20t-17.5 13.5t-26.5 6v18h278v-18q-27 -1 -42.5 -6.5t-21.5 -15.5t-4 -24t9 -32l116 -296l98 245q13 33 19.5 56t3.5 38
t-17 23.5t-41 11.5v18h189v-18q-20 -2 -32.5 -7.5t-21.5 -16t-17 -27.5t-19 -44l-199 -489q-14 -35 -27.5 -64t-30 -50t-37.5 -32.5t-51 -11.5zM154 705q0 29 19.5 48t48.5 19q28 0 47.5 -19t19.5 -48q0 -30 -19.5 -49.5t-47.5 -19.5q-29 0 -48.5 19.5t-19.5 49.5zM377 705
q0 29 20 48t49 19q28 0 47.5 -19t19.5 -48q0 -30 -19.5 -49.5t-47.5 -19.5q-29 0 -49 19.5t-20 49.5z" />
    <glyph glyph-name="Abreve" unicode="&#x102;" horiz-adv-x="774" 
d="M5 18q24 3 39.5 9.5t28.5 23.5t26.5 49.5t34.5 87.5l206 537q20 3 39 15t30 29h4l254 -650q12 -30 20.5 -48.5t19 -29t25 -15.5t37.5 -8v-18h-304v18q31 3 47 8.5t21.5 15t2.5 23t-10 32.5l-54 141h-272l-6 -16q-27 -69 -36.5 -108.5t-3 -60t27 -26.5t53.5 -9v-18h-230
v18zM220 287h234l-115 303zM383 842q43 0 64 25.5t24 70.5h48q0 -24 -8 -48t-24.5 -43.5t-42 -31.5t-61.5 -12q-35 0 -60.5 12t-41.5 31.5t-24 43.5t-8 48h48q2 -45 23 -70.5t63 -25.5z" />
    <glyph glyph-name="Amacron" unicode="&#x100;" horiz-adv-x="774" 
d="M5 18q24 3 39.5 9.5t28.5 23.5t26.5 49.5t34.5 87.5l206 537q20 3 39 15t30 29h4l254 -650q12 -30 20.5 -48.5t19 -29t25 -15.5t37.5 -8v-18h-304v18q31 3 47 8.5t21.5 15t2.5 23t-10 32.5l-54 141h-272l-6 -16q-27 -69 -36.5 -108.5t-3 -60t27 -26.5t53.5 -9v-18h-230
v18zM220 287h234l-115 303zM235 820v68h296v-68h-296z" />
    <glyph glyph-name="Aogonek" unicode="&#x104;" horiz-adv-x="774" 
d="M5 18q24 3 39.5 9.5t28.5 23.5t26.5 49.5t34.5 87.5l206 537q20 3 39 15t30 29h4l254 -650q12 -30 20.5 -48.5t19 -29t25 -15.5t37.5 -8v-18h-304v18q31 3 47 8.5t21.5 15t2.5 23t-10 32.5l-54 141h-272l-6 -16q-27 -69 -36.5 -108.5t-3 -60t27 -26.5t53.5 -9v-18h-230
v18zM220 287h234l-115 303zM690 -189q-22 -20 -50.5 -32t-56.5 -12q-18 0 -35 4.5t-31 15t-22.5 26.5t-8.5 39q0 22 12 43.5t31.5 40t44 35t50.5 30.5h18q-31 -21 -52.5 -54.5t-21.5 -67.5q0 -32 18 -51.5t47 -19.5q26 0 52 13z" />
    <glyph glyph-name="Cacute" unicode="&#x106;" horiz-adv-x="742" 
d="M203 365q0 -75 15.5 -136.5t45.5 -105t74 -67.5t101 -24q49 0 87.5 15t68.5 39.5t51 56t34 64.5l27 -9q-12 -40 -36.5 -78t-60.5 -67.5t-84 -47.5t-108 -18q-81 0 -149 28t-116.5 78t-75.5 119.5t-27 152.5q0 90 31.5 160.5t84.5 119t124 74.5t150 26q62 0 120 -11.5
t96 -28.5l27 -225h-19q-28 106 -85.5 167t-150.5 61q-46 0 -87 -21.5t-71.5 -64t-48.5 -107t-18 -150.5zM412 793h-21l83 129h157z" />
    <glyph glyph-name="Ccaron" unicode="&#x10c;" horiz-adv-x="742" 
d="M203 365q0 -75 15.5 -136.5t45.5 -105t74 -67.5t101 -24q49 0 87.5 15t68.5 39.5t51 56t34 64.5l27 -9q-12 -40 -36.5 -78t-60.5 -67.5t-84 -47.5t-108 -18q-81 0 -149 28t-116.5 78t-75.5 119.5t-27 152.5q0 90 31.5 160.5t84.5 119t124 74.5t150 26q62 0 120 -11.5
t96 -28.5l27 -225h-19q-28 106 -85.5 167t-150.5 61q-46 0 -87 -21.5t-71.5 -64t-48.5 -107t-18 -150.5zM278 932h23l130 -59l130 59h23l-145 -139h-16z" />
    <glyph glyph-name="Ccircumflex" unicode="&#x108;" horiz-adv-x="742" 
d="M203 365q0 -75 15.5 -136.5t45.5 -105t74 -67.5t101 -24q49 0 87.5 15t68.5 39.5t51 56t34 64.5l27 -9q-12 -40 -36.5 -78t-60.5 -67.5t-84 -47.5t-108 -18q-81 0 -149 28t-116.5 78t-75.5 119.5t-27 152.5q0 90 31.5 160.5t84.5 119t124 74.5t150 26q62 0 120 -11.5
t96 -28.5l27 -225h-19q-28 106 -85.5 167t-150.5 61q-46 0 -87 -21.5t-71.5 -64t-48.5 -107t-18 -150.5zM427 932l145 -139h-23l-130 59l-130 -59h-23l145 139h16z" />
    <glyph glyph-name="Cdotaccent" unicode="&#x10a;" horiz-adv-x="742" 
d="M349 865q0 29 19.5 48t48.5 19t48 -19t19 -48q0 -30 -19 -49.5t-48 -19.5t-48.5 19.5t-19.5 49.5zM203 365q0 -75 15.5 -136.5t45.5 -105t74 -67.5t101 -24q49 0 87.5 15t68.5 39.5t51 56t34 64.5l27 -9q-12 -40 -36.5 -78t-60.5 -67.5t-84 -47.5t-108 -18q-81 0 -149 28
t-116.5 78t-75.5 119.5t-27 152.5q0 90 31.5 160.5t84.5 119t124 74.5t150 26q62 0 120 -11.5t96 -28.5l27 -225h-19q-28 106 -85.5 167t-150.5 61q-46 0 -87 -21.5t-71.5 -64t-48.5 -107t-18 -150.5z" />
    <glyph glyph-name="Dcaron" unicode="&#x10e;" horiz-adv-x="821" 
d="M309 36q84 0 142.5 21.5t95.5 63.5t54 104.5t17 145.5q0 167 -79.5 242.5t-240.5 75.5h-26v-653h37zM317 725q93 0 176 -18t144.5 -59.5t97.5 -109.5t36 -168q0 -98 -32 -168t-91.5 -115t-144 -66t-189.5 -21h-278v18q36 4 56 10.5t29.5 19.5t11.5 36t2 62v433
q0 39 -2 62t-11.5 36t-29.5 19t-56 11v18h281zM224 932h23l130 -59l130 59h23l-145 -139h-16z" />
    <glyph glyph-name="Dcroat" unicode="&#x110;" horiz-adv-x="840" 
d="M336 725q93 0 176 -18t144.5 -59.5t97.5 -109.5t36 -168q0 -98 -32 -168t-91.5 -115t-144 -66t-189.5 -21h-278v18q36 4 56 10.5t29.5 19.5t11.5 36t2 62v206h-122v44h122v183q0 39 -2 62t-11.5 36t-29.5 19t-56 11v18h281zM328 36q84 0 142.5 21.5t95.5 63.5t54 104.5
t17 145.5q0 167 -79.5 242.5t-240.5 75.5h-26v-293h123v-44h-123v-316h37z" />
    <glyph glyph-name="Ebreve" unicode="&#x114;" horiz-adv-x="727" 
d="M640 -1q-60 1 -119.5 1h-113.5h-371v18q36 4 56 10.5t29.5 19.5t11.5 36t2 62v433q0 39 -2 62t-11.5 36t-29.5 19t-56 11v18h361q52 0 114.5 0.5t121.5 2.5l24 -239h-20q-19 63 -42.5 102.5t-59.5 61t-86.5 29t-123.5 7.5h-53v-293h117q43 0 69 24.5t34 87.5h18v-268h-18
q-8 63 -34 87.5t-69 24.5h-117v-274q0 -26 9 -34.5t42 -8.5h38q68 0 116 9t82 32t58 62t44 100h19l-40 -239v0zM387 826q43 0 64 25.5t24 70.5h48q0 -24 -8 -48t-24.5 -43.5t-42 -31.5t-61.5 -12q-35 0 -60.5 12t-41.5 31.5t-24 43.5t-8 48h48q2 -45 23 -70.5t63 -25.5z" />
    <glyph glyph-name="Ecaron" unicode="&#x11a;" horiz-adv-x="727" 
d="M640 -1q-60 1 -119.5 1h-113.5h-371v18q36 4 56 10.5t29.5 19.5t11.5 36t2 62v433q0 39 -2 62t-11.5 36t-29.5 19t-56 11v18h361q52 0 114.5 0.5t121.5 2.5l24 -239h-20q-19 63 -42.5 102.5t-59.5 61t-86.5 29t-123.5 7.5h-53v-293h117q43 0 69 24.5t34 87.5h18v-268h-18
q-8 63 -34 87.5t-69 24.5h-117v-274q0 -26 9 -34.5t42 -8.5h38q68 0 116 9t82 32t58 62t44 100h19l-40 -239v0zM234 932h23l130 -59l130 59h23l-145 -139h-16z" />
    <glyph glyph-name="Emacron" unicode="&#x112;" horiz-adv-x="727" 
d="M640 -1q-60 1 -119.5 1h-113.5h-371v18q36 4 56 10.5t29.5 19.5t11.5 36t2 62v433q0 39 -2 62t-11.5 36t-29.5 19t-56 11v18h361q52 0 114.5 0.5t121.5 2.5l24 -239h-20q-19 63 -42.5 102.5t-59.5 61t-86.5 29t-123.5 7.5h-53v-293h117q43 0 69 24.5t34 87.5h18v-268h-18
q-8 63 -34 87.5t-69 24.5h-117v-274q0 -26 9 -34.5t42 -8.5h38q68 0 116 9t82 32t58 62t44 100h19l-40 -239v0zM248 818v68h296v-68h-296z" />
    <glyph glyph-name="Eogonek" unicode="&#x118;" horiz-adv-x="727" 
d="M670 -189q-22 -20 -50.5 -32t-56.5 -12q-18 0 -35 4.5t-31 15t-22.5 26.5t-8.5 39q0 22 12 43.5t31.5 40t44 35t50.5 30.5h18q-31 -21 -52.5 -54.5t-21.5 -67.5q0 -32 18 -51.5t47 -19.5q26 0 52 13zM640 -1q-60 1 -119.5 1h-113.5h-371v18q36 4 56 10.5t29.5 19.5
t11.5 36t2 62v433q0 39 -2 62t-11.5 36t-29.5 19t-56 11v18h361q52 0 114.5 0.5t121.5 2.5l24 -239h-20q-19 63 -42.5 102.5t-59.5 61t-86.5 29t-123.5 7.5h-53v-293h117q43 0 69 24.5t34 87.5h18v-268h-18q-8 63 -34 87.5t-69 24.5h-117v-274q0 -26 9 -34.5t42 -8.5h38
q68 0 116 9t82 32t58 62t44 100h19l-40 -239v0z" />
    <glyph glyph-name="Edotaccent" unicode="&#x116;" horiz-adv-x="727" 
d="M640 -1q-60 1 -119.5 1h-113.5h-371v18q36 4 56 10.5t29.5 19.5t11.5 36t2 62v433q0 39 -2 62t-11.5 36t-29.5 19t-56 11v18h361q52 0 114.5 0.5t121.5 2.5l24 -239h-20q-19 63 -42.5 102.5t-59.5 61t-86.5 29t-123.5 7.5h-53v-293h117q43 0 69 24.5t34 87.5h18v-268h-18
q-8 63 -34 87.5t-69 24.5h-117v-274q0 -26 9 -34.5t42 -8.5h38q68 0 116 9t82 32t58 62t44 100h19l-40 -239v0zM318 865q0 29 19.5 48t48.5 19t48 -19t19 -48q0 -30 -19 -49.5t-48 -19.5t-48.5 19.5t-19.5 49.5z" />
    <glyph glyph-name="Gbreve" unicode="&#x11e;" horiz-adv-x="825" 
d="M444 826q43 0 64 25.5t24 70.5h48q0 -24 -8 -48t-24.5 -43.5t-42 -31.5t-61.5 -12q-35 0 -60.5 12t-41.5 31.5t-24 43.5t-8 48h48q2 -45 23 -70.5t63 -25.5zM798 341v-19q-24 -3 -37.5 -9.5t-19.5 -20t-7 -36.5t-1 -61v-131q-29 -20 -66 -34.5t-77.5 -24t-82 -14
t-77.5 -4.5q-89 0 -160 28t-120.5 78t-76 119t-26.5 151q0 90 32.5 161t88 120t128.5 75t154 26q72 0 130 -10.5t100 -27.5l27 -227h-19q-29 107 -89.5 167.5t-154.5 60.5q-50 0 -94 -21.5t-77.5 -65t-53 -108.5t-19.5 -152q0 -76 17 -138t49 -106t77.5 -68t102.5 -24
q24 0 50 2.5t48.5 12.5t37 28t14.5 50v77q0 38 -2.5 61t-12 36.5t-29.5 20t-55 9.5v19h301z" />
    <glyph glyph-name="Gcircumflex" unicode="&#x11c;" horiz-adv-x="825" 
d="M448 932l145 -139h-23l-130 59l-130 -59h-23l145 139h16zM798 341v-19q-24 -3 -37.5 -9.5t-19.5 -20t-7 -36.5t-1 -61v-131q-29 -20 -66 -34.5t-77.5 -24t-82 -14t-77.5 -4.5q-89 0 -160 28t-120.5 78t-76 119t-26.5 151q0 90 32.5 161t88 120t128.5 75t154 26
q72 0 130 -10.5t100 -27.5l27 -227h-19q-29 107 -89.5 167.5t-154.5 60.5q-50 0 -94 -21.5t-77.5 -65t-53 -108.5t-19.5 -152q0 -76 17 -138t49 -106t77.5 -68t102.5 -24q24 0 50 2.5t48.5 12.5t37 28t14.5 50v77q0 38 -2.5 61t-12 36.5t-29.5 20t-55 9.5v19h301z" />
    <glyph glyph-name="Gcommaaccent" unicode="&#x122;" horiz-adv-x="825" 
d="M361 -118q0 26 18.5 44.5t46.5 18.5q29 0 45.5 -19.5t16.5 -51.5q0 -29 -11 -56.5t-30 -52t-44 -44t-53 -32.5l-5 10q14 10 28 23.5t25.5 29t19 33t7.5 37.5q-26 1 -45 17.5t-19 42.5zM798 341v-19q-24 -3 -37.5 -9.5t-19.5 -20t-7 -36.5t-1 -61v-131q-29 -20 -66 -34.5
t-77.5 -24t-82 -14t-77.5 -4.5q-89 0 -160 28t-120.5 78t-76 119t-26.5 151q0 90 32.5 161t88 120t128.5 75t154 26q72 0 130 -10.5t100 -27.5l27 -227h-19q-29 107 -89.5 167.5t-154.5 60.5q-50 0 -94 -21.5t-77.5 -65t-53 -108.5t-19.5 -152q0 -76 17 -138t49 -106
t77.5 -68t102.5 -24q24 0 50 2.5t48.5 12.5t37 28t14.5 50v77q0 38 -2.5 61t-12 36.5t-29.5 20t-55 9.5v19h301z" />
    <glyph glyph-name="Gdotaccent" unicode="&#x120;" horiz-adv-x="825" 
d="M375 865q0 29 19.5 48t48.5 19t48 -19t19 -48q0 -30 -19 -49.5t-48 -19.5t-48.5 19.5t-19.5 49.5zM798 341v-19q-24 -3 -37.5 -9.5t-19.5 -20t-7 -36.5t-1 -61v-131q-29 -20 -66 -34.5t-77.5 -24t-82 -14t-77.5 -4.5q-89 0 -160 28t-120.5 78t-76 119t-26.5 151
q0 90 32.5 161t88 120t128.5 75t154 26q72 0 130 -10.5t100 -27.5l27 -227h-19q-29 107 -89.5 167.5t-154.5 60.5q-50 0 -94 -21.5t-77.5 -65t-53 -108.5t-19.5 -152q0 -76 17 -138t49 -106t77.5 -68t102.5 -24q24 0 50 2.5t48.5 12.5t37 28t14.5 50v77q0 38 -2.5 61
t-12 36.5t-29.5 20t-55 9.5v19h301z" />
    <glyph glyph-name="Hbar" unicode="&#x126;" horiz-adv-x="854" 
d="M718 566h99v-45h-99v-375q0 -39 2 -62t11.5 -36t29.5 -19.5t56 -10.5v-18h-335v18q36 4 56 10.5t29.5 19.5t11.5 36t2 62v206h-309v-206q0 -39 2 -62t11.5 -36t29.5 -19.5t56 -10.5v-18h-335v18q36 4 56 10.5t29.5 19.5t11.5 36t2 62v375h-99v45h99v13q0 39 -2 62
t-11.5 36t-29.5 19t-56 11v18h335v-18q-36 -5 -56 -11t-29.5 -19t-11.5 -36t-2 -62v-13h309v13q0 39 -2 62t-11.5 36t-29.5 19t-56 11v18h335v-18q-36 -5 -56 -11t-29.5 -19t-11.5 -36t-2 -62v-13zM581 396v125h-309v-125h309z" />
    <glyph glyph-name="Hcircumflex" unicode="&#x124;" horiz-adv-x="854" 
d="M718 146q0 -39 2 -62t11.5 -36t29.5 -19.5t56 -10.5v-18h-335v18q36 4 56 10.5t29.5 19.5t11.5 36t2 62v206h-309v-206q0 -39 2 -62t11.5 -36t29.5 -19.5t56 -10.5v-18h-335v18q36 4 56 10.5t29.5 19.5t11.5 36t2 62v433q0 39 -2 62t-11.5 36t-29.5 19t-56 11v18h335v-18
q-36 -5 -56 -11t-29.5 -19t-11.5 -36t-2 -62v-183h309v183q0 39 -2 62t-11.5 36t-29.5 19t-56 11v18h335v-18q-36 -5 -56 -11t-29.5 -19t-11.5 -36t-2 -62v-433zM435 932l145 -139h-23l-130 59l-130 -59h-23l145 139h16z" />
    <glyph glyph-name="Ibreve" unicode="&#x12c;" horiz-adv-x="407" 
d="M272 146q0 -39 2 -62t11.5 -36t29.5 -19.5t56 -10.5v-18h-335v18q36 4 56 10.5t29.5 19.5t11.5 36t2 62v433q0 39 -2 62t-11.5 36t-29.5 19t-56 11v18h335v-18q-36 -5 -56 -11t-29.5 -19t-11.5 -36t-2 -62v-433zM200 826q43 0 64 25.5t24 70.5h48q0 -24 -8 -48
t-24.5 -43.5t-42 -31.5t-61.5 -12q-35 0 -60.5 12t-41.5 31.5t-24 43.5t-8 48h48q2 -45 23 -70.5t63 -25.5z" />
    <glyph glyph-name="Idotaccent" unicode="&#x130;" horiz-adv-x="407" 
d="M272 146q0 -39 2 -62t11.5 -36t29.5 -19.5t56 -10.5v-18h-335v18q36 4 56 10.5t29.5 19.5t11.5 36t2 62v433q0 39 -2 62t-11.5 36t-29.5 19t-56 11v18h335v-18q-36 -5 -56 -11t-29.5 -19t-11.5 -36t-2 -62v-433zM136 865q0 29 19.5 48t48.5 19t48 -19t19 -48
q0 -30 -19 -49.5t-48 -19.5t-48.5 19.5t-19.5 49.5z" />
    <glyph glyph-name="Imacron" unicode="&#x12a;" horiz-adv-x="407" 
d="M272 146q0 -39 2 -62t11.5 -36t29.5 -19.5t56 -10.5v-18h-335v18q36 4 56 10.5t29.5 19.5t11.5 36t2 62v433q0 39 -2 62t-11.5 36t-29.5 19t-56 11v18h335v-18q-36 -5 -56 -11t-29.5 -19t-11.5 -36t-2 -62v-433zM55 818v68h296v-68h-296z" />
    <glyph glyph-name="Iogonek" unicode="&#x12e;" horiz-adv-x="407" 
d="M272 146q0 -39 2 -62t11.5 -36t29.5 -19.5t56 -10.5v-18h-335v18q36 4 56 10.5t29.5 19.5t11.5 36t2 62v433q0 39 -2 62t-11.5 36t-29.5 19t-56 11v18h335v-18q-36 -5 -56 -11t-29.5 -19t-11.5 -36t-2 -62v-433zM287 -189q-22 -20 -50.5 -32t-56.5 -12q-18 0 -35 4.5
t-31 15t-22.5 26.5t-8.5 39q0 22 12 43.5t31.5 40t44 35t50.5 30.5h18q-31 -21 -52.5 -54.5t-21.5 -67.5q0 -32 18 -51.5t47 -19.5q26 0 52 13z" />
    <glyph glyph-name="Itilde" unicode="&#x128;" horiz-adv-x="407" 
d="M272 146q0 -39 2 -62t11.5 -36t29.5 -19.5t56 -10.5v-18h-335v18q36 4 56 10.5t29.5 19.5t11.5 36t2 62v433q0 39 -2 62t-11.5 36t-29.5 19t-56 11v18h335v-18q-36 -5 -56 -11t-29.5 -19t-11.5 -36t-2 -62v-433zM290 864q25 0 40.5 11.5t20.5 38.5h16q0 -24 -5.5 -47
t-17 -41t-29 -28.5t-41.5 -10.5q-25 0 -45 9.5t-38.5 21t-37.5 21t-42 9.5q-26 0 -41.5 -11.5t-20.5 -38.5h-16q0 24 5.5 47t17 41t29 28.5t41.5 10.5t44.5 -9.5t39.5 -21t38.5 -21t41.5 -9.5z" />
    <glyph glyph-name="uni1ECA" unicode="&#x1eca;" horiz-adv-x="407" 
d="M272 146q0 -39 2 -62t11.5 -36t29.5 -19.5t56 -10.5v-18h-335v18q36 4 56 10.5t29.5 19.5t11.5 36t2 62v433q0 39 -2 62t-11.5 36t-29.5 19t-56 11v18h335v-18q-36 -5 -56 -11t-29.5 -19t-11.5 -36t-2 -62v-433zM136 -155q0 29 19.5 48t48.5 19t48 -19t19 -48
q0 -30 -19 -49.5t-48 -19.5t-48.5 19.5t-19.5 49.5z" />
    <glyph glyph-name="Jcircumflex" unicode="&#x134;" horiz-adv-x="454" 
d="M203 579q0 39 -2 62t-11.5 36t-29.5 19t-56 11v18h335v-18q-36 -5 -56 -11t-29.5 -19t-11.5 -36t-2 -62v-346q0 -75 -18.5 -123t-48 -75t-67 -37.5t-75.5 -10.5q-28 0 -63 4t-55 10v157h11q10 -18 23.5 -41t29.5 -44t33.5 -35t34.5 -14q12 0 22.5 5t18.5 24.5t12.5 59.5
t4.5 111v355v0zM271 932l145 -139h-23l-130 59l-130 -59h-23l145 139h16z" />
    <glyph glyph-name="Kcommaaccent" unicode="&#x136;" horiz-adv-x="800" 
d="M322 -118q0 26 18.5 44.5t46.5 18.5q29 0 45.5 -19.5t16.5 -51.5q0 -29 -11 -56.5t-30 -52t-44 -44t-53 -32.5l-5 10q14 10 28 23.5t25.5 29t19 33t7.5 37.5q-26 1 -45 17.5t-19 42.5zM272 146q0 -39 2 -62t11.5 -36t29.5 -19.5t56 -10.5v-18h-335v18q36 4 56 10.5
t29.5 19.5t11.5 36t2 62v433q0 39 -2 62t-11.5 36t-29.5 19t-56 11v18h335v-18q-36 -5 -56 -11t-29.5 -19t-11.5 -36t-2 -62v-433zM496 573q37 34 58.5 58.5t24 40t-14.5 24t-57 11.5v18h247v-18q-25 -3 -43.5 -10t-39.5 -21.5t-48.5 -38.5t-69.5 -63l-160 -148l264 -303
q22 -26 38.5 -45t31.5 -31.5t31 -19t39 -9.5v-18h-322v18q50 4 54.5 23.5t-21.5 50.5l-235 274z" />
    <glyph glyph-name="Lacute" unicode="&#x139;" horiz-adv-x="651" 
d="M176 793h-21l83 129h157zM36 18q36 4 56 10.5t29.5 19.5t11.5 36t2 62v433q0 39 -2 62t-11.5 36t-29.5 19t-56 11v18h335v-18q-36 -5 -56 -11t-29.5 -19t-11.5 -36t-2 -62v-503q0 -25 9 -33t32 -8h31q68 0 113 9.5t76 34t52.5 66t41.5 105.5h20l-32 -251q-18 0 -46.5 0.5
t-59 0.5h-57.5h-42h-374v18z" />
    <glyph glyph-name="Lcaron" unicode="&#x13d;" horiz-adv-x="651" 
d="M36 18q36 4 56 10.5t29.5 19.5t11.5 36t2 62v433q0 39 -2 62t-11.5 36t-29.5 19t-56 11v18h335v-18q-36 -5 -56 -11t-29.5 -19t-11.5 -36t-2 -62v-503q0 -25 9 -33t32 -8h31q68 0 113 9.5t76 34t52.5 66t41.5 105.5h20l-32 -251q-18 0 -46.5 0.5t-59 0.5h-57.5h-42h-374
v18zM417 683q0 26 18.5 44.5t46.5 18.5q29 0 45.5 -19.5t16.5 -51.5q0 -29 -11 -56.5t-30 -52t-44 -44t-53 -32.5l-5 10q14 10 28 23.5t25.5 29t19 33t7.5 37.5q-26 1 -45 17.5t-19 42.5z" />
    <glyph glyph-name="Lcommaaccent" unicode="&#x13b;" horiz-adv-x="651" 
d="M245 -118q0 26 18.5 44.5t46.5 18.5q29 0 45.5 -19.5t16.5 -51.5q0 -29 -11 -56.5t-30 -52t-44 -44t-53 -32.5l-5 10q14 10 28 23.5t25.5 29t19 33t7.5 37.5q-26 1 -45 17.5t-19 42.5zM36 18q36 4 56 10.5t29.5 19.5t11.5 36t2 62v433q0 39 -2 62t-11.5 36t-29.5 19
t-56 11v18h335v-18q-36 -5 -56 -11t-29.5 -19t-11.5 -36t-2 -62v-503q0 -25 9 -33t32 -8h31q68 0 113 9.5t76 34t52.5 66t41.5 105.5h20l-32 -251q-18 0 -46.5 0.5t-59 0.5h-57.5h-42h-374v18z" />
    <glyph glyph-name="Ldot" unicode="&#x13f;" horiz-adv-x="651" 
d="M408 451q0 29 19.5 48t48.5 19t48 -19t19 -48q0 -30 -19 -49.5t-48 -19.5t-48.5 19.5t-19.5 49.5zM36 18q36 4 56 10.5t29.5 19.5t11.5 36t2 62v433q0 39 -2 62t-11.5 36t-29.5 19t-56 11v18h335v-18q-36 -5 -56 -11t-29.5 -19t-11.5 -36t-2 -62v-503q0 -25 9 -33t32 -8
h31q68 0 113 9.5t76 34t52.5 66t41.5 105.5h20l-32 -251q-18 0 -46.5 0.5t-59 0.5h-57.5h-42h-374v18z" />
    <glyph glyph-name="Lslash" unicode="&#x141;" horiz-adv-x="651" 
d="M36 18q36 4 56 10.5t29.5 19.5t11.5 36t2 62v173l-66 -35l-22 38l88 47v210q0 39 -2 62t-11.5 36t-29.5 19t-56 11v18h335v-18q-36 -5 -56 -11t-29.5 -19t-11.5 -36t-2 -62v-136l78 43l21 -39l-99 -54v-317q0 -25 9 -33t32 -8h31q68 0 113 9.5t76 34t52.5 66t41.5 105.5
h20l-32 -251q-18 0 -46.5 0.5t-59 0.5h-57.5h-42h-374v18z" />
    <glyph glyph-name="Eng" unicode="&#x14a;" horiz-adv-x="803" 
d="M132 612l-17 22q-26 35 -43.5 51.5t-38.5 24.5v15h186l423 -544v398q0 39 -2 62t-11.5 36t-29.5 19t-56 11v18h245v-18q-36 -5 -56 -11t-29.5 -19t-11.5 -36t-2 -62v-479q0 -62 -11 -111t-36.5 -89t-67.5 -73.5t-103 -64.5l-9 12q31 33 50 65.5t30.5 67t15.5 71t5 76.5
l-384 497v-405q0 -39 2 -62t11.5 -36t29.5 -19.5t56 -10.5v-18h-245v18q36 4 56 10.5t29.5 19.5t11.5 36t2 62v466z" />
    <glyph glyph-name="Nacute" unicode="&#x143;" horiz-adv-x="803" 
d="M399 793h-21l83 129h157zM642 579q0 39 -2 62t-11.5 36t-29.5 19t-56 11v18h245v-18q-36 -5 -56 -11t-29.5 -19t-11.5 -36t-2 -62v-579h-84l-426 551v-405q0 -39 2 -62t11.5 -36t29.5 -19.5t56 -10.5v-18h-245v18q36 4 56 10.5t29.5 19.5t11.5 36t2 62v466l-17 22
q-26 35 -43.5 51.5t-38.5 24.5v15h186l423 -544v398v0z" />
    <glyph glyph-name="Ncaron" unicode="&#x147;" horiz-adv-x="803" 
d="M283 932h23l130 -59l130 59h23l-145 -139h-16zM642 579q0 39 -2 62t-11.5 36t-29.5 19t-56 11v18h245v-18q-36 -5 -56 -11t-29.5 -19t-11.5 -36t-2 -62v-579h-84l-426 551v-405q0 -39 2 -62t11.5 -36t29.5 -19.5t56 -10.5v-18h-245v18q36 4 56 10.5t29.5 19.5t11.5 36
t2 62v466l-17 22q-26 35 -43.5 51.5t-38.5 24.5v15h186l423 -544v398v0z" />
    <glyph glyph-name="Ncommaaccent" unicode="&#x145;" horiz-adv-x="803" 
d="M342 -118q0 26 18.5 44.5t46.5 18.5q29 0 45.5 -19.5t16.5 -51.5q0 -29 -11 -56.5t-30 -52t-44 -44t-53 -32.5l-5 10q14 10 28 23.5t25.5 29t19 33t7.5 37.5q-26 1 -45 17.5t-19 42.5zM642 579q0 39 -2 62t-11.5 36t-29.5 19t-56 11v18h245v-18q-36 -5 -56 -11t-29.5 -19
t-11.5 -36t-2 -62v-579h-84l-426 551v-405q0 -39 2 -62t11.5 -36t29.5 -19.5t56 -10.5v-18h-245v18q36 4 56 10.5t29.5 19.5t11.5 36t2 62v466l-17 22q-26 35 -43.5 51.5t-38.5 24.5v15h186l423 -544v398v0z" />
    <glyph glyph-name="OE" unicode="&#x152;" horiz-adv-x="1251" 
d="M50 366q0 93 32 163.5t85 118.5t121.5 72.5t142.5 24.5q75 0 135.5 -25.5t102.5 -76.5v82h252q52 0 114.5 0.5t121.5 2.5l24 -239h-20q-19 63 -42.5 102.5t-59.5 61t-86.5 29t-123.5 7.5h-53v-293h117q43 0 69 24.5t34 87.5h18v-268h-18q-8 63 -34 87.5t-69 24.5h-117
v-274q0 -26 9 -34.5t42 -8.5h38q68 0 116 9t82 32t58 62t44 100h19l-40 -239q-60 1 -119.5 1h-113.5h-262v89q-42 -51 -102.5 -76.5t-135.5 -25.5q-74 0 -142.5 24.5t-121.5 72.5t-85 118.5t-32 163.5zM659 366q0 79 -16 142.5t-46 107.5t-72 68t-94 24t-94 -24t-72 -68
t-46 -107.5t-16 -142.5t16 -142.5t46 -107.5t72 -68t94 -24t94 24t72 68t46 107.5t16 142.5z" />
    <glyph glyph-name="Obreve" unicode="&#x14e;" horiz-adv-x="862" 
d="M50 366q0 93 32 163.5t85 118.5t121.5 72.5t142.5 24.5q73 0 142 -24.5t122 -72.5t85 -118.5t32 -163.5t-32 -163.5t-85 -118.5t-122 -72.5t-142 -24.5q-74 0 -142.5 24.5t-121.5 72.5t-85 118.5t-32 163.5zM659 366q0 79 -16 142.5t-46 107.5t-72 68t-94 24t-94 -24
t-72 -68t-46 -107.5t-16 -142.5t16 -142.5t46 -107.5t72 -68t94 -24t94 24t72 68t46 107.5t16 142.5zM430 826q43 0 64 25.5t24 70.5h48q0 -24 -8 -48t-24.5 -43.5t-42 -31.5t-61.5 -12q-35 0 -60.5 12t-41.5 31.5t-24 43.5t-8 48h48q2 -45 23 -70.5t63 -25.5z" />
    <glyph glyph-name="Ohungarumlaut" unicode="&#x150;" horiz-adv-x="862" 
d="M504 793h-21l83 129h157zM327 793h-21l83 129h157zM50 366q0 93 32 163.5t85 118.5t121.5 72.5t142.5 24.5q73 0 142 -24.5t122 -72.5t85 -118.5t32 -163.5t-32 -163.5t-85 -118.5t-122 -72.5t-142 -24.5q-74 0 -142.5 24.5t-121.5 72.5t-85 118.5t-32 163.5zM659 366
q0 79 -16 142.5t-46 107.5t-72 68t-94 24t-94 -24t-72 -68t-46 -107.5t-16 -142.5t16 -142.5t46 -107.5t72 -68t94 -24t94 24t72 68t46 107.5t16 142.5z" />
    <glyph glyph-name="Omacron" unicode="&#x14c;" horiz-adv-x="862" 
d="M50 366q0 93 32 163.5t85 118.5t121.5 72.5t142.5 24.5q73 0 142 -24.5t122 -72.5t85 -118.5t32 -163.5t-32 -163.5t-85 -118.5t-122 -72.5t-142 -24.5q-74 0 -142.5 24.5t-121.5 72.5t-85 118.5t-32 163.5zM659 366q0 79 -16 142.5t-46 107.5t-72 68t-94 24t-94 -24
t-72 -68t-46 -107.5t-16 -142.5t16 -142.5t46 -107.5t72 -68t94 -24t94 24t72 68t46 107.5t16 142.5zM283 818v68h296v-68h-296z" />
    <glyph glyph-name="uni1ECC" unicode="&#x1ecc;" horiz-adv-x="862" 
d="M50 366q0 93 32 163.5t85 118.5t121.5 72.5t142.5 24.5q73 0 142 -24.5t122 -72.5t85 -118.5t32 -163.5t-32 -163.5t-85 -118.5t-122 -72.5t-142 -24.5q-74 0 -142.5 24.5t-121.5 72.5t-85 118.5t-32 163.5zM659 366q0 79 -16 142.5t-46 107.5t-72 68t-94 24t-94 -24
t-72 -68t-46 -107.5t-16 -142.5t16 -142.5t46 -107.5t72 -68t94 -24t94 24t72 68t46 107.5t16 142.5zM364 -155q0 29 19.5 48t48.5 19t48 -19t19 -48q0 -30 -19 -49.5t-48 -19.5t-48.5 19.5t-19.5 49.5z" />
    <glyph glyph-name="Racute" unicode="&#x154;" horiz-adv-x="783" 
d="M36 18q36 4 56 10.5t29.5 19.5t11.5 36t2 62v433q0 39 -2 62t-11.5 36t-29.5 19t-56 11v18h128h44.5t53 0.5t49 0.5h34.5q69 0 129 -10t104.5 -32.5t69.5 -59t25 -89.5q0 -73 -50 -116.5t-131 -63.5l155 -240q17 -27 30 -44t26.5 -28t31 -16.5t43.5 -8.5v-18h-224
q-14 28 -36 66.5t-47 79.5l-43 67q-32 49 -50.5 78t-33.5 49h-72v-194q0 -39 2 -62t12.5 -36t32.5 -19.5t62 -10.5v-18h-345v18zM521 533q0 44 -12.5 74t-35.5 48.5t-57 26.5t-77 8h-67v-314h67q43 0 77 8t57 26.5t35.5 48.5t12.5 74zM324 793h-21l83 129h157z" />
    <glyph glyph-name="Rcaron" unicode="&#x158;" horiz-adv-x="783" 
d="M36 18q36 4 56 10.5t29.5 19.5t11.5 36t2 62v433q0 39 -2 62t-11.5 36t-29.5 19t-56 11v18h128h44.5t53 0.5t49 0.5h34.5q69 0 129 -10t104.5 -32.5t69.5 -59t25 -89.5q0 -73 -50 -116.5t-131 -63.5l155 -240q17 -27 30 -44t26.5 -28t31 -16.5t43.5 -8.5v-18h-224
q-14 28 -36 66.5t-47 79.5l-43 67q-32 49 -50.5 78t-33.5 49h-72v-194q0 -39 2 -62t12.5 -36t32.5 -19.5t62 -10.5v-18h-345v18zM521 533q0 44 -12.5 74t-35.5 48.5t-57 26.5t-77 8h-67v-314h67q43 0 77 8t57 26.5t35.5 48.5t12.5 74zM206 932h23l130 -59l130 59h23
l-145 -139h-16z" />
    <glyph glyph-name="Rcommaaccent" unicode="&#x156;" horiz-adv-x="783" 
d="M347 -118q0 26 18.5 44.5t46.5 18.5q29 0 45.5 -19.5t16.5 -51.5q0 -29 -11 -56.5t-30 -52t-44 -44t-53 -32.5l-5 10q14 10 28 23.5t25.5 29t19 33t7.5 37.5q-26 1 -45 17.5t-19 42.5zM36 18q36 4 56 10.5t29.5 19.5t11.5 36t2 62v433q0 39 -2 62t-11.5 36t-29.5 19
t-56 11v18h128h44.5t53 0.5t49 0.5h34.5q69 0 129 -10t104.5 -32.5t69.5 -59t25 -89.5q0 -73 -50 -116.5t-131 -63.5l155 -240q17 -27 30 -44t26.5 -28t31 -16.5t43.5 -8.5v-18h-224q-14 28 -36 66.5t-47 79.5l-43 67q-32 49 -50.5 78t-33.5 49h-72v-194q0 -39 2 -62
t12.5 -36t32.5 -19.5t62 -10.5v-18h-345v18zM521 533q0 44 -12.5 74t-35.5 48.5t-57 26.5t-77 8h-67v-314h67q43 0 77 8t57 26.5t35.5 48.5t12.5 74z" />
    <glyph glyph-name="Sacute" unicode="&#x15a;" horiz-adv-x="628" 
d="M304 -13q-74 0 -135.5 15.5t-105.5 38.5v244h20q10 -70 29.5 -119.5t47 -81t63.5 -46t81 -14.5q33 0 62.5 8t51 24.5t34.5 41.5t13 59q0 25 -9.5 45t-27.5 36.5t-42.5 31t-54.5 28.5l-89 42q-80 38 -126.5 89t-46.5 124q0 43 19 79t53 61.5t79 40t98 14.5q27 0 57 -3.5
t59 -10t55 -16t44 -20.5v-205h-20q-21 108 -71 163t-125 55q-61 0 -99.5 -27.5t-38.5 -80.5q0 -26 8 -45.5t22 -34t32 -26t38 -20.5l106 -50q42 -20 77.5 -40.5t61.5 -46t40.5 -57t14.5 -72.5q0 -49 -22 -90t-59.5 -71t-87.5 -46.5t-106 -16.5zM285 793h-21l83 129h157z" />
    <glyph glyph-name="Scaron" unicode="&#x160;" horiz-adv-x="628" 
d="M304 -13q-74 0 -135.5 15.5t-105.5 38.5v244h20q10 -70 29.5 -119.5t47 -81t63.5 -46t81 -14.5q33 0 62.5 8t51 24.5t34.5 41.5t13 59q0 25 -9.5 45t-27.5 36.5t-42.5 31t-54.5 28.5l-89 42q-80 38 -126.5 89t-46.5 124q0 43 19 79t53 61.5t79 40t98 14.5q27 0 57 -3.5
t59 -10t55 -16t44 -20.5v-205h-20q-21 108 -71 163t-125 55q-61 0 -99.5 -27.5t-38.5 -80.5q0 -26 8 -45.5t22 -34t32 -26t38 -20.5l106 -50q42 -20 77.5 -40.5t61.5 -46t40.5 -57t14.5 -72.5q0 -49 -22 -90t-59.5 -71t-87.5 -46.5t-106 -16.5zM160 932h23l130 -59l130 59
h23l-145 -139h-16z" />
    <glyph glyph-name="Scedilla" unicode="&#x15e;" horiz-adv-x="628" 
d="M281 3h38l-51 -86q10 5 21.5 7t20.5 2q35 0 55 -21t20 -50q0 -25 -10 -43t-25.5 -29t-34.5 -16.5t-36 -5.5q-35 0 -58 9.5t-40 19.5l10 22q13 -7 30 -10.5t34 -3.5q28 0 45 12t17 35q0 17 -10.5 27t-26 13.5t-32.5 0.5t-30 -10l-9 5zM304 -13q-74 0 -135.5 15.5
t-105.5 38.5v244h20q10 -70 29.5 -119.5t47 -81t63.5 -46t81 -14.5q33 0 62.5 8t51 24.5t34.5 41.5t13 59q0 25 -9.5 45t-27.5 36.5t-42.5 31t-54.5 28.5l-89 42q-80 38 -126.5 89t-46.5 124q0 43 19 79t53 61.5t79 40t98 14.5q27 0 57 -3.5t59 -10t55 -16t44 -20.5v-205
h-20q-21 108 -71 163t-125 55q-61 0 -99.5 -27.5t-38.5 -80.5q0 -26 8 -45.5t22 -34t32 -26t38 -20.5l106 -50q42 -20 77.5 -40.5t61.5 -46t40.5 -57t14.5 -72.5q0 -49 -22 -90t-59.5 -71t-87.5 -46.5t-106 -16.5z" />
    <glyph glyph-name="Scircumflex" unicode="&#x15c;" horiz-adv-x="628" 
d="M304 -13q-74 0 -135.5 15.5t-105.5 38.5v244h20q10 -70 29.5 -119.5t47 -81t63.5 -46t81 -14.5q33 0 62.5 8t51 24.5t34.5 41.5t13 59q0 25 -9.5 45t-27.5 36.5t-42.5 31t-54.5 28.5l-89 42q-80 38 -126.5 89t-46.5 124q0 43 19 79t53 61.5t79 40t98 14.5q27 0 57 -3.5
t59 -10t55 -16t44 -20.5v-205h-20q-21 108 -71 163t-125 55q-61 0 -99.5 -27.5t-38.5 -80.5q0 -26 8 -45.5t22 -34t32 -26t38 -20.5l106 -50q42 -20 77.5 -40.5t61.5 -46t40.5 -57t14.5 -72.5q0 -49 -22 -90t-59.5 -71t-87.5 -46.5t-106 -16.5zM331 932l145 -139h-23
l-130 59l-130 -59h-23l145 139h16z" />
    <glyph glyph-name="Scommaaccent" unicode="&#x218;" horiz-adv-x="628" 
d="M231 -118q0 26 18.5 44.5t46.5 18.5q29 0 45.5 -19.5t16.5 -51.5q0 -29 -11 -56.5t-30 -52t-44 -44t-53 -32.5l-5 10q14 10 28 23.5t25.5 29t19 33t7.5 37.5q-26 1 -45 17.5t-19 42.5zM304 -13q-74 0 -135.5 15.5t-105.5 38.5v244h20q10 -70 29.5 -119.5t47 -81t63.5 -46
t81 -14.5q33 0 62.5 8t51 24.5t34.5 41.5t13 59q0 25 -9.5 45t-27.5 36.5t-42.5 31t-54.5 28.5l-89 42q-80 38 -126.5 89t-46.5 124q0 43 19 79t53 61.5t79 40t98 14.5q27 0 57 -3.5t59 -10t55 -16t44 -20.5v-205h-20q-21 108 -71 163t-125 55q-61 0 -99.5 -27.5
t-38.5 -80.5q0 -26 8 -45.5t22 -34t32 -26t38 -20.5l106 -50q42 -20 77.5 -40.5t61.5 -46t40.5 -57t14.5 -72.5q0 -49 -22 -90t-59.5 -71t-87.5 -46.5t-106 -16.5z" />
    <glyph glyph-name="Tbar" unicode="&#x166;" horiz-adv-x="785" 
d="M214 18q40 4 62 10.5t32.5 20t13 36.5t2.5 61v206h-139v44h139v296h-25q-53 0 -91 -13.5t-67 -42t-50.5 -72t-40.5 -103.5h-20l30 267q58 -2 122.5 -2.5t116.5 -0.5h186q52 0 116.5 0.5t123.5 2.5l30 -267h-21q-18 60 -39.5 103.5t-50.5 72t-67.5 42t-90.5 13.5h-25v-296
h139v-44h-139v-206q0 -38 2.5 -61t13 -36.5t32.5 -20t62 -10.5v-18h-357v18z" />
    <glyph glyph-name="Tcaron" unicode="&#x164;" horiz-adv-x="785" 
d="M214 18q40 4 62 10.5t32.5 20t13 36.5t2.5 61v546h-25q-53 0 -91 -13.5t-67 -42t-50.5 -72t-40.5 -103.5h-20l30 267q58 -2 122.5 -2.5t116.5 -0.5h186q52 0 116.5 0.5t123.5 2.5l30 -267h-21q-18 60 -39.5 103.5t-50.5 72t-67.5 42t-90.5 13.5h-25v-546q0 -38 2.5 -61
t13 -36.5t32.5 -20t62 -10.5v-18h-357v18zM239 932h23l130 -59l130 59h23l-145 -139h-16z" />
    <glyph glyph-name="uni0162" unicode="&#x162;" horiz-adv-x="785" 
d="M214 18q40 4 62 10.5t32.5 20t13 36.5t2.5 61v546h-25q-53 0 -91 -13.5t-67 -42t-50.5 -72t-40.5 -103.5h-20l30 267q58 -2 122.5 -2.5t116.5 -0.5h186q52 0 116.5 0.5t123.5 2.5l30 -267h-21q-18 60 -39.5 103.5t-50.5 72t-67.5 42t-90.5 13.5h-25v-546q0 -38 2.5 -61
t13 -36.5t32.5 -20t62 -10.5v-18h-357v18zM325 -118q0 26 18.5 44.5t46.5 18.5q29 0 45.5 -19.5t16.5 -51.5q0 -29 -11 -56.5t-30 -52t-44 -44t-53 -32.5l-5 10q14 10 28 23.5t25.5 29t19 33t7.5 37.5q-26 1 -45 17.5t-19 42.5z" />
    <glyph glyph-name="Tcommaaccent" unicode="&#x21a;" horiz-adv-x="785" 
d="M214 18q40 4 62 10.5t32.5 20t13 36.5t2.5 61v546h-25q-53 0 -91 -13.5t-67 -42t-50.5 -72t-40.5 -103.5h-20l30 267q58 -2 122.5 -2.5t116.5 -0.5h186q52 0 116.5 0.5t123.5 2.5l30 -267h-21q-18 60 -39.5 103.5t-50.5 72t-67.5 42t-90.5 13.5h-25v-546q0 -38 2.5 -61
t13 -36.5t32.5 -20t62 -10.5v-18h-357v18zM325 -118q0 26 18.5 44.5t46.5 18.5q29 0 45.5 -19.5t16.5 -51.5q0 -29 -11 -56.5t-30 -52t-44 -44t-53 -32.5l-5 10q14 10 28 23.5t25.5 29t19 33t7.5 37.5q-26 1 -45 17.5t-19 42.5z" />
    <glyph glyph-name="Ubreve" unicode="&#x16c;" horiz-adv-x="793" 
d="M116 578q0 39 -2 62t-11.5 36.5t-29.5 19.5t-56 11v18h335v-18q-36 -5 -56 -10.5t-29.5 -19t-11.5 -37t-2 -62.5v-289q0 -118 43.5 -181.5t145.5 -63.5q55 0 93 18.5t61 52t34 80t12 102.5v282q0 39 -2 62t-11.5 36t-29.5 19t-56 11v18h245v-18q-36 -5 -56 -11t-29.5 -19
t-11.5 -36t-2 -62v-280q0 -163 -73 -237.5t-207 -74.5q-150 0 -221.5 74t-71.5 214v303v0zM431 826q43 0 64 25.5t24 70.5h48q0 -24 -8 -48t-24.5 -43.5t-42 -31.5t-61.5 -12q-35 0 -60.5 12t-41.5 31.5t-24 43.5t-8 48h48q2 -45 23 -70.5t63 -25.5z" />
    <glyph glyph-name="Uhungarumlaut" unicode="&#x170;" horiz-adv-x="793" 
d="M488 793h-21l83 129h157zM311 793h-21l83 129h157zM116 578q0 39 -2 62t-11.5 36.5t-29.5 19.5t-56 11v18h335v-18q-36 -5 -56 -10.5t-29.5 -19t-11.5 -37t-2 -62.5v-289q0 -118 43.5 -181.5t145.5 -63.5q55 0 93 18.5t61 52t34 80t12 102.5v282q0 39 -2 62t-11.5 36
t-29.5 19t-56 11v18h245v-18q-36 -5 -56 -11t-29.5 -19t-11.5 -36t-2 -62v-280q0 -163 -73 -237.5t-207 -74.5q-150 0 -221.5 74t-71.5 214v303v0z" />
    <glyph glyph-name="Umacron" unicode="&#x16a;" horiz-adv-x="793" 
d="M116 578q0 39 -2 62t-11.5 36.5t-29.5 19.5t-56 11v18h335v-18q-36 -5 -56 -10.5t-29.5 -19t-11.5 -37t-2 -62.5v-289q0 -118 43.5 -181.5t145.5 -63.5q55 0 93 18.5t61 52t34 80t12 102.5v282q0 39 -2 62t-11.5 36t-29.5 19t-56 11v18h245v-18q-36 -5 -56 -11t-29.5 -19
t-11.5 -36t-2 -62v-280q0 -163 -73 -237.5t-207 -74.5q-150 0 -221.5 74t-71.5 214v303v0zM291 818v68h296v-68h-296z" />
    <glyph glyph-name="Uogonek" unicode="&#x172;" horiz-adv-x="793" 
d="M510 -189q-22 -20 -50.5 -32t-56.5 -12q-18 0 -35 4.5t-31 15t-22.5 26.5t-8.5 39q0 22 12 43.5t31.5 40t44 35t50.5 30.5h18q-31 -21 -52.5 -54.5t-21.5 -67.5q0 -32 18 -51.5t47 -19.5q26 0 52 13zM116 578q0 39 -2 62t-11.5 36.5t-29.5 19.5t-56 11v18h335v-18
q-36 -5 -56 -10.5t-29.5 -19t-11.5 -37t-2 -62.5v-289q0 -118 43.5 -181.5t145.5 -63.5q55 0 93 18.5t61 52t34 80t12 102.5v282q0 39 -2 62t-11.5 36t-29.5 19t-56 11v18h245v-18q-36 -5 -56 -11t-29.5 -19t-11.5 -36t-2 -62v-280q0 -163 -73 -237.5t-207 -74.5
q-150 0 -221.5 74t-71.5 214v303v0z" />
    <glyph glyph-name="Uring" unicode="&#x16e;" horiz-adv-x="793" 
d="M354 880q0 39 27 66.5t66 27.5q19 0 36.5 -7.5t30 -20t20 -30t7.5 -36.5t-7.5 -36t-20 -29.5t-30 -20t-36.5 -7.5q-20 0 -36.5 7.5t-29.5 20t-20 29.5t-7 36zM393 880q0 -25 15 -40.5t39 -15.5q23 0 38.5 15.5t15.5 40.5t-15.5 41t-38.5 16q-24 0 -39 -16t-15 -41z
M116 578q0 39 -2 62t-11.5 36.5t-29.5 19.5t-56 11v18h335v-18q-36 -5 -56 -10.5t-29.5 -19t-11.5 -37t-2 -62.5v-289q0 -118 43.5 -181.5t145.5 -63.5q55 0 93 18.5t61 52t34 80t12 102.5v282q0 39 -2 62t-11.5 36t-29.5 19t-56 11v18h245v-18q-36 -5 -56 -11t-29.5 -19
t-11.5 -36t-2 -62v-280q0 -163 -73 -237.5t-207 -74.5q-150 0 -221.5 74t-71.5 214v303v0z" />
    <glyph glyph-name="Utilde" unicode="&#x168;" horiz-adv-x="793" 
d="M116 578q0 39 -2 62t-11.5 36.5t-29.5 19.5t-56 11v18h335v-18q-36 -5 -56 -10.5t-29.5 -19t-11.5 -37t-2 -62.5v-289q0 -118 43.5 -181.5t145.5 -63.5q55 0 93 18.5t61 52t34 80t12 102.5v282q0 39 -2 62t-11.5 36t-29.5 19t-56 11v18h245v-18q-36 -5 -56 -11t-29.5 -19
t-11.5 -36t-2 -62v-280q0 -163 -73 -237.5t-207 -74.5q-150 0 -221.5 74t-71.5 214v303v0zM530 864q25 0 40.5 11.5t20.5 38.5h16q0 -24 -5.5 -47t-17 -41t-29 -28.5t-41.5 -10.5q-25 0 -45 9.5t-38.5 21t-37.5 21t-42 9.5q-26 0 -41.5 -11.5t-20.5 -38.5h-16q0 24 5.5 47
t17 41t29 28.5t41.5 10.5t44.5 -9.5t39.5 -21t38.5 -21t41.5 -9.5z" />
    <glyph glyph-name="uni1EE4" unicode="&#x1ee4;" horiz-adv-x="793" 
d="M116 578q0 39 -2 62t-11.5 36.5t-29.5 19.5t-56 11v18h335v-18q-36 -5 -56 -10.5t-29.5 -19t-11.5 -37t-2 -62.5v-289q0 -118 43.5 -181.5t145.5 -63.5q55 0 93 18.5t61 52t34 80t12 102.5v282q0 39 -2 62t-11.5 36t-29.5 19t-56 11v18h245v-18q-36 -5 -56 -11t-29.5 -19
t-11.5 -36t-2 -62v-280q0 -163 -73 -237.5t-207 -74.5q-150 0 -221.5 74t-71.5 214v303v0zM345 -155q0 29 19.5 48t48.5 19t48 -19t19 -48q0 -30 -19 -49.5t-48 -19.5t-48.5 19.5t-19.5 49.5z" />
    <glyph glyph-name="Wacute" unicode="&#x1e82;" horiz-adv-x="1059" 
d="M516 793h-21l83 129h157zM1053 707q-25 -3 -42 -8.5t-31.5 -22.5t-27 -49.5t-28.5 -89.5l-150 -545h-87l-159 487l-135 -487h-87l-200 617q-9 28 -17.5 46t-19 28.5t-25.5 15.5t-38 8v18h307v-18q-49 -6 -62 -22t-2 -54l141 -463l110 401l-52 156h155l167 -557l94 343
q19 69 25 107.5t0.5 57t-22.5 23.5t-45 8v18h231v-18z" />
    <glyph glyph-name="Wcircumflex" unicode="&#x174;" horiz-adv-x="1059" 
d="M558 932l145 -139h-23l-130 59l-130 -59h-23l145 139h16zM1053 707q-25 -3 -42 -8.5t-31.5 -22.5t-27 -49.5t-28.5 -89.5l-150 -545h-87l-159 487l-135 -487h-87l-200 617q-9 28 -17.5 46t-19 28.5t-25.5 15.5t-38 8v18h307v-18q-49 -6 -62 -22t-2 -54l141 -463l110 401
l-52 156h155l167 -557l94 343q19 69 25 107.5t0.5 57t-22.5 23.5t-45 8v18h231v-18z" />
    <glyph glyph-name="Wdieresis" unicode="&#x1e84;" horiz-adv-x="1059" 
d="M1053 707q-25 -3 -42 -8.5t-31.5 -22.5t-27 -49.5t-28.5 -89.5l-150 -545h-87l-159 487l-135 -487h-87l-200 617q-9 28 -17.5 46t-19 28.5t-25.5 15.5t-38 8v18h307v-18q-49 -6 -62 -22t-2 -54l141 -463l110 401l-52 156h155l167 -557l94 343q19 69 25 107.5t0.5 57
t-22.5 23.5t-45 8v18h231v-18zM579 865q0 29 20 48t49 19q28 0 47.5 -19t19.5 -48q0 -30 -19.5 -49.5t-47.5 -19.5q-29 0 -49 19.5t-20 49.5zM356 865q0 29 19.5 48t48.5 19q28 0 47.5 -19t19.5 -48q0 -30 -19.5 -49.5t-47.5 -19.5q-29 0 -48.5 19.5t-19.5 49.5z" />
    <glyph glyph-name="Wgrave" unicode="&#x1e80;" horiz-adv-x="1059" 
d="M499 922l83 -129h-21l-219 129h157zM1053 707q-25 -3 -42 -8.5t-31.5 -22.5t-27 -49.5t-28.5 -89.5l-150 -545h-87l-159 487l-135 -487h-87l-200 617q-9 28 -17.5 46t-19 28.5t-25.5 15.5t-38 8v18h307v-18q-49 -6 -62 -22t-2 -54l141 -463l110 401l-52 156h155l167 -557
l94 343q19 69 25 107.5t0.5 57t-22.5 23.5t-45 8v18h231v-18z" />
    <glyph glyph-name="Ycircumflex" unicode="&#x176;" horiz-adv-x="723" 
d="M419 146q0 -38 2.5 -61t13 -36.5t32.5 -20t62 -10.5v-18h-357v18q40 4 62 10.5t32.5 20t13 36.5t2.5 61v139l-183 329q-15 27 -25.5 44t-21 26.5t-23 14.5t-29.5 8v18h309v-18q-48 -6 -64 -21.5t2 -50.5l154 -290l123 218q24 42 33.5 69t6 42.5t-20 22.5t-43.5 10v18h223
v-18q-20 -3 -36 -9t-31 -19.5t-31.5 -36.5t-38.5 -60l-167 -290v-146v0zM395 932l145 -139h-23l-130 59l-130 -59h-23l145 139h16z" />
    <glyph glyph-name="Ydieresis" unicode="&#x178;" horiz-adv-x="723" 
d="M419 146q0 -38 2.5 -61t13 -36.5t32.5 -20t62 -10.5v-18h-357v18q40 4 62 10.5t32.5 20t13 36.5t2.5 61v139l-183 329q-15 27 -25.5 44t-21 26.5t-23 14.5t-29.5 8v18h309v-18q-48 -6 -64 -21.5t2 -50.5l154 -290l123 218q24 42 33.5 69t6 42.5t-20 22.5t-43.5 10v18h223
v-18q-20 -3 -36 -9t-31 -19.5t-31.5 -36.5t-38.5 -60l-167 -290v-146v0zM441 865q0 29 20 48t49 19q28 0 47.5 -19t19.5 -48q0 -30 -19.5 -49.5t-47.5 -19.5q-29 0 -49 19.5t-20 49.5zM218 865q0 29 19.5 48t48.5 19q28 0 47.5 -19t19.5 -48q0 -30 -19.5 -49.5t-47.5 -19.5
q-29 0 -48.5 19.5t-19.5 49.5z" />
    <glyph glyph-name="Ygrave" unicode="&#x1ef2;" horiz-adv-x="723" 
d="M419 146q0 -38 2.5 -61t13 -36.5t32.5 -20t62 -10.5v-18h-357v18q40 4 62 10.5t32.5 20t13 36.5t2.5 61v139l-183 329q-15 27 -25.5 44t-21 26.5t-23 14.5t-29.5 8v18h309v-18q-48 -6 -64 -21.5t2 -50.5l154 -290l123 218q24 42 33.5 69t6 42.5t-20 22.5t-43.5 10v18h223
v-18q-20 -3 -36 -9t-31 -19.5t-31.5 -36.5t-38.5 -60l-167 -290v-146v0zM364 922l83 -129h-21l-219 129h157z" />
    <glyph glyph-name="uni0232" unicode="&#x232;" horiz-adv-x="723" 
d="M419 146q0 -38 2.5 -61t13 -36.5t32.5 -20t62 -10.5v-18h-357v18q40 4 62 10.5t32.5 20t13 36.5t2.5 61v139l-183 329q-15 27 -25.5 44t-21 26.5t-23 14.5t-29.5 8v18h309v-18q-48 -6 -64 -21.5t2 -50.5l154 -290l123 218q24 42 33.5 69t6 42.5t-20 22.5t-43.5 10v18h223
v-18q-20 -3 -36 -9t-31 -19.5t-31.5 -36.5t-38.5 -60l-167 -290v-146v0zM244 818v68h296v-68h-296z" />
    <glyph glyph-name="Zacute" unicode="&#x179;" horiz-adv-x="681" 
d="M297 36q73 0 123 7.5t84.5 29t58 61t42.5 102.5h20l-25 -239q-58 2 -118 2.5t-112 0.5h-331v12l427 677h-57q-73 0 -123 -7.5t-84.5 -29t-58 -61t-42.5 -102.5h-19l24 239q58 -2 118.5 -2.5t112.5 -0.5h295v-11l-431 -678h96zM350 793h-21l83 129h157z" />
    <glyph glyph-name="Zcaron" unicode="&#x17d;" horiz-adv-x="681" 
d="M297 36q73 0 123 7.5t84.5 29t58 61t42.5 102.5h20l-25 -239q-58 2 -118 2.5t-112 0.5h-331v12l427 677h-57q-73 0 -123 -7.5t-84.5 -29t-58 -61t-42.5 -102.5h-19l24 239q58 -2 118.5 -2.5t112.5 -0.5h295v-11l-431 -678h96zM215 932h23l130 -59l130 59h23l-145 -139
h-16z" />
    <glyph glyph-name="Zdotaccent" unicode="&#x17b;" horiz-adv-x="681" 
d="M298 865q0 29 19.5 48t48.5 19t48 -19t19 -48q0 -30 -19 -49.5t-48 -19.5t-48.5 19.5t-19.5 49.5zM297 36q73 0 123 7.5t84.5 29t58 61t42.5 102.5h20l-25 -239q-58 2 -118 2.5t-112 0.5h-331v12l427 677h-57q-73 0 -123 -7.5t-84.5 -29t-58 -61t-42.5 -102.5h-19l24 239
q58 -2 118.5 -2.5t112.5 -0.5h295v-11l-431 -678h96z" />
    <glyph glyph-name="uni018F" unicode="&#x18f;" horiz-adv-x="785" 
d="M739 369q0 -93 -30 -164.5t-80 -120t-115.5 -73t-137.5 -24.5q-78 0 -139 26.5t-103 73t-64 111t-22 140.5h546v22q0 69 -18.5 122t-52 90t-80.5 56t-104 19q-43 0 -83 -8.5t-73 -25t-58 -42t-38 -58.5l-19 7q11 39 36.5 78.5t65.5 71.5t92.5 52t117.5 20q81 0 147 -25.5
t113 -73.5t73 -117.5t26 -156.5zM380 24q92 0 146 71.5t65 198.5h-390q-2 -52 7.5 -100.5t31.5 -86t56.5 -60.5t83.5 -23z" />
    <glyph glyph-name="abreve" unicode="&#x103;" horiz-adv-x="562" 
d="M347 74q-27 -38 -60.5 -62.5t-87.5 -24.5q-28 0 -56.5 8.5t-52 25t-38.5 41t-15 57.5q0 24 11 44t32 38t52 35t70 36q20 10 55.5 26t91.5 40v27q0 79 -22 110.5t-72 31.5q-32 0 -51 -11t-29 -29.5t-12 -44t0 -54.5h-113q0 31 18 63t48.5 57.5t72.5 41.5t90 16
q35 0 69.5 -7.5t61 -27t42.5 -52.5t15 -83l-6 -259q-1 -42 7.5 -53.5t28.5 -11.5q12 0 22.5 6t21.5 14l10 -10q-20 -25 -48 -47.5t-64 -22.5q-15 0 -31 6t-29 16.5t-22 25.5t-10 34zM347 302q-57 -23 -87 -38t-43 -23q-31 -19 -44.5 -38.5t-13.5 -48.5q0 -18 7 -35.5t20 -32
t32 -23t42 -8.5q28 0 47.5 12t36.5 35zM273 663q46 0 68.5 26t25.5 73h51q0 -25 -8.5 -50t-26 -45.5t-45 -33t-65.5 -12.5t-65 12.5t-45 33t-26.5 45.5t-8.5 50h51q4 -47 26 -73t68 -26z" />
    <glyph glyph-name="amacron" unicode="&#x101;" horiz-adv-x="562" 
d="M347 74q-27 -38 -60.5 -62.5t-87.5 -24.5q-28 0 -56.5 8.5t-52 25t-38.5 41t-15 57.5q0 24 11 44t32 38t52 35t70 36q20 10 55.5 26t91.5 40v27q0 79 -22 110.5t-72 31.5q-32 0 -51 -11t-29 -29.5t-12 -44t0 -54.5h-113q0 31 18 63t48.5 57.5t72.5 41.5t90 16
q35 0 69.5 -7.5t61 -27t42.5 -52.5t15 -83l-6 -259q-1 -42 7.5 -53.5t28.5 -11.5q12 0 22.5 6t21.5 14l10 -10q-20 -25 -48 -47.5t-64 -22.5q-15 0 -31 6t-29 16.5t-22 25.5t-10 34zM347 302q-57 -23 -87 -38t-43 -23q-31 -19 -44.5 -38.5t-13.5 -48.5q0 -18 7 -35.5t20 -32
t32 -23t42 -8.5q28 0 47.5 12t36.5 35zM130 665v68h296v-68h-296z" />
    <glyph glyph-name="aogonek" unicode="&#x105;" horiz-adv-x="562" 
d="M347 74q-27 -38 -60.5 -62.5t-87.5 -24.5q-28 0 -56.5 8.5t-52 25t-38.5 41t-15 57.5q0 24 11 44t32 38t52 35t70 36q20 10 55.5 26t91.5 40v27q0 79 -22 110.5t-72 31.5q-32 0 -51 -11t-29 -29.5t-12 -44t0 -54.5h-113q0 31 18 63t48.5 57.5t72.5 41.5t90 16
q35 0 69.5 -7.5t61 -27t42.5 -52.5t15 -83l-6 -259q-1 -42 7.5 -53.5t28.5 -11.5q12 0 22.5 6t21.5 14l10 -10q-20 -25 -48 -47.5t-64 -22.5q-15 0 -31 6t-29 16.5t-22 25.5t-10 34zM347 302q-57 -23 -87 -38t-43 -23q-31 -19 -44.5 -38.5t-13.5 -48.5q0 -18 7 -35.5t20 -32
t32 -23t42 -8.5q28 0 47.5 12t36.5 35zM504 -173q-22 -20 -50.5 -32t-56.5 -12q-18 0 -35 4.5t-31 15t-22.5 26.5t-8.5 39q0 22 12 43.5t31.5 40t44 35t50.5 30.5h18q-31 -21 -52.5 -54.5t-21.5 -67.5q0 -32 18 -51.5t47 -19.5q26 0 52 13z" />
    <glyph glyph-name="cacute" unicode="&#x107;" horiz-adv-x="523" 
d="M483 772l-197 -169h-16l69 169h144zM315 547q33 0 61.5 -8t50.5 -21.5t34.5 -31.5t12.5 -39q0 -26 -18 -43.5t-49 -17.5q-13 0 -24 4t-21 21l-45 76q-7 11 -13 14.5t-18 3.5q-27 0 -51.5 -11.5t-43.5 -35.5t-30 -61t-11 -87q0 -54 14.5 -96.5t40 -71t60.5 -43.5t75 -15
q32 0 68.5 13t65.5 36l12 -10q-14 -22 -32.5 -46t-43 -44t-56 -33t-71.5 -13q-60 0 -106 20.5t-77 57t-47 86t-16 106.5q0 70 25 124t64.5 91t89 56t99.5 19z" />
    <glyph glyph-name="ccaron" unicode="&#x10d;" horiz-adv-x="523" 
d="M299 603l-158 169h19l145 -73l145 73h20l-158 -169h-13zM315 547q33 0 61.5 -8t50.5 -21.5t34.5 -31.5t12.5 -39q0 -26 -18 -43.5t-49 -17.5q-13 0 -24 4t-21 21l-45 76q-7 11 -13 14.5t-18 3.5q-27 0 -51.5 -11.5t-43.5 -35.5t-30 -61t-11 -87q0 -54 14.5 -96.5t40 -71
t60.5 -43.5t75 -15q32 0 68.5 13t65.5 36l12 -10q-14 -22 -32.5 -46t-43 -44t-56 -33t-71.5 -13q-60 0 -106 20.5t-77 57t-47 86t-16 106.5q0 70 25 124t64.5 91t89 56t99.5 19z" />
    <glyph glyph-name="ccircumflex" unicode="&#x109;" horiz-adv-x="523" 
d="M452 603h-20l-145 73l-145 -73h-19l158 169h13zM315 547q33 0 61.5 -8t50.5 -21.5t34.5 -31.5t12.5 -39q0 -26 -18 -43.5t-49 -17.5q-13 0 -24 4t-21 21l-45 76q-7 11 -13 14.5t-18 3.5q-27 0 -51.5 -11.5t-43.5 -35.5t-30 -61t-11 -87q0 -54 14.5 -96.5t40 -71
t60.5 -43.5t75 -15q32 0 68.5 13t65.5 36l12 -10q-14 -22 -32.5 -46t-43 -44t-56 -33t-71.5 -13q-60 0 -106 20.5t-77 57t-47 86t-16 106.5q0 70 25 124t64.5 91t89 56t99.5 19z" />
    <glyph glyph-name="cdotaccent" unicode="&#x10b;" horiz-adv-x="523" 
d="M315 547q33 0 61.5 -8t50.5 -21.5t34.5 -31.5t12.5 -39q0 -26 -18 -43.5t-49 -17.5q-13 0 -24 4t-21 21l-45 76q-7 11 -13 14.5t-18 3.5q-27 0 -51.5 -11.5t-43.5 -35.5t-30 -61t-11 -87q0 -54 14.5 -96.5t40 -71t60.5 -43.5t75 -15q32 0 68.5 13t65.5 36l12 -10
q-14 -22 -32.5 -46t-43 -44t-56 -33t-71.5 -13q-60 0 -106 20.5t-77 57t-47 86t-16 106.5q0 70 25 124t64.5 91t89 56t99.5 19zM229 705q0 29 19.5 48t48.5 19t48 -19t19 -48q0 -30 -19 -49.5t-48 -19.5t-48.5 19.5t-19.5 49.5z" />
    <glyph glyph-name="dcaron" unicode="&#x10f;" horiz-adv-x="697" 
d="M595 749q0 26 18.5 44.5t46.5 18.5q29 0 45.5 -19.5t16.5 -51.5q0 -29 -11 -56.5t-30 -52t-44 -44t-53 -32.5l-5 10q14 10 28 23.5t25.5 29t19 33t7.5 37.5q-26 1 -45 17.5t-19 42.5zM404 640q0 35 -2.5 54t-11.5 28t-27 11t-49 3v17l219 70q-1 -40 -2 -92t-1 -129v-434
q0 -35 1.5 -54.5t8.5 -30t22 -13.5t42 -4v-17l-183 -57l-14 96q-13 -20 -29 -38t-35.5 -32t-43.5 -22.5t-52 -8.5q-48 0 -87 22t-66.5 58.5t-42 84t-14.5 99.5q0 66 21.5 120.5t57 93.5t81.5 60.5t96 21.5q27 0 56 -7.5t55 -29.5v130zM296 512q-33 0 -57 -15.5t-40 -43
t-24 -66t-8 -83.5q0 -48 10.5 -90.5t30.5 -74t47.5 -50t62.5 -18.5q26 0 49 11t37 30v345q-14 24 -42.5 39.5t-65.5 15.5z" />
    <glyph glyph-name="dcroat" unicode="&#x111;" horiz-adv-x="636" 
d="M404 640q0 35 -2.5 54t-11.5 28t-27 11t-49 3v17l219 70q-1 -35 -2 -80t-1 -107h89v-44h-89v-424q0 -35 1.5 -54.5t8.5 -30t22 -13.5t42 -4v-17l-183 -57l-14 96q-13 -20 -29 -38t-35.5 -32t-43.5 -22.5t-52 -8.5q-48 0 -87 22t-66.5 58.5t-42 84t-14.5 99.5
q0 66 21.5 120.5t57 93.5t81.5 60.5t96 21.5q27 0 56 -7.5t55 -29.5v82h-144v44h144v4zM296 512q-33 0 -57 -15.5t-40 -43t-24 -66t-8 -83.5q0 -48 10.5 -90.5t30.5 -74t47.5 -50t62.5 -18.5q26 0 49 11t37 30v345q-14 24 -42.5 39.5t-65.5 15.5z" />
    <glyph glyph-name="ebreve" unicode="&#x115;" horiz-adv-x="545" 
d="M282 -13q-59 0 -105 20t-77 56t-47 85.5t-16 107.5q0 59 20 112t54.5 92.5t80 63t97.5 23.5q45 0 83.5 -14t67 -41t46 -67.5t20.5 -93.5h-357v-8q0 -61 15.5 -106t41.5 -74.5t61.5 -44t76.5 -14.5q51 0 89.5 16.5t62.5 41.5l12 -10q-13 -22 -33 -47.5t-47.5 -47t-64 -36
t-81.5 -14.5zM274 508q-54 0 -84.5 -37t-38.5 -100h229q-3 72 -32.5 104.5t-73.5 32.5zM289 663q46 0 68.5 26t25.5 73h51q0 -25 -8.5 -50t-26 -45.5t-45 -33t-65.5 -12.5t-65 12.5t-45 33t-26.5 45.5t-8.5 50h51q4 -47 26 -73t68 -26z" />
    <glyph glyph-name="ecaron" unicode="&#x11b;" horiz-adv-x="545" 
d="M285 603l-158 169h19l145 -73l145 73h20l-158 -169h-13zM282 -13q-59 0 -105 20t-77 56t-47 85.5t-16 107.5q0 59 20 112t54.5 92.5t80 63t97.5 23.5q45 0 83.5 -14t67 -41t46 -67.5t20.5 -93.5h-357v-8q0 -61 15.5 -106t41.5 -74.5t61.5 -44t76.5 -14.5q51 0 89.5 16.5
t62.5 41.5l12 -10q-13 -22 -33 -47.5t-47.5 -47t-64 -36t-81.5 -14.5zM274 508q-54 0 -84.5 -37t-38.5 -100h229q-3 72 -32.5 104.5t-73.5 32.5z" />
    <glyph glyph-name="emacron" unicode="&#x113;" horiz-adv-x="545" 
d="M282 -13q-59 0 -105 20t-77 56t-47 85.5t-16 107.5q0 59 20 112t54.5 92.5t80 63t97.5 23.5q45 0 83.5 -14t67 -41t46 -67.5t20.5 -93.5h-357v-8q0 -61 15.5 -106t41.5 -74.5t61.5 -44t76.5 -14.5q51 0 89.5 16.5t62.5 41.5l12 -10q-13 -22 -33 -47.5t-47.5 -47t-64 -36
t-81.5 -14.5zM274 508q-54 0 -84.5 -37t-38.5 -100h229q-3 72 -32.5 104.5t-73.5 32.5zM137 665v68h296v-68h-296z" />
    <glyph glyph-name="eogonek" unicode="&#x119;" horiz-adv-x="545" 
d="M403 -189q-22 -20 -50.5 -32t-56.5 -12q-18 0 -35 4.5t-31 15t-22.5 26.5t-8.5 39q0 22 12 43.5t31.5 40t44 35t50.5 30.5h18q-31 -21 -52.5 -54.5t-21.5 -67.5q0 -32 18 -51.5t47 -19.5q26 0 52 13zM282 -13q-59 0 -105 20t-77 56t-47 85.5t-16 107.5q0 59 20 112
t54.5 92.5t80 63t97.5 23.5q45 0 83.5 -14t67 -41t46 -67.5t20.5 -93.5h-357v-8q0 -61 15.5 -106t41.5 -74.5t61.5 -44t76.5 -14.5q51 0 89.5 16.5t62.5 41.5l12 -10q-13 -22 -33 -47.5t-47.5 -47t-64 -36t-81.5 -14.5zM274 508q-54 0 -84.5 -37t-38.5 -100h229
q-3 72 -32.5 104.5t-73.5 32.5z" />
    <glyph glyph-name="edotaccent" unicode="&#x117;" horiz-adv-x="545" 
d="M282 -13q-59 0 -105 20t-77 56t-47 85.5t-16 107.5q0 59 20 112t54.5 92.5t80 63t97.5 23.5q45 0 83.5 -14t67 -41t46 -67.5t20.5 -93.5h-357v-8q0 -61 15.5 -106t41.5 -74.5t61.5 -44t76.5 -14.5q51 0 89.5 16.5t62.5 41.5l12 -10q-13 -22 -33 -47.5t-47.5 -47t-64 -36
t-81.5 -14.5zM274 508q-54 0 -84.5 -37t-38.5 -100h229q-3 72 -32.5 104.5t-73.5 32.5zM219 705q0 29 19.5 48t48.5 19t48 -19t19 -48q0 -30 -19 -49.5t-48 -19.5t-48.5 19.5t-19.5 49.5z" />
    <glyph glyph-name="gbreve" unicode="&#x11f;" horiz-adv-x="620" 
d="M279 199q-37 0 -72 8q-23 -19 -36 -38t-13 -33q0 -17 16 -26t52 -11l115 -6q45 -2 86.5 -9.5t73 -22.5t50 -39t18.5 -60q0 -30 -19 -63t-57 -60.5t-95.5 -45t-134.5 -17.5q-52 0 -95 9t-74 25t-48 38t-17 48q0 37 37.5 60.5t106.5 39.5q-50 8 -75.5 31t-25.5 57
q0 38 31 70.5t75 61.5q-52 20 -81.5 60.5t-29.5 96.5q0 40 15.5 72t44 54.5t67.5 35t86 12.5q45 0 82 -11.5t65 -31.5h168v-40h-130q27 -41 27 -91q0 -40 -15.5 -72t-44 -54.5t-67.5 -35t-86 -12.5zM209 -8h-3q-40 -14 -56 -35.5t-16 -46.5q0 -22 13 -38.5t36 -28t53 -17.5
t65 -6q36 0 70 6t60.5 19t42.5 32.5t16 46.5q0 36 -37.5 48t-101.5 15zM290 232q42 0 63 30t21 87q0 30 -7.5 60t-21.5 53t-33.5 37.5t-42.5 14.5q-42 0 -63 -30t-21 -87q0 -30 7.5 -60t21.5 -53t33.5 -37.5t42.5 -14.5zM289 663q46 0 68.5 26t25.5 73h51q0 -25 -8.5 -50
t-26 -45.5t-45 -33t-65.5 -12.5t-65 12.5t-45 33t-26.5 45.5t-8.5 50h51q4 -47 26 -73t68 -26z" />
    <glyph glyph-name="gcircumflex" unicode="&#x11d;" horiz-adv-x="620" 
d="M453 603h-20l-145 73l-145 -73h-19l158 169h13zM279 199q-37 0 -72 8q-23 -19 -36 -38t-13 -33q0 -17 16 -26t52 -11l115 -6q45 -2 86.5 -9.5t73 -22.5t50 -39t18.5 -60q0 -30 -19 -63t-57 -60.5t-95.5 -45t-134.5 -17.5q-52 0 -95 9t-74 25t-48 38t-17 48
q0 37 37.5 60.5t106.5 39.5q-50 8 -75.5 31t-25.5 57q0 38 31 70.5t75 61.5q-52 20 -81.5 60.5t-29.5 96.5q0 40 15.5 72t44 54.5t67.5 35t86 12.5q45 0 82 -11.5t65 -31.5h168v-40h-130q27 -41 27 -91q0 -40 -15.5 -72t-44 -54.5t-67.5 -35t-86 -12.5zM209 -8h-3
q-40 -14 -56 -35.5t-16 -46.5q0 -22 13 -38.5t36 -28t53 -17.5t65 -6q36 0 70 6t60.5 19t42.5 32.5t16 46.5q0 36 -37.5 48t-101.5 15zM290 232q42 0 63 30t21 87q0 30 -7.5 60t-21.5 53t-33.5 37.5t-42.5 14.5q-42 0 -63 -30t-21 -87q0 -30 7.5 -60t21.5 -53t33.5 -37.5
t42.5 -14.5z" />
    <glyph glyph-name="gcommaaccent" unicode="&#x123;" horiz-adv-x="620" 
d="M364 682q0 -26 -18 -44.5t-46 -18.5q-29 0 -45.5 19.5t-16.5 51.5q0 28 11 56t30 52.5t44 44.5t52 32l6 -9q-14 -11 -28 -24t-25.5 -29t-19 -33.5t-7.5 -37.5q26 -1 44.5 -17.5t18.5 -42.5zM279 199q-37 0 -72 8q-23 -19 -36 -38t-13 -33q0 -17 16 -26t52 -11l115 -6
q45 -2 86.5 -9.5t73 -22.5t50 -39t18.5 -60q0 -30 -19 -63t-57 -60.5t-95.5 -45t-134.5 -17.5q-52 0 -95 9t-74 25t-48 38t-17 48q0 37 37.5 60.5t106.5 39.5q-50 8 -75.5 31t-25.5 57q0 38 31 70.5t75 61.5q-52 20 -81.5 60.5t-29.5 96.5q0 40 15.5 72t44 54.5t67.5 35
t86 12.5q45 0 82 -11.5t65 -31.5h168v-40h-130q27 -41 27 -91q0 -40 -15.5 -72t-44 -54.5t-67.5 -35t-86 -12.5zM209 -8h-3q-40 -14 -56 -35.5t-16 -46.5q0 -22 13 -38.5t36 -28t53 -17.5t65 -6q36 0 70 6t60.5 19t42.5 32.5t16 46.5q0 36 -37.5 48t-101.5 15zM290 232
q42 0 63 30t21 87q0 30 -7.5 60t-21.5 53t-33.5 37.5t-42.5 14.5q-42 0 -63 -30t-21 -87q0 -30 7.5 -60t21.5 -53t33.5 -37.5t42.5 -14.5z" />
    <glyph glyph-name="gdotaccent" unicode="&#x121;" horiz-adv-x="620" 
d="M279 199q-37 0 -72 8q-23 -19 -36 -38t-13 -33q0 -17 16 -26t52 -11l115 -6q45 -2 86.5 -9.5t73 -22.5t50 -39t18.5 -60q0 -30 -19 -63t-57 -60.5t-95.5 -45t-134.5 -17.5q-52 0 -95 9t-74 25t-48 38t-17 48q0 37 37.5 60.5t106.5 39.5q-50 8 -75.5 31t-25.5 57
q0 38 31 70.5t75 61.5q-52 20 -81.5 60.5t-29.5 96.5q0 40 15.5 72t44 54.5t67.5 35t86 12.5q45 0 82 -11.5t65 -31.5h168v-40h-130q27 -41 27 -91q0 -40 -15.5 -72t-44 -54.5t-67.5 -35t-86 -12.5zM209 -8h-3q-40 -14 -56 -35.5t-16 -46.5q0 -22 13 -38.5t36 -28t53 -17.5
t65 -6q36 0 70 6t60.5 19t42.5 32.5t16 46.5q0 36 -37.5 48t-101.5 15zM290 232q42 0 63 30t21 87q0 30 -7.5 60t-21.5 53t-33.5 37.5t-42.5 14.5q-42 0 -63 -30t-21 -87q0 -30 7.5 -60t21.5 -53t33.5 -37.5t42.5 -14.5zM223 705q0 29 19.5 48t48.5 19t48 -19t19 -48
q0 -30 -19 -49.5t-48 -19.5t-48.5 19.5t-19.5 49.5z" />
    <glyph glyph-name="hbar" unicode="&#x127;" horiz-adv-x="620" 
d="M220 449q15 19 30.5 37t34 31.5t41.5 21.5t53 8q32 0 59.5 -11t48 -34.5t32.5 -59.5t12 -85v-213q0 -39 1.5 -62t9 -36t23.5 -19t46 -9v-18h-276v18q26 3 40 9t21 19t8 36t1 62v189q0 129 -93 129q-29 0 -53.5 -10.5t-38.5 -30.5v-277q0 -39 1 -62t8 -36t21 -19t40 -9
v-18h-276v18q30 3 46 9t23.5 19t9 36t1.5 62v448h-80v44h80v7q0 35 -2 54t-10.5 28t-24.5 11t-43 3v17l209 67q-1 -35 -2 -80t-1 -107h153v-44h-153v-143v0z" />
    <glyph glyph-name="hcircumflex" unicode="&#x125;" horiz-adv-x="620" 
d="M166 972l145 -139h-23l-130 59l-130 -59h-23l145 139h16zM220 449q15 19 30.5 37t34 31.5t41.5 21.5t53 8q32 0 59.5 -11t48 -34.5t32.5 -59.5t12 -85v-213q0 -39 1.5 -62t9 -36t23.5 -19t46 -9v-18h-276v18q26 3 40 9t21 19t8 36t1 62v189q0 129 -93 129
q-29 0 -53.5 -10.5t-38.5 -30.5v-277q0 -39 1 -62t8 -36t21 -19t40 -9v-18h-276v18q30 3 46 9t23.5 19t9 36t1.5 62v499q0 35 -2 54t-10.5 28t-24.5 11t-43 3v17l209 67q-1 -40 -2 -92t-1 -129v-153v0z" />
    <glyph glyph-name="dotlessi" unicode="&#x131;" horiz-adv-x="341" 
d="M237 144q0 -39 1.5 -62t9 -36t23.5 -19t46 -9v-18h-286v18q30 3 46 9t23.5 19t9 36t1.5 62v210q0 40 -2 61.5t-10.5 32t-24.5 12.5t-43 3v17l209 67q-1 -40 -2 -92t-1 -129v-182z" />
    <glyph glyph-name="ibreve" unicode="&#x12d;" horiz-adv-x="341" 
d="M168 663q46 0 68.5 26t25.5 73h51q0 -25 -8.5 -50t-26 -45.5t-45 -33t-65.5 -12.5t-65 12.5t-45 33t-26.5 45.5t-8.5 50h51q4 -47 26 -73t68 -26zM237 144q0 -39 1.5 -62t9 -36t23.5 -19t46 -9v-18h-286v18q30 3 46 9t23.5 19t9 36t1.5 62v210q0 40 -2 61.5t-10.5 32
t-24.5 12.5t-43 3v17l209 67q-1 -40 -2 -92t-1 -129v-182z" />
    <glyph glyph-name="imacron" unicode="&#x12b;" horiz-adv-x="341" 
d="M22 665v68h296v-68h-296zM237 144q0 -39 1.5 -62t9 -36t23.5 -19t46 -9v-18h-286v18q30 3 46 9t23.5 19t9 36t1.5 62v210q0 40 -2 61.5t-10.5 32t-24.5 12.5t-43 3v17l209 67q-1 -40 -2 -92t-1 -129v-182z" />
    <glyph glyph-name="iogonek" unicode="&#x12f;" horiz-adv-x="341" 
d="M256 -189q-22 -20 -50.5 -32t-56.5 -12q-18 0 -35 4.5t-31 15t-22.5 26.5t-8.5 39q0 22 12 43.5t31.5 40t44 35t50.5 30.5h18q-31 -21 -52.5 -54.5t-21.5 -67.5q0 -32 18 -51.5t47 -19.5q26 0 52 13zM237 144q0 -39 1.5 -62t9 -36t23.5 -19t46 -9v-18h-286v18q30 3 46 9
t23.5 19t9 36t1.5 62v210q0 40 -2 61.5t-10.5 32t-24.5 12.5t-43 3v17l209 67q-1 -40 -2 -92t-1 -129v-182zM168 656q-34 0 -58 23.5t-24 57.5q0 33 24 56t58 23q35 0 58.5 -23t23.5 -56q0 -34 -23.5 -57.5t-58.5 -23.5z" />
    <glyph glyph-name="itilde" unicode="&#x129;" horiz-adv-x="341" 
d="M3 636q0 23 5.5 47t16.5 44t29 32.5t43 12.5q21 0 41 -10t39 -21.5t36.5 -21.5t34.5 -10q27 0 40 14t15 46h19q0 -41 -8 -66.5t-20 -39.5t-27 -19.5t-31 -5.5q-25 0 -45.5 10t-39 21.5t-36 21.5t-37.5 10q-24 0 -39 -17t-17 -48h-19zM237 144q0 -39 1.5 -62t9 -36
t23.5 -19t46 -9v-18h-286v18q30 3 46 9t23.5 19t9 36t1.5 62v210q0 40 -2 61.5t-10.5 32t-24.5 12.5t-43 3v17l209 67q-1 -40 -2 -92t-1 -129v-182z" />
    <glyph glyph-name="uni1ECB" unicode="&#x1ecb;" horiz-adv-x="341" 
d="M102 -155q0 29 19.5 48t48.5 19t48 -19t19 -48q0 -30 -19 -49.5t-48 -19.5t-48.5 19.5t-19.5 49.5zM237 144q0 -39 1.5 -62t9 -36t23.5 -19t46 -9v-18h-286v18q30 3 46 9t23.5 19t9 36t1.5 62v210q0 40 -2 61.5t-10.5 32t-24.5 12.5t-43 3v17l209 67q-1 -40 -2 -92
t-1 -129v-182zM168 656q-34 0 -58 23.5t-24 57.5q0 33 24 56t58 23q35 0 58.5 -23t23.5 -56q0 -34 -23.5 -57.5t-58.5 -23.5z" />
    <glyph glyph-name="dotlessj" unicode="&#x237;" horiz-adv-x="318" 
d="M104 354q0 40 -2 61.5t-10.5 32t-24.5 12.5t-43 3v17l209 67q-1 -40 -2 -92t-1 -129v-226q0 -62 -11 -111t-36.5 -89t-67.5 -73.5t-103 -64.5l-9 12q33 35 53 71.5t30.5 74.5t14 78.5t3.5 84.5v271v0z" />
    <glyph glyph-name="jcircumflex" unicode="&#x135;" horiz-adv-x="318" 
d="M328 603h-20l-145 73l-145 -73h-19l158 169h13zM104 354q0 40 -2 61.5t-10.5 32t-24.5 12.5t-43 3v17l209 67q-1 -40 -2 -92t-1 -129v-226q0 -62 -11 -111t-36.5 -89t-67.5 -73.5t-103 -64.5l-9 12q33 35 53 71.5t30.5 74.5t14 78.5t3.5 84.5v271v0z" />
    <glyph glyph-name="kcommaaccent" unicode="&#x137;" horiz-adv-x="649" 
d="M239 -118q0 26 18.5 44.5t46.5 18.5q29 0 45.5 -19.5t16.5 -51.5q0 -29 -11 -56.5t-30 -52t-44 -44t-53 -32.5l-5 10q14 10 28 23.5t25.5 29t19 33t7.5 37.5q-26 1 -45 17.5t-19 42.5zM94 643q0 35 -2 54t-10.5 28t-24.5 11t-43 3v17l209 67q-1 -40 -2 -92t-1 -129v-458
q0 -39 1.5 -62t9 -36t23.5 -19t46 -9v-18h-286v18q30 3 46 9t23.5 19t9 36t1.5 62v499zM360 18q50 3 54.5 16.5t-26.5 51.5l-166 203l169 144q18 16 32 31.5t17 27.5t-8.5 20t-43.5 8v18h225v-18q-24 0 -43.5 -5t-39 -15.5t-40.5 -26.5t-46 -38l-110 -93l215 -268
q23 -28 45 -41.5t55 -14.5v-18h-289v18z" />
    <glyph glyph-name="lacute" unicode="&#x13a;" horiz-adv-x="340" 
d="M104 823h-21l83 129h157zM113 643q0 35 -2 54t-10.5 28t-24.5 11t-43 3v17l209 67q-1 -40 -2 -92t-1 -129v-458q0 -39 1.5 -62t9 -36t23.5 -19t46 -9v-18h-286v18q30 3 46 9t23.5 19t9 36t1.5 62v499v0z" />
    <glyph glyph-name="lcaron" unicode="&#x13e;" horiz-adv-x="407" 
d="M305 749q0 26 18.5 44.5t46.5 18.5q29 0 45.5 -19.5t16.5 -51.5q0 -29 -11 -56.5t-30 -52t-44 -44t-53 -32.5l-5 10q14 10 28 23.5t25.5 29t19 33t7.5 37.5q-26 1 -45 17.5t-19 42.5zM113 643q0 35 -2 54t-10.5 28t-24.5 11t-43 3v17l209 67q-1 -40 -2 -92t-1 -129v-458
q0 -39 1.5 -62t9 -36t23.5 -19t46 -9v-18h-286v18q30 3 46 9t23.5 19t9 36t1.5 62v499v0z" />
    <glyph glyph-name="lcommaaccent" unicode="&#x13c;" horiz-adv-x="340" 
d="M110 -118q0 26 18.5 44.5t46.5 18.5q29 0 45.5 -19.5t16.5 -51.5q0 -29 -11 -56.5t-30 -52t-44 -44t-53 -32.5l-5 10q14 10 28 23.5t25.5 29t19 33t7.5 37.5q-26 1 -45 17.5t-19 42.5zM113 643q0 35 -2 54t-10.5 28t-24.5 11t-43 3v17l209 67q-1 -40 -2 -92t-1 -129v-458
q0 -39 1.5 -62t9 -36t23.5 -19t46 -9v-18h-286v18q30 3 46 9t23.5 19t9 36t1.5 62v499v0z" />
    <glyph glyph-name="ldot" unicode="&#x140;" horiz-adv-x="429" 
d="M314 451q0 29 19.5 48t48.5 19t48 -19t19 -48q0 -30 -19 -49.5t-48 -19.5t-48.5 19.5t-19.5 49.5zM113 643q0 35 -2 54t-10.5 28t-24.5 11t-43 3v17l209 67q-1 -40 -2 -92t-1 -129v-458q0 -39 1.5 -62t9 -36t23.5 -19t46 -9v-18h-286v18q30 3 46 9t23.5 19t9 36t1.5 62
v499v0z" />
    <glyph glyph-name="lslash" unicode="&#x142;" horiz-adv-x="340" 
d="M113 643q0 35 -2 54t-10.5 28t-24.5 11t-43 3v17l209 67q-1 -40 -2 -92t-1 -129v-156l78 40l21 -41l-99 -51v-250q0 -39 1.5 -62t9 -36t23.5 -19t46 -9v-18h-286v18q30 3 46 9t23.5 19t9 36t1.5 62v185l-89 -45l-21 40l110 57v262v0z" />
    <glyph glyph-name="eng" unicode="&#x14b;" horiz-adv-x="607" 
d="M527 99q0 -62 -11 -110.5t-36.5 -88.5t-67.5 -73.5t-103 -64.5l-7 10q33 35 52.5 71.5t30 75t13.5 79.5t3 85v250q-1 65 -21 97t-67 32q-29 0 -53.5 -9.5t-38.5 -27.5v-281q0 -39 1 -62t8 -36t21 -19t40 -9v-18h-276v18q30 3 46 9t23.5 19t9 36t1.5 62v210q0 35 -2 56
t-10.5 32.5t-24.5 15.5t-43 5v17l205 67v-95q12 19 27.5 36t35 30t43.5 21t54 8q64 0 105.5 -45.5t41.5 -144.5v-258v0z" />
    <glyph glyph-name="nacute" unicode="&#x144;" horiz-adv-x="619" 
d="M517 772l-197 -169h-16l69 169h144zM15 480l205 67v-99q15 19 30.5 37t34 31.5t42 22t53.5 8.5q32 0 59.5 -11t48 -34.5t32.5 -59.5t12 -85v-213q0 -39 1.5 -62t9 -36t23.5 -19t46 -9v-18h-276v18q26 3 40 9t21 19t8 36t1 62v189q0 129 -93 129q-29 0 -53.5 -10.5
t-38.5 -30.5v-277q0 -39 1 -62t8 -36t21 -19t40 -9v-18h-276v18q30 3 46 9t23.5 19t9 36t1.5 62v223q0 35 -2 54t-10.5 28t-24.5 11t-43 3v17z" />
    <glyph glyph-name="ncaron" unicode="&#x148;" horiz-adv-x="619" 
d="M339 603l-158 169h19l145 -73l145 73h20l-158 -169h-13zM15 480l205 67v-99q15 19 30.5 37t34 31.5t42 22t53.5 8.5q32 0 59.5 -11t48 -34.5t32.5 -59.5t12 -85v-213q0 -39 1.5 -62t9 -36t23.5 -19t46 -9v-18h-276v18q26 3 40 9t21 19t8 36t1 62v189q0 129 -93 129
q-29 0 -53.5 -10.5t-38.5 -30.5v-277q0 -39 1 -62t8 -36t21 -19t40 -9v-18h-276v18q30 3 46 9t23.5 19t9 36t1.5 62v223q0 35 -2 54t-10.5 28t-24.5 11t-43 3v17z" />
    <glyph glyph-name="ncommaaccent" unicode="&#x146;" horiz-adv-x="619" 
d="M248 -118q0 26 18.5 44.5t46.5 18.5q29 0 45.5 -19.5t16.5 -51.5q0 -29 -11 -56.5t-30 -52t-44 -44t-53 -32.5l-5 10q14 10 28 23.5t25.5 29t19 33t7.5 37.5q-26 1 -45 17.5t-19 42.5zM15 480l205 67v-99q15 19 30.5 37t34 31.5t42 22t53.5 8.5q32 0 59.5 -11t48 -34.5
t32.5 -59.5t12 -85v-213q0 -39 1.5 -62t9 -36t23.5 -19t46 -9v-18h-276v18q26 3 40 9t21 19t8 36t1 62v189q0 129 -93 129q-29 0 -53.5 -10.5t-38.5 -30.5v-277q0 -39 1 -62t8 -36t21 -19t40 -9v-18h-276v18q30 3 46 9t23.5 19t9 36t1.5 62v223q0 35 -2 54t-10.5 28
t-24.5 11t-43 3v17z" />
    <glyph glyph-name="oe" unicode="&#x153;" horiz-adv-x="955" 
d="M304 547q66 0 118.5 -29t85.5 -80q35 51 86.5 80t111.5 29q94 0 152 -56t60 -160h-350q-1 -8 -0.5 -14t0.5 -10q0 -53 15 -94.5t41 -70t62.5 -43.5t78.5 -15q43 0 78.5 13.5t59.5 36.5l12 -10q-13 -22 -32 -46t-45.5 -44.5t-61 -33.5t-78.5 -13q-68 0 -117 26.5t-80 71.5
q-32 -45 -80.5 -71.5t-111.5 -26.5q-57 0 -106.5 21t-86 58.5t-58 89.5t-21.5 114q0 55 20 105.5t55 88.5t84 60.5t108 22.5zM295 511q-34 0 -57.5 -16t-38.5 -44t-21.5 -66t-6.5 -82q0 -36 7 -84.5t24 -92t46 -73.5t73 -30q33 0 56.5 16.5t38 45.5t21 67t6.5 82q0 35 -7 83
t-23.5 91t-45.5 73t-72 30zM686 508q-21 0 -40.5 -8t-35 -25t-26.5 -42.5t-14 -61.5h220q2 66 -27 101.5t-77 35.5z" />
    <glyph glyph-name="obreve" unicode="&#x14f;" horiz-adv-x="622" 
d="M298 511q-34 0 -58 -16t-39.5 -44t-22.5 -66t-7 -82q0 -36 7.5 -84.5t25 -92t47 -73.5t73.5 -30q33 0 57 16.5t39 45.5t22 67t7 82q0 35 -7.5 83t-24.5 91t-46.5 73t-72.5 30zM307 547q56 0 106 -21t87.5 -58t59.5 -88t22 -112q0 -57 -20.5 -108t-56.5 -89.5t-85.5 -61
t-107.5 -22.5q-57 0 -107 21t-87.5 58.5t-59 89.5t-21.5 114q0 55 20 105.5t56 88.5t85.5 60.5t108.5 22.5zM324 663q46 0 68.5 26t25.5 73h51q0 -25 -8.5 -50t-26 -45.5t-45 -33t-65.5 -12.5t-65 12.5t-45 33t-26.5 45.5t-8.5 50h51q4 -47 26 -73t68 -26z" />
    <glyph glyph-name="ohungarumlaut" unicode="&#x151;" horiz-adv-x="622" 
d="M591 772l-197 -169h-16l69 169h144zM402 772l-197 -169h-16l69 169h144zM298 511q-34 0 -58 -16t-39.5 -44t-22.5 -66t-7 -82q0 -36 7.5 -84.5t25 -92t47 -73.5t73.5 -30q33 0 57 16.5t39 45.5t22 67t7 82q0 35 -7.5 83t-24.5 91t-46.5 73t-72.5 30zM307 547
q56 0 106 -21t87.5 -58t59.5 -88t22 -112q0 -57 -20.5 -108t-56.5 -89.5t-85.5 -61t-107.5 -22.5q-57 0 -107 21t-87.5 58.5t-59 89.5t-21.5 114q0 55 20 105.5t56 88.5t85.5 60.5t108.5 22.5z" />
    <glyph glyph-name="omacron" unicode="&#x14d;" horiz-adv-x="622" 
d="M185 665v68h296v-68h-296zM298 511q-34 0 -58 -16t-39.5 -44t-22.5 -66t-7 -82q0 -36 7.5 -84.5t25 -92t47 -73.5t73.5 -30q33 0 57 16.5t39 45.5t22 67t7 82q0 35 -7.5 83t-24.5 91t-46.5 73t-72.5 30zM307 547q56 0 106 -21t87.5 -58t59.5 -88t22 -112
q0 -57 -20.5 -108t-56.5 -89.5t-85.5 -61t-107.5 -22.5q-57 0 -107 21t-87.5 58.5t-59 89.5t-21.5 114q0 55 20 105.5t56 88.5t85.5 60.5t108.5 22.5z" />
    <glyph glyph-name="uni1ECD" unicode="&#x1ecd;" horiz-adv-x="622" 
d="M239 -155q0 29 19.5 48t48.5 19t48 -19t19 -48q0 -30 -19 -49.5t-48 -19.5t-48.5 19.5t-19.5 49.5zM298 511q-34 0 -58 -16t-39.5 -44t-22.5 -66t-7 -82q0 -36 7.5 -84.5t25 -92t47 -73.5t73.5 -30q33 0 57 16.5t39 45.5t22 67t7 82q0 35 -7.5 83t-24.5 91t-46.5 73
t-72.5 30zM307 547q56 0 106 -21t87.5 -58t59.5 -88t22 -112q0 -57 -20.5 -108t-56.5 -89.5t-85.5 -61t-107.5 -22.5q-57 0 -107 21t-87.5 58.5t-59 89.5t-21.5 114q0 55 20 105.5t56 88.5t85.5 60.5t108.5 22.5z" />
    <glyph glyph-name="racute" unicode="&#x155;" horiz-adv-x="467" 
d="M462 772l-197 -169h-16l69 169h144zM17 18q30 3 46 9t23.5 19t9 36t1.5 62v222q0 35 -2 54t-10.5 28.5t-24.5 11.5t-43 3v17l204 67l2 -115q14 18 30.5 38t35 37.5t40.5 28.5t46 11q35 0 58.5 -19.5t23.5 -55.5q0 -29 -21.5 -51t-55.5 -22q-13 0 -20.5 4t-18.5 16l-32 37
q-8 9 -14 9q-11 0 -31.5 -18t-40.5 -44v-259q0 -42 2.5 -65t14 -35t34 -16.5t61.5 -7.5v-20h-318v18z" />
    <glyph glyph-name="rcaron" unicode="&#x159;" horiz-adv-x="467" 
d="M260 603l-158 169h19l145 -73l145 73h20l-158 -169h-13zM17 18q30 3 46 9t23.5 19t9 36t1.5 62v222q0 35 -2 54t-10.5 28.5t-24.5 11.5t-43 3v17l204 67l2 -115q14 18 30.5 38t35 37.5t40.5 28.5t46 11q35 0 58.5 -19.5t23.5 -55.5q0 -29 -21.5 -51t-55.5 -22
q-13 0 -20.5 4t-18.5 16l-32 37q-8 9 -14 9q-11 0 -31.5 -18t-40.5 -44v-259q0 -42 2.5 -65t14 -35t34 -16.5t61.5 -7.5v-20h-318v18z" />
    <glyph glyph-name="rcommaaccent" unicode="&#x157;" horiz-adv-x="467" 
d="M89 -118q0 26 18.5 44.5t46.5 18.5q29 0 45.5 -19.5t16.5 -51.5q0 -29 -11 -56.5t-30 -52t-44 -44t-53 -32.5l-5 10q14 10 28 23.5t25.5 29t19 33t7.5 37.5q-26 1 -45 17.5t-19 42.5zM17 18q30 3 46 9t23.5 19t9 36t1.5 62v222q0 35 -2 54t-10.5 28.5t-24.5 11.5t-43 3
v17l204 67l2 -115q14 18 30.5 38t35 37.5t40.5 28.5t46 11q35 0 58.5 -19.5t23.5 -55.5q0 -29 -21.5 -51t-55.5 -22q-13 0 -20.5 4t-18.5 16l-32 37q-8 9 -14 9q-11 0 -31.5 -18t-40.5 -44v-259q0 -42 2.5 -65t14 -35t34 -16.5t61.5 -7.5v-20h-318v18z" />
    <glyph glyph-name="sacute" unicode="&#x15b;" horiz-adv-x="482" 
d="M427 772l-197 -169h-16l69 169h144zM252 546q32 0 69.5 -6.5t63.5 -17.5l5 -162h-19q-17 75 -53 111.5t-81 36.5q-38 0 -63 -17t-25 -47q0 -29 20.5 -49t52.5 -38l55 -31q34 -20 61 -37.5t46 -37t28.5 -43t9.5 -54.5q0 -41 -18 -72t-46.5 -52t-64.5 -32t-73 -11
q-18 0 -39.5 2.5t-43 7t-42 11t-36.5 14.5v189h19q15 -96 52.5 -139t92.5 -43q20 0 38.5 4.5t32.5 14.5t22 25.5t8 36.5q0 29 -21 50t-58 42l-53 29q-27 15 -51 31t-42 35.5t-28.5 43t-10.5 55.5q0 39 17.5 67t45 46.5t62 27.5t67.5 9z" />
    <glyph glyph-name="scaron" unicode="&#x161;" horiz-adv-x="482" 
d="M241 603l-158 169h19l145 -73l145 73h20l-158 -169h-13zM252 546q32 0 69.5 -6.5t63.5 -17.5l5 -162h-19q-17 75 -53 111.5t-81 36.5q-38 0 -63 -17t-25 -47q0 -29 20.5 -49t52.5 -38l55 -31q34 -20 61 -37.5t46 -37t28.5 -43t9.5 -54.5q0 -41 -18 -72t-46.5 -52
t-64.5 -32t-73 -11q-18 0 -39.5 2.5t-43 7t-42 11t-36.5 14.5v189h19q15 -96 52.5 -139t92.5 -43q20 0 38.5 4.5t32.5 14.5t22 25.5t8 36.5q0 29 -21 50t-58 42l-53 29q-27 15 -51 31t-42 35.5t-28.5 43t-10.5 55.5q0 39 17.5 67t45 46.5t62 27.5t67.5 9z" />
    <glyph glyph-name="scedilla" unicode="&#x15f;" horiz-adv-x="482" 
d="M252 546q32 0 69.5 -6.5t63.5 -17.5l5 -162h-19q-17 75 -53 111.5t-81 36.5q-38 0 -63 -17t-25 -47q0 -29 20.5 -49t52.5 -38l55 -31q34 -20 61 -37.5t46 -37t28.5 -43t9.5 -54.5q0 -41 -18 -72t-46.5 -52t-64.5 -32t-73 -11q-18 0 -39.5 2.5t-43 7t-42 11t-36.5 14.5
v189h19q15 -96 52.5 -139t92.5 -43q20 0 38.5 4.5t32.5 14.5t22 25.5t8 36.5q0 29 -21 50t-58 42l-53 29q-27 15 -51 31t-42 35.5t-28.5 43t-10.5 55.5q0 39 17.5 67t45 46.5t62 27.5t67.5 9zM204 3h37l-51 -86q11 5 22 7t20 2q35 0 57.5 -21t22.5 -50q0 -25 -11 -43
t-28 -29t-37.5 -16.5t-39.5 -5.5q-32 0 -54.5 8.5t-39.5 18.5l11 26q13 -6 30.5 -10t33.5 -4q26 0 44.5 11t18.5 34q0 17 -11 27t-26.5 13.5t-32.5 0.5t-30 -10l-9 5z" />
    <glyph glyph-name="scircumflex" unicode="&#x15d;" horiz-adv-x="482" 
d="M410 603h-20l-145 73l-145 -73h-19l158 169h13zM252 546q32 0 69.5 -6.5t63.5 -17.5l5 -162h-19q-17 75 -53 111.5t-81 36.5q-38 0 -63 -17t-25 -47q0 -29 20.5 -49t52.5 -38l55 -31q34 -20 61 -37.5t46 -37t28.5 -43t9.5 -54.5q0 -41 -18 -72t-46.5 -52t-64.5 -32
t-73 -11q-18 0 -39.5 2.5t-43 7t-42 11t-36.5 14.5v189h19q15 -96 52.5 -139t92.5 -43q20 0 38.5 4.5t32.5 14.5t22 25.5t8 36.5q0 29 -21 50t-58 42l-53 29q-27 15 -51 31t-42 35.5t-28.5 43t-10.5 55.5q0 39 17.5 67t45 46.5t62 27.5t67.5 9z" />
    <glyph glyph-name="scommaaccent" unicode="&#x219;" horiz-adv-x="482" 
d="M170 -118q0 26 18.5 44.5t46.5 18.5q29 0 45.5 -19.5t16.5 -51.5q0 -29 -11 -56.5t-30 -52t-44 -44t-53 -32.5l-5 10q14 10 28 23.5t25.5 29t19 33t7.5 37.5q-26 1 -45 17.5t-19 42.5zM252 546q32 0 69.5 -6.5t63.5 -17.5l5 -162h-19q-17 75 -53 111.5t-81 36.5
q-38 0 -63 -17t-25 -47q0 -29 20.5 -49t52.5 -38l55 -31q34 -20 61 -37.5t46 -37t28.5 -43t9.5 -54.5q0 -41 -18 -72t-46.5 -52t-64.5 -32t-73 -11q-18 0 -39.5 2.5t-43 7t-42 11t-36.5 14.5v189h19q15 -96 52.5 -139t92.5 -43q20 0 38.5 4.5t32.5 14.5t22 25.5t8 36.5
q0 29 -21 50t-58 42l-53 29q-27 15 -51 31t-42 35.5t-28.5 43t-10.5 55.5q0 39 17.5 67t45 46.5t62 27.5t67.5 9z" />
    <glyph glyph-name="tbar" unicode="&#x167;" horiz-adv-x="384" 
d="M224 -13q-31 0 -55 8.5t-40.5 27.5t-25 50t-8.5 76v184h-85v44h85v117h-85v44h87v77l124 94v-171h131v-44h-131v-117h131v-44h-131v-163q0 -29 1.5 -50t8 -34.5t19 -19.5t35.5 -6q20 0 39 7t42 24l10 -9l-28 -34t-31.5 -30.5t-40 -22t-52.5 -8.5z" />
    <glyph glyph-name="tcaron" unicode="&#x165;" horiz-adv-x="482" 
d="M380 749q0 26 18.5 44.5t46.5 18.5q29 0 45.5 -19.5t16.5 -51.5q0 -29 -11 -56.5t-30 -52t-44 -44t-53 -32.5l-5 10q14 10 28 23.5t25.5 29t19 33t7.5 37.5q-26 1 -45 17.5t-19 42.5zM213 -13q-31 0 -55 8.5t-40.5 27.5t-25 50t-8.5 76v345h-85v44h87v77l124 94v-171h131
v-44h-131v-324q0 -29 1.5 -50t8 -34.5t19 -19.5t35.5 -6q20 0 39 7t42 24l10 -9l-28 -34t-31.5 -30.5t-40 -22t-52.5 -8.5z" />
    <glyph glyph-name="uni0163" unicode="&#x163;" horiz-adv-x="365" 
d="M127 -118q0 26 18.5 44.5t46.5 18.5q29 0 45.5 -19.5t16.5 -51.5q0 -29 -11 -56.5t-30 -52t-44 -44t-53 -32.5l-5 10q14 10 28 23.5t25.5 29t19 33t7.5 37.5q-26 1 -45 17.5t-19 42.5zM213 -13q-31 0 -55 8.5t-40.5 27.5t-25 50t-8.5 76v345h-85v44h87v77l124 94v-171
h131v-44h-131v-324q0 -29 1.5 -50t8 -34.5t19 -19.5t35.5 -6q20 0 39 7t42 24l10 -9l-28 -34t-31.5 -30.5t-40 -22t-52.5 -8.5z" />
    <glyph glyph-name="tcommaaccent" unicode="&#x21b;" horiz-adv-x="365" 
d="M127 -118q0 26 18.5 44.5t46.5 18.5q29 0 45.5 -19.5t16.5 -51.5q0 -29 -11 -56.5t-30 -52t-44 -44t-53 -32.5l-5 10q14 10 28 23.5t25.5 29t19 33t7.5 37.5q-26 1 -45 17.5t-19 42.5zM213 -13q-31 0 -55 8.5t-40.5 27.5t-25 50t-8.5 76v345h-85v44h87v77l124 94v-171
h131v-44h-131v-324q0 -29 1.5 -50t8 -34.5t19 -19.5t35.5 -6q20 0 39 7t42 24l10 -9l-28 -34t-31.5 -30.5t-40 -22t-52.5 -8.5z" />
    <glyph glyph-name="ubreve" unicode="&#x16d;" horiz-adv-x="600" 
d="M505 168q0 -35 1.5 -54.5t8.5 -30t22 -13.5t42 -4v-17l-184 -57l-14 99q-10 -20 -24.5 -38.5t-33 -33t-42.5 -23.5t-53 -9q-32 0 -60.5 10.5t-49.5 34t-33 61t-12 90.5v43.5t0.5 62t0.5 62v43.5q0 29 -1 48t-8 30t-22 16t-43 7v17l202 27q-1 -39 -2 -85.5t-1 -116.5v-131
q0 -68 20 -103t66 -35q58 0 94 52v274q0 29 -1 48t-8 30t-22 16t-43 7v17l203 27q-1 -39 -2 -86.5t-1 -118.5v-166v0zM291 663q46 0 68.5 26t25.5 73h51q0 -25 -8.5 -50t-26 -45.5t-45 -33t-65.5 -12.5t-65 12.5t-45 33t-26.5 45.5t-8.5 50h51q4 -47 26 -73t68 -26z" />
    <glyph glyph-name="uhungarumlaut" unicode="&#x171;" horiz-adv-x="600" 
d="M505 168q0 -35 1.5 -54.5t8.5 -30t22 -13.5t42 -4v-17l-184 -57l-14 99q-10 -20 -24.5 -38.5t-33 -33t-42.5 -23.5t-53 -9q-32 0 -60.5 10.5t-49.5 34t-33 61t-12 90.5v43.5t0.5 62t0.5 62v43.5q0 29 -1 48t-8 30t-22 16t-43 7v17l202 27q-1 -39 -2 -85.5t-1 -116.5v-131
q0 -68 20 -103t66 -35q58 0 94 52v274q0 29 -1 48t-8 30t-22 16t-43 7v17l203 27q-1 -39 -2 -86.5t-1 -118.5v-166v0zM560 772l-197 -169h-16l69 169h144zM371 772l-197 -169h-16l69 169h144z" />
    <glyph glyph-name="umacron" unicode="&#x16b;" horiz-adv-x="600" 
d="M505 168q0 -35 1.5 -54.5t8.5 -30t22 -13.5t42 -4v-17l-184 -57l-14 99q-10 -20 -24.5 -38.5t-33 -33t-42.5 -23.5t-53 -9q-32 0 -60.5 10.5t-49.5 34t-33 61t-12 90.5v43.5t0.5 62t0.5 62v43.5q0 29 -1 48t-8 30t-22 16t-43 7v17l202 27q-1 -39 -2 -85.5t-1 -116.5v-131
q0 -68 20 -103t66 -35q58 0 94 52v274q0 29 -1 48t-8 30t-22 16t-43 7v17l203 27q-1 -39 -2 -86.5t-1 -118.5v-166v0zM149 665v68h296v-68h-296z" />
    <glyph glyph-name="uogonek" unicode="&#x173;" horiz-adv-x="600" 
d="M494 -175q-22 -20 -50.5 -32t-56.5 -12q-18 0 -35 4.5t-31 15t-22.5 26.5t-8.5 39q0 22 12 43.5t31.5 40t44 35t50.5 30.5h18q-31 -21 -52.5 -54.5t-21.5 -67.5q0 -32 18 -51.5t47 -19.5q26 0 52 13zM505 168q0 -35 1.5 -54.5t8.5 -30t22 -13.5t42 -4v-17l-184 -57
l-14 99q-10 -20 -24.5 -38.5t-33 -33t-42.5 -23.5t-53 -9q-32 0 -60.5 10.5t-49.5 34t-33 61t-12 90.5v43.5t0.5 62t0.5 62v43.5q0 29 -1 48t-8 30t-22 16t-43 7v17l202 27q-1 -39 -2 -85.5t-1 -116.5v-131q0 -68 20 -103t66 -35q58 0 94 52v274q0 29 -1 48t-8 30t-22 16
t-43 7v17l203 27q-1 -39 -2 -86.5t-1 -118.5v-166v0z" />
    <glyph glyph-name="uring" unicode="&#x16f;" horiz-adv-x="600" 
d="M199 702q0 40 27 67t66 27t66.5 -27t27.5 -67q0 -19 -7.5 -36t-20 -29.5t-30 -20t-36.5 -7.5q-20 0 -36.5 7.5t-29.5 20t-20 29.5t-7 36zM238 702q0 -25 15 -40t39 -15q23 0 38.5 15t15.5 40t-15.5 41t-38.5 16q-24 0 -39 -16t-15 -41zM505 168q0 -35 1.5 -54.5t8.5 -30
t22 -13.5t42 -4v-17l-184 -57l-14 99q-10 -20 -24.5 -38.5t-33 -33t-42.5 -23.5t-53 -9q-32 0 -60.5 10.5t-49.5 34t-33 61t-12 90.5v43.5t0.5 62t0.5 62v43.5q0 29 -1 48t-8 30t-22 16t-43 7v17l202 27q-1 -39 -2 -85.5t-1 -116.5v-131q0 -68 20 -103t66 -35q58 0 94 52
v274q0 29 -1 48t-8 30t-22 16t-43 7v17l203 27q-1 -39 -2 -86.5t-1 -118.5v-166v0z" />
    <glyph glyph-name="utilde" unicode="&#x169;" horiz-adv-x="600" 
d="M505 168q0 -35 1.5 -54.5t8.5 -30t22 -13.5t42 -4v-17l-184 -57l-14 99q-10 -20 -24.5 -38.5t-33 -33t-42.5 -23.5t-53 -9q-32 0 -60.5 10.5t-49.5 34t-33 61t-12 90.5v43.5t0.5 62t0.5 62v43.5q0 29 -1 48t-8 30t-22 16t-43 7v17l202 27q-1 -39 -2 -85.5t-1 -116.5v-131
q0 -68 20 -103t66 -35q58 0 94 52v274q0 29 -1 48t-8 30t-22 16t-43 7v17l203 27q-1 -39 -2 -86.5t-1 -118.5v-166v0zM132 636q0 23 5.5 47t16.5 44t29 32.5t43 12.5q21 0 41 -10t39 -21.5t36.5 -21.5t34.5 -10q27 0 40 14t15 46h19q0 -41 -8 -66.5t-20 -39.5t-27 -19.5
t-31 -5.5q-25 0 -45.5 10t-39 21.5t-36 21.5t-37.5 10q-24 0 -39 -17t-17 -48h-19z" />
    <glyph glyph-name="uni1EE5" unicode="&#x1ee5;" horiz-adv-x="600" 
d="M505 168q0 -35 1.5 -54.5t8.5 -30t22 -13.5t42 -4v-17l-184 -57l-14 99q-10 -20 -24.5 -38.5t-33 -33t-42.5 -23.5t-53 -9q-32 0 -60.5 10.5t-49.5 34t-33 61t-12 90.5v43.5t0.5 62t0.5 62v43.5q0 29 -1 48t-8 30t-22 16t-43 7v17l202 27q-1 -39 -2 -85.5t-1 -116.5v-131
q0 -68 20 -103t66 -35q58 0 94 52v274q0 29 -1 48t-8 30t-22 16t-43 7v17l203 27q-1 -39 -2 -86.5t-1 -118.5v-166v0zM231 -155q0 29 19.5 48t48.5 19t48 -19t19 -48q0 -30 -19 -49.5t-48 -19.5t-48.5 19.5t-19.5 49.5z" />
    <glyph glyph-name="wacute" unicode="&#x1e83;" horiz-adv-x="809" 
d="M629 772l-197 -169h-16l69 169h144zM401 368l-121 -376h-63l-150 461q-11 33 -23.5 48.5t-43.5 18.5v18h263v-18q-28 -2 -42 -7.5t-18.5 -15t-2 -23.5t8.5 -33l82 -279l118 376h66l114 -378l73 233q12 38 16.5 62t0.5 38t-16.5 19.5t-34.5 7.5v18h181v-18
q-19 -2 -31.5 -6.5t-22 -15t-17.5 -28t-17 -44.5l-139 -434h-64z" />
    <glyph glyph-name="wcircumflex" unicode="&#x175;" horiz-adv-x="809" 
d="M602 603h-20l-145 73l-145 -73h-19l158 169h13zM401 368l-121 -376h-63l-150 461q-11 33 -23.5 48.5t-43.5 18.5v18h263v-18q-28 -2 -42 -7.5t-18.5 -15t-2 -23.5t8.5 -33l82 -279l118 376h66l114 -378l73 233q12 38 16.5 62t0.5 38t-16.5 19.5t-34.5 7.5v18h181v-18
q-19 -2 -31.5 -6.5t-22 -15t-17.5 -28t-17 -44.5l-139 -434h-64z" />
    <glyph glyph-name="wdieresis" unicode="&#x1e85;" horiz-adv-x="809" 
d="M253 705q0 29 19.5 48t48.5 19q28 0 47.5 -19t19.5 -48q0 -30 -19.5 -49.5t-47.5 -19.5q-29 0 -48.5 19.5t-19.5 49.5zM476 705q0 29 20 48t49 19q28 0 47.5 -19t19.5 -48q0 -30 -19.5 -49.5t-47.5 -19.5q-29 0 -49 19.5t-20 49.5zM401 368l-121 -376h-63l-150 461
q-11 33 -23.5 48.5t-43.5 18.5v18h263v-18q-28 -2 -42 -7.5t-18.5 -15t-2 -23.5t8.5 -33l82 -279l118 376h66l114 -378l73 233q12 38 16.5 62t0.5 38t-16.5 19.5t-34.5 7.5v18h181v-18q-19 -2 -31.5 -6.5t-22 -15t-17.5 -28t-17 -44.5l-139 -434h-64z" />
    <glyph glyph-name="wgrave" unicode="&#x1e81;" horiz-adv-x="809" 
d="M401 368l-121 -376h-63l-150 461q-11 33 -23.5 48.5t-43.5 18.5v18h263v-18q-28 -2 -42 -7.5t-18.5 -15t-2 -23.5t8.5 -33l82 -279l118 376h66l114 -378l73 233q12 38 16.5 62t0.5 38t-16.5 19.5t-34.5 7.5v18h181v-18q-19 -2 -31.5 -6.5t-22 -15t-17.5 -28t-17 -44.5
l-139 -434h-64zM379 772l69 -169h-16l-197 169h144z" />
    <glyph glyph-name="ycircumflex" unicode="&#x177;" horiz-adv-x="587" 
d="M152 -222q-34 0 -56.5 17t-22.5 49q0 21 13 40t36 19q5 0 11 -2t17 -11l51 -45q12 20 24.5 46t23.5 52l21 51l-202 460q-6 15 -11.5 26.5t-12.5 20t-17.5 13.5t-26.5 6v18h278v-18q-27 -1 -42.5 -6.5t-21.5 -15.5t-4 -24t9 -32l116 -296l98 245q13 33 19.5 56t3.5 38
t-17 23.5t-41 11.5v18h189v-18q-20 -2 -32.5 -7.5t-21.5 -16t-17 -27.5t-19 -44l-199 -489q-14 -35 -27.5 -64t-30 -50t-37.5 -32.5t-51 -11.5zM493 603h-20l-145 73l-145 -73h-19l158 169h13z" />
    <glyph glyph-name="ygrave" unicode="&#x1ef3;" horiz-adv-x="587" 
d="M152 -222q-34 0 -56.5 17t-22.5 49q0 21 13 40t36 19q5 0 11 -2t17 -11l51 -45q12 20 24.5 46t23.5 52l21 51l-202 460q-6 15 -11.5 26.5t-12.5 20t-17.5 13.5t-26.5 6v18h278v-18q-27 -1 -42.5 -6.5t-21.5 -15.5t-4 -24t9 -32l116 -296l98 245q13 33 19.5 56t3.5 38
t-17 23.5t-41 11.5v18h189v-18q-20 -2 -32.5 -7.5t-21.5 -16t-17 -27.5t-19 -44l-199 -489q-14 -35 -27.5 -64t-30 -50t-37.5 -32.5t-51 -11.5zM286 772l69 -169h-16l-197 169h144z" />
    <glyph glyph-name="uni0233" unicode="&#x233;" horiz-adv-x="587" 
d="M152 -222q-34 0 -56.5 17t-22.5 49q0 21 13 40t36 19q5 0 11 -2t17 -11l51 -45q12 20 24.5 46t23.5 52l21 51l-202 460q-6 15 -11.5 26.5t-12.5 20t-17.5 13.5t-26.5 6v18h278v-18q-27 -1 -42.5 -6.5t-21.5 -15.5t-4 -24t9 -32l116 -296l98 245q13 33 19.5 56t3.5 38
t-17 23.5t-41 11.5v18h189v-18q-20 -2 -32.5 -7.5t-21.5 -16t-17 -27.5t-19 -44l-199 -489q-14 -35 -27.5 -64t-30 -50t-37.5 -32.5t-51 -11.5zM171 665v68h296v-68h-296z" />
    <glyph glyph-name="zacute" unicode="&#x17a;" horiz-adv-x="565" 
d="M491 772l-197 -169h-16l69 169h144zM41 0v9l317 490h-78q-46 0 -77 -3.5t-50.5 -18.5t-30.5 -45t-18 -82h-22v188h429v-10l-314 -489h112q44 0 72.5 5t47 20.5t29 45t18.5 78.5h21v-188h-456z" />
    <glyph glyph-name="zcaron" unicode="&#x17e;" horiz-adv-x="565" 
d="M286 603l-158 169h19l145 -73l145 73h20l-158 -169h-13zM41 0v9l317 490h-78q-46 0 -77 -3.5t-50.5 -18.5t-30.5 -45t-18 -82h-22v188h429v-10l-314 -489h112q44 0 72.5 5t47 20.5t29 45t18.5 78.5h21v-188h-456z" />
    <glyph glyph-name="zdotaccent" unicode="&#x17c;" horiz-adv-x="565" 
d="M41 0v9l317 490h-78q-46 0 -77 -3.5t-50.5 -18.5t-30.5 -45t-18 -82h-22v188h429v-10l-314 -489h112q44 0 72.5 5t47 20.5t29 45t18.5 78.5h21v-188h-456zM234 705q0 29 19.5 48t48.5 19t48 -19t19 -48q0 -30 -19 -49.5t-48 -19.5t-48.5 19.5t-19.5 49.5z" />
    <glyph glyph-name="uni0259" unicode="&#x259;" horiz-adv-x="535" 
d="M249.984 546.967q58.9971 0 104.994 -19.999t76.9951 -55.9961q30.998 -35.998 46.9971 -85.4951t15.999 -107.493q0 -58.9971 -19.999 -111.993q-19.998 -52.9971 -54.4961 -92.4951q-34.498 -39.4971 -79.9951 -62.9961q-45.4971 -23.498 -97.4941 -23.498
q-44.9971 0 -83.4951 13.999t-66.9961 40.9971q-28.498 26.999 -45.9971 67.4961q-17.499 40.498 -20.499 93.4941h356.979v8q0 60.9961 -15.499 105.993t-41.4971 74.4961q-25.999 29.498 -61.4971 43.9971q-35.4971 14.499 -76.4951 14.499q-50.9971 0 -89.4941 -16.499
q-38.498 -16.499 -62.4961 -41.4971l-12 9.99902q13 21.999 32.998 47.4971q19.999 25.498 47.4971 46.9971q27.499 21.499 63.9961 35.998q36.498 14.499 81.4951 14.499zM257.984 25.998q53.9961 0 84.4951 36.998q30.498 36.998 38.4971 99.9941h-228.986
q3 -71.9961 32.498 -104.494q29.499 -32.498 73.4961 -32.498z" />
    <glyph glyph-name="ellipsis" unicode="&#x2026;" horiz-adv-x="1056" 
d="M799 68q0 33 23.5 56.5t56.5 23.5q35 0 58.5 -23.5t23.5 -56.5q0 -34 -23.5 -57.5t-58.5 -23.5q-33 0 -56.5 23.5t-23.5 57.5zM447 68q0 33 23.5 56.5t56.5 23.5q35 0 58.5 -23.5t23.5 -56.5q0 -34 -23.5 -57.5t-58.5 -23.5q-33 0 -56.5 23.5t-23.5 57.5zM95 68
q0 33 23.5 56.5t56.5 23.5q35 0 58.5 -23.5t23.5 -56.5q0 -34 -23.5 -57.5t-58.5 -23.5q-33 0 -56.5 23.5t-23.5 57.5z" />
    <glyph glyph-name="endash" unicode="&#x2013;" horiz-adv-x="496" 
d="M38 241v70h420v-70h-420z" />
    <glyph glyph-name="emdash" unicode="&#x2014;" horiz-adv-x="723" 
d="M38 241v70h647v-70h-647z" />
    <glyph glyph-name="guilsinglleft" unicode="&#x2039;" horiz-adv-x="361" 
d="M33 273l212 234h49l-125 -234l125 -235h-49z" />
    <glyph glyph-name="guilsinglright" unicode="&#x203a;" horiz-adv-x="362" 
d="M117 38h-49l124 235l-124 234h49l213 -234z" />
    <glyph glyph-name="quoteleft" unicode="&#x2018;" horiz-adv-x="295" 
d="M213 551q0 -31 -21.5 -53t-55.5 -22q-35 0 -54 23.5t-19 60.5q0 34 13 67t34.5 63t49.5 54t57 40l9 -12q-15 -11 -31 -26.5t-28.5 -34.5t-21 -41t-9.5 -46q33 0 55 -20.5t22 -52.5z" />
    <glyph glyph-name="quoteright" unicode="&#x2019;" horiz-adv-x="295" 
d="M60 710q0 30 21.5 52t54.5 22q35 0 54.5 -23.5t19.5 -60.5q0 -33 -13 -66.5t-35 -63t-49.5 -54t-56.5 -40.5l-8 12q15 12 30 27.5t28 34.5t21 41t9 46q-32 0 -54 20.5t-22 52.5z" />
    <glyph glyph-name="quotedblleft" unicode="&#x201c;" horiz-adv-x="495" 
d="M413 551q0 -31 -21.5 -53t-55.5 -22q-35 0 -54 23.5t-19 60.5q0 34 13 67t34.5 63t49.5 54t57 40l9 -12q-15 -11 -31 -26.5t-28.5 -34.5t-21 -41t-9.5 -46q33 0 55 -20.5t22 -52.5zM213 551q0 -31 -21.5 -53t-55.5 -22q-35 0 -54 23.5t-19 60.5q0 34 13 67t34.5 63
t49.5 54t57 40l9 -12q-15 -11 -31 -26.5t-28.5 -34.5t-21 -41t-9.5 -46q33 0 55 -20.5t22 -52.5z" />
    <glyph glyph-name="quotedblright" unicode="&#x201d;" horiz-adv-x="495" 
d="M260 710q0 30 21.5 52t54.5 22q35 0 54.5 -23.5t19.5 -60.5q0 -33 -13 -66.5t-35 -63t-49.5 -54t-56.5 -40.5l-8 12q15 12 30 27.5t28 34.5t21 41t9 46q-32 0 -54 20.5t-22 52.5zM60 710q0 30 21.5 52t54.5 22q35 0 54.5 -23.5t19.5 -60.5q0 -33 -13 -66.5t-35 -63
t-49.5 -54t-56.5 -40.5l-8 12q15 12 30 27.5t28 34.5t21 41t9 46q-32 0 -54 20.5t-22 52.5z" />
    <glyph glyph-name="quotesinglbase" unicode="&#x201a;" horiz-adv-x="347" 
d="M102 61q0 30 21.5 52t54.5 22q35 0 54.5 -23.5t19.5 -60.5q0 -33 -13 -66.5t-35 -63t-49.5 -54t-56.5 -40.5l-8 12q15 12 30 27.5t28 34.5t21 41t9 46q-32 0 -54 20.5t-22 52.5z" />
    <glyph glyph-name="quotedblbase" unicode="&#x201e;" horiz-adv-x="547" 
d="M302 61q0 30 21.5 52t54.5 22q35 0 54.5 -23.5t19.5 -60.5q0 -33 -13 -66.5t-35 -63t-49.5 -54t-56.5 -40.5l-8 12q15 12 30 27.5t28 34.5t21 41t9 46q-32 0 -54 20.5t-22 52.5zM102 61q0 30 21.5 52t54.5 22q35 0 54.5 -23.5t19.5 -60.5q0 -33 -13 -66.5t-35 -63
t-49.5 -54t-56.5 -40.5l-8 12q15 12 30 27.5t28 34.5t21 41t9 46q-32 0 -54 20.5t-22 52.5z" />
    <glyph glyph-name="bullet" unicode="&#x2022;" horiz-adv-x="454" 
d="M44 283q0 37 14 70t38.5 57.5t57 38.5t69.5 14q40 0 74 -14t59 -38.5t39.5 -57.5t14.5 -70q0 -39 -14.5 -73t-39.5 -59t-59 -39.5t-74 -14.5q-37 0 -69.5 14.5t-57 39.5t-38.5 59t-14 73z" />
    <glyph glyph-name="dagger" unicode="&#x2020;" horiz-adv-x="540" 
d="M233 0v426h-207v70h207v229h74v-229h207v-70h-207v-426h-74z" />
    <glyph glyph-name="daggerdbl" unicode="&#x2021;" horiz-adv-x="595" 
d="M540 270v-67h-208v-203h-70v203h-207v67h207v173h-207v67h207v215h70v-215h208v-67h-208v-173h208z" />
    <glyph glyph-name="perthousand" unicode="&#x2030;" horiz-adv-x="1444" 
d="M123 524q0 -36 3 -71t10.5 -62.5t21.5 -44.5t36 -17t36.5 17t22 44.5t10.5 62.5t3 71t-3 70.5t-10.5 61.5t-22 43.5t-36.5 16.5t-36 -16.5t-21.5 -43.5t-10.5 -61.5t-3 -70.5zM22 524q0 44 14 82.5t37.5 67t54.5 45t66 16.5t66.5 -16.5t55 -45t37 -67t13.5 -82.5
t-13.5 -83t-37 -68t-55 -46t-66.5 -17t-66 17t-54.5 46t-37.5 68t-14 83zM239 0l508 725h70l-508 -725h-70zM791 207q0 -36 3 -71t10.5 -62.5t21.5 -44.5t36 -17t36.5 17t22 44.5t10.5 62.5t3 71t-3 70.5t-10.5 61.5t-22 43.5t-36.5 16.5t-36 -16.5t-21.5 -43.5t-10.5 -61.5
t-3 -70.5zM690 207q0 44 14 82.5t37.5 67t54.5 45t66 16.5t66.5 -16.5t55 -45t37 -67t13.5 -82.5t-13.5 -83t-37 -68t-55 -46t-66.5 -17t-66 17t-54.5 46t-37.5 68t-14 83zM1179 207q0 -36 3 -71t10.5 -62.5t21.5 -44.5t36 -17t36.5 17t22 44.5t10.5 62.5t3 71t-3 70.5
t-10.5 61.5t-22 43.5t-36.5 16.5t-36 -16.5t-21.5 -43.5t-10.5 -61.5t-3 -70.5zM1078 207q0 44 14 82.5t37.5 67t54.5 45t66 16.5t66.5 -16.5t55 -45t37 -67t13.5 -82.5t-13.5 -83t-37 -68t-55 -46t-66.5 -17t-66 17t-54.5 46t-37.5 68t-14 83z" />
    <glyph glyph-name="uni2117" unicode="&#x2117;" horiz-adv-x="837" 
d="M44 361q0 83 29.5 152.5t80.5 119t119.5 77t146.5 27.5q77 0 145 -27.5t119 -77t80.5 -119t29.5 -152.5t-29.5 -152t-80.5 -118.5t-119 -76.5t-145 -27q-78 0 -146.5 27t-119.5 76.5t-80.5 118.5t-29.5 152zM111 361q0 -70 24 -128t65.5 -99.5t98 -64.5t121.5 -23
q66 0 122 23t97.5 64.5t65 99.5t23.5 128q0 71 -23.5 129t-65 99.5t-97.5 64.5t-122 23q-65 0 -121.5 -23t-98 -64.5t-65.5 -99.5t-24 -129zM358 330v-155h-66v397h121q43 0 77.5 -4.5t58.5 -17.5t37 -36.5t13 -61.5q0 -24 -9.5 -46.5t-29 -39t-50 -26.5t-72.5 -10h-80z
M530 451q0 37 -27.5 49t-71.5 12h-73v-124h78q50 0 72 15.5t22 47.5z" />
    <glyph glyph-name="trademark" unicode="&#x2122;" horiz-adv-x="870" 
d="M145 663h-129v62h328v-62h-130v-344h-69v344zM572 319l-120 333v-333h-67v406h114l112 -323l109 323h113v-406h-68v333l-119 -333h-74z" />
    <glyph glyph-name="lozenge" unicode="&#x25ca;" horiz-adv-x="553" 
d="M110 349l167 -290l166 290l-166 290zM277 771l247 -422l-247 -423l-249 423z" />
    <glyph glyph-name="afii61289" unicode="&#x2113;" horiz-adv-x="406" 
d="M115 218l-82 -62l-33 48l115 88v260q0 93 30 139.5t104 46.5q62 0 93 -44t31 -112q0 -49 -14 -92t-38.5 -80.5t-58 -71t-71.5 -62.5l-13 -10v-125q0 -52 13.5 -75t53.5 -23q35 0 56.5 13t36.5 28l34 -43q-26 -24 -57 -39t-75 -15q-36 0 -60.5 9.5t-38.5 29t-20 48.5
t-6 67v77zM178 340l20 16q57 43 83.5 102.5t26.5 120.5q0 31 -6 51.5t-15 31.5t-21 15.5t-24 4.5q-35 0 -49.5 -29.5t-14.5 -101.5v-211z" />
    <glyph glyph-name="afii61352" unicode="&#x2116;" horiz-adv-x="1157" 
d="M635 579q0 39 -2 62t-11.5 36t-29.5 19t-56 11v18h245v-18q-36 -5 -56 -11t-29.5 -19t-11.5 -36t-2 -62v-579h-84l-416 562v-416q0 -39 2 -62t11.5 -36t29.5 -19.5t56 -10.5v-18h-245v18q36 4 56 10.5t29.5 19.5t11.5 36t2 62v479l-1 2q-26 35 -43.5 55t-38.5 28v15h186
l397 -539v393zM963 748q33 0 61 -11.5t49 -32t33 -48.5t12 -61q0 -30 -11 -58t-31.5 -49.5t-49 -34.5t-63.5 -13t-63 12t-48.5 33t-31.5 50t-11 63q0 28 11 55t31 48t48.5 34t63.5 13zM958 729q-15 0 -24.5 -10t-15.5 -26.5t-8 -36.5t-2 -41q0 -20 2.5 -46.5t9 -50.5t19 -41
t32.5 -17q14 0 23 11t14.5 28t7.5 38t2 41q0 18 -2 44t-8.5 50t-18.5 40.5t-31 16.5zM819 346v59h291v-59h-291z" />
    <glyph glyph-name="apple" horiz-adv-x="454" 
d="M44 283q0 37 14 70t38.5 57.5t57 38.5t69.5 14q40 0 74 -14t59 -38.5t39.5 -57.5t14.5 -70q0 -39 -14.5 -73t-39.5 -59t-59 -39.5t-74 -14.5q-37 0 -69.5 14.5t-57 39.5t-38.5 59t-14 73z" />
    <glyph glyph-name="estimated" unicode="&#x212e;" horiz-adv-x="589" 
d="M546 150q-12 -34 -33.5 -64t-51.5 -52t-70 -34.5t-90 -12.5q-68 0 -119 22t-85.5 60t-52 89t-17.5 110q0 61 19 112.5t54.5 88.5t85 57.5t110.5 20.5q64 0 113 -22.5t82 -60.5t50.5 -88.5t18.5 -106.5h-416v-193q23 -24 68.5 -39.5t96.5 -15.5q72 0 121.5 34.5t74.5 94.5
h41zM144 301h298v159q-23 22 -60.5 37.5t-86.5 15.5q-48 0 -87 -13t-64 -39v-160z" />
    <glyph glyph-name="minus" unicode="&#x2212;" 
d="M606 312v-76h-534v76h534z" />
    <glyph glyph-name="lessequal" unicode="&#x2264;" 
d="M606 199v-84l-535 182v70l535 184v-84l-428 -135zM69 75h540v-75h-540v75z" />
    <glyph glyph-name="greaterequal" unicode="&#x2265;" 
d="M72 467v84l535 -184v-70l-535 -182v84l428 133zM69 0v75h540v-75h-540z" />
    <glyph glyph-name="notequal" unicode="&#x2260;" 
d="M92 419h285l83 144l65 -33l-64 -111h125v-75h-167l-75 -131h242v-75h-285l-94 -165l-65 36l74 129h-124v75h167l75 131h-242v75z" />
    <glyph glyph-name="approxequal" unicode="&#x2248;" 
d="M454 378q28 0 47.5 18t22.5 53h76q-4 -67 -43.5 -104.5t-102.5 -37.5q-31 0 -61 11t-58.5 24.5t-56 24.5t-53.5 11q-28 0 -47.5 -18t-21.5 -53h-78q4 66 43.5 104t103.5 38q36 0 67.5 -11t60 -24.5t53.5 -24.5t48 -11zM454 191q28 0 47.5 18t22.5 53h76
q-4 -66 -43.5 -104t-102.5 -38q-31 0 -61 11t-58.5 24.5t-56 24.5t-53.5 11q-28 0 -47.5 -18t-21.5 -53h-78q4 67 43.5 104.5t103.5 37.5q36 0 67.5 -11t60 -24.5t53.5 -24.5t48 -11z" />
    <glyph glyph-name="partialdiff" unicode="&#x2202;" horiz-adv-x="569" 
d="M447 266q0 56 -14 96.5t-37.5 66.5t-54 38t-62.5 12q-75 0 -118 -56t-43 -157t43 -158t118 -57q32 0 62.5 12.5t54 39t37.5 67t14 96.5zM278 -13q-54 0 -97.5 19t-75 55t-48.5 87.5t-17 117.5q0 65 17.5 116.5t48.5 87.5t73.5 55t93.5 19t92 -20.5t65 -55.5l1 2
q-14 42 -41.5 78t-63.5 63t-79.5 43.5t-89.5 18.5v68q84 -6 152 -39.5t116 -90t74.5 -133.5t26.5 -169q0 -83 -18.5 -144t-51.5 -100.5t-78.5 -58.5t-99.5 -19z" />
    <glyph glyph-name="product" unicode="&#x220f;" horiz-adv-x="672" 
d="M75 -189v914h523v-914h-75v844h-374v-844h-74z" />
    <glyph glyph-name="radical" unicode="&#x221a;" horiz-adv-x="531" 
d="M138 287l163 -379l138 817h72l-157 -914h-88l-166 378l-68 -32l-32 68z" />
    <glyph glyph-name="summation" unicode="&#x2211;" horiz-adv-x="583" 
d="M312 268l-286 393v64h531v-70h-444l285 -387l-285 -387h444v-70h-531v65z" />
    <glyph glyph-name="integral" unicode="&#x222b;" horiz-adv-x="281" 
d="M107 490q0 70 9.5 117t27.5 75.5t43 40.5t57 12t54.5 -15t22.5 -44q0 -20 -12 -33t-32 -13q-19 0 -29.5 10.5t-10.5 27.5q0 8 2 16t8 14q-21 0 -34.5 -10t-21 -28t-10.5 -43.5t-3 -56.5q0 -39 1 -79.5t1 -88.5v-349q0 -68 -9.5 -113.5t-27 -73.5t-43 -39.5t-58.5 -11.5
q-32 0 -53.5 14t-21.5 43q0 21 12.5 33.5t31.5 12.5t29.5 -10.5t10.5 -27.5t-10 -29q21 0 34.5 9.5t21 27.5t10 43t2.5 57q0 38 -1 78.5t-1 88.5v345z" />
    <glyph glyph-name="infinity" unicode="&#x221e;" horiz-adv-x="789" 
d="M588 417q39 0 71.5 -11.5t55.5 -33t36 -52t13 -67.5q0 -74 -46.5 -118t-123.5 -44q-57 0 -106.5 30t-94.5 81q-42 -48 -89 -79.5t-106 -31.5q-79 0 -126.5 44.5t-47.5 117.5q0 37 12.5 67.5t36 52t56 33t71.5 11.5q53 0 100 -26.5t95 -81.5q49 56 94 82t99 26zM200 154
q44 0 80.5 28.5t71.5 71.5q-40 48 -76 74.5t-79 26.5q-42 0 -71 -27t-29 -75q0 -21 7.5 -39t21.5 -31.5t32.5 -21t41.5 -7.5zM585 355q-41 0 -75.5 -26.5t-72.5 -71.5q42 -52 77.5 -77.5t77.5 -25.5q41 0 70 27t29 72q0 43 -29 72.5t-77 29.5z" />
    <glyph glyph-name="Delta" unicode="&#x394;" horiz-adv-x="739" 
d="M369 725l354 -725h-708zM369 567l-238 -497h476z" />
    <glyph glyph-name="Delta" unicode="&#x2206;" horiz-adv-x="739" 
d="M369 725l354 -725h-708zM369 567l-238 -497h476z" />
    <glyph glyph-name="Omega" unicode="&#x3a9;" horiz-adv-x="822" 
d="M412 738q67 0 131 -20.5t114 -60.5t80.5 -99.5t30.5 -138.5q0 -57 -18 -104.5t-47.5 -84t-67 -61.5t-76.5 -37v-62h193v-70h-271v179q48 8 87 29.5t66.5 53t42.5 72.5t15 89q0 58 -22 105t-60 80t-89 50.5t-109 17.5t-109 -17.5t-89.5 -50.5t-60.5 -80t-22 -105
q0 -48 15 -89t42.5 -72.5t66.5 -53t87 -29.5v-179h-270v70h193v62q-39 12 -76.5 37t-67.5 61.5t-48 84t-18 104.5q0 79 30.5 138.5t81 99.5t114.5 60.5t131 20.5z" />
    <glyph glyph-name="Omega" unicode="&#x2126;" horiz-adv-x="822" 
d="M412 738q67 0 131 -20.5t114 -60.5t80.5 -99.5t30.5 -138.5q0 -57 -18 -104.5t-47.5 -84t-67 -61.5t-76.5 -37v-62h193v-70h-271v179q48 8 87 29.5t66.5 53t42.5 72.5t15 89q0 58 -22 105t-60 80t-89 50.5t-109 17.5t-109 -17.5t-89.5 -50.5t-60.5 -80t-22 -105
q0 -48 15 -89t42.5 -72.5t66.5 -53t87 -29.5v-179h-270v70h193v62q-39 12 -76.5 37t-67.5 61.5t-48 84t-18 104.5q0 79 30.5 138.5t81 99.5t114.5 60.5t131 20.5z" />
    <glyph glyph-name="pi" unicode="&#x3c0;" horiz-adv-x="662" 
d="M112 0v468h-75v70h578v-70h-77v-324q0 -24 1 -39.5t7.5 -24t19.5 -11.5t37 -3h14v-66h-35q-36 0 -59 5t-36.5 19.5t-18.5 40.5t-5 67v336h-276v-468h-75z" />
    <glyph glyph-name="Euro" unicode="&#x20ac;" horiz-adv-x="800" 
d="M261 266q14 -112 61.5 -177.5t123.5 -65.5q45 0 77 14.5t53.5 41t34 64t18.5 84.5l123 -1q-11 -59 -39 -104t-68.5 -75t-91.5 -45t-107 -15q-66 0 -120 19.5t-94.5 56t-66.5 88t-38 115.5h-132l40 62h85q-1 9 -1 18.5v19.5v25.5t2 25.5h-126l40 61h95q26 124 108 194
t209 70q56 0 106 -15.5t90 -46t67 -75t38 -102.5l-122 -1q-5 46 -17 83.5t-33 64.5t-53 41.5t-76 14.5q-75 0 -122 -60.5t-63 -167.5h248l-40 -61h-214q-1 -13 -1 -25.5v-25.5v-19.5t1 -18.5h172l-40 -62h-127z" />
    <glyph glyph-name="fi" unicode="&#xfb01;" horiz-adv-x="741" 
d="M325 739q-8 11 -12.5 14t-14.5 3q-14 0 -35.5 -9.5t-36.5 -34.5t-16.5 -67t24.5 -107h163v-44h-160v-350q0 -42 2.5 -65t14 -35t34 -16.5t61.5 -7.5v-20h-318v18q30 3 46 9t23.5 19t9 36t1.5 62v350h-80v44h80v5q0 55 19.5 102t53.5 81.5t79 54.5t96 20q46 0 76.5 -23.5
t30.5 -55.5q0 -27 -18.5 -42t-41.5 -15q-12 0 -21 4t-17 15l-43 55v0zM637 144q0 -39 1.5 -62t9 -36t23.5 -19t46 -9v-18h-286v18q30 3 46 9t23.5 19t9 36t1.5 62v210q0 40 -2 61.5t-10.5 32t-24.5 12.5t-43 3v17l209 67q-1 -40 -2 -92t-1 -129v-182zM568 656
q-34 0 -58 23.5t-24 57.5q0 33 24 56t58 23q35 0 58.5 -23t23.5 -56q0 -34 -23.5 -57.5t-58.5 -23.5z" />
    <glyph glyph-name="fl" unicode="&#xfb02;" horiz-adv-x="771" 
d="M325 739q-8 11 -12.5 14t-14.5 3q-14 0 -35.5 -9.5t-36.5 -34.5t-16.5 -67t24.5 -107h163v-44h-160v-350q0 -42 2.5 -65t14 -35t34 -16.5t61.5 -7.5v-20h-318v18q30 3 46 9t23.5 19t9 36t1.5 62v350h-80v44h80v5q0 55 19.5 102t53.5 81.5t79 54.5t96 20q46 0 76.5 -23.5
t30.5 -55.5q0 -27 -18.5 -42t-41.5 -15q-12 0 -21 4t-17 15l-43 55v0zM544 643q0 35 -2 54t-10.5 28t-24.5 11t-43 3v17l209 67q-1 -40 -2 -92t-1 -129v-458q0 -39 1.5 -62t9 -36t23.5 -19t46 -9v-18h-286v18q30 3 46 9t23.5 19t9 36t1.5 62v499v0z" />
    <glyph glyph-name="breve" unicode="&#x2d8;" horiz-adv-x="334" 
d="M167 663q46 0 68.5 26t25.5 73h51q0 -25 -8.5 -50t-26 -45.5t-45 -33t-65.5 -12.5t-65 12.5t-45 33t-26.5 45.5t-8.5 50h51q4 -47 26 -73t68 -26z" />
    <glyph glyph-name="caron" unicode="&#x2c7;" horiz-adv-x="373" 
d="M180 603l-158 169h19l145 -73l145 73h20l-158 -169h-13z" />
    <glyph glyph-name="circumflex" unicode="&#x2c6;" horiz-adv-x="373" 
d="M351 603h-20l-145 73l-145 -73h-19l158 169h13z" />
    <glyph glyph-name="dotaccent" unicode="&#x2d9;" horiz-adv-x="179" 
d="M22 705q0 29 19.5 48t48.5 19t48 -19t19 -48q0 -30 -19 -49.5t-48 -19.5t-48.5 19.5t-19.5 49.5z" />
    <glyph glyph-name="dot" horiz-adv-x="336" 
d="M168 656q-34 0 -58 23.5t-24 57.5q0 33 24 56t58 23q35 0 58.5 -23t23.5 -56q0 -34 -23.5 -57.5t-58.5 -23.5z" />
    <glyph glyph-name="dotaccent.low" horiz-adv-x="162" 
d="M12 -155q0 29 19.5 48t48.5 19t48 -19t19 -48q0 -30 -19 -49.5t-48 -19.5t-48.5 19.5t-19.5 49.5z" />
    <glyph glyph-name="hungarumlaut" unicode="&#x2dd;" horiz-adv-x="458" 
d="M432 772l-197 -169h-16l69 169h144zM243 772l-197 -169h-16l69 169h144z" />
    <glyph glyph-name="commaaccent" horiz-adv-x="187" 
d="M38 -118q0 26 18.5 44.5t46.5 18.5q29 0 45.5 -19.5t16.5 -51.5q0 -29 -11 -56.5t-30 -52t-44 -44t-53 -32.5l-5 10q14 10 28 23.5t25.5 29t19 33t7.5 37.5q-26 1 -45 17.5t-19 42.5z" />
    <glyph glyph-name="ogonek" unicode="&#x2db;" horiz-adv-x="248" 
d="M226 -189q-22 -20 -50.5 -32t-56.5 -12q-18 0 -35 4.5t-31 15t-22.5 26.5t-8.5 39q0 22 12 43.5t31.5 40t44 35t50.5 30.5h18q-31 -21 -52.5 -54.5t-21.5 -67.5q0 -32 18 -51.5t47 -19.5q26 0 52 13z" />
    <glyph glyph-name="ring" unicode="&#x2da;" horiz-adv-x="227" 
d="M20 702q0 40 27 67t66 27t66.5 -27t27.5 -67q0 -19 -7.5 -36t-20 -29.5t-30 -20t-36.5 -7.5q-20 0 -36.5 7.5t-29.5 20t-20 29.5t-7 36zM59 702q0 -25 15 -40t39 -15q23 0 38.5 15t15.5 40t-15.5 41t-38.5 16q-24 0 -39 -16t-15 -41z" />
    <glyph glyph-name="tilde" unicode="&#x2dc;" horiz-adv-x="374" 
d="M27 636q0 23 5.5 47t16.5 44t29 32.5t43 12.5q21 0 41 -10t39 -21.5t36.5 -21.5t34.5 -10q27 0 40 14t15 46h19q0 -41 -8 -66.5t-20 -39.5t-27 -19.5t-31 -5.5q-25 0 -45.5 10t-39 21.5t-36 21.5t-37.5 10q-24 0 -39 -17t-17 -48h-19z" />
    <glyph glyph-name="caron.slovak" horiz-adv-x="243" 
d="M66 749q0 26 18.5 44.5t46.5 18.5q29 0 45.5 -19.5t16.5 -51.5q0 -29 -11 -56.5t-30 -52t-44 -44t-53 -32.5l-5 10q14 10 28 23.5t25.5 29t19 33t7.5 37.5q-26 1 -45 17.5t-19 42.5z" />
    <glyph glyph-name="uni032C" unicode="&#x32c;" horiz-adv-x="373" 
d="M175 -179l-153 179h19l145 -83l145 83h20l-153 -179h-23z" />
    <glyph glyph-name="zero.slashed" horiz-adv-x="680" 
d="M50 366q0 72 20.5 139.5t58 120t91 84.5t120.5 32t120.5 -32t91 -84.5t58 -120t20.5 -139.5t-20.5 -140t-58 -121.5t-91 -85.5t-120.5 -32t-120.5 32t-91 85.5t-58 121.5t-20.5 140zM190 366q0 -27 1.5 -54.5t3.5 -53.5l287 225q-5 45 -15.5 86t-27.5 71.5t-41.5 48.5
t-57.5 18q-44 0 -73 -30.5t-46 -79t-24 -109.5t-7 -122zM489 366q0 17 -0.5 34t-1.5 34l-286 -224q7 -39 18 -73t28 -59.5t40 -40t53 -14.5q43 0 72 30.5t46 79.5t24 110.5t7 122.5z" />
    <glyph glyph-name="one.pof" horiz-adv-x="457" 
d="M307 146q0 -39 2 -62t11.5 -36t29.5 -19.5t56 -10.5v-18h-341v19q42 4 65.5 9.5t35 18.5t13.5 36t2 62v305h-138v22q90 9 147 33.5t95 67.5h22v-427z" />
    <glyph glyph-name="two.pof" horiz-adv-x="518" 
d="M455 434q0 -30 -12.5 -57t-34 -53t-50 -52t-61.5 -53q-17 -14 -32 -27l-30 -26t-31.5 -26.5t-35.5 -28.5h310v-111h-466v11q74 64 132.5 117.5t99.5 99.5t63 86.5t22 78.5q0 48 -31 74t-85 26q-55 0 -91.5 -25t-47.5 -68h-27q6 37 23.5 68.5t45 54.5t64.5 36.5t81 13.5
q38 0 73 -8.5t62 -25.5t43 -43t16 -62z" />
    <glyph glyph-name="three.pof" horiz-adv-x="531" 
d="M24 10h19q10 -32 26.5 -59.5t39 -47.5t50 -31.5t59.5 -11.5q66 0 106 38.5t40 100.5q0 22 -8 51t-29.5 57.5t-59.5 52t-99 32.5v22l22 10q37 16 63 37t42.5 43.5t23.5 44.5t7 39q0 48 -31 75t-90 28q-58 0 -100 -33t-55 -90h-30q17 98 81.5 151.5t161.5 53.5
q37 0 71.5 -9t61 -26t42 -43t15.5 -59q0 -30 -15 -56.5t-37 -48t-48 -38.5t-48 -27v-3q41 -14 75.5 -34.5t59 -48t38 -61.5t13.5 -74q0 -54 -25 -96t-65 -71t-91.5 -44t-103.5 -15q-55 0 -105 9t-77 20v162z" />
    <glyph glyph-name="four.pof" horiz-adv-x="628" 
d="M344 -166v166h-320v57l338 499h108v-459h123v-97h-123v-166h-126zM344 450l-240 -353h240v353z" />
    <glyph glyph-name="five.pof" horiz-adv-x="520" 
d="M175 556h310l-36 -116h-272l-38 -107q164 -19 250.5 -89t86.5 -176q0 -59 -23 -105t-61.5 -78t-88.5 -49t-104 -17q-52 0 -101 10t-78 23v165h19q21 -76 67.5 -116.5t106.5 -40.5q31 0 57 11.5t45 31.5t29.5 48t10.5 61q0 39 -15 74.5t-49.5 65t-91 49.5t-140.5 27z" />
    <glyph glyph-name="six.pof" horiz-adv-x="626" 
d="M319 -13q-63 0 -112.5 21.5t-84 60.5t-53 94t-18.5 123q0 90 37.5 167t101 137.5t148 102t177.5 61.5l7 -26q-137 -41 -219 -121.5t-105 -202.5q29 37 71 59t93 22q43 0 82 -15.5t68 -45t46 -72t17 -96.5q0 -56 -20 -105t-54.5 -85.5t-81.5 -57.5t-100 -21zM308 415
q-30 0 -61.5 -11t-53.5 -31q-2 -17 -3 -34t-1 -34q0 -55 7 -106t23 -90t41 -62.5t61 -23.5q32 0 54.5 15t37 40.5t21 60.5t6.5 74q0 40 -8 76.5t-24 64.5t-41 44.5t-59 16.5z" />
    <glyph glyph-name="seven.pof" horiz-adv-x="523" 
d="M15 556h508v-75l-388 -668l-81 53l406 574h-445v116z" />
    <glyph glyph-name="eight.pof" horiz-adv-x="618" 
d="M301 -13q-48 0 -93.5 11.5t-80.5 35t-56 59.5t-21 85q0 31 12.5 59t33.5 51t49.5 41t61.5 30q-57 35 -91 83.5t-34 110.5q0 43 18.5 77.5t50 58.5t73 37t88.5 13q44 0 84 -10t70.5 -29.5t48.5 -48.5t18 -67q0 -30 -12.5 -55.5t-33.5 -46t-48 -36t-55 -27.5l2 -1
q37 -18 70 -38t58 -46t39.5 -58.5t14.5 -74.5q0 -52 -22.5 -92t-59.5 -67t-85 -41t-100 -14zM146 182q0 -34 9.5 -63t29 -50t48.5 -32.5t68 -11.5q80 0 120 35.5t40 87.5q0 27 -9 48t-26.5 39t-42.5 33.5t-58 31.5l-73 35l-18 9q-42 -23 -65 -64.5t-23 -97.5zM443 579
q0 65 -37 94.5t-95 29.5q-61 0 -95 -30.5t-34 -75.5q0 -46 32.5 -79t94.5 -62l49 -25q37 23 61 58.5t24 89.5z" />
    <glyph glyph-name="nine.pof" horiz-adv-x="626" 
d="M306 573q63 0 113 -21.5t84.5 -60.5t53 -94t18.5 -123q0 -90 -37.5 -167t-101.5 -137.5t-148 -102.5t-178 -61l-7 26q137 41 219 121.5t106 202.5q-29 -38 -71 -59.5t-93 -21.5q-44 0 -82.5 16t-67.5 46t-46 73.5t-17 97.5q0 56 20 104.5t54.5 84t81 56t99.5 20.5z
M318 145q29 0 61 10.5t54 30.5q2 17 3 34t1 35q0 55 -7.5 106t-23 90t-40.5 62.5t-61 23.5q-32 0 -55 -15t-37 -40.5t-20.5 -60.5t-6.5 -74q0 -40 8 -76.5t24 -64.5t41 -44.5t59 -16.5z" />
    <glyph glyph-name="zero.pof" horiz-adv-x="664" 
d="M329 573q59 0 111 -21.5t91 -60.5t62 -92.5t23 -117.5q0 -60 -21 -113t-58.5 -93.5t-89.5 -64t-113 -23.5q-60 0 -112 22t-90.5 61.5t-61 94t-22.5 119.5q0 58 20.5 110t58 92t89 63.5t113.5 23.5zM320 536q-36 0 -61 -17t-41.5 -46t-24 -69t-7.5 -86q0 -38 8 -88.5
t26.5 -96.5t49.5 -77.5t77 -31.5q35 0 59.5 17.5t40.5 48t23 70.5t7 85q0 37 -7.5 87t-26 95.5t-48.5 77t-75 31.5z" />
    <glyph glyph-name="zero.slashed.pof" horiz-adv-x="664" 
d="M329 573q59 0 111 -21.5t91 -60.5t62 -92.5t23 -117.5q0 -60 -21 -113t-58.5 -93.5t-89.5 -64t-113 -23.5q-60 0 -112 22t-90.5 61.5t-61 94t-22.5 119.5q0 58 20.5 110t58 92t89 63.5t113.5 23.5zM477 245q0 21 -2.5 47t-7.5 54l-266 -152q7 -32 19.5 -62.5t30.5 -54.5
t41.5 -38.5t54.5 -14.5q35 0 59.5 17.5t40.5 48t23 70.5t7 85zM320 536q-36 0 -61 -17t-41.5 -46t-24 -69t-7.5 -86q0 -18 1.5 -39.5t5.5 -44.5l265 150q-8 30 -20.5 57.5t-29.5 48.5t-39 33.5t-49 12.5z" />
    <glyph glyph-name="one.tlf" 
d="M401 146q0 -39 2 -62t11.5 -36t29.5 -19.5t56 -10.5v-18h-341v19q42 4 65.5 9.5t35 18.5t13.5 36t2 62v467h-138v23q90 9 147 33t95 68h22v-590z" />
    <glyph glyph-name="two.tlf" 
d="M557 561q0 -39 -9.5 -71t-31.5 -65.5t-57 -72t-86 -90.5q-36 -37 -72.5 -73t-74.5 -72h351v-117h-514v14q112 102 183.5 178.5t112 135.5t55.5 104t15 84q0 69 -36.5 104t-98.5 35q-61 0 -103.5 -30.5t-56.5 -87.5h-30q17 98 80 151.5t163 53.5q42 0 80 -11.5t67 -34
t46 -56.5t17 -79z" />
    <glyph glyph-name="three.tlf" 
d="M293 -13q-52 0 -100.5 10.5t-77.5 23.5v175h19q20 -84 67 -126t106 -42q33 0 60 10.5t46.5 29t30 44t10.5 56.5q0 22 -7.5 51t-29 57.5t-60 52t-99.5 32.5v22l23 10q37 16 63 37t42 43.5t23.5 44.5t7.5 39q0 47 -31 73t-90 26q-55 0 -98.5 -31t-56.5 -88h-30
q17 98 81 151.5t162 53.5q37 0 71.5 -9t61 -26t42 -43t15.5 -59q0 -30 -15 -56.5t-37.5 -48t-48.5 -38.5t-48 -27v-3q42 -14 76 -34.5t59 -48t38.5 -61.5t13.5 -74q0 -54 -25.5 -96t-66.5 -71t-93 -44.5t-104 -15.5z" />
    <glyph glyph-name="four.tlf" 
d="M363 0v184h-320v59l339 482h108v-436h123v-105h-123v-184h-127zM363 620l-233 -331h233v331z" />
    <glyph glyph-name="five.tlf" 
d="M242 725h322l-36 -116h-284l-39 -110q174 -16 261.5 -86t87.5 -176q0 -59 -23 -105.5t-61.5 -78.5t-88.5 -49t-104 -17q-52 0 -100.5 10.5t-77.5 23.5v175h19q20 -84 67 -126t106 -42q31 0 57 10.5t44.5 30t28.5 46.5t10 60q0 39 -15 75t-50.5 65t-94.5 49.5t-147 27.5z
" />
    <glyph glyph-name="six.tlf" 
d="M337 -13q-63 0 -113 21.5t-84.5 60.5t-53 94t-18.5 123q0 90 37.5 167t101 137.5t148 102t177.5 61.5l8 -26q-137 -41 -219.5 -121.5t-105.5 -202.5q29 37 71 59t93 22q44 0 82.5 -15.5t67.5 -45t46 -72t17 -96.5q0 -56 -20 -105t-54.5 -85.5t-81 -57.5t-99.5 -21z
M325 415q-30 0 -61.5 -11t-53.5 -31q-2 -17 -3 -34t-1 -34q0 -55 7 -106t23 -90t41 -62.5t61 -23.5q32 0 54.5 15t37 40.5t21 60.5t6.5 74q0 40 -8 76.5t-24 64.5t-41 44.5t-59 16.5z" />
    <glyph glyph-name="seven.tlf" 
d="M89 725h505v-117q-67 -64 -122.5 -128.5t-95 -136.5t-61.5 -156t-21 -187h-142q3 114 40.5 205t95 164t128.5 131.5t141 108.5h-468v116z" />
    <glyph glyph-name="eight.tlf" 
d="M331 -13q-50 0 -96.5 11.5t-82 35t-57 59.5t-21.5 85q0 32 13 60t34.5 51t51 41t62.5 30q-58 35 -93.5 83.5t-35.5 111.5q0 43 19 77.5t51 58.5t75 37t91 13q45 0 85.5 -10t72 -29.5t50 -48.5t18.5 -67q0 -31 -13 -56.5t-34.5 -46t-49 -36t-56.5 -27.5l2 -1
q38 -18 72 -38.5t59.5 -46.5t40.5 -58t15 -74q0 -53 -23 -93t-61 -67t-87.5 -41t-101.5 -14zM172 182q0 -34 10 -63t30 -50t49.5 -32.5t69.5 -11.5q81 0 122.5 35.5t41.5 87.5q0 27 -9.5 48.5t-27.5 39.5t-44 33.5t-59 31.5l-75 35l-18 8q-43 -22 -66.5 -63.5t-23.5 -98.5z
M476 580q0 66 -37.5 95t-97.5 29q-63 0 -98 -30.5t-35 -75.5q0 -46 33.5 -79t96.5 -62l51 -25q37 23 62 58.5t25 89.5z" />
    <glyph glyph-name="nine.tlf" 
d="M335 742q63 0 113 -21.5t84.5 -60.5t53 -94.5t18.5 -123.5q0 -90 -37.5 -166.5t-101 -137t-148 -102.5t-177.5 -62l-8 26q137 41 219 121.5t106 203.5q-29 -38 -71 -60t-93 -22q-44 0 -82.5 16t-67.5 46.5t-46 73.5t-17 97q0 56 20 104.5t54.5 84.5t81 56.5t99.5 20.5z
M347 314q29 0 61 10.5t54 30.5q2 17 3 34t1 35q0 55 -7 106t-23 90t-41 62.5t-61 23.5q-32 0 -55 -15t-37 -41t-20.5 -61t-6.5 -74q0 -40 8 -76.5t24 -64t41 -44t59 -16.5z" />
    <glyph glyph-name="zero.tlf" 
d="M190 366q0 -61 7 -122.5t24 -110.5t46 -79.5t73 -30.5q43 0 72 30.5t46 79.5t24 110.5t7 122.5t-7 122t-24 109.5t-46 79t-72 30.5q-44 0 -73 -30.5t-46 -79t-24 -109.5t-7 -122zM50 366q0 72 20.5 139.5t58 120t91 84.5t120.5 32t120.5 -32t91 -84.5t58 -120
t20.5 -139.5t-20.5 -140t-58 -121.5t-91 -85.5t-120.5 -32t-120.5 32t-91 85.5t-58 121.5t-20.5 140z" />
    <glyph glyph-name="zero.slashed.tlf" 
d="M49 366q0 72 20.5 139.5t58 120t91 84.5t120.5 32t120.5 -32t91 -84.5t58 -120t20.5 -139.5t-20.5 -140t-58 -121.5t-91 -85.5t-120.5 -32t-120.5 32t-91 85.5t-58 121.5t-20.5 140zM189 366q0 -26 1 -51.5t4 -51.5l287 225q-6 45 -16.5 84.5t-27.5 69.5t-41 47.5
t-57 17.5q-44 0 -73 -30.5t-46 -79t-24 -109.5t-7 -122zM488 366q0 37 -3 73l-285 -224q6 -40 17.5 -75t28 -61t40 -41t53.5 -15q43 0 72 30.5t46 79.5t24 110.5t7 122.5z" />
    <glyph glyph-name="one.case" horiz-adv-x="524" 
d="M347 146q0 -39 2 -62t11.5 -36t29.5 -19.5t56 -10.5v-18h-352v19q42 4 65.5 9.5t35 18.5t13.5 36t2 62v476h-137v22q87 9 148.5 32.5t103.5 67.5h22v-597z" />
    <glyph glyph-name="two.case" horiz-adv-x="639" 
d="M304 745q57 0 104 -12.5t80 -36t51 -57t18 -74.5q0 -45 -18 -86t-50.5 -81.5t-77 -81.5t-96.5 -86l-127 -108h378v-122h-556v25q207 160 302 289.5t95 221.5q0 42 -12 70t-32.5 45.5t-47.5 25t-56 7.5q-36 0 -67.5 -12.5t-56.5 -34t-41.5 -51.5t-21.5 -65h-38
q5 47 25.5 88t55 71t82.5 47.5t107 17.5z" />
    <glyph glyph-name="three.case" horiz-adv-x="652" 
d="M57 252h19q28 -108 81.5 -168.5t129.5 -60.5q63 0 104.5 43t41.5 128q0 40 -11 73.5t-34 57.5t-58.5 37.5t-84.5 13.5h-22l4 31h16q81 0 125 42t44 106q0 32 -10.5 56t-29.5 40.5t-44 24.5t-54 8q-78 0 -123.5 -43t-58.5 -115l-37 6q7 46 27.5 85t54.5 67.5t80.5 44.5
t106.5 16q43 0 85.5 -10t76.5 -30t55 -49.5t21 -69.5q0 -35 -13 -63.5t-35.5 -51t-52 -39t-63.5 -26.5v-2q39 -8 73.5 -24.5t60 -41.5t40.5 -58.5t15 -75.5q0 -49 -22.5 -89t-63 -68.5t-96 -44t-120.5 -15.5q-63 0 -114.5 8.5t-96.5 24.5z" />
    <glyph glyph-name="four.case" horiz-adv-x="684" 
d="M369 0v187h-349v77l367 461h119v-426h128v-112h-128v-187h-137zM369 626l-262 -327h262v327z" />
    <glyph glyph-name="five.case" horiz-adv-x="664" 
d="M282 424q-47 0 -90.5 -25.5t-69.5 -79.5l-42 13l68 393h428l-19 -121h-387l-41 -214q27 43 81.5 69.5t123.5 26.5q49 0 97.5 -15.5t86 -46.5t61 -76.5t23.5 -106.5q0 -56 -23.5 -102.5t-65 -80t-99 -52.5t-126.5 -19q-68 0 -120 11t-91 28l-19 213h21q13 -38 31.5 -76.5
t43.5 -69.5t57.5 -50.5t75.5 -19.5q37 0 67 14.5t50.5 41t31.5 63t11 81.5q0 99 -46 150t-119 51z" />
    <glyph glyph-name="six.case" horiz-adv-x="703" 
d="M356 -13q-67 0 -120 20.5t-90.5 58.5t-57.5 93.5t-20 125.5q0 89 40 166t106 137.5t151 103.5t175 64l14 -34q-133 -43 -216.5 -121.5t-107.5 -200.5q30 40 75.5 64.5t106.5 24.5q46 0 87 -15.5t71 -45t47.5 -71.5t17.5 -96q0 -55 -22.5 -105t-61 -87.5t-89 -59.5
t-106.5 -22zM345 411q-31 0 -65 -13t-55 -34q-3 -29 -3 -59q0 -55 7 -106t23.5 -90t43.5 -62.5t67 -23.5q31 0 53.5 15t37.5 41.5t22.5 63.5t7.5 81q0 39 -9 73.5t-26.5 59.5t-43.5 39.5t-60 14.5z" />
    <glyph glyph-name="seven.case" horiz-adv-x="561" 
d="M20 725h521v-122q-68 -63 -123 -127t-94.5 -136t-61 -155.5t-22.5 -184.5h-156q3 113 41 203t97.5 162.5t133.5 131t148 107.5h-484v121z" />
    <glyph glyph-name="eight.case" horiz-adv-x="686" 
d="M334 -13q-53 0 -101.5 12t-85.5 35.5t-59.5 59.5t-22.5 84q0 32 13 59.5t35 50.5t52 40.5t64 29.5q-58 35 -94 84.5t-36 112.5q0 43 19.5 78.5t53 60t78.5 38t95 13.5q47 0 89.5 -10t75 -29.5t52 -48.5t19.5 -67q0 -30 -13.5 -55t-35.5 -45.5t-50 -36t-57 -27.5
q41 -19 77 -40t62.5 -47.5t41.5 -59t15 -75.5q0 -55 -24.5 -95.5t-64.5 -67.5t-91.5 -40.5t-106.5 -13.5zM168 182q0 -68 41.5 -112t124.5 -44q86 0 127 35.5t41 86.5q0 53 -40 87t-108 63l-74 34q-11 4 -23 11q-44 -22 -66.5 -64.5t-22.5 -96.5zM483 584q0 66 -38.5 94.5
t-100.5 28.5q-64 0 -102 -30t-38 -74t36 -76t97 -60l61 -29q38 24 61.5 59t23.5 87z" />
    <glyph glyph-name="nine.case" horiz-adv-x="661" 
d="M326 745q67 0 120 -20.5t90.5 -58.5t57.5 -93.5t20 -125.5q0 -89 -40 -166t-106 -138.5t-151 -104.5t-175 -64l-14 34q132 42 216 121.5t107 202.5q-29 -41 -75 -65t-106 -24q-47 0 -87.5 16.5t-70.5 47t-47.5 73.5t-17.5 97q0 55 22.5 104t61 85.5t89 57.5t106.5 21z
M337 321q31 0 64.5 12.5t55.5 34.5q3 28 3 59q0 55 -7 106t-23.5 90t-43.5 62.5t-67 23.5q-31 0 -53.5 -15t-37.5 -41.5t-22.5 -63.5t-7.5 -81q0 -39 9 -73.5t26.5 -59.5t43.5 -39.5t60 -14.5z" />
    <glyph glyph-name="zero.case" horiz-adv-x="748" 
d="M215 368q0 -67 7 -129.5t25 -110.5t48.5 -76.5t77.5 -28.5t78 28.5t49 76.5t25.5 110.5t7.5 129.5t-7.5 129t-25.5 109t-49 75.5t-78 28.5t-77.5 -28.5t-48.5 -75.5t-25 -109t-7 -129zM65 368q0 79 22 148t62.5 120t97 80t126.5 29t127.5 -29t98 -80t62.5 -120t22 -148
t-22 -148.5t-62.5 -121t-98 -81.5t-127.5 -30t-126.5 30t-97 81.5t-62.5 121t-22 148.5z" />
    <glyph glyph-name="zero.slashed.case" horiz-adv-x="748" 
d="M65 368q0 79 22 148t62.5 120t97 80t126.5 29t127.5 -29t98 -80t62.5 -120t22 -148t-22 -148.5t-62.5 -121t-98 -81.5t-127.5 -30t-126.5 30t-97 81.5t-62.5 121t-22 148.5zM533 368q0 19 -0.5 37.5t-1.5 36.5l-311 -189q5 -48 16 -90t29 -73t44.5 -49t63.5 -18
q47 0 78 28.5t49 76.5t25.5 110.5t7.5 129.5zM215 368v-34t1 -34l310 188q-5 47 -16 87.5t-29.5 70.5t-45 47t-62.5 17q-47 0 -77.5 -28.5t-48.5 -75.5t-25 -109t-7 -129z" />
    <glyph glyph-name="uni21B2" unicode="&#x21b2;" horiz-adv-x="800" 
d="M329 582l51 -54l-220 -216h515v413h75v-489h-592l222 -219l-51 -53l-309 309z" />
    <glyph glyph-name="uni21B3" unicode="&#x21b3;" horiz-adv-x="800" 
d="M780 273l-311 -309l-50 53l222 219h-591v489h75v-413h514l-220 216l50 54z" />
    <glyph glyph-name="uni21B0" unicode="&#x21b0;" horiz-adv-x="800" 
d="M675 -216v452h-517l222 -219l-51 -53l-309 309l309 309l51 -54l-220 -216h590v-528h-75z" />
    <glyph glyph-name="uni21B1" unicode="&#x21b1;" horiz-adv-x="800" 
d="M780 273l-311 -309l-50 53l222 219h-516v-452h-75v527h589l-220 217l50 54z" />
    <glyph glyph-name="uni2190" unicode="&#x2190;" horiz-adv-x="800" 
d="M329 582l51 -54l-220 -216h610v-76h-612l222 -219l-51 -53l-309 309z" />
    <glyph glyph-name="uni2191" unicode="&#x2191;" horiz-adv-x="800" 
d="M710 436l-55 -52l-217 221v-605h-75v605l-217 -221l-55 52l309 309z" />
    <glyph glyph-name="uni2192" unicode="&#x2192;" horiz-adv-x="800" 
d="M779 273l-311 -309l-50 53l222 219h-610v76h608l-220 216l50 54z" />
    <glyph glyph-name="uni2193" unicode="&#x2193;" horiz-adv-x="800" 
d="M91 289l55 52l217 -221v605h75v-605l217 221l55 -52l-309 -309z" />
    <glyph glyph-name="uni2196" unicode="&#x2196;" horiz-adv-x="800" 
d="M132 538h438v-72h-312l451 -452l-54 -53l-452 451v-312h-71v438z" />
    <glyph glyph-name="uni2197" unicode="&#x2197;" horiz-adv-x="800" 
d="M668 100h-72v312l-452 -451l-54 53l451 452h-311v72h438v-438z" />
    <glyph glyph-name="uni2198" unicode="&#x2198;" horiz-adv-x="800" 
d="M668 0h-438v72h312l-452 452l54 53l453 -451v312h71v-438z" />
    <glyph glyph-name="uni2199" unicode="&#x2199;" horiz-adv-x="800" 
d="M132 438h72v-312l452 451l54 -53l-451 -452h311v-72h-438v438z" />
    <glyph glyph-name="uni219E" unicode="&#x219e;" horiz-adv-x="800" 
d="M20 273l311 309l50 -54l-220 -216h140l271 270l51 -54l-219 -216h366v-76h-368l221 -219l-51 -53l-273 272h-140l222 -219l-50 -53z" />
    <glyph glyph-name="uni219F" unicode="&#x219f;" horiz-adv-x="800" 
d="M400 725l310 -309l-55 -52l-217 222v-141l272 -272l-55 -50l-217 221v-364h-75v365l-217 -222l-55 50l272 272v141l-217 -222l-55 52z" />
    <glyph glyph-name="uni21A0" unicode="&#x21a0;" horiz-adv-x="800" 
d="M780 273l-311 -309l-50 53l222 219h-140l-273 -272l-51 53l221 219h-368v76h366l-219 216l51 54l271 -270h140l-220 216l50 54z" />
    <glyph glyph-name="uni21A1" unicode="&#x21a1;" horiz-adv-x="800" 
d="M400 -20l-309 309l55 52l217 -222v141l-272 272l55 50l217 -222v365h75v-364l217 221l55 -50l-272 -272v-141l217 222l55 -52z" />
    <glyph glyph-name="uni21A2" unicode="&#x21a2;" horiz-adv-x="800" 
d="M329 582l51 -54l-220 -216h309l269 270l52 -54l-256 -255l256 -256l-52 -53l-272 272h-308l222 -219l-51 -53l-309 309z" />
    <glyph glyph-name="uni21A3" unicode="&#x21a3;" horiz-adv-x="800" 
d="M471 -36l-51 53l222 219h-308l-272 -272l-52 53l256 256l-256 255l52 54l269 -270h309l-220 216l51 54l309 -309z" />
    <glyph glyph-name="uni21A4" unicode="&#x21a4;" horiz-adv-x="800" 
d="M668 0v236h-509l222 -230l-52 -53l-309 315l309 314l52 -54l-220 -217h507v227h82v-538h-82z" />
    <glyph glyph-name="uni21A5" unicode="&#x21a5;" horiz-adv-x="800" 
d="M710 436l-55 -52l-217 222v-526h231v-80h-537v80h231v526l-217 -222l-55 52l309 309z" />
    <glyph glyph-name="uni21A6" unicode="&#x21a6;" horiz-adv-x="800" 
d="M132 0h-82v538h82v-227h507l-220 217l52 54l309 -314l-309 -312l-52 53l222 227h-509v-236z" />
    <glyph glyph-name="uni21A7" unicode="&#x21a7;" horiz-adv-x="800" 
d="M91 289l55 52l217 -222v526h-231v80h537v-80h-231v-526l217 222l55 -52l-310 -309z" />
    <glyph glyph-name="uni25A0" unicode="&#x25a0;" horiz-adv-x="800" 
d="M133 538h535v-538h-535v538z" />
    <glyph glyph-name="uni25A1" unicode="&#x25a1;" horiz-adv-x="800" 
d="M133 538h535v-538h-535v538zM197 64h408v411h-408v-411z" />
    <glyph glyph-name="uni25CB" unicode="&#x25cb;" horiz-adv-x="800" 
d="M122 268q0 58 22 108.5t59.5 88.5t88 60t108.5 22t108.5 -22t88.5 -60t60 -88.5t22 -108.5t-22 -109t-60 -89.5t-88.5 -60.5t-108.5 -22t-108.5 22t-88 60.5t-59.5 89.5t-22 109zM400 48q44 0 83 17t68 46.5t45.5 69.5t16.5 87t-16.5 87t-45.5 69t-68 45.5t-83 16.5
t-82.5 -16.5t-67.5 -45.5t-45.5 -69t-16.5 -87q0 -45 16.5 -85t45.5 -70t67.5 -47.5t82.5 -17.5z" />
    <glyph glyph-name="uni25CF" unicode="&#x25cf;" horiz-adv-x="800" 
d="M122 268q0 58 22 108.5t59.5 88.5t88 60t108.5 22t108.5 -22t88.5 -60t60 -88.5t22 -108.5t-22 -109t-60 -89.5t-88.5 -60.5t-108.5 -22t-108.5 22t-88 60.5t-59.5 89.5t-22 109z" />
    <glyph glyph-name="onethird" unicode="&#x2153;" horiz-adv-x="921" 
d="M199 393q0 -21 1.5 -33t5.5 -19t12 -9.5t21 -4.5v-10h-188v10q19 1 30 4.5t16.5 11t7 21t1.5 35.5v267h-74v11q44 5 85 17.5t70 38.5h12v-340zM141 0l508 725h70l-508 -725h-70zM706 -6q-29 0 -56 5t-45 12v102h10q14 -44 39.5 -69.5t58.5 -25.5q35 0 57 22t22 55
q0 13 -5 29.5t-17 32t-32.5 28t-52.5 17.5v12l12 6q41 18 56.5 46t15.5 48q0 26 -17.5 39t-45.5 14q-32 0 -54 -17t-30 -48h-18q9 56 48 86t97 30q19 0 39 -4.5t35.5 -14.5t25.5 -24.5t10 -33.5q0 -18 -9.5 -32.5t-22.5 -25.5t-28 -18.5t-25 -11.5v-2q46 -14 77.5 -46.5
t31.5 -78.5q0 -32 -15 -56.5t-40 -41.5t-57 -25.5t-65 -8.5z" />
    <glyph glyph-name="uni2155" unicode="&#x2155;" horiz-adv-x="906" 
d="M199 393q0 -21 1.5 -33t5.5 -19t12 -9.5t21 -4.5v-10h-188v10q19 1 30 4.5t16.5 11t7 21t1.5 35.5v267h-74v11q44 5 85 17.5t70 38.5h12v-340zM141 0l508 725h70l-508 -725h-70zM683 408h184l-23 -81h-166l-17 -47q46 0 84 -9t65.5 -27.5t42.5 -46t15 -62.5
q0 -33 -13 -59t-35.5 -44.5t-52.5 -28t-63 -9.5q-29 0 -56 5t-45 12v102h10q14 -44 39 -69.5t58 -25.5q36 0 53 20.5t17 53.5q0 26 -11 48t-32.5 37t-53.5 22.5t-73 5.5z" />
    <glyph glyph-name="uni2159" unicode="&#x2159;" horiz-adv-x="955" 
d="M199 393q0 -21 1.5 -33t5.5 -19t12 -9.5t21 -4.5v-10h-188v10q19 1 30 4.5t16.5 11t7 21t1.5 35.5v267h-74v11q44 5 85 17.5t70 38.5h12v-340zM141 0l508 725h70l-508 -725h-70zM762 -7q-68 0 -111.5 41.5t-43.5 120.5q0 54 25.5 99t66 79.5t90.5 58.5t100 36l6 -16
q-32 -12 -61.5 -29.5t-54.5 -41t-43 -52.5t-26 -64q14 22 36.5 36t56.5 14q23 0 44 -9t37 -26t25.5 -41t9.5 -53q0 -33 -12.5 -61.5t-33.5 -48.5t-49.5 -31.5t-61.5 -11.5zM757 227q-13 0 -27.5 -5.5t-23.5 -14.5q-2 -8 -2 -17.5v-18.5q0 -31 3 -59.5t10 -50.5t18.5 -35.5
t28.5 -13.5t28.5 9.5t18 25t9.5 35.5t3 40q0 53 -19.5 79t-46.5 26z" />
    <glyph glyph-name="oneeighth" unicode="&#x215b;" horiz-adv-x="940" 
d="M199 393q0 -21 1.5 -33t5.5 -19t12 -9.5t21 -4.5v-10h-188v10q19 1 30 4.5t16.5 11t7 21t1.5 35.5v267h-74v11q44 5 85 17.5t70 38.5h12v-340zM141 0l508 725h70l-508 -725h-70zM751 -7q-30 0 -56.5 6.5t-46.5 20t-32 33t-12 46.5q0 34 24 58t59 38q-28 20 -46.5 47.5
t-18.5 64.5q0 25 11 45.5t29 35t42.5 22t51.5 7.5q25 0 48 -5.5t41 -16t28.5 -26.5t10.5 -37q0 -32 -24.5 -54.5t-55.5 -34.5q45 -21 74 -49.5t29 -77.5q0 -30 -13.5 -52.5t-35.5 -38.5t-50 -24t-57 -8zM662 101q0 -39 22 -62.5t67 -23.5q47 0 66 19t19 43q0 32 -23 50.5
t-56 32.5l-36 16l-20 10q-23 -13 -31 -36t-8 -49zM829 329q0 37 -20 51.5t-52 14.5q-33 0 -50 -15.5t-17 -38.5q0 -22 14 -40t54 -37l33 -15q38 27 38 80z" />
    <glyph glyph-name="twothirds" unicode="&#x2154;" horiz-adv-x="972" 
d="M291 630q0 -23 -9 -43.5t-23.5 -40t-33.5 -37.5t-39 -36l-85 -74h193v-82h-295v7q45 44 81.5 81.5t63 71.5t41 66.5t14.5 68.5q0 35 -20 53.5t-52 18.5q-35 0 -56.5 -17t-29.5 -48h-18q11 56 47 86t98 30q25 0 47.5 -7t39 -20t26.5 -33t10 -45zM192 0l508 725h70
l-508 -725h-70zM757 -6q-29 0 -56 5t-45 12v102h10q14 -44 39.5 -69.5t58.5 -25.5q35 0 57 22t22 55q0 13 -5 29.5t-17 32t-32.5 28t-52.5 17.5v12l12 6q41 18 56.5 46t15.5 48q0 26 -17.5 39t-45.5 14q-32 0 -54 -17t-30 -48h-18q9 56 48 86t97 30q19 0 39 -4.5t35.5 -14.5
t25.5 -24.5t10 -33.5q0 -18 -9.5 -32.5t-22.5 -25.5t-28 -18.5t-25 -11.5v-2q46 -14 77.5 -46.5t31.5 -78.5q0 -32 -15 -56.5t-40 -41.5t-57 -25.5t-65 -8.5z" />
    <glyph glyph-name="uni2156" unicode="&#x2156;" horiz-adv-x="957" 
d="M291 630q0 -23 -9 -43.5t-23.5 -40t-33.5 -37.5t-39 -36l-85 -74h193v-82h-295v7q45 44 81.5 81.5t63 71.5t41 66.5t14.5 68.5q0 35 -20 53.5t-52 18.5q-35 0 -56.5 -17t-29.5 -48h-18q11 56 47 86t98 30q25 0 47.5 -7t39 -20t26.5 -33t10 -45zM192 0l508 725h70
l-508 -725h-70zM734 408h184l-23 -81h-166l-17 -47q46 0 84 -9t65.5 -27.5t42.5 -46t15 -62.5q0 -33 -13 -59t-35.5 -44.5t-52.5 -28t-63 -9.5q-29 0 -56 5t-45 12v102h10q14 -44 39 -69.5t58 -25.5q36 0 53 20.5t17 53.5q0 26 -11 48t-32.5 37t-53.5 22.5t-73 5.5z" />
    <glyph glyph-name="uni2157" unicode="&#x2157;" horiz-adv-x="967" 
d="M136 311q-29 0 -56 5t-45 12v102h10q14 -44 39.5 -69.5t58.5 -25.5q35 0 57 22t22 55q0 13 -5 29.5t-17 32t-32.5 28t-52.5 17.5v12l12 6q41 18 56.5 46t15.5 48q0 26 -17.5 39t-45.5 14q-32 0 -54 -17t-30 -48h-18q9 56 48 86t97 30q19 0 39 -4.5t35.5 -14.5t25.5 -24.5
t10 -33.5q0 -18 -9.5 -32.5t-22.5 -25.5t-28 -18.5t-25 -11.5v-2q46 -14 77.5 -46.5t31.5 -78.5q0 -32 -15 -56.5t-40 -41.5t-57 -25.5t-65 -8.5zM202 0l508 725h70l-508 -725h-70zM744 408h184l-23 -81h-166l-17 -47q46 0 84 -9t65.5 -27.5t42.5 -46t15 -62.5
q0 -33 -13 -59t-35.5 -44.5t-52.5 -28t-63 -9.5q-29 0 -56 5t-45 12v102h10q14 -44 39 -69.5t58 -25.5q36 0 53 20.5t17 53.5q0 26 -11 48t-32.5 37t-53.5 22.5t-73 5.5z" />
    <glyph glyph-name="threeeighths" unicode="&#x215c;" horiz-adv-x="1001" 
d="M136 311q-29 0 -56 5t-45 12v102h10q14 -44 39.5 -69.5t58.5 -25.5q35 0 57 22t22 55q0 13 -5 29.5t-17 32t-32.5 28t-52.5 17.5v12l12 6q41 18 56.5 46t15.5 48q0 26 -17.5 39t-45.5 14q-32 0 -54 -17t-30 -48h-18q9 56 48 86t97 30q19 0 39 -4.5t35.5 -14.5t25.5 -24.5
t10 -33.5q0 -18 -9.5 -32.5t-22.5 -25.5t-28 -18.5t-25 -11.5v-2q46 -14 77.5 -46.5t31.5 -78.5q0 -32 -15 -56.5t-40 -41.5t-57 -25.5t-65 -8.5zM202 0l508 725h70l-508 -725h-70zM812 -7q-30 0 -56.5 6.5t-46.5 20t-32 33t-12 46.5q0 34 24 58t59 38q-28 20 -46.5 47.5
t-18.5 64.5q0 25 11 45.5t29 35t42.5 22t51.5 7.5q25 0 48 -5.5t41 -16t28.5 -26.5t10.5 -37q0 -32 -24.5 -54.5t-55.5 -34.5q45 -21 74 -49.5t29 -77.5q0 -30 -13.5 -52.5t-35.5 -38.5t-50 -24t-57 -8zM723 101q0 -39 22 -62.5t67 -23.5q47 0 66 19t19 43q0 32 -23 50.5
t-56 32.5l-36 16l-20 10q-23 -13 -31 -36t-8 -49zM890 329q0 37 -20 51.5t-52 14.5q-33 0 -50 -15.5t-17 -38.5q0 -22 14 -40t54 -37l33 -15q38 27 38 80z" />
    <glyph glyph-name="uni2158" unicode="&#x2158;" horiz-adv-x="991" 
d="M192 317v92h-172v68l181 248h83v-241h62v-75h-62v-92h-92zM192 667l-134 -183h134v183zM226 0l508 725h70l-508 -725h-70zM768 408h184l-23 -81h-166l-17 -47q46 0 84 -9t65.5 -27.5t42.5 -46t15 -62.5q0 -33 -13 -59t-35.5 -44.5t-52.5 -28t-63 -9.5q-29 0 -56 5t-45 12
v102h10q14 -44 39 -69.5t58 -25.5q36 0 53 20.5t17 53.5q0 26 -11 48t-32.5 37t-53.5 22.5t-73 5.5z" />
    <glyph glyph-name="uni215A" unicode="&#x215a;" horiz-adv-x="1001" 
d="M113 725h184l-23 -81h-166l-17 -47q46 0 84 -9t65.5 -27.5t42.5 -46t15 -62.5q0 -33 -13 -59t-35.5 -44.5t-52.5 -28t-63 -9.5q-29 0 -56 5t-45 12v102h10q14 -44 39 -69.5t58 -25.5q36 0 53 20.5t17 53.5q0 26 -11 48t-32.5 37t-53.5 22.5t-73 5.5zM187 0l508 725h70
l-508 -725h-70zM808 -7q-68 0 -111.5 41.5t-43.5 120.5q0 54 25.5 99t66 79.5t90.5 58.5t100 36l6 -16q-32 -12 -61.5 -29.5t-54.5 -41t-43 -52.5t-26 -64q14 22 36.5 36t56.5 14q23 0 44 -9t37 -26t25.5 -41t9.5 -53q0 -33 -12.5 -61.5t-33.5 -48.5t-49.5 -31.5
t-61.5 -11.5zM803 227q-13 0 -27.5 -5.5t-23.5 -14.5q-2 -8 -2 -17.5v-18.5q0 -31 3 -59.5t10 -50.5t18.5 -35.5t28.5 -13.5t28.5 9.5t18 25t9.5 35.5t3 40q0 53 -19.5 79t-46.5 26z" />
    <glyph glyph-name="fiveeighths" unicode="&#x215d;" horiz-adv-x="986" 
d="M113 725h184l-23 -81h-166l-17 -47q46 0 84 -9t65.5 -27.5t42.5 -46t15 -62.5q0 -33 -13 -59t-35.5 -44.5t-52.5 -28t-63 -9.5q-29 0 -56 5t-45 12v102h10q14 -44 39 -69.5t58 -25.5q36 0 53 20.5t17 53.5q0 26 -11 48t-32.5 37t-53.5 22.5t-73 5.5zM187 0l508 725h70
l-508 -725h-70zM797 -7q-30 0 -56.5 6.5t-46.5 20t-32 33t-12 46.5q0 34 24 58t59 38q-28 20 -46.5 47.5t-18.5 64.5q0 25 11 45.5t29 35t42.5 22t51.5 7.5q25 0 48 -5.5t41 -16t28.5 -26.5t10.5 -37q0 -32 -24.5 -54.5t-55.5 -34.5q45 -21 74 -49.5t29 -77.5
q0 -30 -13.5 -52.5t-35.5 -38.5t-50 -24t-57 -8zM708 101q0 -39 22 -62.5t67 -23.5q47 0 66 19t19 43q0 32 -23 50.5t-56 32.5l-36 16l-20 10q-23 -13 -31 -36t-8 -49zM875 329q0 37 -20 51.5t-52 14.5q-33 0 -50 -15.5t-17 -38.5q0 -22 14 -40t54 -37l33 -15q38 27 38 80z
" />
    <glyph glyph-name="seveneighths" unicode="&#x215e;" horiz-adv-x="974" 
d="M20 725h296v-82q-36 -33 -64.5 -67.5t-48 -74t-31 -85t-13.5 -99.5h-103q2 61 23 110t54 88t75 70.5t87 58.5h-275v81zM175 0l508 725h70l-508 -725h-70zM785 -7q-30 0 -56.5 6.5t-46.5 20t-32 33t-12 46.5q0 34 24 58t59 38q-28 20 -46.5 47.5t-18.5 64.5q0 25 11 45.5
t29 35t42.5 22t51.5 7.5q25 0 48 -5.5t41 -16t28.5 -26.5t10.5 -37q0 -32 -24.5 -54.5t-55.5 -34.5q45 -21 74 -49.5t29 -77.5q0 -30 -13.5 -52.5t-35.5 -38.5t-50 -24t-57 -8zM696 101q0 -39 22 -62.5t67 -23.5q47 0 66 19t19 43q0 32 -23 50.5t-56 32.5l-36 16l-20 10
q-23 -13 -31 -36t-8 -49zM863 329q0 37 -20 51.5t-52 14.5q-33 0 -50 -15.5t-17 -38.5q0 -22 14 -40t54 -37l33 -15q38 27 38 80z" />
    <glyph glyph-name="uni215F" unicode="&#x215f;" horiz-adv-x="570" 
d="M199 393q0 -21 1.5 -33t5.5 -19t12 -9.5t21 -4.5v-10h-188v10q19 1 30 4.5t16.5 11t7 21t1.5 35.5v267h-74v11q44 5 85 17.5t70 38.5h12v-340zM141 0l508 725h70l-508 -725h-70z" />
    <glyph glyph-name="fraction" unicode="&#x2044;" horiz-adv-x="280" 
d="M-149 0l508 725h70l-508 -725h-70z" />
    <glyph glyph-name="a.superior" horiz-adv-x="317" 
d="M268 519q-1 -28 4.5 -36.5t13.5 -8.5q14 0 25 14l7 -6q-13 -20 -29.5 -35t-42.5 -15q-22 0 -41 12.5t-21 47.5q-11 -23 -31 -42t-56 -19q-37 0 -60.5 22.5t-23.5 52.5q0 32 21.5 51.5t60.5 35.5q16 7 35.5 13.5t51.5 16.5l1 19q1 42 -9 61t-37 19q-49 0 -45 -80h-71
q3 25 15 45t30.5 33t41.5 20t48 7q22 0 42.5 -6t37 -19t26 -33.5t8.5 -50.5zM143 487q25 0 37 16l2 94q-23 -4 -39.5 -9.5t-27.5 -13.5q-21 -14 -21 -40q0 -22 14.5 -34.5t34.5 -12.5z" />
    <glyph glyph-name="b.superior" horiz-adv-x="356" 
d="M135 691q10 18 33 36.5t55 18.5q26 0 47 -12.5t36 -33t23 -47t8 -54.5q0 -39 -12 -70t-32.5 -53t-47 -33.5t-54.5 -11.5q-26 0 -49 7.5t-41 20.5l-51 -25h-9q1 24 1.5 48t0.5 48v255q0 18 -0.5 29t-4.5 16.5t-11.5 7.5t-21.5 3v9l132 40q-1 -22 -1.5 -53t-0.5 -73v-73z
M135 480q7 -13 20.5 -21t31.5 -8q29 0 43.5 28.5t14.5 76.5q0 24 -5 47.5t-15 42t-23.5 30t-31.5 11.5q-24 0 -35 -14v-193z" />
    <glyph glyph-name="c.superior" horiz-adv-x="285" 
d="M180 746q37 0 65.5 -17t28.5 -42q0 -15 -9.5 -25t-27.5 -10t-26 14l-27 45q-4 7 -7.5 9t-9.5 2q-29 0 -47 -26t-18 -75q0 -61 28.5 -93.5t71.5 -32.5q20 0 38 6t29 17l7 -5q-7 -15 -17.5 -29.5t-24.5 -26t-33 -19t-43 -7.5q-32 0 -57.5 11.5t-43.5 32t-27.5 49t-9.5 62.5
q0 32 12 61t33.5 51t51 35t63.5 13z" />
    <glyph glyph-name="d.superior" horiz-adv-x="363" 
d="M169 726q-29 0 -43 -28.5t-14 -76.5q0 -25 5 -48.5t15 -42t23.5 -29.5t31.5 -11q23 0 35 13v193q-7 13 -20.5 21.5t-32.5 8.5zM222 785q0 18 -1 29t-5 16.5t-12.5 7t-23.5 2.5v9l136 41q-1 -22 -1.5 -53t-0.5 -73v-230q0 -19 0.5 -30t4.5 -16.5t11.5 -7.5t21.5 -2v-9
l-120 -36l-8 56q-9 -18 -32 -38t-58 -20q-26 0 -47 12.5t-36 32.5t-23 46.5t-8 55.5q0 39 12 70t32 53t46.5 33.5t55.5 11.5t56 -11v50z" />
    <glyph glyph-name="e.superior" horiz-adv-x="307" 
d="M159 431q-33 0 -59 12t-43.5 32t-27 47.5t-9.5 58.5q0 36 11.5 66t32 52t47 34.5t56.5 12.5q59 0 90 -34.5t33 -85.5h-189v-12q0 -56 30 -87.5t77 -31.5q20 0 40.5 6.5t33.5 18.5l7 -6q-8 -14 -20 -28.5t-28 -26.5t-36.5 -20t-45.5 -8zM157 722q-22 0 -38 -18t-18 -56
h104q2 42 -13 58t-35 16z" />
    <glyph glyph-name="f.superior" horiz-adv-x="233" 
d="M195 883q39 0 53.5 -14t14.5 -32q0 -16 -11.5 -24.5t-25.5 -8.5q-15 0 -23 11l-25 33q-5 6 -8.5 7.5t-11.5 1.5t-16 -5t-13 -15.5t-4.5 -27t8.5 -40.5l10 -28h87v-28h-85v-199q0 -21 2 -33.5t8 -19t17 -9.5t30 -5v-9h-187v9q14 2 22 5t11.5 9.5t4 19t0.5 33.5v199h-38v28
h38v12q0 34 13.5 58.5t34.5 40.5t46 23.5t48 7.5z" />
    <glyph glyph-name="g.superior" horiz-adv-x="330" 
d="M30 643q0 25 10 44.5t27 32.5t39 19.5t47 6.5q16 0 30 -2.5t28 -7.5l120 5v-28l-85 1q30 -27 30 -71q0 -25 -10 -44.5t-26.5 -32.5t-39 -19.5t-47.5 -6.5q-11 0 -22 1t-22 4q-20 -18 -20 -35q0 -8 6 -14t29 -7l59 -2q30 -1 53.5 -4t39.5 -9.5t24.5 -18.5t8.5 -32
q0 -49 -47 -80.5t-125 -31.5q-54 0 -89 15.5t-35 43.5q0 19 21.5 29.5t59.5 18.5q-30 5 -44 20t-14 34q0 20 16 41t39 39q-27 11 -44 34t-17 57zM115 416h-4q-23 -8 -30.5 -19t-7.5 -20q0 -25 23 -33t52 -8q19 0 39 3t36 9t26 15t10 21q0 19 -18 23t-54 6zM112 643
q0 -37 9 -60.5t32 -23.5t32 23.5t9 60.5t-9 60.5t-32 23.5t-32 -23.5t-9 -60.5z" />
    <glyph glyph-name="h.superior" horiz-adv-x="357" 
d="M144 890q-1 -22 -2 -53t-1 -73v-77q5 10 13 20.5t19 19t25.5 14t33.5 5.5q35 0 58 -25t23 -82v-125q0 -21 0.5 -33.5t4 -19t11.5 -9.5t22 -5v-9h-162v9q12 2 18.5 5t9.5 9.5t3.5 19t0.5 33.5v109q0 63 -41 63q-14 0 -23 -4t-16 -11v-157q0 -21 0.5 -33.5t4.5 -19t12 -9.5
t22 -5v-9h-169v9q14 2 22 5t11.5 9.5t4 19t0.5 33.5v271q0 18 -0.5 29t-4.5 16.5t-11.5 7.5t-21.5 3v9l133 40v0z" />
    <glyph glyph-name="i.superior" horiz-adv-x="194" 
d="M145 514q0 -21 0.5 -33.5t4.5 -19t11.5 -9.5t21.5 -5v-9h-168v9q14 2 22 5t11.5 9.5t4 19t0.5 33.5v127q0 18 -0.5 29t-4.5 16.5t-11.5 7.5t-21.5 3v9l132 40q0 -22 -1 -53t-1 -73v-106zM95 784q-23 0 -39 16.5t-16 39.5q0 22 16 38t39 16t39 -16t16 -38q0 -23 -16 -39.5
t-39 -16.5z" />
    <glyph glyph-name="j.superior" horiz-adv-x="191" 
d="M97 784q-23 0 -39.5 16.5t-16.5 39.5q0 22 16.5 38t39.5 16t38.5 -16t15.5 -38q0 -23 -15.5 -39.5t-38.5 -16.5zM54 641q0 18 -0.5 29t-4.5 16.5t-11.5 7.5t-21.5 3v9l132 40q0 -22 -1 -53t-1 -73v-123q0 -45 -10 -76t-28.5 -52.5t-46 -37.5t-61.5 -31l-6 8q38 40 49 85
t11 95v153z" />
    <glyph glyph-name="k.superior" horiz-adv-x="370" 
d="M49 785q0 18 -0.5 29t-4.5 16.5t-11.5 7.5t-21.5 3v9l133 40q-1 -22 -2 -53t-1 -73v-250q0 -21 0.5 -33.5t4.5 -19t11.5 -9.5t21.5 -5v-9h-168v9q14 2 22 5t11.5 9.5t4 19t0.5 33.5v271zM199 447q26 3 29 10.5t-11 27.5l-75 115l83 82q8 7 15 15.5t8.5 15.5t-4.5 12
t-24 7v9h121v-9q-14 -1 -25 -4t-21 -8.5t-20 -14t-22 -20.5l-36 -37l109 -170q11 -17 22.5 -23t30.5 -8v-9h-180v9z" />
    <glyph glyph-name="l.superior" horiz-adv-x="196" 
d="M55 785q0 18 -0.5 29t-4.5 16.5t-11.5 7.5t-21.5 3v9l132 40q0 -22 -1 -53t-1 -73v-250q0 -21 0.5 -33.5t4 -19t11.5 -9.5t22 -5v-9h-168v9q14 2 21.5 5t11.5 9.5t4.5 19t0.5 33.5v271v0z" />
    <glyph glyph-name="m.superior" horiz-adv-x="530" 
d="M314 514q0 -21 0.5 -33.5t4 -19t11.5 -9.5t22 -5v-9h-162v9q12 2 18.5 5t9.5 9.5t3.5 19t0.5 33.5v109q0 63 -41 63q-25 0 -38 -15v-157q0 -21 0.5 -33.5t3.5 -19t9 -9.5t18 -5v-9h-161v9q14 2 21.5 5t11.5 9.5t4.5 19t0.5 33.5v127q0 18 -0.5 29t-4.5 16.5t-11.5 7.5
t-21.5 3v9l126 39l2 -58q13 21 33.5 40t58.5 19q26 0 46.5 -14.5t28.5 -46.5q14 21 36.5 41t59.5 20q35 0 58 -25t23 -82v-125q0 -21 0.5 -33.5t4 -19t11.5 -9.5t22 -5v-9h-161v9q11 2 17.5 5t9.5 9.5t3.5 19t0.5 33.5v109q0 63 -40 63q-12 0 -23.5 -3.5t-18.5 -11.5
q3 -15 3 -32v-125v0z" />
    </font>
</defs>
</svg>
